<mxfile host="app.diagrams.net" modified="2023-04-06T19:27:01.493Z" agent="Mozilla/5.0 (Windows NT 10.0; Win64; x64) AppleWebKit/537.36 (KHTML, like Gecko) Chrome/111.0.0.0 Safari/537.36" etag="xTz6X35kUh_3VqlFwUYk" version="21.1.4" type="github">
  <diagram name="Page-1" id="TFo8UIKDs1q_eOR9zlMx">
    <mxGraphModel dx="1900" dy="1673" grid="1" gridSize="10" guides="1" tooltips="1" connect="1" arrows="1" fold="1" page="1" pageScale="1" pageWidth="850" pageHeight="1100" math="0" shadow="0">
      <root>
        <mxCell id="0" />
        <mxCell id="1" parent="0" />
        <mxCell id="w4IspjLPt86XrDp9S-HF-1" value="" style="verticalLabelPosition=bottom;html=1;verticalAlign=top;align=center;strokeColor=none;fillColor=#00BEF2;shape=mxgraph.azure.bitbucket_code_source;" vertex="1" parent="1">
          <mxGeometry x="80" y="10" width="70" height="70" as="geometry" />
        </mxCell>
        <mxCell id="w4IspjLPt86XrDp9S-HF-2" value="Amazon S3" style="sketch=0;outlineConnect=0;fontColor=#232F3E;gradientColor=none;strokeColor=#ffffff;fillColor=#232F3E;dashed=0;verticalLabelPosition=middle;verticalAlign=bottom;align=center;html=1;whiteSpace=wrap;fontSize=10;fontStyle=1;spacing=3;shape=mxgraph.aws4.productIcon;prIcon=mxgraph.aws4.s3;" vertex="1" parent="1">
          <mxGeometry x="580" y="10" width="80" height="100" as="geometry" />
        </mxCell>
        <mxCell id="w4IspjLPt86XrDp9S-HF-3" value="" style="sketch=0;points=[[0,0,0],[0.25,0,0],[0.5,0,0],[0.75,0,0],[1,0,0],[0,1,0],[0.25,1,0],[0.5,1,0],[0.75,1,0],[1,1,0],[0,0.25,0],[0,0.5,0],[0,0.75,0],[1,0.25,0],[1,0.5,0],[1,0.75,0]];outlineConnect=0;fontColor=#232F3E;gradientColor=#F78E04;gradientDirection=north;fillColor=#D05C17;strokeColor=#ffffff;dashed=0;verticalLabelPosition=bottom;verticalAlign=top;align=center;html=1;fontSize=12;fontStyle=0;aspect=fixed;shape=mxgraph.aws4.resourceIcon;resIcon=mxgraph.aws4.lambda;" vertex="1" parent="1">
          <mxGeometry x="340.63" y="246" width="78" height="78" as="geometry" />
        </mxCell>
        <mxCell id="w4IspjLPt86XrDp9S-HF-4" value="" style="shape=image;verticalLabelPosition=bottom;labelBackgroundColor=default;verticalAlign=top;aspect=fixed;imageAspect=0;image=data:image/png,iVBORw0KGgoAAAANSUhEUgAAANkAAAEECAYAAAClaZEzAAAAAXNSR0IArs4c6QAAAARnQU1BAACxjwv8YQUAAAAJcEhZcwAAEnQAABJ0Ad5mH3gAALGrSURBVHhe7f0HgJ3XVe4Pr+m9q0uj3qut6m7LkntLHMchlZACuXAvcLkhBBIu/kO4F0II5ZIvCQmQENLsJO6Wq9wkq/deRl2j6b03feu3ztmjd45On3NGsuNHfj0zp7xl7/XsVfbaa6c0NjZelDBIT0+Xvr4++z0rK0tycnLs92jR1NTk/y08vNfh9/z8fPs9WrS1tQ1+PxxSU1Pl4sWLdoDi4mL7GS06Ozulu7vb/1dopKSk2LX6+/vtb56H54oWPAvPFA3e76OhuNr6KNX/MyQ4UUZGhv+v5IHrpKWl+f9KHgYGBqxxOZIJBIRrxdJp8eL9PooPI9VHEUkGenp6RkRYGFFG4jo07EiATkQwR+KZ3u+j+DASfZSiFwlrLjrwMdQwnRkLYlX1AFXPtWJBrKoe0LjRmmQO8ZhjtF1zc7P/r+jAs8Rqjr3fRz5cbX0UlSYDzn4dCXOBm4+1M+IB1xgJs4TzY87RfsnE+30UP5LZRzGdEbZjLiS7E7nOSNn/XGskOpHrcCSbaO/3UfxIVh/FdbaRssvddZLduM7RHgkCOIFJNt7vo/iQjD6K+46T7Sw6cB0adiQ6cSQI4Dox2cIC3u+j+JDoPhrWWUbKXGC05IGTLZg0LBgJAiAwI9F27/dR/EhUHw37TkfSLGEEG6lRLNnXAU4wk433+yh+JKKPEtLDI2WW8MCMLO+10XIkrvN+H8WP4fZR1PNkIFK6Co1LI3sRzxwMAhFubgRh4TreW49nDgaESymiYbmG9zrxzMGASClFtF1XV5evjfVnr9/M69H2Zt6L7/b16tHfJwP9Pt/Ewac99H5pf/0c79AWHNwvR3Z2tmTrfefn5dn7Xi3wfh/5EKmPuHfv+/wdzTxZQkkGAomWjA4EPCAjDAdIRgcCnocmctdJVAfSRhy9vb1Knl772aqfOX/unFSer5Ta2hpp1ntraGiQpsZGaWlpkdbWNmnXz0A67sd1HYTh2X1Eypa83DzJLyjQti+SkrIyGT16tIwdO1bGT5hgR2FhoT0X80J8b9SoUTGP1L8OfRQM3L/7DL9fEZIB740ki2TAS+hkdSDwdmIiOpB7blTyHD16VI4cPizHjx2TkydOSqOSqa+v1zSV97NeQeVnsC7zabNL/hCk4Xe0W5r+zjOkpadJelq6jB03TqbPmCEzZ82U2bPnyIqVK639UtOiJ9p7vY/Cwcn3FSUZcI2bTJIBHpSGzc3NTVoHAp4HcI14OrC6qloqKirk8OFDcvzoMTl39qw0Nzepdmq1o6O9w7RZDN0RFyAeQpinZiParkCP0WPGyLRpU2Xe/AUyf8ECJeB0e15H2GB4L/ZRtCSjXdy1rijJAA8bzU0EIpYOBFwHUymZHQhoWAQ0MzPT/0poIFSQ5+yZs3Ly5Ak5eviInDp1Ss6dOyuV585bnpwb4a80aLdRo0fJpEnlMm36dCPZrNmzTcvxerAM//dCHwUiWpIBiMY1oiFzio6eUZOMkTZWwXB2fywjNAIaa5IrjRtMGCKBYEMswAzjOsFGeZ6xs6NT6urqpLq6Sgl2Rg7sPyD79u2VE8crpL293f/J6IGpl6N+Vq4e2VmZdu0Mbc80Ne3cPXDdfkzM/j7toz7p0X7q7u6Rzq5u6e5R81PbM1pgUhYVFcmSJdfIilUrVbvNl8lTpphP50Zv8G7to3Bwvm4sgGiR/NmIiza9iMfWZRSCZNGOEIDPx6oB3ahKI8XSULGas2jzQD+JvxmAINGZ02fknY0bZcvmTVJx7HjMgohgpKugZ6qQZGVmSF5ujpRPGCeTJo6VcWNGSWlxoRTk50ludpYJ7UX9N9Cv5FZBbFWTs7mlTRoam6WmvkEuVNdJbX2jdHR2afv3Wx/YTyKUA5G7nX6AZLevXSO3r1kjJSUlkqkywHXfbX0UDXgenita0J5cC4RTPiktLS0Xo9VO8ZIM0DHRXifeDuSh+S7XiVZzxtOBmMwm4HoNOrGmpkZ279wpr77yqhzYt8/IBrm4n1g0OMjSkXHW9Mmy8tqFsmzxPJk5bbL6MtmqvXxzT74jRfjHfwa9hJFNiePuqZ9DtVuHataqmjo5cea8HDt5Ro4ePy0Vp9QfVDIORLg3H+HTzW+bVF4uH/7IR0y7lZWVvev6KBrEQzKeiT6hrULJt5GMX6IhwHBIBngAbiwShtOBIJbGjbcDaS/C6u9s2CBbt2yRY0ePGdla9bVYRk+A6VeQlyvLr1mg5FpkJBs7utS0Vl5urr0fLyBal95vu5KtTTVda1uHNDQ1y9nz1T7SVZyS4yfP2WdCCT1ChAabNGmSXHf99XLr6ttkyTXXmGaLBSPdRyCW68RLMsB1QDAembnIB2BiJAIMl2Rcgw6LROjhkgxwDq4TSnAcYu3AttZWqayslEMHD8nevXtk7+49cvLkSZvT8oLnpF25D3yKYPfBZ8aNKZO5M6fJ4vmzZMGcGTJ7xhQpUXKl+zstGcBkhGgXqmvlXGW1nD5XJafOVqq2O6d/10hLa+iAxoSJE2XZ8uVmQq5efbvk6uBAv0aDkeojL8lAtEQbDslAKB4N+mSRVB4YLslANERLBMkAD03DhuvEaDuQ8xDQqDh2THbv2i2b3nlHdu7cIT3dPXZ+novrMdFL4KCouEh9pwJ9b0B27Ng5hGg8P1pq8sTxsmTBbLl++RJZtmSeBTaiFdhEgXsiSIJW23vomBw4XCEnTp83E7OpudWCKIHgGdFkH/34x2Xp8mXWhjx7JCS7jxwCSQa4DtcIR7ThkgwE49GQwAc3wgcCG8IhESQDkQidKJKBSKNlpA7ku6Q2EY5/68035dmnn5GdO3YMRrx4FiJZhKcRvgULFsiiRQtl1uxZeu4SNSGr5S//v78yguI58dmSwgIj1kP33CbzVXvl58bWpkOhzzXk0Xx/BH/a4LhE6xRpaWuXQ8dOykuvvyPb9xw0snUpCdF+XvAcmI9/9Md/rJptmZSqnxaJaMnqo0AEIxmIRLREkAwE8uiy6CJCwxGsMRJFMsBNcDOhGj1RJAPhGjdcB/IdyLFZtdYTjz8hFcePm1lIUMMJRGlpqcxfMF9WrlghC5Vc3Ddh3fr6Bjl06JBs2bxZtm7dZp1erOS6dvE8+fD9a2XhvJlSmJ+nwhrfgke7/kUVTJ7JNIGSQF9Dc+qL9rsdgyS0/12CuyY/U9Tn0yNFD9XJ0jeg2q23X06r3/b6xu3y2ttb1G876/u8H9wz/UTK1ud+57dlzR13yIQJE/zvBkcy+igYQpEMcB0QbIBPFMmAl0dBQ/i8GUzTJJJkIBShE00yQOMGM0tCdWBtba1s3bxF3n7rLTmwf79laNB5tAlaa8KE8XLttdfKnLlz9PeJUlZWapqM0+/Zs0c2bdpkc2TkHnZ0tMvSRXPlluuXyfIlC2TKpHH6fHmSGgW5fGTS+x7QvtDDSGQ/fa/7P8T//Fzy/W7wvWC/hgYk8//Uw27JTzw0WG1Dixw/XSnb9hySl9/cqr5ci/R55IJ2nTlzptxz//1y7333ybTp0/zvXI5E91EohCMZCEXoRJIMOB4FJRkIRrREkwxwDR7a2/jJIBkI1oneDuQ9JpP37tkt27Ztk+2qgQ4fPmx5hiCHOavycpk7Z47Mnj1bZsycIePGjTPTqb2jw1KnjqnPtmvXLvteS1OzjC4rluvUNLx++WJZMn+2jB83OiK5TDuZlvIdemN6z7x26af+4v90MuEjW6eSDa22cfs+eXPLXqlQn62t49IEMe1Khsidd90lD33wAzJx4iSb1A5EIvooGkQiGeA6wCvfiSYZMB6FIhkIJFoySAYCr5MskgEa19uwrgPxsSAJWuulF9fJti1b/X6U737Gjh0jU6dNk2vU4V+yZLH5I8xFtasPg7Y6q5puv2quHeqvoQWz1QycOnmCrLxmoTx41602mZyt7RcSKlQQaJBY/X36s1e5xr2OBKHCgzk1iPXSW9vktY275MCx0+q/dfjf9Q2WpGR96JFH5L4H7pcxY8fa4OPFcPsoWkRDMhBItGSQDIQlGfASIFkkc+ABufFkkgx4O5EOhGCnTp6U1155VX7y4x9LvZKL93l2UppGjx4jd9yxVm648QZLLwJkeLS0tsqx4xVmFh44cEBOVlRIr/pr2dlZcs3COXL/HbfIfWtvtucJrbyUXEwiQ65+9fX6uq8aYgUDAZA3VJv98sW3Zfv+Y5bG5bQOclJcUix/+Ed/JLeuXm1a3gkyGE4fxYJoSQa8RLtiJAMIGwc3lEySueuAZJIMOELjR72xfr386pe/kk0bN1q2huvcMWPGyPIVy+W+++6VcWPH2VotBInkXsh15Mgxqa6ulhNKLny2vt4eC2Q8fP9auXfNTTJ/9nTTXqEIhnBe7Fdt1dstA32kX42UGTg8dHb1yJ7DJ+QHv3xZdijRenouhfmRESap/8cf/oGsveMO02gO8fZRMkkGnMzFukogapJFmyCMQHBSJ4DRgiBBrIgnETmaRM1A6AAjzz3zjLyuJDt08KA0NfoGBM6DWXjd9deZaTh+/Hif30Vu4tlzcvLkKTUJ66RezcTjx45K9YULpsFGqf/16IN3yk0rrzVTkbzD4IBcfTKg5DKSYR7iZ72LgKm4/+gp+fcnXpRDFWelrf1SNWHab+68eeaf4acV+zNDYu0jBjRkDnmIBRA90FSNBOQ7FmICnoVnioSYlroQuuZGYiFArKMQoGEx4fgZLWJR9Txy1YUqeeP19fILf2geAtForLNatmyZEWzBgvm2ahhHHFKdPnPGSFZXV2+j5YXK83JaCdfT0yXTyifInbddL3fffqOMHzNKGz9IJ+t1ze8ys5DFmSo8EOxdCNqQLP83t+6TX6x7Ww6qj9ahfzsg5NcsvVbuf+ABWXvnnfY3OZCxaAqHWDVgPG4N6OiIbU0fzxKNxRXT0O/I5ezYZALBjqdDokFdba3Nff30xz+Rg+pLQTCuBaFWrlwpDz70gP5cYX8zqFxQQh48dFj2HzgklZUXbADo1A6pPH/eTMQZUybJXatvkEfUTCyfMDY0wZRQA71dMtDTaT/frQQDaJkc9T3XXH+NrLnhGpk+efyQVDCElSDSyy++KAf27Y9ZG3kBwZIlC14gcwy0PFsiEZt9pXBEi0XtxwMemGslmtBo4y1btsgvnnjCTEQ6kGfBj4BYn/70b8rcuXN1JMy1z0KwLVu3G8mc/U0GSF1drSUDjyotknvX3iQfeehOKSstDtEuzMmoqQ25ejrMVHwvAGFkQLn3tlWyWslWVlLof8cHVnvvU4L9+L9+JLU1tVYIKF7QTyMxuCdD5uJiykhpNNQ2RyJHsT27d8v6V16V3bt2+V/x5eKtXn2bfOiRD0nZqDIjSr8SoaLihGzdtkMuVFUNPjP3A9nOqemYlZUhH/vQvXL36hulIKTZoATDNOxuVxNRtVeUpsi7CYX5uXK7kuzBO264bJAhoZok6heee06qqi74X40P9MFIaDSnOROl0eJWR27C8N2i0TgPmufFdetk27atpqXM5FHb/c4775Bbbr3FUoRILaKR0VwHDx+x4IYjGOActTU1kqrt//GH75Ubli+2gAdrvAKB/0VwwwiG//VeI5i2VWpGtmTkFkr51Gly8w2rdMC5waYwHGh3pjrWvfCC7Nyxc3BiP16MlOnoNGe0/lk4DIshNCBINtF4UK41nMY1M3HzZtNgrPsCRD5vvOlGWyNFJgfn71Ufi/A8B5PKXl8CXwx/rk/NvuVL5ssdt14nk8aPtXIAgSBr42Jfj5Ks02cevpcIpoNTSlqmpGbm6pEjKRlZkpuXL7OmT5UH7rxVZk+fYuUSHKgFyRTH6+tfMxN9uII7UqZjogg9bHY4oiXaWQwEHROvRrPRVDXQC88/L+fPnhNKrkGwKVOmyF133ilTp06xiFRXV7ecP18pO3bukjNqDlLnkNA8RCPyVFtdLU2NDTK6pMiyOKZNnjhk1B6EP4JIcIMoor7gez0qaDuqhhg8rjpAsAwlV7aPYPo72p/XiwrzbcnOXauvt8GHMgoO9N+2rVtl+7ZtNtk/XIyU6ch1hqtEEtKLCDEkGwmiccRKNCKERALRZKRAcZ9MNN96qxJl+jRrRJayQKy3N2yU/Xv3ydnTZ9QsrJaG+no7Ks+dk5MnTkjKxX5ZsnC2rL5pha3/CgZC8z6CxVDfg7ZDWNPUF0Bw0zP10J+p+qxJbtdYwP2kpmfpvfkGF9abseK6sblV6hubLay/5uaVtro7LyCMXl9XLzt37rSlQonASGk05Hs4REtoSTiEN/B08c6ThZtJ5zo8tNdXCjdPhqnCOrDvffe7Rib8MCKJv/07v20a6uCBg7Jnz141EY+ZIFAiWx/EvusGDhqa62EifuKR+8xcDIaLRBG72mLSYGgCI5X6Nwixu6Z92/y6Lj2UsHruKw2fich9phvB9h08Jpt37pPDx09JTV2DmeWUTCCDv7qmXok3NOOnpLRE7r73Xnns//vLqIupRsoaot+RGYd458kizcchc85yA1w3mnmyhNdddIx3N5MMkoFAooUj2V4l0D9985umybh/0mfI4pg8ZbKvDLZ2YnNTc1SN/JuP3i+f+8TDUlI0NFwNbB6su92XIhVNBoeSK9U0lh5osBSf1upWQWVVcnVtg5mw+blZMro4T4rzVHNGc95kQe8tLbvA/LFzF2rkxfXvyIatu2xhJ4s9u7t95ecwE+kfV57OC7Lzly9fIV/8ky/JgoULo8rMiCY1z0u0ZJEMDA6ASpsrRjLAjXDQ4MkimQPmAkQLRjLul2yO1159VX7+05+Z2cdn6VgOHp1ghrcJuG/qVhQWFNo5KWKDb1ZVVaWfG5BHH7pLPvPRh8zn8MII1kcksSM6IgyaXZn6a4b06z3U1TfJkYpTVk2qsqpWTbAW1Qx9KjBZMra0SGZPHS/Xzp0qZfo79RhHHHrP6Uqy2qY2eXvzTvnhz5+VU+cqtb8uWRTRoHzyZHn4Qx+ST3/2M1EJabT5r04WkkkywGCLzHC9K0Yy4BhPvYtYEQvJAOSiUZ19Drlbmptl3759lvy74a235YT6U6HgSgdwr4WqoSh5RrZHSUkxbr6cUXPzlZdfsedn4eVHP3i33Ko/B6FNiPYa6CFUH6mTtF20kyAY4e+Lqs3I+zutwrpr/xHZvH2PHDhywuolekG0bva0iXLvbSvkzpuXS1G+mm0jSjQCHmmmybbuOSKPP/OyrHttg95DipWxS9fBqH/gog4KvUMWdQYDqWsLFy2Sv/37b1yWqR8MsSSZIwsc8eTMRksyQNtz3zxLJCSNZA7BNEwkxEoyAMkYwSAYaVKbN22Sf//e98xUxE8IBIMA2ozoIIsMqc2xeMlimTVzphXBoRGpY8iq5qNHj8nX//br1tlzZ06VD9yzWj716AP+MynHCHS4VKlI8GswfBsanqDBXvVrnnjmFXl7y07zZUIBgR5bViz/90ufk7nTJ1la00gCPywtO1+eenmD/OiJ56zaVZ6asmPKSiRPBwGqFdc2qNmtg0aXtjmE6w2h5RjI/ulb/2JkiySosZAMkLSLPLiBPlrEQjLA+cnHjDTYRbXUxSEeNUwDcTMxcNlIGY0a9sKREh+LAqP/8PfftG2IQiV80jiUDli7Zo2/6E2xkY5r02iYHQRFGtVxJyn429/6lmXts9L5njU3yZd+79N2Hs5NqhQki2gmajsQlUvLyleBxQxtl+dfe1t+8dxrckJNRIQ0UjsVFeTJf//UQ3LbqsUq3LGb4sMDPlm+PPvqRjUXd8i186fLisVzpCBPrQgdPLh3nuFMZY1s2X1Y3tl5UI6eOj/oN3tB/378U5+0kgWUmQuHWF0OlAHXjIUwIFaFwPmjSWRPURJo20RHgOGQjMMFQyIhXpL5IoUH5Hvf+a6lT6HBAp+NZ5g3f56sWrXStNfYMWMlLz/P7g8NSLZ9nfpuTU3Ner5OOwcRSTL22SeMsD0Rxr/+0/9u57OMDiacowjXm/+Voe2nPzs7uuTnz7wkL7+xSY6eOGMBDgfKc5cUFcjEsWVSXJhn7YHfQ2HSvv4B+fxH7paFc6ZZOtNIA21WWV1n4foxZUVSWlxgZpPTGayg7uzslvqmFjl7oVZ27j8mr2zcJeer6oaYkWibpcuWyRd+7/dkwcIF/leDIx6SYXExaMaSmBwPyZA7vgOpQ/EoRQXIynRHQ7R4SQZiIVq8JDt65Ii8+MI6+dlPfnJZQAPtRGexjGXFiuVGNPwuSFRX32ClBhoaGqVJfTkmrtvVjKMROQefObBvr9Qr+Qhw3H7TSvnHv/pj01z9RBOVaNFoMQjGBG5HV4+8pOT6xbOvyOFjJ81EpO5HgZJm7vRymaW+V/n40TKqpMjMMbLbIRdzUD29fbJ0wQwjYbBMk5EAfUjTRqpsjFaDXJtVq72yYYdpNbfuDGIWaX/8+V/8hWXcpGeEfpZ4SQZ8A1R0Gi1ekoFwRDNzkQ/QcJEIMBySAQSdm4hE6HhIhin3/LPPyeM//5kcOnDQ/6oPjGiUbqM+4J133GET0BCenDo011k1B8m2b1ZyBbs3RsNDqiHZ/ZIMkNtuXC7f+j9fjiHY4dMAqVm50qUfPVpxWr7x7f+UI8dPWflsNNe40SVyzbwZctPyhbJ47jQZO6rE7vHdDpqTDS9e2bBTnnltkxyuOCvt+rfDl7/yZ7Jm7R1WtiAUhkMyEI4AXgyHZCAUj2wo4sNO0yQT7uLJuA6rmtlgj50rvYDYEGzVqlXyiU983Pwvrl+rmosJ6DfffFsOHzlqGixSJ3DXfJcAhA4VSjLVlhEGpkGkaeelpNpOK8+/qtdUDQbB2Ehi0rhRct/qlfJHn31Y1t60VAlXmvS+GCnwGHm52fLQHdfLXTcvk2nlY4dU66IAUY0OXskE8m0mbZLbNBSPBvU9TOdGIkVKhgsEOdiNDBcH9u+TM6dOW16iF26d2Ec/9hsWoqchjh47Lhs2bpIjR4/bZGkkcgE+wZGpZk0OS861vcQy66MjGVkdmHrUm39h/cbBKOLMKRPlg3fdKB9/aI36WPlR1WJ8N4L+vuuW5XLjsoWSn3fJGiJ9DV832aDf0TTJlu9gPBpyRW6EN5N9I8nQaFTrPXv2jP8vH2jUJdcskTVr1gwSbL+akgcOHrIKv6Eij4HgM2SS85OwOeFqJp6j+e4g9FkJGBw6elKam1utDdBgq6/T+7v+WivVHWy5zHsJBGoWzZkq18yf4X9F1Ey/YAs6YzHT4gX9jWwneoAPRCCPLmPTSBENAeVhh3sdzkNUES3m6iQ6lE8ul4ULF1q9RJ4LDXb8+Amr0RFL1AkdRpkBTMNcJUNhQa75Y3px//vR4KLNK1HumswRNCL+143LF8j4MaX+z7y3QV9PnzzBfE+nsVl21NBQbz4UGiDZQA5GynR0PAoq4XwgEQSIBEZzSDKcxuUclGWDYF0ehxoQoqeENBqiprbWp8G0Q3m+WEBdRMxKrsWcUGlRvl44tnPol/XajarNaux5p5ePk1tWLpRZUycmvcOvJowpLbJ6IEU6UNEvLIKlxB7RYEytkdBoI0k045H/78vAAzsmJhOQbDhEQyMdP3bM5ri84HyzZ8+ymvVEDQ8eOmIT1SStxgLujUrBRBUhGelMo0sK/O9GD7LzKb7T3t5p5ubdt61Qoo23yOKvE6hLWVZcaBqNqQnalBQ4pkcAgjmSREu2fBuP/L8HxSATr2KNxkOwlAWT0YHzjB4z2soJ0GF1tfVWryPWRFbAvfV0dw1u/crkMKlNsYIwf352powrK7Jw/epV18jo0tjP815Afl62zJjiIxloaWmVBjXhHRwBkg2ug2wnW6NFZA9CPFJEA7E2LvdHDXsqSDlwjokTJ1pOHGlR5ysrow5yBILzd6oZ6r5bWlQg48bEto2rA1kan/jgHfKxh9ZaSpR35XC8gPysf4vj0ZIKIqnUzvfWYnRgU/nJ40cP9nVra4v5ZV7Q7iOl0ZDtZMp3KhPMkQ4elp+QjYm+WI7Ac4U73HV44GDnCnqoBquurhoy+chiQMpqcy6yOKg2FQ/BAJ3d1UVe4kXJzcmyNKLigsiZ18FAGtLSBTPlxqXzJTsrMWZiY1OrbNt7VMLt+Xwl0Kpm8dGTZ63oaSBITSPY4zJGKB3Xpua+VxY4kAfSr4L2e5gDBJ4r3OGuQ2ZPsPOFOhi4g50v8EglgyOagw9DMk6MQEd7BDtXuIOHJUMD4Q52vsADLUMFJEYkB0jKClyEjknm5uYW/zuxY8BI5tNkpDmVKcky9f7iActBbAFmaWFiRk7tjzol2dvb9lueIGlMVwdSpFs12f6jZyylCq3m5T9LY6hX6aYsMPXb29oukwWWq/AzWllwBwg8V6TDLY0Jdr5QB/cV7FyBR0w9jUk3EqYj1+Ba0ZiOAxcHbBS0kgF+pKakSkFBviX4kvZCY8SL/gHMxU4j2QQdfdnr+YpD20dS0ixVq3cgRarqm2XTrkNSr4QbDmhzAkPRrAYICe4tNU2FNk9qGltl35GTUlPfNOgOAIIfxYX5gwtPOzs7LMoYDMgCAygDb7LBPSbDRI2ZLQjsSBCNB6ajwxGN9/v7+s3cYLLYgftD80I+iDYc9PcPSLdfk5HuZOH7KwUT4HRJzcyTtJxCPYokO69QctX3RJvVqjAPB43NbXLw+GnZusenfWIFy3dYiMq9FY8arT5xvlTXNcnrm3fb+jIHNDp+GXOFaDOSsYkAhwMWVDIIEAhH6LgHmSCIiykQDZJdSaLRGJQW+NEPf2gTml5zEUA0CIZaHw4wFx3Jxo4qthH4ikC1s61Fy85XQVY7n5og2v75ebkyecI4OVNZKyfPVUlTS2yLXb2ormuUN7fsk/96er1cqPEXFIoSVgAo3VcmLlV/x+wvLiqw1dJvbd1nu8AwFeKAFmO1N31L+7a3Rr5v+ngkiAahE6k542YJD4wgcyQTwYiGg7pv7z555qmnrbwAJqHXHHGAYD1UeYoTXJcBhevx+2j1I1g0eSVgtQ5VS1jhHRVi02qKQjWL582eZoTANINs8QLtxTqwIxVn5cTZKunojHaA0nux+1O/XTUt94ZcjB5Vqr5XiZzUc+07fPKynTkJJKHVEGq3+JF2Dgf6Y6Q0WqKuMyxVxAMj/CNFNDQnAk8JtxfXvWA7hpD75jUVvaChMPfiBdccUJ/MOlafs6SwwCaSRxymxVSI9QgEe6DNnDZZxqgpe1DJceTE2bAlDMIhOzvTtEuPtht7jzW3Dp3gDwntF6sVqYcXE8eN0XubZJHGN7bsMU3pSITIYDKyopr+pV8ZLCORjPfpj5Hw0RzRhivfw7b3uJGRIBoNi2Y6f+68Lcp8ed2Lg1kCl0PJoeRy5IwXfB+SkmfHqJubm21O+0jDV4uRrrq8jZlrozzdtYvmSkNTm2qzU3L2Qp2tGIgVJCmXqM+JRmNagHodwSyEQNj9BXEdJk0YI3NnTbVzbNx+UM6cr9EBwBcBRV4I5bswPhk7J0+ctD6OlmjvFo02bJKBkSAajV9xvEK+/n//r2zdvHlIhkcg6COW86OFhgM6EwFJUeecuTHWfl0ZhBc6K4lw83XqM5bK9v1HZd2bW61PYiUaBBs3qsS+e6jijGnF6CKW9PvQvqftivJyZIoSbbIeHWoOElCpOH3e9wGVFVLKXKIw6wC/8bd/KycqTpjpGAm+AXBkiDbcoEtCSAboGMy5ZBCtq7NT9u3ZK9/99retMxj1wo2wdDBhYciWiOCMT5NlD6YBjTQoeUBaVqgFoizdnz9nuswxrSGycccB+emzb1hNkEhawQvIyvwVZMUSIGJ5IMhkciDIy7RteblHK1Hu38mmt0NGF+XIDUvnW6mELUqyvWqGdqo5i5RgFbj+YZrk8KFD8k//8A+ye+cuSzKIhHeLRksYyQAPnGiNhgbbvWu3PP/cs7Jj+/YhQQ5EvkjNqDmpmVJg5pQPLCXp0E6jAzFHGIn4XmMjtTxqbWcWJrCZm8EXCEVYnsI9i02cJu6xYoMKk+0QwwaCrGMzwinx/EeKHgU5mbJq8WwpnzBaTqtZ9sIbW+W59ZvlQk1D1EQj4kfa2IJZU4wAh46fkV0Hjsu5qgjBFG0/7qtf7882Ouz1lcfr1oGuX9seDYk1wL3s1vNB3EFz0U8y+oCCRVR5fvJXv9S+3hGVRns3EC3tMYX/94jgIjxQONBY3khgPEUmOQfCz7WoPkVxnDdff8OyAhzUzZZxKemyKi1bFqVlyYWL/dLkX6WclpYu48aPszAytT8qz1f6No5oqLdVuFaSu7VFOlQjQuLePt/kKxor1XPviGanfqamptoCHqz/mjC2zPfmSEOfzUjFMw7+7tdwaA99hvzcDKtCfPTkOalSgT5XVScTxpTJ6LKiqGs0kguJTwa5XOCDxZYzJ0/wWyr20hDUNTbLucoaOXO2Us6cq5TT5y7IKT2OnTxvRD184pycOHPBzsuRk50pi2ZPlb2HT9q0Q5tnLpMB8UJlpd3HqNGjZOzYsSYL0QC5Q3YgQjyBkXADroM7Pz9pD2QsEhJOMoDAuhuJl2SYD+wP9l8//KG8/dZbtubIgbFvdEqa3JaeK/8tq0gKVYvtHuiWahU6wCiZm5NjycHHjx+XE3pAMjQXGg2y8juEY0M/iv2wKDNN7znTnz7GQSNyH9VVF4xwt61aYquZnXYbSRCip0Y+S276WUDar4JH+QO/mab2neSq8FKkhjku0qyYMyMwwiT6RL3vaJCZma5kzba5LRJ8Celz7cXzpkuBvu7MOy8wK599bbMVynnpre3y4lvb5PnXt8jLb++w2ovHT1cOloPjZ2lRoVx3zVw5qASsOFNp0UcvGPguXKi0flq0eLFdM9h1vUDmOCAan00WyQCfcRZbNCQLf+fDgFOtPHis4CEg1fe/+6+2p1VLQO5hvpLq3vQ8+a3MQhmbmm4mo1eJc+2DBw9Z7UUbFSM0HPb/uXPn1Cc4KCcrKmw0dffNBgmZWdk6qnfYPA8j8ZXAUdUKmH/Pr98i2/YekbOVtZfNY7l7865RY76rqi763S3pM3I0b1i6wNZ9cc6jqol+/NR6aVfSBcOxU5Wy5/AJqVAyVasmde3klgc5pKnJSDHUe1evlCw1FTOU0C7wEQisjU3vvCP/8k//bLIQjfA7oo3EIIiyifY6VnfR/3tEwN5YRwg0B9+JhWzsJfbiuhflV088YdkcCD3gkXL1wT6WUSD3KMnmpGVqR4q83tch3+5plkMD8U88A0zFnOwcGaMmyqTJk61EGB18/OhR8+X+8DcfkrtvXWHl2kYSaKdfrHtbnnrlHfs7RwXUV2sky4rSoHlAY3O7XKht8BUf9UcFZ0+bJJ/84Fp5cM119nc0IH/xYMUZ+ecfPCW7Dh43vwmz8/MfvVeuv3aekc+L55T4v3xpgxUyDQb8YtqMqsc3r1hkPh9BpMdfeEt+pd+j4jCgf71SgtywJvBDjz4qDz70oEwqL/e/Ex7OvIyGmF6glSJpTC+Qaa4VSbbTvvSlLz3GzURzMMpZ6r5ffUdzOOc12PmCHVUXLsjmTZvlqV/9yrQLWgnw6JiF9ym5HsjIt2AHsYiai33y8942I1hHkKA1Ua1RpcUyb9Y027xvyYI5smjuTNukbtzYUXpNSkv3mBlDY/Wpb8M90+CYjgwsmGjNTY3mjxGOHuny2BQ13bBjv7y5Za/lFzJ/VWkmYZ0eNRboqFCfB7MMknnXcC1dOFNWqvbAzI0WBHnIbKmqbbTk3obmVivI2treIRO1zcpKCi3v0IEAhhrYZlbSh/Q7ZRrGji6xTTJWLZlrG7ffunKxzFHSU8SVz1KDkakCfL8S7dsFaRnmV2NY0pOcC3OdnTlHKdnGjBkthUW+fQrCHcgMwu9+98pXuAPZRsYDzxfqQF6QFX4Pd520r3zlK49Fq2W4gVg1GTfB+bmRSGDua6uah2RzYOpxgw7F2gkr0rLNRJylBMtRjdagHbKxv1OeUJI1EATwfxagyseMKlVyTZVVyxbL6huXyy3XLZXr9Hc28Fs0b5ZMnzJJhSlfVT/RyC5bkwUgGtfGn3RFVtGo+DzU5pimx0gCswsf67SO+AQJXHf5BoV+y/DgcNktaARIMFXv8+5blsviudOHlGGLBNqOwYlzuHLbZOZfUNKhNanTUaYmpVuqAiFZAoSZWVyUb4SeM73cqlLdcO18q8h1vf5EmzlyQjKCIvhlkGyymv33qI+t0iItenT7e5N+wJ8mPa6kVH3LiRMj+kEIPOYc30VevXIUDrFqMs7r/DgG41A8Mk0GeaK5kXhJBriBcDYs16fM9vPPPmuRRC+yVWyuScuS381SjaQmYraeh8dBe323u1nOKMG8nhINRU7f2ptXyccfuU8evm+Nkm26jBszyrIj2NsYIZk8cZysvHah/d2gPkBlVc1gEiv3zVogSkmzfoz0LRqUEtqYOyNh9zsg8JiHPNe5qnoTbn7HjGNZD3/zOyYYQpybmyXjR5fKxz9wu9yqJlq85i2ba7Sr34c516DmJ31ExJLMkBmTx9vcoUOhEo2iQJiTXPOm5QtsgSplBigpHii8gSSbpCS7OyNHLZQMOa/WSb1fozmcPXNWZS/dNtDHnA/X/o5kgJ/REi1ekgHkOxSP0r785S+buRiOiQ7DIZkDDxF4Ha7PHMmPfvBDeWfDBjMRvECDPap+2HXp2Ra6p3k7tRP29HfLz1SL9Xl0GI1fXFggv/Obj9gWR5iFCGm4TpkwdrTN49TUNdqukQ4ZGb4teHJyc21erbml1YSLMtqccyRRlK8+qJpa1y+bb5pilJpsaGHMsgIVesL0mLKL9N7uvGmZEmyNLFs4y74X74BAUIJMF/ILt6u/hWlN1a6mlnbrwyXzpsd97kCSTdBr3Kb9XK5kw0ppkgGblvGC+U3kafmKFUaIUNf2kozPIF/RKJLhkAyE4pGRjF94IxLREkGyYNchg+NXv/iFvP3mW9aQ3saYp6bh/Rl5cntGrk04u2Y9p6Pd5v4uO7wgKfWBu26Ve9feZOTJzMyQFu3E/YePyzvb9sieg0fl3IVq6VPnHjKiBXgulozQOTv2HFTzzHf99PQMIxjbLNXV1pg5i4DPtNF5ZJe80PlE5CDNBPWL5s4ol2tVU1x37Vyr3XjTioVy/dL5snzRbJk/c7IFKpz2Gw6IVFIqAaE9ea7agiL4fPiJaE2IHU+tEs6z++Bx88uIRk5Ukt2qJMvX+y1JSVMtdtHcAQ4HAmD0Af00d94886GCwUsyh2iINlySgWDyPUgywBvhVGsiSAa4jtNo7KCyb+9e+eXjT1hddHfTPGqpNvYHMvKNYJgTXhwb6JV3lGBH9KcDDjWJsh99+B6ZUj7ezDy2hl2/YZu8uH6jbNt9QA4crZBjJ07LyTPnTWvl5hCpy5TCvDwLfhw5ftr2a6YNqBWSoUTjuaurqCPSpaZXsflkk8aN9l915MCojEBjrpGZQQCGOTAIhXmIWUjkD/+Lz8WrZbwgMghZManxzSAEUwdEPNFoXBefLNbSdmwQuPPAMWHinHkyNNgatVQy9Z7RZLk6oCKFp3Uw7VHCIbL0CfLU1NAok6dOsRLsweZhg5EMRJLvRJAMBF5nCMkAb4RifKJIBrgRGx0rTsjTTz4pu3butBxFgGjkKc1uTc+Rh9VMnK1+WKC47B/olo19nWq/X2rMGVPLZc3NK+X2m1bYaMKeyxCMLYq27jog1bX1Uqsm4fkLNUq+c3JUycZEbklhnlUFBkzgHqk4bSMt16QduhGopka7X4QYkuF//LoAawBSw1kijph3EI1MD9oEclMqLxYTmhogbItLRJSNNwh83KH9neYfGIgkq6ErjZiNA5d87j7VZrgWrIifOnWalJZRkGeoJg1FMhBOvhNFMuC9TtAzcpN8INkgarRv31555eWXh5ARSpWr+UAkcYY6woE3SfO0qBmBc+zAqD1vJpHERYMj+MHDJ8z8g1z4Fi4aBvAJyIz4jydekJde3yhnTp+SwuxUc9YHI2Daoc1NTVJZed7aBHQRym4bXkmDdyPY9veBNdfJjeoToj3x1zq1LZ57fYu8vnmPBUdiWbvHIIvZ2adCCEWIF6b7+w3Q51OUeI+kq3mssoAv7oDP/vxzz8mOHdtNhmLFSMm3u05I2ib7RmjknTt2yLrnn7dr8bcDjfspJdhUJViWp+EdulR7NakZ0erRYkS6yieOk6mTxvtfETMNx40qki9+7hH509/9qJqEl+9MiWAwmbpx+34dRS/KjImj7FyhRjTLAPGT8NcJ9ALy8ME7b5Q1N1xjpjkgGPL0q+/IC29sszm6aGEk6+gyjcSgiokYCExH3ISH1SfHZ3Pgu8jMs08/LVu3bBkiO9FiJIkWkmSAD8RqHkYLlqyQVX/y5MkhjTRe/bDr1AG+JT3X7HJv0/MpCNapbnGXfsdbAG2cJcKWDLnfhbOnWr4hQYKm5jabb4IgzBshLMzfMJFKePrA0VNy5MQZy6KYMnG0Eu2SU40GpN7izSsWykNrr5eV18z1v/PrBfqCuTAmlu+9bYUvaquvtbR2yBuqzcjeqGtsCWqKBYK+aFUzET+YKZncIKLIuSHfyrQsuTY1U8aoPDggMxUVFZa1TxJ5PBgpol3mkwXCa1vyc7g+GY2DHYsG2/DW25ag68CIdr06vw9m5MvcAD8MgvWqediuBOvWc+wf6JG9A702eQlmqj+24poF6pdNsr9BTmaajC7O03volg2qqcguIM3ojpuWym1KsKmTxqnf1mpZFHQ2/hbheWSEeh6zpk6QJfNmyIrFc9VMWmAHYWsKcyYiqPBuBBqeaQM29iOB+IKa4r2qjfidQAg5ixRxJVgSbv0d+0o/8+omqWlokvz+i9rfGXKtkikQtDKpdBn6C5HGSh1kHYV7e3w1QLPV8iCRGN+MfoE8oXyyQCDXLhqYSJ/Mi7SvfvWrj3HicAdwjOchOHksh/dc/F1x7Lg8+ctf2eQzfzvgf92Xni+rVYtleIQYGvVpA3cowTr0J38fUoLt16PTTzLIdc2COTK1fIL9DbK0j7Hs8L2oMUFS7Z03L5O1Nyy1MDdpPxnawCfOXrDOJjt89XXXWBnu2VMnGsFWLplrYXLmnKZMHKsClvtrSzAHJoUxF5mrO1ddZ5qMkm8sEj11vtoijSWF+UbEYOF9eoy9o8nHZIArUyqRZLBQj1AoUXOxQ4lQOaCuwiDNKPHtC4LMmjVLikt8WwAjU/z0yl24g89CNEc2J7fRHHw+2DmHHKQNRXPk5rLVTarNU5D0G+3hPQe16bmpl15cJ2fOEMG7lPiLY7tGybVCNVmgfd6v3+nShm3XUcxHKSW9ft6rU/ENArO+WW+lb9jIRuiZa09T7cWGDyBbhYGk1SmTWLPkq9RkpmFRgRFqqr5OyJ61ZO9ZYsX5XKwxY+D5xIO3y4wp441MWAM19Y3yvZ+/IOs37bbCOcGAcJIv6szFHO3LfJOC0CDrZ4mS8IZ01ZD6u/s0MnTiRIX84onHpaqqykgHvHIXzYFsopWCyXCog88HO1fgEb1uVCCkwxE2okKs73pj/etSV3sps4JGm6ta7Ib0HJmqjq4XXFPd4yEEA1n6Ha8d39auo6knMZZFjfpl3+/6gz3GEAQbYf3pQDwLxXGIKEI0b13A9z5UUNPSrcwcFX/jIRv+7Q1qQmN+M0EPaGumP97ZccAmmoOBObK6hku+G4Oqd2V7KExU2VimJuVM/amGof9VotQNsvHtDebfh5oyigbIWjJ8tJhIBrB1uRG0WqxgCctzTz8t9Z7a9TRVvjbyh9UPm5aSYYTzAg3WpSbiUIr57HTmUhzq1Nxj/saHi0NIRl4fE86QC1PHO1DwO1ni16ppWBhDEu27HVZiLlOHqcwcScsuUMKpqeZpl2hA22Ea3rx8oSyYOWVwbRjNzjwYvlowdCnJrHS3P+TPnChrAiMB8Wdq5x4djOl/B2SpobFRXl63zlZxDAecK3DebbiInSkKbgSSxaLVUONH1Acj2IGz6sAItig1S1Zpw5V4iAs9yEkkR9HN+HtRoNcu9XRMg5p69Y1Nlu5jH8ZU9JMMYpGkSiTRO1fmwKphAiG3rlrif+W9DtViqg1SrFCqDpj6c7Boahxg+QvBIOo2OlBpGZ8sGFgxgCnpLIc87UtWWUQDyHiNDghz9b4ZnB0w3Ta/s0mOHTtmptxw4BRJohAXyYBjfLREO33qlGzfus1Sp1wxUi4+PiVd7lJfjHod3ngitOpUovSoJvOFOoaCxh7tISW7uzDpzAEwD31sU3MkO8tyDjO14S5Z85eA2cOyDEL0vxZggFRC+Wo5+kFbRinogSD1inB+uoeklIILtVkiE/qVNQ1GMnoDskSjyQC+O6Unbk7LljH60/UmMnVeLSUqXZ05HbnCViQkUqPF16p+RHsjNMD+fftl44YN/ld8wJmdqb7YXel5NlfiADV6VQvhhwWaiQ7F2sBjlZheypAudbTCNfAl/6ogP8fWN5EeFGpQgGhouvc68DsGBlK0dVw7+ExrXwWs+HxSyhKQjtbuT4uDdLOnT5IJ44IXHcLaOF9VZ4kASA+hATVYfW9GARIUbknPlsna//jmXjA5TYXpUFWlYwEaLRFEGxbJAESL5KMxwhw6ePCyEYbyATdoYxXod73fJlzffrHPCBacYqrJtHHH6eiXqz9dM586Wyn7Dl2+BJ5I2ILZU2x9FKbjrysgGIQ4owJe36Qmlf59Ufuvv6tVBnqUILFuNu/H3iMnrZYIm0tAsPFjysxyIOk6GEinOqMDIiRjsMRlcDmL0QBZoc7LcpWf6Wo2esHWxtRvROYSAYg23ISMYZMMRNJojC6QzDtBiGm4IDXTsju8NwGxMBFZGRuKYIBOYUnEnLSMwby2+sZmOXbijJw4fU76PHl0BD6IKj581w3qP1yhkm5XAVjdTPWoNzbv1gHpnNVG7O9uUy3Wq4SLTYuRhc8umj/45cvyoydfk31HT9rrmI2seysuUP0UxP8lGEJRIrZUwlwsU7IUxkAwB2TmWiXZbLWEvBRAxsgmQuYSBaYJhuOjJYRkwN2I1xwjREshGgpVnjrl6wSH6do4C9KyZHzASERWB8GOUGaiFzjLi5WoZAMAQsPU/Fu/cZsKFKPypXth2QvrryDbrysIrVMYZ8few1JZWWUk8xEscls7UF9ky+7DNpH8o6des1Jwew5V2IS0bTh/3RK597aVMmZUcH+MCevaBl+ACs06ykgWnxiOUR9wlsoPGfxenD59ymQu2ipX0cBZbPEgYSQDgTfC36juY0ePSmPDpYlJRH+5EmwuBPEQgUnnbosmRtcwjIALVZNh0zs9WlvfaMtb2EKIULEDoyqj66+zuYh2J+uFtXQ1Ndo+ndGVwqasdmV1vRU8fW3jTnli3Vvy42fWW5VilqpkZWXIvJmT5Y4bl8qH77lFblmx0Cb0g4EJf/wxh9FKlGiDHoHAI5+p/b9I5eiSFIk0NTaZzCF7yGCiEC/REkoy4FWtTAyuf/XVIfmJNAbrhJarmUgalReQi3B9tGMPCcTT1fktV7ORIAqgIM7xk2dUGLZLVW2DjmTRj9LvdWCAEz4nIZoqV6SbBWsfX5mBPjMJKS1HJWAI9Xffe1z+6YdPySsbdtqunpY+VZRv1bA+88id8oWP3y/LFs2yAJMXXkXJ/Jh3D7Wx2nfRhu+DgeDHYiWa1zcHyByyF1jKYriAaLH6aAknGeBGCIQwN7Zxw0apq7s0chENWpWWYyreG1EkJYqQfW/UFPMRNls7iEgTI6IDCwp/8eyrvlLTv4Zrv0KByWKCQGS+7NS2ef71rWa+eYlGmhOT+nsPn5DHn39T/ur//Zd8+ev/Jv+hvhcFVllDBjjPqmvmyld/72PyB7/1sNywbOFgJo0XnJu1e45otfXNg3UWET4y64uHIYZEGieoLDF35tVnyByyZ7mNnlhAIhCrj5aUMt2goaFB9u3ZI6+98sqQycE8bdRPZBTIovQs+x3Q/t1KLrI7YlXuCA41+44P9EmNkdRn4uDkk2GflZnumyiNIjxP0uqhirPyqppE1fUtVkOCKky+O3z3AwKdVVPt9Plq1SjNcr6mzsjGCuXNuw5ZEvWLb26T51VrUaZ798EKq1VPO9KeNMPUiWMt3/ODd90od9+8XOZMnyylxfk2BeL1x/k8aVXsc8bEMzUrCXps3LFfNm4/IAP6O1pstQ6QrBnzaqFYwPfQYfzcPdBrlhBwvticOXNk9JgxVhApEpjQjtaH43MQLRqtlvYnf/Inj0GeaA7AiaM5qInBchbKZcN8gBYrVxORBZnjtGHdVKKtLRIIEj6iGAzQFLKSnV+nR60eAKIxd9PS1m5RLOpQUBsjWMSL0RbBe3v7fln35nbb4qejq1fGjxsj5RPGClsDvTdAtnmqHDp+1nZYYWkKO7ZQ5u3UuWrzrzj4HbOOpGrIM2HcKFubx4YbrtzbNfNmaNuM8WfR+AdLbXP84MMVZ+TNrXvlrW37bH0Z36VEAZWNN+w4YBsV4ovPS0uXlUqyUUq24SBduzRLZWBnf7e06z04NYAsYbpOnz5dCgoLg8q09+A5gslyqAOgdJDvYOdzR9oXv/jFx/hgNAcnZkSAveEORrTjx47Lz3/6M1seTuMDCuOwC8vdGXmDWoxsDkxEJp6DZXZEA2jDXFurEoyaH275CyM3vgMCBZG5DZx/7ofDwskqSOxp/IYKxQtqPm3efUjqVTDKSktk/txZMm3yBLHNHa5SMEBQ4NSX5uZ/MQQYYIiuVqlmIbqH2Zib7cvnZO9mAhgMRhToYZ5rRvl4I8jKJXOs+i+JwGTGoJW8lgFtSTEcCu1gZr76zi5Z99Y2qa5ttCSAe25bYWTdvu+oaU0CH5h5N6gsLNBBN97oogODNSJ/ym/NuP5ncp1KaAsXLVJtNtruM5hcuwPZxnoJJtPBDuScuIPJkhIt2Dk5rBY+bIsG3EA0apddUl5QLfYXX/mq/xUfKO/2hcwiuT09d9AfQ3u1XexTTRRN0D489ikZXujrlPV9XZdpRXbJpNAmu4nMmzHZNrsDjOKvvbNb9h85aeWoaTjmej784B1Wt3H+jHLp62pVaU6sXZ8oQBYidmhpRm1Sx9BWXtMtEAQe9hyukOOnKgeTePk0pd8wj1kFznzi5PFjrECOG7W9QLAgeLcKF8EmtCO1PtZv2mU+HXOTd9y0TH7j/lttXR6f///917MWQKHNiSj+oVo0zHXFG130gnnVTX3d8uPeNnMdvPjyV78ia++4Q4qKfH0eCixLCfasoQBvnCvE90LxKKW5ufkio2A0RIuWZHt275FfPP647e3sQDPepCPX3+aMUo12qbgI5QQaL+oo4P97OOjRjjw40CM/7W2X3f2X7HOAEDFyM1/GT4QAYEoSccM5R2h4f/GCWfK7n35Uli6aJxlqyfR3MWFL+wx3GEg8MO2eXb/ZtO/CWVOsuCm1EMnXDAUyLYgeoulV+v2vahspMSnyijz4KhKT46iH/30vKHKKSblp5yF5W81CdnZpVPOcdWK0IyH9jz6wWu69dYW1N/U8/vwffihvqUlOzcvRSqy/yy61oEX0Yh0aOAlNKktf726WbTrYej2rD334w3L/gw+qRgufmzocktFmoXhkPhmjDCeP5PTxGdRkJOzYtl1ee/XVIcsOSOYkqrgmI3fQF+vT6xLsIOiRCJAFQroN1Y2oAcIKWleeAND5kAmnnLkfDn5H6JA1Vvsumj9LPvuxD8rCuTMkT7WDvWF5fVdCk6nQp2dJaob6kpnZvkz5NG1/tBT3pc/mI0Oa1djYraYa+zJv2nVI9hzybWXE/BYEbFFzzurlax/zHQJCmHyE4d1hmlDNOrS+04b0FISqbWgxs3qfanxI9fzr22w/si1q/rHBHwSDuHynpLBAHr33FlsCQzY+k+C7D1XIG1v2Wkk5lqnMUjPxdv+SlWAkjhWcg9X0LgDW4el3ZHbatGkyfcYM/yvBMZzyA3AoFI9SGhsb7W5oHFKjwmm0aDQZy1h++O//Id//3vestLUDi+0otf1wxqWMC0L2+GIQLZGgBsiBgV6rLrxLR7UzShCvVgsGGnfurGny6Y88IKtvXGEVq2gTgh4D3Z0yoCaoT7BHEDpgpGXn+4mlna8+JxqVPMOL+nzcDx1KmhIVo158c7uVUqCzC/PzbA7LF/DJtmUnaDcjlgpdhqpon0b3/XRrwRzwYcmkpyYKfsVLb+8w0jJvRr1FAhoElryAvEVqXt6/epU8uPZ6q0/JAIC/9v3H19kGgfjH43TApZDpR1UWWOaSSLyk7sJzvR1WmsKBsgSf/NSn5OOf+mTY9L/haDKHYDwaJJkDFwlFtGhIxnZH//rt78hPf/xj/yt6ET0e0gb9rYxCma82OOCi+GLqESaYYpdwWgmytb9bdirRzunv1GnEdg92PeoKsvPL1778eyqIvt02ARqM9CP2a74SJEvPK9EfPsEwgnEvekA4B4iGJnn6lU2mZUjWDSRAIHg+zEFboqLaC4J4xR2Nx4bqVPVi982vf/dxNQnPD/pwgUD7kYBNmfDPPHKXTBxXZqY3Jina9Kvf/KFQLRgfknzDT2XkyXLV0oFZ9MMFlaV/oSR7Rcnm7a2HH3lEPv3Zz9iGFaHkOxEkc/Dy6DLdSIdFYxKGwvFjx9RMrPT/5QPh2knqh03zZHiQac9ylmQRDFC/8YNqnv63zHy5T02T2fo3a5HI+g7sXOp9FOTl6WgfUM9Dfx+y7mqkYcTGFEGLqWnbTZmFLitAA5EwedHCVNr66AO3ySf9G00QsPCG1wOBtoMwZMSzVwBzYQR+3EHwgvktwvi+AMelCeVAYGISor9lxSL5vU88IJMnjjGCgbb2LiXXeZsigWDcTbG2KeUmvCl1iUK5yhmrMwKpUlNdJScqKkwrx0KkeOHlUVCSxTqj7cXJEyfkQlWV/y8fqHOOn+TN8MB8027z/5U8MM1JbYgHdeT8i6xi+fOsIvm8atXrA8qPsQSEXVt4fi/wGHyaJPECEQ1srRfSzU8lGYEF5qD+7Bv/Ln/xj/8p69/Z5f8k0cFMy7z4o89+SP7sdz9q81qlajIOGTRigAuOOK0XrAl4jzJ6n330bvncR+42bYZWdKAK2Oubd6sb4fNdiCQS7KD6VHD6Dw9MDYxVorEY2IvqmhpbOExbQrRErBMLBy+PQj4nNxKrRuMBKGbCRLQXZNzz0K6P+FyPjszJMxSHgkALDjYdS74kBFuqZqv34REmMj6oFTKEaNx0HJoMnwYNMDyoBiPgoudizoff0UyjS4osYLPv6CnZvOuwBTa4ZwSeMPw41SqUsvv8R+6xtKff/82HbJ9myuAVFeRaUCMaGMlU20EattB1ZCVAQoifIqf/Swn9hY89YNvUlqo29RKMFKyz52tk254jdi5A8Voy52Nv0ejAHbJifrLfxHYgl/H06dMmexy010hoNCN0uOKm7kac0PF7KOLxGbKfn37qSTl25Ojgd8Da9FzLui/TB0fs0GBqhIyIJgsE9dZzlDTNSvIt6q9ZGpbvLSktKZQFc6bL6FHeTQx8gnVRP4uwRwuW11MeDTMubiDUKpSpaSoMpsl69G4uSlZmpgkteYDsqUbggvJ1CD9EgIiQgrlAyEDGBnNeMyZPkLkzy2X29HLbZ618/GgZN6ZUxpQW230yP0YtFIIlbFk7Rc0+tBS7xhCZxCSk+jJzjTeqlrzh2nmyYskcmabXJjIbGDwhGvnWtr2WssWgw7sMbjenZ1tiQrJAn5L94w1+4B+xOcWqVddZbIF2gmz0Mz9B0oqbRlNBGGLxMxzJeAj8sVdffmXIqlSa8gPp+bJYnVySeQEl3gjbj4weuxx0NtVoD6j51ey5D7YcmjR+rMyaPkWf89Ioh2Db8nz9ziVKhgepRUdOnLMMC19t/aECGC2MZwxORjJC5NT9z7L6GUw9UEz08ImzVh8SLZVtgnLpWggRBVkhCruEMjHMTqFzlWjsTEMpN98x0f7mYNKe96lAxetkgHDwPQjG1rTXzp9hJCVqGUwzMggwlfDyhh2WJwnItqdu4iolWfzZipHB3dC/BL1cbyG/xcX6DIvUhC4r8wyiPuXB+1eMZMCZjtxAKJL1dHdbXfKtWzZLvX+nDW63QP//ocx8maOajGZVcbWwvVeDXAm0KbXOquCShuViTUTI8vPyZOXShebfeGH1L8gkiFKbEUrfr+Yc80IU/2QeyplbMQFi6z2a2egZliAO5hlmLjmCBBfQXITtCUSE8zm4F7QVu7OQ8EuYfj4T2XOmWRly6lBCojnTJ9m6MM6HlqN0Odn3/B0JbD7Bkpi3t+0f1BSL0jDVs2WamovJBBtVsMF7oKWSX5Avk8rLLZcx3SPHToFwJIVkf/M3f/MYG6mFOwjbQy4cOXLBiG4FHqxCffWVV+TQgYODYU2iRyzMZBM/nF0e1iUDq4dhn7lS6NXLt+i9HLjYI66Z+vqoNtwv99x+4+A8mcF+oM20y0ybRQb+SMWZSln31nbTAGi0aIQzKIxol1+XmvQQprq+SbXmWcsbJAsjT/sLvywWgUk0nlu/2TL5MWkBd/KgysGy9MzBvNVkge7CHTiqg2Kj9rFrudwclcNJE+WGG2+0FCuvjCPfLIsJJtuhDkhWWFg45DzBjqif1tn6oUZINmc7ffKUtHdcWm2bpk87TUcvsjAAWoycQh76ylLMt8ncfL039KvTLwwi9Q2NtnKYfLxLIMKoBIlBOFhewzZOTS2t8pNnXrPsdktjSiAw09g045G7b7al/80t7SbY3/7xs/K1b/3E1oOxlIWSAZiWIwGekQwQlri4xZms82K9F5uuD2eBZixgQS9Rba+0tqmCYNNJZDUQyLez1hKNmNaTIYQcXmcR8Hu7aq/Hf/5zqa+l1JdPmAgwEPRYmJplQs2rVAOOtrxAMkEKFq6L+WV6T86swJ+ZOG6sTJ44Tp35S9WWmCu72KdDhJpu0YBJXoIFmHGsLM5RZxtzbliBkCDgOsyJQaLzVfVmpqHNSMIluwKfjeuj6SrOVskZ/ZsseN7jc3VKQObD6hpajIy8xopyXuNc56vr7bz8DanxVUNFJ5EDIrRPvbLR/DHbW0Bfh1gfVDlgUHMDbrJB1k+D9tWBiyqz/tcw+dlf7v4HHpBcdQsCzXdMP7QTRPPKdyjwOfy4SIhr0SY34JxFwGu1tbW2uXpb66UZcFJmPkj5bTUZqXdOriI7s+gZ/J+4cqB50WHs2HlOO6PFf0++ebEUWTRvloxRk2tIR0AwzDaOCHDBB9qGvD3bIkj9qPJxo8Mm78YK3wicbstPqKJMuhM7gRLihzRoFXxDcg4h2pGT54z4R08p+fXgJ4srycYgUHPo+Bk5qAevHTx+Wg4ePW0LWStr6i2C6VZWBwPlCvj+fz31mpGYrBFIxXKWD2bkSWmS5saCgaGwQ/t0S3+PZfkA5JUB4p777jNzMVBrOZKBQAIGQ1JJBrgZRzR2emE2PbCmApkVH88otFw1Que2buyqoJgPtCP3yDZMJJVyX4x2jSqsq5YukvKJY01rD4LRjSifBSEiA+1FsGDb3iOWLd/d3StF6nwTbEikWULoHP+MCCBZFecu1Fl0zzsak91B9gbEQ8ux4hmSQSZIdODYaTsgGH9zQLpjauYyTUCq2V23LLeASzABhFAnz1TJ4y+8qYPKCSM5nyLr5iH1xWapFktGhkco0LoEtF7v7xpcXwYI3+OTjRo1yn73wksyEEmjRUuyYfU0pEMIcQKrq6rNZHFANCluQskvoj0EOpgXi6wDRg6Ekak1skQ17UR/hgCBGXaIOVJxSi5UX6pNYmC+KmCSMxwY8dmZ8tF7b7Vw957DJ2xZCrmFBFgSjenl4+XR+26VT35wre0dlggik1xMcZzf++QDFrwJNRVRr+TdeeCYrN+0xwgG6H9ItlL9saH1pJIPMvJL9fnZlsnbY8johcoLURXY8Wm+6Ps7FIZd4wOmt7a0yK4dO2XP7t3mswEebqqOXg+ouYgTiqnI3FikbPiRBmmxbF7RqCYgCcU8HXdIpnr5hHEydfKlTQVtBEfjMdpFYTICzBOIRua683Mw6Qibs3VuKP8mHkAqoqLMiRHRHD+61ExTtAx1KPkZDmRrQCo24CA7hL0ByKhnRfT0yeMtOhpMizFgbNh+QJ5+bZNq0UuVqMhVJbtmkZJsZCmG2e+blCaM36yyd2maJl1mz55tmwYGLuIM1GQA+Q6l0aLVZAkppEPKCptJHD16dDBygxlm4Xt/nXtMRYIeVyLLIxIIKWO3Ux+kxk8ezK5JE8bKnBlTtCEvzanY3dPgzJlFAYQSwWfHE0odYDZSio3XyaAozM8LqR3iAUtLMB3J9CDiyALOWcyDKWlYET572kQjOMecGeUyV18jq4O5MbaQun7pfPtJJseyhbNl4ZypMmn8GPP7ghEMYGYy6bxVzWJvlj5rxlakZ1mhnCsBBvS9/eoKqOw5v4z5MTLxKUnApLQXwUgGQhFtRElGriKbsFGHnM8Aq+6ro9h16TmWtMlDXsksj3Agt5Gxlg2dWIdGU+LEEw2cUj5Bxowqtc8Z9FlStLFtziwGjC4t1k6hlHiLnD5fI6cra2ztVZlquURvkcu5MHOYQCZYgVaj8A2TzUw6U7cDYjHxzL5sKxbPNmKtumaeZfBDRvxGnh9NGOreyM0kW//Z9Vtk444DFqn0Yqya1uSKYjIm7umiBz15RPuTwBZBEEC7jB49WpYuXyZjxoyx1xxCkQxAMG+wD0RLsoTYKhCrsbFxyA3gh5Gr6C7gfLKrFUyWz7N5HOKLPhw9cUa27T4w5LkI5bNDpc2bxSA6+GcI8cN33WT5gkQCf/XSBivDhqAGM0cSCa5PlocVyFHTz5tCxf5i5CwysR0tuF+mKHbsPyYbtu2zpSyBoLANi2aJ4F6JwRVXgKTwTE830ZeUK3RuTSxAziFarEgIyRgBKJ4zhGQ8IMmt+pPy28Turl6K+RqCZRisGHDj7umzlbJzD9WrAmqqM3iwDWyMw3OuaoVr588U1lyhJQhzP/PqJqsrHxgNvNpBcIME4H97/EU5qSZwMODnbh/olsd726VNfx/pp6N72P3HG9WkH1EIyGw8iIdoidFkKiCkUnmFhAcr0tNzAQg27FUfI4CL2he+QL4PCP7p8xdk/dtbbNR2wHxiO1hfFkj0TON7hQW5RrRPf+hO85fOV9fJq+/slB/+6hVb2h8pOHE1gArN1BD53uPrbLLbRRMDwZPU6vO81d8lv1CisTp9JJ8OV5eglpcSyCjpU8hsvMBlioVoiSFZf590tLcPGe2ZFyP4gQwiuF7hvRpRPdAvh9S0Oa8/3b3SIdW1DfLahq22gycFYXxQkqGlVZvFumqawESJ+kq3rVoid928zCanMbWoz/FLNR8rzlwIKbRXA4iSUgWYrA7m/yDc4OBKZwdMcRB8uKBt+kZft7zc1ylH1ZcdKbeB4Y+gltcjREbJTurti7+NeV6IFm14P+2rX/3qY1w42oPRGIfPHeDUqVPy/LPPDdFkrEamGtFY/UlkUV3KK2KXhwN3S1WrszrCblOzZoMKwrGLQ0UA253l+ZMnjFNfqsxXwQogUBCMyWkyQWIAk8csq2Eui/A32RQUBj11rso6jpryLCGJxUdKJuhXtPqZ8zWyafchWffGNtm066ARzAHNnpZXKBklo8XK56ms6BftPf7for1P5BajkcGXNDtS2y6Jf+KBvGGm7tDB00WNASbfnXffJZMnT7ZnCyff4Q6+y+cDzxF4pP3RH/3RY9in0RyoyLy8PIuouIOLnDxxUta98IL/EXyYpL7NHem5lkpDZJERzSu8VxLcB9qqTRsH5/wpHWEpvFKhBAsGTDi2ZJo7c6qMVaK51b8+LaZnwxaOkWiAcmksjoR0pDVRs+Pw8TOW/0dkkGUmVvtQ379SYBBo6+i0TSLYMulXL26wbBDvZDrr3dIKSyR78izJm3uNXOzukoHuDtvF09faPqhDYSYjy1BIAkDLJJNoLBPt1D7eqiSrDuifm26+RcaNH2cayck3q03ImvfKd7gDojGpDWmp0ubOE3ikfeUrX7G6i9EAkgWuJ+PkR48clVdeesn/ig804t0ZuTZideqYgja7WgDhT+po+0xvh/xEfYXDA73Sqq+FagUWaxINLFahHzOqTEaVeja4wzzS932pVtG1oxesKGbSuLSo0FKa2lU7oNVYiEmRm8kTxl62EHOkgFywLo4sle/89HnbgILN/gLlJXP0BMmZMV+yy2dKWla2ZJSN1TGnXwa69LM93tUMvgli5iNp8/HadgSbiEQnA9wl00ab1EqpCiDZLbfdJlOmTh0iz4440QIthfw77ReKR2l/+qd/+li4D3gRjGSkVB0/dtTWknnBMoM70/MkV90+qgRfDeF7opwHtXNf7uuSdaq59urvtXpvhDQi3R0NCtGIELJ6mmRfQAM7v8zMpBhB2zMXNaasyJcZ0tBs2evkGZItT24hxUUpw80k80hoNa535OR520XzmVc3286aldUNVgyHtDMDz52ZJdlT5kj21LmSWTZOUpVgmNBMcaTm5lnZhIFeFXMlmwPfhmitep4zqtWIQhdpGyRjjRnXwh3Y2N8tFwJJdustRjKI5RAPydBUcIfvheJR2pe+9CUjGb4AXwqHUJqMsgNUDPZiipqL92Soaam/M5pcycAHVYTPqabZoI39dn+XbNOfmIZBtRemT36RT2CAhzjs5dWuphztVKbaDL+KtvMRzWebR5tu5QWpVXl6LkoIkB1CgAWikcxbSRqW/uR3rs9n8/UzqZiR/u8nAqwDY5kLxXne2rJXXt+81yaYj5w8a1HPy2QjI8tMRLRYRvEoSc3ONbPRoG2RqgRMydJBQV8b6NI2U7JpA/neV9Cq1MGEbDwHFg9HogGhN2ifVwaQ7GYl2bTp04ckCcdLMuCIFoxHVn7AsS8UEx1Ckazi+PHLSEbe4r3qk3HL+GRXgmTM+BNCxjR5R4mF9jqoo2ejkn5IMyAUSirIlV46WrLGTZb0ojIiFOpbqLnjJxptYzmItZRXSBFqC9IxGZnq9FvysD4tJIuDaC4YQiIxWpL0JKKMmGeVNXWWVEz2POYkZeHYH5t7YJI5nvxHnoXzU2ORaYQjJ87bQsv1m3ZbitTew74NOIImMjOoqCykZJECrE6/moSYyykqYKkZTjP42tTIp+QZ6FSPDB/N0zZIBKsfWKGup7QsIZZHJXL4INDylvY9ZSa8uOW2WxNKMhCKR4M1PngxFBMdYiKZarK71VykKUc6ssi1MBMqVVu9rabhk30d8qY2NGvGhjS1CUuGCkKOZIweLzlq9uTOXiJZYydJxqjxKjAZvhLdHW00kH2FdsJs3L3/iJENzcNh4Vzaz++juc9HAkEVCNOhZnd7R7f9TZEcyAbR2D+sp6fP5unY8gi/iO2HWNZPWhPVfem3fv1sv/5tRVD10nbwT8/H6+bg+4lLXiZZJpB2276jsu7NrRbUWL95t5XiHhKWDwUdeC52KAmb6qS35rz0tzWbeZheVKra65KgotHS9DXz0ZRoA70qlAHnprIUlgYbhuBmsDUxAZFEgIGWvh8JkoFgPLqsTDcf4CBiEghuKLBMd0tLi7y0bp382Z982f+KDzel5cjfZ4/SxhqQTm3EkfLJ0Jik8byu5HpDj9NKtA598MuehudUcyZrojb0xKmSVlBio7CZPP4OxsfqqbsgHQd3SF9jrY3WDpiHaDJC+jOnlcuyJfNlxbULZN7MqZKbpaO8duzFvqEdEAxk5qM1Nu48YMnDRBhNezCi60FHYS5SKdiB/iEj3hXEIT9xzrRJtikftT1YkoKfl56RZqF3SilAKlY/UzKbeTkmkavrG3WQ7LXPsBHHcEoUQKz0ktE6SC2WzHFTzC8bhLb/QF+vdJ04KF1njklfs6/QkhcYmizwXJ6aKY+qm8GG67Hr56HgaQjhf812erk03QC++hf/W25fu1YKCgr8ryS2TLeXR5eRDPAmQhSYDBwLyW5Qkv1Ndpn6ZD5NNhLmYpWSYM9Aj2zu65aTSq4a/Rt/bMiVtSPNlxgzUY8JkpZXJGm5bOqgjesnlxeYQr11VdJ+cLv0tzZdFtygndBkJVa3sFCKVMDHjy6zQMboknyr4FusRGDfL9v4QT9LJSy+R1DjFTXNWCbC8heSkm1/ZdU8vI8ZSF+g6UJlgjC5TYk4giI5nFuJBwEZSY2kDHBKHvw8tBgakeugrfg7osaKASnqp6WXjpHchSslg0ErQGD721uku/KUdJ09Ln0Nlzbrd4BU+GWr0jLlzvQcuSYta1hEo8Uatd3+b0+TzZV58eeP/YWsXrMmaSQDjkdBSQaCES0Yydrb2uXlF1+UL33xi/5XfKD019eUZNkq4iTTxD9GhgfnZYdNsjWIFpJFf6xfhSmQXPo8ECqjbIwe42zSFLINOuuhwCisJk63CkbnyUPS19KAneB/0wfMDJZQ9Krp0K8kLCxQYinZqINYoJoOckEEyMWBBkQLoVFIT2KV8pUGxVC5V0ovNDSjTS+3PRB49nlmK2L8J94nU+aMDmjt2gcqMJKSmS1Zs5ZYQCQ9v1DSCIDo6w59alb2Vp+TrvMnpK++OmhEtkzPfYMSDKItVMLFCyS3Vu/v6z3NlqjsxV9+7WumybJU4zskmmTAeBSKZCCQaMFIhk/26ssvyx/+j9/3v+ID29Y+llWqJoAKqXZHoknGTTPReEE7mMDGBjUND/snOodASWRBjYJi7XjVXuOnSHpB0VBzJhL8ROs4tle6z1WYRvNi/IQJMmXKFMnNzZWamhrLjevs6LC2IWOEzuAYtNG1TSEb7YppSFgcASahGsefZ8OnpDYkP0N2UADQXGg24gaYgMHgu7aauar1mBbwbauUI0X5OebXVdc1yfGzF/wbTPiuzALcMdqObBoyV4V+pvrbbNwBTmqbv6Q+7yG1IIxoaNBREyRj/FQbyDLVSmDuzOunEW3sqT0vXafVdGyq9QWXAvqNkhU3p2fZ9krMpcWj0ZDa83p//9CjPnQAyf7P3/6NaTJk2sl3MkgGwhY3pZHpFMjG78ECH4Aa4+ueH5rxwUTj9ToSZSfGfx0CmoQOZcO35/o65Ze9HXJKHVvvhn8AIqXlFUjm2MmSN/da9b2mSVpO3pAOjxr6HXw4zMc+SObRZqy0feChh+Qzn/uczb2MGz/eakiUlJTYhuBURrIafDpAMUjRsUQIzTTUdkVcIdiNOjBhZrPYlWVCrHPjKuSB+uaifX+HApHGEtWi+GSYmiw2ddoTH405viI1K6dNGidL5k6Xm5YukLtuWSYPrb1eli6cJW0dXVZ0p66p1c7n/CTWhN2fnidfyCqSO/TnItUyBLY4MOlYjFupfcGcozGcblByca8DqqkIiKTq85hG04NgU7oOeunFZUYwgkuBGo3sEGjB5pFsVuLNP4wWDO512k+blWBEMR24jzvvvtv6Cpl28p2IwEcwhNVkDlyYAzs/UJOB1197TX73d75gI4Ib/Wj8L2YWK9kIySYWdCj7QhPcYP6DKYLLHkLvN2vCNMtCIFKYYkGN2O+EaN2AaqOe9lbp1aOvpVEG6i/IgI7EjmjY9TfcdKP899//fdNqtBUdMKC+ED4RET60FSk4Lc3NUnn+vPzwBz+QQwcPSZtqPbJjKGX+IR213VwRIsFzYe4cUKd9hx57BrrlhGrtUB2GJlsyd5qsXrVE5s0ol4bWdtNIZIvkKrFL1C8cYyUJMq1aMuXROBklA3705KuyZc9hX9jeHwBBc92dniv3ZuRZKQEqjqltc5m4n1Tz/Pu9zfJ4r39UZ3CbOk9Si8pMoBnsstQ0z9ABL807SGu79He2SeepI9J16rAMdLb73/ChRNtiZWqW/G5WQVxzaLTUIb237/a0WhIC4H6Q47/75t/LTbfcYq85YmGJJEWTfe1rX3sMBoc70F4uJIkJBHu9B5rsrTffNJ/EkWyUjkDUvy+NU9UHgrMyYm5WYXtGzZNN+rNK/0YQvbBRUjs3V/2C7EkzJL1klJmLNorGAKJhvWry9agP0dPaLH0uF08FlkwHJlqFTG4dWPr1J5ttULGLcuXsc4bpQSCCXM88/Z2fkJFdH3Nz8+SVl14201LVmSxSQfpsZpFMUGFkvwDSjCjZQG0U22pIX5+nZtoy1XTX6uHyQTGXveO/tVF3j9Q2NkuDaiOqV7ma9+Xjx8jY0SVWxtuSj1W7tXd0yo59R+VHT78muw4cl4YWNVCVYKrrbfP8j2YWWPVnEgvIyFDL38iP8PqSvn05qWwjUqFCfFg1hm9cV/O3oET9C18GCDJBe1r76XOlskyI/tDDEouZS0vL8EUd/QMXQG5oh1vT1Qrg8zGCeyW6vFOJxsQ3gFD52g/sIT1z1qxB+YZcwWQ73AEfUDqBfAk80v7yL//SMj4iHZCMxoK9aCwbqf3HhQsXZMumzVbC24rMKHCMMXvG8904VL0XBDboRDI23uzv8qdDEbH0QDuByeTMseWWqIrvZZkb2onRghB9vzZer46ovR1t+rNNR9pO6e9VkbbnUilD2Bjt1ME37Ui7aHt0qJarqrwgNdU1UlV1wbbytUKw+vwEQ/q13dBqA3oN3vvlE7+wxYMlesqVSpz7M9UfCGgn/sJURMDLzGxKN603QYV+imoZlvdn6nu0D2EKI1lPr+26ySYPzW3tVs6N+TWyOWrU33IZ/8yHbd971Lap3b7/qO0pnaOPOFv77B41CdFeK1W4x+v1uAcKIWlL2EBHBg8kJ2rMwZVZ4k9El4Wadu/5hb6MDx0gAG2LScjzqyCZCUmQxVaaM2jp3zYn2d7Ch+07yA2DzGp1O9CisYJS7MfU6tmn/qK7r1TtL0z5u+65WyarH+2Vb6/vHM3BQGFluP3nCHXEVOPDsZcvOo0FKGxKtSqEh/cByxkwMaZqJ1GeK1ZwFl/h0T7bAof8s9fUPKzQRhu6UalvNGQSNGvCVB/BxpX75ryiuC7PAUkgUp865EauNjWZOjss2OHbySUAel6EIiVbx3wVEIIrgCJC7DKKRmNnm4a6eiVSgzQ1NKpZ0SrdXV1W2aui4ri8+MI6W4OHlmCXk6VqXgNElsGDPEtfwEgPf/CIZ6VeCv7uPCXDdB392YKI+BsCiU+KlmHymeRiymQfOHZKjlScleOnKn2VhE+ek4PHTsuugxWW4UEaFcEXLA9MfFLh2NebDULQpLQg0y/sxMP2w5ALQvMa90nrcNQryViLd9bv+6TkFmj7qIYazAChrVU4VaNx0DVEdo1kKk++31Okt+ac9QdQ6tmz3hKnJkOr7lPtekhlhqU2gMAQm07cdvtqmaCmvRdoslgsHniApoqEmAvpMDpzcm7GEa1ehWn//n1Wz85Faki4sboZKgixZFlzRgSFKOF+VfNP93bKC32d6o/0iupJe38Qet4UfUjMw7zZah6q/4VDHS25GDEHGL1UY3W3NJlZ2K9EizqjnutnZEmq+hop6uibRGr79Co5qeB16OBB2bplq22MiIbDH6vTAemw+mJ79+6ztiSosEIFeo6ag1yRzRHRFl0qFD5t4SOO7+cljcWlipUYfO9GHemJ9tFm5GNiQvp6gecUJVyP1DW1yHnVYufP1+pRY5PSTa2EF3xYrtr04xkF8pCSrEAF22vis+1wixLMnTMYuC6RvCN6GAgw5eT7BqEAoNH6VGtxcZ9G8xGM/ug+d8LeBwRd2DBwpbYPg0usgGSUPyBA5p4U03DGrJly4003y9hxY+01B5QI8ovp6JRFOERLsrjcJUckVCzIVPu+pKTULuqAgNRqx/hG4OhByHq/jj7/3N0i/9zTYj7YZWF5P1K1I8kCL1h6i097BenQYIBEaK3Oxnppqz4nnQ11Sq4OP7niAKOxarW0MZMlbdp8SR09yf7myek4lgKtW7dOvvOd78o3v/lNefzxJ6zqMiCFCGHis6xWaNWjTWlippke/OzQ1zjYcgpt0qRH3UX8jF5pVQHCJ7pNfaivZpfK76pvR5WwYB2LOUrlqGX6Pvtn53sElxS0Br1WqAEqUi8qnYz0gzCzMLSgYn7j73Y21lpQyczJAMFm6mCCmsVo6XiA7GEmMkA5IKNlZaNMZkMBZQLRYtFq4RAXyQBMRxtw04Sky0aVDSWZvkdOWuTx4BJoDIpR/ry33TQXDQRZLzuHjn6ZYydJ3tylkjN9vvpeav/je4VrFL2ffiaVVVt11NdKV0OtRQvNIaeD9f1hgWvTMWoipZaNldSJ0yV1/FSVviLp7R+wyCLzZ83NLT7f1X89/B3qoaCfuvV50VQ8L+8GO3jPTEg90Gys1YN8eD4IJAtl/1dWsfxN1ij57xBOzUqsCsLtv59VJH+eVSr/Q9/nPeagJigxoAYRWyKYr/V1yDpt/zfVejiigx2bcYBI4oZpWXhZ+3PHoQGp+ru71Ipo1IGu1qZGvOa5b/oAn9D/QozgTAQ8yIl0QEZHjR5lvlQ4QDQXhxgu4iYZcCo1J1vNlVGjBzUbIFOMeRMc5mhBBd/t2tH71EwMWkZMO9G016QZkj1tnmTZxLKah2puhALzNH2qpbq1A7ubG9QkbFK/S30unGwlGORLKLQTcfhT84sltWSMarWJkjpGNRtZ/ZlE24ZKDH8Regf4OQEGcVjwSb7D4ATpSKolGwPf6lZ/WlKRkoizY06uScs1/48NIKjqixnGod6r1SWEZM8qwXbpz5M6yLHeq04HIExXEE7WsSGGrAmjXaN4FCNaT7f06uDX01SHUNnrnAnSsmEgGjgeIHt1KoPerEVkdOyYsZIVhdXjNNpwMSySAYiWnZ2l9u04i9w4MCJDFPwofo8GR5RcJ7RjhwY2fCCil15QYnNfaC8IBuGCgdEHAlkgQ7UV/lZXU4P+bLbXnGOdVDiyFY+W1LFqyo6aYKRLUfJZ+N9LNj/Ro2uloeAsHB3a1pVKDNLLIMvW/i6LqjHQMUNEjNXmmvQi+Hj8Y58C9nB2PjMT/CRzE1EcpwOXL/tENabeH/cW7v7wmTDvBsE5PX+GBf2lROtrbhw0GVkkxUQ0R+ghNDSQOWQPGfTKHzJKsgDTK9EA18hrocWDYZMMZKq5OGHCeKsz7sBj0bmE2rvD9Y4HCIQzT7ywzA0lGNorb8EKyShVYdXXAgG5bEmFmoU9bS1qgtSYGcLvprXCiknywL0yMZum5mOaauGUUnW4/drXBgT7LT4gxxzskbxZifWz3lb5h+5G+WpXvXyru0mOKNHQdEQeqXOB+e3MUsxUiOe4MF8J97HMAvl0ZqHcqWYnWo+lJ5hraMxwQNsMCXBxXq9miwRMdguG+K4zVgXbtJj3nDEAmUP2AnsdGZ04cYJl30QLFMlwiJYQkhGxKS4pNd/MazKiL7D1nbkRCXwqsCsRUOa88heslJxpc32LAoM0POTq62yXDiUVwQw0V5/a+4HO9BUF2i07T1IhGeaKCiFC4Bxzn7jHJlQ8HaZiYWqKBTQgB1kat6m5OEZ9NIgEWPJxZKDbgiWu3ooRT4XbtRBE4R46lYyNqhXrlaAN+nl8vljB/CHPGzW0/y52EwzytQW5i9OVZPECmUP2vHeObOKLlalrE01U0IvhEC0hJOPiRGtIKYJoDsz1UJ2I9VzRAJs+cD6ElbVoLrLngwU3IBHmYEd9tXQ21klfR5uF5S1SGOV1RxR6/zbHhn+m7YZGIUgE6IzYKOYD3+5TEjE2T1cNyeTtb6k2+svsUnkkI88iikxYk5HB9ACkgtj4XOzfRUQXQFYml4lkMuFsc256RNOKnA9TcxBYGmF85SFAi7H2zu8j8y3yFZljjRfIHLKHDDpAsImTJlnmfTyEgWhEHGONOiaEZAAHsXxyueTk+grMAGY7mJzEqY4G+AiFAbdkW8j2qyiGPIX6fF0dlqVBpIpAx1VJLi/oqCxtJxVEtEm7ib12Bq/bb7GBp/WR4aJFGQv1LBO1LRelZtjOKsXapvgmO9VXI2OeIqNU6nresucvFRvt0x/4X9wNr8TSigg1ZQQGgcUB0aKA9bH6ZK7fSMVjSQ3ZHvECmUP2/LN2BlLbJk+ZPKxgBuZ9rERLKMlIU+FBHOh4Rst2vbFoOmy8NiwN7AWpNn3NDdLf2uh/5T0AOolsCB2t0TBMVUCveAjmBe2NBmI30zY92DoYytCiCN0xJdSTSq4netvtYOU4PrDTP0TiDqiJyLIQdkOh6CuvYWoSBg/XhzzDYG1Dfa6UdFLOohTmXtVgntJxpI5hLsY7P8Z9InPIHi3ggGxScmC4EcNYNVpCScYD5Hs2M6fJq7ThbeNz/ygVDhO1c0apGg+8qf6WBumtuzA40g2F+hHq34QL4191oHOIjKoQMtFepcKAqUaXDZdoDrQUZiAb4BGt5W8yIBjdK/RoTE+TzLxc2wivqKjQTKkjKf3yHz2t8tfdjfqzTZ5VTcc6PZIDENhaPQiwcM/0KQMEBKRILIQk7G/PxgASad7Sg4vkhhL08GOqPy8zXiBr3B+y5/XJ8gvyLSl4uCQDEI0QfzTzaFEtdXHA3wq21AUQ6qy6UCV/+qUvyaZ33vG/6sPnM/NljfoJmADhwIj6lI60P9NR1rc2yQ9tcEL2Bctus+I23s7jIck37GqqN3Px3QJM4P5ThyRVB5Bb07LlG9mjbHAhowNfaLjAP2Ip0LNqGpLv6T0nTv/MmTNl2fJlMnfuHBOWzZu3yO5du7UPL9h9oEWIKvLT9/elaQBMerJFmIAmcZd5Nq5xUMnYziDJdAXLi5Rs0WCgrlL6q84MarP/pf4kmffkv8YDNOpr+tzf04HCixUrV8qfP/aYjBk7ZkiAziGeRZvUHeVnOFhxU//vEcENBFu0CVCdOJSbN22Ss2fPWl6eA+SapAera8MB6jBK0khDqgspkZgnYwEmh3ddmNFNr01k0Remf3eA9rpIOpEKVpHKP75TmT4XT+01cWIF30ersJj1lf4u+z1bNdXChQvk3vvulUULF8rq22+Xm2++2V6bOHGibYo3RX0VylazuLKqpkZ6B/pNIxDQIOyPNsTkpE6imYY6JFIw9Kx+jiQCfuf9i/r9lJLRlssZlbnIlIsONBfVHUjTczMvtjYjxxKn46OYL6mBmh7kLDoQK5g3f77cfe89JsfBTD0Gn1gCImgzSMb5wmm0YZfpduCmeZ+kWHbcbG6+tOsi2dQ0GvMekYA2g2j7MD280PNjEmaO1hHS23n2OiRTD6TXt5rpXQE6uUdFV7VvZl+PZWYsSM00szFekhGlpBTDeiXXW33dVnujX0fsxYsXyZ133SnLly+3MgloMTLQWd+GdYKpWFxcLKWlpVJWViYlJcW2gBGrBQvFstNV+PJKR0v+xHLJLZ8qWRPKJaVslPRkZUqLtnsnwQtugudSUzGVFQpRmIyYiRchWUeracRFaRlyXXqWrQqIF9R5IeeVeTKHsWPHytKl18qq66/XWwp+T/GQrMe/MiUc0VJRdajOeOcAAjFd/bJx48b5//KB1css/47GDCL9BzJijnibguhTb4OOn5iE+lBe2HIJJZ434+RdARVEUq0YVMjSME3gfysW8B2yNQ4O9NjGGa/qcRaC6esI1JgxY41YaKzx48dbAIA+p/hPjv7OotLsnFw1o8aaCfnwhx6W+++/T1avvs00HP2QkZUtE5askKk3rJbpt9wp02/V4+a1Ur7qFhm34FopHD9J0rPVldD7gDQDqpkC6+AHw0USs6kurMjQC83XgSYwwhwLkDFkLbBiMCYi5QaShXA8slf4AJ0RiuGxYPqMGZa24j0X5gXl2poCyBEMufq98er4TtPDm7NmC/7UvGL17ABzKgFIwwSIYI5ebbAIY2aWLRM5rAShjTDNYgGi5Jto7jVf9lX1w+r1HM6kpm9PnT4lBw8eMq3kgEDkKrlGjRmjXM+3sgAsO8lUMrFh+XXXXydr71grM5ScDGI5av5NX32XTFh2vZTNnCulU2fKmLmLjGgLP/gxI13RxMl2DlHNdpESDc2qoTzXDAYjmQ6g9DSabK5aPPH6YgAZox2ROQdkcfz4CRaYSyZC8WjwaeiARGi0adOmm53PubzAz2LlbDSgtgPZC969fgETzD01lVbtKBAERALr/F3tMHNKNdlF/cl82ab+Tlv8GAvq1O94UTXXP3W3yJ5+Xym89IxMyS0pGyTakcNH5M0335Tz5ysHiYYGo8hPW1u7fPfb35a/fOwxefHFF23ydtRoJZ5qNmp9sKIbczyNex1iW1xCRm6eTLxmlcy64wEpmTrD+mHQDAwz9UIiwcWudiVll2WmUApukspNPKugHZCxwakEP5BFzMUZM2YmzGILhWA8GnJFmMibw7mR7Bw1K5Rk5ZMn+1/xgUAG8zTRgNIF16Rl2lorb3NDst46JZkn3OuQyrzMMDIErggY9ShjoBoNf4pweb0+YzQg+koE7T96CbV3WuBhQP2rsfMXy/wHPizzH/yIFKnfRN1D/Ab2kHvhhRdsmQ39m6FEZEtX2yzklVfknQ0bZOPbb8v+/futulapmpb4bBAWCyGFTJ4Qss/Ina5+XcnkaabRsgoKfaM5NfqNnEGgz2tpVPjRSja2nZ2jWiywz2MFMhZoKpLlgXXFJh08e6CmSTQCeXQZm4ZLNFhM5sfsOXP8r/jAkgk23MO0iWQQkdFNWg11LIZkdlPTvb1Fj1bL2vbCUpUCtOe7AVbfQn0zsi6Oq4DgrHvXPzlg/NB2CBF+1696O+S53k4rd3Y+5aLkjNOBbeVNMuWG22W8+k6j5yyU8hU3SW5pmZGZjfN37tgph1Wrtba2mZCj6QhkMfqy3g0HHucf05tgSLr+btoQ4bSiOOGFk3oq1Fm0Ds7gufJ9Kw6CAXNO+9FSqRRMDSzQgdXlWsYK55ciY1T48gKTd+Ikn3WFfPNzJIkWlEl8gJuIl2jl5eUyb968Id/HqWfvYMKrLo0nFPgWSx2oHjs0tUZHP723fsqyBZQPI+jB4Uykdw3IYVSSDeh9U4eC9mGhIaRCuzXoqMxr1Kpgu112pmGTc9Ki9lzslc6cHCmZMkMmLbtBpt20VjXZEskuKpF0AhXXrlTfaZZk5RfYlArVsd5WbVVVVaXarduK/FDv4s677pK77rnHNsab4xkcKQ0O8dBkaarJIglmd2uL1B07pNafaihKD7CYlvSqIDBTsb1ZfbZe62+slzlqicS7QBOZop3wx5A1B2SQupi4MA4jSTTjkf/vy8Do5pgYK1DNM2fPsjCw9/s4o0TRgo3UgSDStDgtwxo/EAQ/+jt8BTi9QJNFncqTKPAs7ogD+GUpROUyfJrClRpHWKixuEWJ9aSS6ls9LfKPepAWdVSFqVPbJ0P9ptJps2TOXQ/JjNV3S/64CYPanMEGso1ftFRKyqfZ34TiN27YKKdPn7I9DKhFQuWmP/7yl+Wf/uVf5LOf/7xMnTbNvg8wM92InMGqgTBapl9J3Fp1Xs5u2+CTneIySc0t8L8bANpKP2OVqVSTMcUzWkURy8Ub7IoFyBSyRUaKA/fNNMS0GdMtcuqFI1o88h0LrC38vwdFvBoNE4RQ8TVLr7X5AwcfyXpshI4kkpgNRJrIZQykDfXoMRkDQWTL56CPHCy51SJk8WebWDGeolKYIXtUUP6fkun3u+rlK91N8m31udgZlHLYbkkMyMzNk/LlN8i8+x6RshlzQwZ9ymbNt2hgtmoV5nEwC3ft3GXBkK6OTnstFKyMnX+wzcQ3CzPyt1Wfl9qjB6SzuUlSCsusiA5pY8FgCd+darJiKur1SaGaqp91K8RjBU+ATG1X2fJGFZG9RUsWW9Aj2PyuG0CSrdEisgcmxko0Pj9KHWcqAnmXvhCexkE/qiM0/kU48Ng5KnSsKSILwAsr7ayaLDDKaA76CJIMAR1oqJKBqlNysbkubi0KyVKKRunIkiU9+uBkzGMyIjDkB5JtQVwWYSKcnqWEmXrjGvXBbpa8MeMuSzXzAr+qbPpsC4gA7nnv3r1y9MgRaW9vU+3WFZJopsmUEDxXmpI61DVIAmg4eVxqDu+Xi2p9pLACHDM4FBiY2pr0ZnwyQGI4VbviBbKETCFb3ikQZG/FylVSpto6FJEc0WJVJLEglRuJdDAi8JMbZSSM5sjWzy9ctFBKy0oHtRlNSjLptoARJxR47LnaaZOUPEOgplR/R5ttPOcFptKIhfERzD7VLXoPA+ojpqigZeazkUUcwRfM3Jw8K8Bj+X5eE5ln59C2x+TLzFMNtuJGGb9kuRSMV2c+hM8zCP1e/tjxMko1mgvr19XVy7Hjx+VExQmr/QjJGEzr6+rk/Llz1n+8Bsnw5SBZupIslKA2nT0t9SePSUdLs2lkK48XasDR87J2jHYjqkhrkXGPqRgvkCVkCtlyUoXMIXsrVq6QMTrgB8q09+CzBHx43kA5DnfQNsHOF3ikYrNGc/BhGpkTY9tHOghCoKbnzJ1nZZEdmJHfqQ1ChjS/R8KMlAwp1w5gotILdm20jR88sODHSJFM752UKDN5dLTH1CF0nc4EcxxEQ5BZMW1agC2dICxFggrVjIRIen58sLLpc2TKdbdKgfpf0VZHzlChL5w4WUbPnm/mNIQipL97925pb/Vtk0RB1tfXr5fnnn3WErzpQ0qOE+anXTN1ELiMZCrUrD6vObxXms6dlouYvdx/mOe3xbRoT4Ij+n0CWxQwHRU4kEYJZAhZQqa88oTMIXsEcphcDybT3oNoKgiU43AH7RjsXIFHTDrSIk3a0NGqVi5w2+rbZMyY0YMdhNlz6qJ2qvoY0WizMdoJrC9iotKLfhZpBpDMzEVG0IDPJgX0J5kn/mfAjEOrZBeXShqmUqBARoJ+HhMrdexkSSufLanls+xn2thynzmp/wrGTrAMi9xRo6MmmEOOarHyZTfYxDF9cU411v59+6SpsVG6Ojvkheefl29/61vyzW98Q/7xm9+0Sse+nWd6VdHqIMdi3IB2xV9ruXDeIoodzc2+IkF5heHbv0cNOiLDkE3BshbMxfgo5tNiyBIy5VIdeD5kDtlDBqOFy0FMNGKWxlh8tAxVwbetphzy5RkgrNKtUA0QCVyL5fML1Gz0YkBHwn4LAQ89h9nXYXyUxEE1mbYFo7EJFe2h10xXomQVFPny+OIAz0vYm7ILmFzsHsOon1NUbKlMJdNnxaWtCennj58kZXoO5rIwjS5cqJLdu3ZJY329tEEqHZ0pNd7eys4u/Uo+NYl61FzU9sxgT7fUoW3ap4Q59c56aa+rMc2bWqx+ZQQwAU0ysMMM7VeqY8ULZAhZ8gJZQ+aQPYo8xQK0OkGSUH5qPIiZZACiReMs8n5JaaksXrLE5s68IAzNxCqOfSRQMWmeOsZDaKqjDgGQ/lafbT8INIqO8smmGPBVY/L5SoMmkpIETZaWHluhliHQc1xUYR9oqvX5Lv29Zh4SwPBpsDiejgFAiT/hmpWSo9oWIapXcm3atFmam5rk5ltulkc+/GF59KMflc/+9m9LYWGhdHX5djlBaEmzYgBw6Glvk/rjh6XhxFHp03Yw8zZcsANoP12kJF9Xuz0BvTRdNdnYcJovDJAdZAhZ8mLSpEkmc8heNMogELhEoVabxIP4nk7hwvvehg8E76F+V163Smapbez9LBE0IkIktkYCRS4hmqt263Cxt8fC+d6qswg8KVZ6Mf8ryYKenw7kOhDM4+jjwwzr+ggjI35DtT1jihIit3S0FE4YOlDFCjRgqWpCAiEZSjj21jp69IicPXvOVk6sveMOefQjH5E1a9eaj9LR0W7rpSyTo7CIxrXzMJHcXl8j53Zuli7VehfzlGCYiREE2p6JVCpMUP2bNYaE71n8GQ+QHWQIWXJAxmbMmmUyh+yFk89wQL4TZTrGTTKARotm5pzFcgsWLNCRpcT/ija4HqymZd6MfbbCKWcmKFlfRAaIV0cZyZqH7uGMdjFz0fO5pMFPJvzARE4dmAmsfpKZVX4BolBQO+XFmygAOjRtKFowAGUVlUjJ5OlK2lE2YhNpJF+xtaVVJk8ul2uuvdYK1dKvba2E+Lst28O3WNbXpl1qPTSeqpCaIwdkQLWX+WKRtJiCVRRCwENBP+ICkAweqxAiK8gMsoMMeWWnuKTYso2QueHCES1eojoMi2SAG4lENEyPBQsXyBJV4V4QFdo/0KNO66WKSaFA5scSJZm3gCZFTE2TeYSO+zCTKtkc4z4syIK5mOD5OeaRWGPl9wv4f9X+3XL4+V9I9b4d0tlQL32qYeIlW9mMOVI0YbK1Febgli1bpLLyvIWl8ckcqN3PtkpZ6h+Sz0ijosWaTp+QqgO77bOpZeP80w4RGpyBVAcNV8uDflx8WdpcdEBWkBlkBxnygsF8/oL5JnOJQCI02rBJBqIh2oJFi+TmW29VU2roJclnfKG3U1ztv1AgSxu/LE872p2BbAsijIMBCGDm4shoshSCMQhJgjWZNpJPS3rQpwNK47lTcujFJ2Xnf31Xzm55Szrq1GeL0G7BUDB+khRMmCRZefnWd2R/sJ9aU0ODzZs5sLq9a+CiZBRcEtiOxnqpO35IGpRoKQRD0GKRhFDv0XJN0WLIir7ELjBk9OAKxApkBZlBdrxAtq6/8UaZp0RLJND4wyFaQkgG6CyczFBEY3n7vHnz5brrb7A5Nwdq9e3REYm9fcNlgSiF/RsLpl/a2EA/b0RjhPRHGU2TaWNjGkUcXYcDzm0aE3ORwMfwRjsvbAdP9XFSCnypVgYEVdu4u71Nms+fkZMbX5ODzz0uJ19/UVr170iLI73AnGYlM4nFbtL54IGDNjlNOB+hYmsn9rO+qM+VjT+mQItV7dsp9RVHZUBfTy0b7ydYhHbGx2SltK2Avmj9SJIBP7XlfJ+JEsgIsoLMeOs8Mpm8fMVKmT1btXSR734TieFotISRDITz0bhBCkvec++9pspd1IcJxFrtBCrZstguFM04IxPSM5VkjIIOmExEGCGbg/ller1wmjUR8BEZQuu1AjTPsIA2zsmX1NETbIKaEmuDQQUVLELnrdUXLI3pzNYNUvHmS3J643qL9FH3n89EQv7YCVI6bbae1nffrJyuOFFh5GpvbbGMfX5Py8qxKQkI3njmhOUntrf45sQsAdgNAqGg92K5ii2NqGN7yZn+vtm/8OBJ0FysnyPLfo/6YdQwQWbc5DOyhEwRsJlUPmnY5l0oxEu0hJIMhNNozLzfcOMNMmfu3CFFUEl8pfAJI1SwDSccWAYxHZPRe25t7P42NRk9JKPnfH5Zwh9vKNBiCD8DSyJJBvT+2aQidcxEXyZIfolvbZYjm4Jsi+YLZ+XMto1y/PV1cmbTG1K1d6c0nq6wvQBMu4cgHGH8wonlklNSas+AuUgWCGX9COmfOXXKSEYaF7mS3Ure8zs32+RzPwtk2QoqGu2tg6BFFVkBrfdDK5H0vVD7kZUWgaD3iRayNS5FgdhKi8WslLfz1S/pMlnxJkszsBeq9iKNj9XeyUQ8RIt5O1u0VSRggnAjzKC7dBUA+VxFoIqKCmlQH4DP2mil/6fNy3RkZXIyGD0Y99L0wy4ty17TDqO4aQYb7zHiA/0MG6wPUDRT7yGZYIk9WjNDhY5tdX0v+kqHD7sOJCQ207FItUa+NmCabzBxxHFypn/3qpmHGYk2a1Mi0JYZFFDVtrYBz/30A2IN9PVLr5KntbrSghisli4sLJBx48bKvr17ZdeuXZJWMkZKps6U1poLUvHaCxZtJPWLASAaS8EKlzaq79jebPdJgaSFtvl7ju2nBughSEOpb4oKHVRybVIiQSpK272qmovcRCqYkdlBErB7dIBMMYBPmz7NKm6xxMrrkkQLzGZkNhL4jLPYuHYkJIVkwKWoMKnn7QxubtLkcnW2D9voyWblDrXawNRxZ6MBdlkMBGeh0A67cbLE3JpDX4Ro7LyZ5tYvaWdRg5HN5WLxVeIBvgZ5i+lqUmWUjPa/mCCS+UH72bozJVpq0ShfNA+Nr5ofTe4FewF0tjRJw8ljUn1gt23Va4MbxXJsTdglMJ9HAZ2qg3stk57SBBBtkWqEN998y/IZ88qnSWZRsRx95RnpqK+RFPXD7B6inaylHWrPq1/gK36EJXJdWpb6ZJeEk1LglAZ/rq9DfkL5cCWVb03dgC3AjCT2yCRBmm3bt+nvA1aVK7BiWjSIlmQA5YAsR0WyL37xi49x8mgOOotcME4czQHJCAPTCO4cONXcIILDJuVnzpzx34o2lh6MUuxJReQpcH0Rf/HaQRUuljWwBARgFrG9Uno+E6a+7+Cr+Tb8G5oNkGjgazB9lF5YmjSSGfS50D5mlpKIm1Ngmftmspl2uyQcaG8WUdq+2Go2Np07ZUtROupqTBOSYuUKD2FWNykhezrapVe1VHpGuvZxrmzZvEXa+waM0B31deaLMSeG6Yq/6No5HJjHvEj0t6l28P6o3XJzepb61alGJLTVi2oCvqMDJxPLDLT0K8Y/8uDVWOEAORiw8SVZ8V1a6ksK9spvpAOZRQMGynGoA5IxWR/sXN4j7Utf+tJj3GA0B6Sx1H19iGgPbsI1gjsgGbX+WnT0QZuRjOrAJCONS7VhKuoSVfSCv1jAeE5J1OTGOD1n5jjVZETk9MHdNyh4muyqwmYuqsD5SObP3UsGyRwgG8+IVqI+CJPBHEo2M6K0Lbg+oJ3x27qam4RtpZhfa6+rljY1/boaKWverX2UZvdJBgdEw1qhHsjp06dF1AfsVaK2XDgnXe1tkjpK/UML2UenxTARB9RU1C/b37naMz6fOtWsEYjFhDKpUdRKhFyh9EhJSYn5XDfedJOV26amPWYhKwWY33NAlvgbOWVCuh+fUNvBK3+hDr6DjAeT42AH57WMGP2ddgt2To6EVRAOBW6C83MjXjDKMBK0t7WZWcLNAPQO/hkajQWblAcLJBodclobzzsRiU+GJkvVUd43yqb49ypLAMlonxAj98WWenu2jOJSSXcJsvr5pJHMA5sEh2BqJls1KW0vit74cioh3KV+JWO+u63VfKvms6ekrVqJxh7a7Ux/9Fu0EpL1dPdIXV2dT3i0fwh4dBJN1AEsjb2vIXeIthiE9qWVhGuqk4vN9VzcXoZk6Xqw6QXRZMpoKw0Hs+cDgaxBLuolrly1Uu66+26557575aabb5L58xeYWchnuFcGbCfHlFbg9/lkGZWUaktEJ99op0A5DQdkFk1lRNK2CsUj02SQxwl5OMRLMsANBDrKOKmMHvv27jOz0t0kI1q1mg3jUtKsojC5bd5vMj9yQh1gQroOGUUq5AXFl4Ifeq1eHX0H1GwaFhgJ1Xm363P/Ac9AEm+q2osZSrCEBz6ihPlsmHIk6ZJHCBG0KVNc+3DLHgHAnOxWctkylYojRrpuHZDcZ5wsoMX6ycLXNk1hAwmK4/AGpl/gAZH0e2ae63MPNNTIQEudOjqX2oBZMgbGc3qEKqiOsGZlZ1v0mdr8K1askN/42Mfkw48+KkuXL/cFNihZV1Zmmmr23LkWXDty6PDggI57QpswX0bNkpzcnKjkO16SAa4bikdpX/7yl81cDMdEh+GQzIGHcNfhdzQajcGSCyJXDpY6o0LCMhc2rMjwCDfvUT7Nm32dqiNtuhKNHDtAIxNxM00W4bnC4SIrsCtPygDZ8AQfMJX8HUFi8sX6aouEcu2k+mTRALJpP1KYh4WfqYVKekq5odEIkkCGIBgwooRoI54ZLaYDyIC2BWUD8LMGvIeazFQLHmhUYlEXs/6Ctpu2V4xWBDLoK1txozz6G78hn/r0b8n9Dz6opuFM23ElcJAGvE6QY/SYMVbyzskQ0dIO7f+bb73FBnLkNhLRhkMyEIpHRjJ+4Y1IREsEybzXodFYc8YcR0N9vS29cPY1d8FvmI7U5JuoZHNNzFzLYSXYfiWaQ5oKFpokXYXLoU9NFvIbhxXGZ2GmEuxih/qNnSpkOmJbpA8fSEmEU5+i94gWzSjzR7T02eImmX7X7heNwLV7VGgwvQjidLYb6bkXKj2xDMaEvqXRfEM71DzjcDul2L33aEvGHQDSVkebU1lKCUWtRCuC0+VPk+IgH5EDrcU9c60wcuQFJKFGJzvNfPCRR+SRRz8st9x6q+W6simG284oGMEApGCTdQbqUydPSmNDg8kcAk8hoEWLFltiOucIpWkchksyEIxHgyQDvBGO8YkgGeA6TqNxQ2gziHahstLIRgQScBcqSkYuEknd1ktEH4/qyMx8yqDopGVIumoSzDYHhNxIpuZD/PB1rgkZgkRqEIKkhwkb8z8qhGjQzLH+pSj6XIMko7HReNrh9j3mjVQYbYLWSKNCq4I7oL6P0xKDB38rSQZYnMphn9XPkZ0P2Tp9Am/EU6G38/HTK/wIAabccABpBgmkfcPftKmZiJ4jnEb0gP5mV9brbrhebl+zRm5bc7vccONNttkF5QLGqFYiMIa8RQNkCBOzR03bY8eOqgz551/1KB01SiZPnqLy5avWFU6+E0EyEHidISQDvBGK8YkiGeBGvERD5Xeqeq+tqZX6Bh2N/U47ARArkKKyTq0P/DOoxpJzolIqUvY54NvA/VJ9PeZ+IBkpQfHCMjq08S17HILpT1sT5Rdk2+sYHyAjU00qdbL1fcrV9ar5RA2SQeGHDBDEHaaFfJoIk2tQI/mJhbYy8rjEWq5vpNH25D70ucwc4xgi9Ai6X9g5riIgP/TzkmuvkdVKrHvvv1/Wrl1rCywpIUi00Gks5ILBlmhhY2OjaahOlSXe5TyBmo0Ib2FxkezcvkPO62CN/PIZzrFIzw9x+TucfCeKZMB7nctIBkLdCK8limSAhnTX4eGoWU4qz8kTVFFSwfJDRc3SrSAXPhplvNkaiLVEg8Us9RwZpWMlUx10bU17yZKHlQTDijDqufhnXEZzMZojvJwTQTeBxuFXk0rJ0FNXJT0XzkhvzVmfb9JQZSalmXIQCI1o5pY+nxFGz2GTymiC4KRAOGgfDgaktPQ0SVdzlbYLd/BZ971AoUwkODfXQzYyMtWiyLhEAvrYgcJKd91zt3z6t37LCIY5iAbyftYlJzO5XHm+Ug4ePCiHDx2W48ePS1tbqwU5qNEf+Ez8TRL6rl075eyZM+Z2IFdkFRE8YWU+9whCyXciSQbcdcJuZ8sHiP874ECi6mMBcy6R4K7DTWFXv7TuRfnBv//7kEaAYGUpafLJjDy5Pj3L8hyf7OuwFCuH3NlLJHfuUkuzAsyTdal26FXNEjf0Hkw71ZxTotT7SBEM2uE2UUxrqrD4hEuPEMSJFnQ6u0S6TfkQMqJlWSoQ6eobQqRg4PoIa7cOMl2dXZbNgVbgNa/gJwII/fiJE3x7n1GfUXH23Fk5d+asaSFAH3/hv31B1qxZK5OmTJbikku+swNBiz27dlkpcTQSxX4oLbj2zjv1uMN2ZcnNy7VnDjVo/OwnP5EnHn9c9u7eY3/zud/8zGfkvgful6kB+5MFync829myujwSIu4ZzejkfKRkkQzwcIReGYHYaeSZp54ysiEUDjw+laseTs+1+Rby297sv6Qpc6bPV6JdI2n5viRRJmK7mQsiMz0GIIS2NAOzDY2jWsvMRbSX05xxAtLQjghZkZo3xeqLFhZyFJpfSkdzEKaGWAgVfWAazHNwnlSmNkIIG3NDtCcDFT8RCPoRQYZstTU1Ul1VZRkSjPanT502QpjQ6bmZXMfPZErE8ifJLNFr9TXWSW9jrRWXdZgzb67cr5rpxptvHhTSmupqefKXv5J1L7xg98B9/sEf/IHcvnaN7fpT5CEZ81oHDxyw/manVmr100bz58+XNXestcDIeNV6hPUjaZrt27bJD//jB/KiXteB+/rwRx61iexAeIl2xUgG3I0kk2TAEc1MxooK+f6/fk/27tkzZGtcRGpJaqZMTE2zcmBkDThkl8+SnNmLB0Pp+GRko/eozxMLINRAtZp7auINmoQxgDai7h8RL8jDz4LCAhvxCwoKbRf+/DwlUn6eCU4eWsoIlSc52aqtcrJNY9HeHKGIFA9c+9YpuaouVEpdbZ3NUb75xhuyZ89e9YcbJDUrR/LmLdPBijk3CEY0FY2ZIj21ldJ1+qj0ko/oB/NVn/ncZ+UDDz/sf0UtYh0sf/7Tn5rAs70x+OQnP2nb6kIatmYCEJ19xl995VXVXtutBN28+Qts693lK1fI4sWLrV2ibQMGj3/9znflRz/8oT0rgKCf/M1PycOPPGIDVCB4jc8mi2RpX/3qVx+zUTHMAdzFeVhGpliOYOcMdgCz6/Vgg4BMte8ZaakN6LQpIOODYAjrjBo9iTikVRHGd5oMU60fUy/KUDpBDpbZp+r3Uno67Z7ScvJtRCebJC2/WNIK9OB3Rnkr+Kn3rSTMUTJQJWn+wgWycNEiWXLNNbJ0+TIrE00U7YYbb5SbdERl3ub6G24wZ59aFGzrQ6QNQWDzB/wKOhuS0eaJJBjgmSBuprZxdnaWlOj1Jk2aaOSqJLrb2GTaK3/RdZJerG1JZWMlHSY4B8/Lrjps+uGAL7N4yWJ7Jgf6sL2t3UhUof4UwCdjCyNMy1wdZOjTrZs3yysvvSyHDh2y4MTSZcvlgYceNPNwrrYP546lDWi3Y2oJUVPSxQPIaZw+fYYsWLBwUBt6D87vLASsmGAyHOrg84HnCzxS9ENRG+jcNI4eJ48WCE2soPEZCRkpfvnEE1Z48/DBQ4NqPRQyxkyUnGnzVaPNsL+Zb+pqqrcjGpAwm65ClZmTaxrM5sQwydRUMpMJoSd1SfucoMoAPt/ZY9JdeVrGF+fLgw89JB/9xMeNLLGMiFcC1FZsbmqUTr85/vrrb6hpt0727t9vg1XJrQ9eyp7xgGhtx+Gd0nEEn8cnOgjuf/vvvye//YUvDCEEJb+fe+ZZ+fu/+zsTxmt04HkQAt1xh4wZN06a1EL5rx/+p/peZ22gWabai8EJgvJ5izD7T+cEFiJEIt0zTz8t//Fv/yb79+7zvyJy7333mW+2dNlS/yuXA7/VO5hHAn3MgBgJ0YdSFDx4okfWYOAaHDzE3ffeK/epvT/Ns6VPSOA7Ed72w8LvMdwvoX6CJGSu96foyFZQYvmITDTbiE4l33TtZCVdaqZqmsISi2imsQRFr0NkDdPvaicYwGfzjq8QJUs1WySQtW/5kmS++IH5SQ6qd9kSwBqZPnPGYGieZAP8QTJlGKgZgD/z+c/JV/73/5bf+sxnlQDL7HU03+Z3Nsn69a/J+tdekw1vvS17du820np99FAg9WrC+PH+v3y4cOHCoEYNBdojGX0X83oymO5uxNtJoYD6jhU0NA46IxemTREmlPox586es84MpUkhgWVejLq0lghzkSUfUYNn0vOzLovQP4m1A6rR0Go8rW8A8JNXDwqs9jXVSZb6hmyot/K66+yer3aQvd7ttxYAvvPx4xVy5sxZMwtzps4ZQqRB6DNjKvLMLGVxmDtvrhVLwu90oP84L0ENCIbszJkzW83pxZalQbaPma76s7q6Sp556mnzpQiAbNywQbZu2WKBjG1bt8qWTZtli5qWe3btlrOnz5gMMGEdrK0JpJw5fUr9+b3+V3zdRelugiChgJVGezizMRJ4Pu49EmLSZA7cCBdItlbDGeUa7JKIH/PwIx+yMGwo4pKcetmcmH7fNFoMoIGZX+vtaJOe1mbpVh+kq7lRulXDdTbW27KRbv2bqGU/2lP/0UFkq4QaAK52EKwxgQkhW5jeFq1tbZI+5oaINnqAYLMrjBf0HYGf2UosTEBcAAIFXTro9dFPfkGmn3t7fUUBIQ7+6Uz1VVnagnm3Sgcu+h9zEjIzn0pENpTWKSoskNGjLu2/ABobGm1KwO1iEw7cTyI1WtwroxEmbiTSDcerydwkH+fnOti+TCiyXxbLGugsdhzxgggYQYmscZc2he/v6bLAR1z5i3ptR1x8Ed+5VED8wZR+NU3ZJL6/uUFSutotBH/n3XfFHIG9EjBNZsLua8OOjk4rDcekbyr1LSdOtwHKtg/W54RgLB3qbWu1TJaBzlZfBoof1J5nd9XAuSgskvq6etmxfbv59NNnTJe5c+ZYW2VpO0EE+puVDGWjfJn1S5cuk2UriC6ulOsg2I03qAa6ychGcGX6jBm2LRLEDQTn6tUB8sL587JNtaDzsXhOfGXIWqCyhJIIhDfewM9IGi2pmszBqdZkw12H5Q2f+NSnVJDvlunTp1/2gBBiSEEdA6NZgjWuNjzmJEQj29sNCmgyNwi925CdnWk+pT1bX49fe6O5a6Wzrlo6ai/oa01GOJUuHZ6HCnhLq2oyff5A4KNOmTplUE7wqQh4GLn9AgxZ6FsKLBH4WLh4kUUWZyiZmFNjTRl97dVMoeDaPy8/T4k/foh8QnIKBbEXdjTgXImQ72GRDNBYaJpgI0MiwQNzDTrkwQ98QB559CM26nkRlGTaMdF0TtygE1LTdPTssakG72h4tcM7RmeqHzZoIqnwYyqb1ursMJN4CFgsGiB8Lc0tNucWCHyv8UoUJ6yYjHwWKyS8DRQfGPT6+/ot2DJpUrmloDkgQ1w/kvXlBd8JpjFjQUKYMdIaDeeauSfWGjH3MnjtAZ95R5BiCJLIMQuCqNBd1J9MpAbO6V2tQNC8woYgOZLhY1qg5yKHfiZQKE2TXe6TockDwXmJIjLZTj+R4mV1XyCu57wIM0GSnTt2yMsvvSRP/vKX8sTPfy5P/upX8uK6dbL5nXdsC160ZbhBjMEOOcFNGY8m86/cAO6Zvc8dDbzBvniQMPXjbiSpWkNBA6LRmLikBFiZmhmXtKg2nnYARHMd6Lub5N4TZQAQuoH+ARvN3cLBqxnWOh5ZM5J5B0oEOZQsGsmGDqoQJxgB6BsigBCNa3SqH4g/jcnGZxF4zDiSwpkP5Vj3/Av287lnn5OnlGS/euIX8uP/+i/59+9/X/71O9+R7//rv8rTTz0lu3futGCLlzQ96o8RVMG8JJTvtbDYMAPNFo+MOostHiSMZGA4NxILGPVoKBoyryBgxexF7TivJuG95HLMBI65MwSntrb2XUEyaxJPu6BlLNvFCaUJbgiWYS56NARgw0CKogYzxzgne4URsu/u6rZpGCaa6Uc+C9mYCGaAUuPeLJVRo0ZbDY+S4hIz/fhMU2OTnDl9xsoJnj51SuqU1F2etkb+2LSQaReeJyfnUoY/YOWCm7OLB/HKd0JJBoarWqMFHcR1mET1NhqdZn5ZQEcnFQim3gud+24hmQ0+AaMPgml9R9NhcodqQr+J7AUkYLk/Zf7oGy8gWXFxkaVydXV3SbtNKF80oSXqSzSWqOH/+IPfl6/8+VflL//6a/J/v/638o1/+Kb847/8Pzu+pRrsO9//nnz7X78rf/+P/yi//4d/aJkjTO/Q//Q7836shnYkDxQB025q+Qy6F3GAe47VR0s4yYC7kcARLRkgoXbIyKSdBskGr8w9JPs+8E+cJquuvizz4WoELebfbmwQZK1Ep8kuJxnA3yKzItBkpH/yKK6qBEaTdXb4tB2bW6D5aC/fJvC9JjtOw8UCyIqG5PuAn5il7jzcA2TGh/eakPEgVkWSFJIBbiTZRONBTf17Gw1zEZ/MLyDJu7oHgz5Zv1TXKMneDZosCGhPkrJpNYQ2VN/ZoEabewc3Bb5VtQ4yTpPxffwjNAz+HiSmbdo72mVA34MUTQ31Ul9bY6sCaqurpKbqgtRcqJSq8+f1OCdVlZVSrcSt1dd5n8/Vq7ZsUF+Mva7Z7qm5sVFaqC2ppCU7B1i4vqpq8F7MBFXzk4DIkEE5TkDiaMmaykgS7QFwYqM9UMt8jwcOPFe4A4IGO99lhzYYGQJ0ngMd6zMXB19IKtGB2wQQTVZTXWPP+27EoLkIwpmLwIg2VJtBINaREeEj8RjBhwS+moiq3fQrfMaSkiGg9jNaDH/OtJq+zkFWRkd7m5Gwo63VkpnZxsn3s8V3tHA0SyuHnp+cSK+piBYjmOI0G0GQsWPH+K4fIG/u4PmDylmIA0Qj26lcNNoDoHJjOZg3gjTBzhfqYPQJdq7Ag4nOvLwAR5ZGttFrkGX6X+iQb0KAje80mQrZu5VkjMyD/oqZfGFYRptjJnvaHsJUqdaBVBAMDcPRqZqLPuIf0xwEK5zwR4INmv6EYuQCIkHO3l5/GWyTGZ+56QhG+1Mr5tSp04OajJJxEyeVXyZr3gPLK5ichTrw8bgHniXY+dyRGottGS940OE4m6GAUBCxCiSZN4WKKJYrypM0oMnSfNWJcPzJagj0S646eJrMwafJfFkfPk0Wut3c/KAXjNos0KxTkxlNg0bzIcVGfvqLvkAwiSYiFxBjkEBq5jMg8z7CCVkCDyfU4ayT6qpqOXr0qM27cW6uSz4ka/cSDXfv4XiUyodGimgjcR0jmRXy9JmJVoDUb6cnDYzo+mxcDwEg1IwQXfXwDk4KCuAwOhsikIzvWkkCD1shAJPxgQMMl+FT7nKUAiefkcGIw82xnTt33nIn9+7dJ1u3bpMNGzbI66+/Pnjw944dO+TkyZMhBzL2uD5w4KBs3rzF/4rYCg42oGSDwGQhHI/S/uRP/sRq4fOBYDftBZ+JNXzJ6OPgbiTSdRh5Bjs7DDBLDh8+LLt37rIOBilZ2f76i2Vm7FhakCeRNRlAeCgNZ3XfldTXLl1qibLJ3pBuOEDLYGZhejmwycQx1QCsjk7J8+0a4yNSEPT1iO051qv96ycjFgWBhdWrV5s5BSADy2dIED7tryLFwerlzZs2G3E2bNgo72zcZDvJbNfP7dq120q3s0Tm0KHD2sdHfIf+zvc4Hyu5iVgS+HJWEnLMchi2fWL/OwZ2QLLxzbfcKlOnTbV7DAVkDtmLFsixkzvfgB6cR3ZG3hwpTcNInyjT0czFQNLr+SnyYmF8jmRrMYOO6nQOppZ2IlkIpBld1QgiazaI2uCmpEFQ/OQJDj1BgLlI3zY3t5im2bt3r7y+/nV56smn5Omnn7btcilHANBc+/fvN620ffsOK6+9e7cSa58SSz+HqXdWzc6WllYzMwlYsPRlyZIltrBzwYL5MlHNv9zcHJMBZJc6MBs3viOvrV9v38fchFCkc5HVT/Z/rAoiVoTi0ZC6i5E0jXXCMDSZQyjGO0SryTDJmPlncR+NOgg9PwmsrAmzuouMaGFGsITARnYllmqGcjVL2NqHmh9XK8iM6FFNhg/kUFl5wTRAlfo0tskEu8UEW7gJiOBSsJVqXn4y0q/0KX+xbAaTj+PokaM26CCACD597z14zSsLZN3PUFJQN2TZsqVqGVwry5Vcy1UjUcKA2vijx4y27zQ0NCohzxlpX7ZaIYcHBzhkaNHixbaynhof7tqh5G44mswLXvde57Iz8kayGQ8Y9biR4YAGIcvbawKwWre3tlJad22QjsO77Her8hvJxxguUnRUt22bRGpqaodU2LoaQZt52w0gZEzuGyK116Dm9v/tB4Mqwk7NkAp/CJ05KkrgkWc6RrUSRU0pJ8FSFjSU2wLJgddvX3O7PPDA/XL9DdfbZ/g+JCaYweJL3AT8rueff15+8IMfyHe+/V3z5QjdA2SLebFHP/Ko5biSsziSFpuXRyFLwnEjNJAXqG5na0cLGiUcMB15cC+4djQFSsiV26Ja7Kt/+mdWxvkyYM7o+W1ULh4tqXrYyBwgXIkAI/pA7XkZqK+SGdqpn/vtz8sjjz7qf/fqA3NRLdp+7W2X6ieiDda98KK89vrrklJYJmnjptgWusFg9fwbaqS/+oyITf4PBQQm5WnBooWyYOFCW/9nlbiUcN6qwWDDW2/JU7960ipMAciOrPETQUUe+HifyglLZJBLhJgN/ljWwt8ckMhhivrEtP89995jvrFXQ3FtZ2Z6kYyScJwvaJluwA3zgE7lAb4Qq5YLZi56wXUgmreBojUX+RyZAyyFoKy39xwG/mZEJtrIrijUoFeBcJPHCSWbXscET6/BSupFaurgP1ytQECYWyJr3QF/Cl/oiPo0KelZklpQ7NvrzAsVTAvydLT5CpxSq9/T7qROsYL9Yx//uO0rxm4t+FJs5Ic2QqshzAQs3AH5WJKCL2XpVdybmmEESAicIMitrW32k795HfeAz/BZr4yOGz/e6njc/+AD9pNrhooBIM/e7ybKXPTC5DsUyQAn8d5IMkgGuBHvdWIhGQ1YqebDhQtV1gFBgRDgQ/hrz1tFK4gHyfS6gWZTXODe8ctaG/XUvVZ/kVW+0TzHlQBRRSOZx5ft6Gg3UwyNZnN/mdlC+QHb+IIBirID/i2ZfNWVdRSnXT0gCZiCpB/80MOyctUqE3rqfGDWewXaC6wjiiUVFhTaxn+UMiijBmVJsWX0UNzUWVEcJIXjtzHBzCb/s2bPMl+NCsG3rb7NalxS1AczNBxpAgf4ZJAMRFVBGGK5VKdEm4teONMRwkVjLgIekg0Ef/aTn8re3bultq7WtFpYaEOmZLFRXqmksAcyv2coGUKFq6OALRZVQew/dcgEj1H881/4HZk8+VK9kasJpDIxBdLafKl/WEHwxhtvyL99/z908GHzvwKVEBU6HTwI6FzkZwRfDU31iU99Uj704Q+byeYFmgjNEwz0O/NnVK1iO13mGpv13vgO6/QYrF3aFIMipKWEOVoQQo4fN17Kp0y267sMo2jAuZA77isZ5iKIimQ8GETjZpJJMuAeMlqSORzQ0feN9evlrTfflJMnTg6aE3SeG6kug2kyHb3w1YqUcGzXqs9oghWrdtNRDb+sr2Kvacu71Rf41G/9lu0ocjWCFChSn/DLHIjKvf3W2/L//t+/+F+JHsgG5cXZdOKrf/EXtnQFgfciHMmCAQLQdxApFjhzMhYgd8zxJYVk+hARSQb4GDcfjXr0ItYGAjQQ14oFkJ+HJgBy4sQJc6Y3bXxHzpw5E9qMBJAJUjFyQ7LiUZKKhovDZ8MM7Tu6i5QGq7L0Gx/7qNz3wAP+d68uMBFNYi25hQ60OXNN3/i7b/hfiQ4QjGwK9nRmUz8IhsAGml6xagoQrSB7EY/FhXzHGhHmWaJRBlGXhGNUcVohSl4aaOxYwbWwd0PZ8MHAdTiw1zEfyFNbvmKlzJs/zzZ7aGlpNiEKeu+8hhmkZoZt7Mc+YhRE5TV8k2jNSFK4yPpQcxGHvrx88lUb/GBJCP4YZqMD7Y5vizbzgnalXga7YJKUjeB7NcXNt9wiD33wA7Jm7VrbCJ1nD+bbxOrzAD7Ptbi3aIHwxxo7cPINopVv7i0anzumuovYuhyMXNHeSDwkg1zY4LFcx3UgByMZjjHlxDgohsnEMPM0NCSC5Z2EHQTZ+vgdFiDp9m2X5D8GV1trZwxWEA5ACgODEhRzMVUuWlLqLbfd6n/36gJ+To/eZ5dHyw+S7O23rd0JYKxcuUIHq2W2y8qSJYslU31XXAC2WXJYrdoLohFBpO1DESIekgFkIZbvxUMygJWG7HGtaOSOzyWcZIxgTpvxINFomnhJxgO760TzwME6kM5mVIVkzNWUT55s+W58lvdcuDgomPuBXETW9HB7JpvzD+E4+AzajnbgHvV3289Zv9ev908tePbX4r5CCd6VAisVyPpgGYoD90hdwnfeecf6+b777pW77rpLVijRZs+ebfNeJOASgTx/7tLWSTfdcrNthxTogwViOCRDBlw7RpKH4ZIMRNNf0ZIs9if2A+HkYZINrpMIIaUxINrnf+e35Utf/hPbr4otjljMx+iL1gwKtBtaraXBt2fZmaMWQew/VyEDVWdkoO6CDLBdLWHtwR09fSuAm5oaLVIWzWA00iDXkupNgXCCQ3tT5ZfDK7BYCIF+CM+XloA+igSuA8GSfR2u4UidCAzrLBAgpHAmEIyqPHAiHpoOQqN94IMPy9f//u/lf37xi4OTllGDcH1nmwyo/zVQd14GLpyS/rPH9DhqWRBmcipIiPWuzr2agJh6V5Q7QLyMjNCD56hRZTbv5QUaoLtbTeQE9VE4OC2W7OsAGzwSIN/DvlMIMBIajetAkESMYjQcZZzHjhtrE6bsEvk/v/i/5OOf/ISlAYXzKwaBhsNU1Psys9GZkLzmF4T29jY5UVFxdZJMhdR8ywDQNi7tyac5hmphAktFSjJv9K61pdUmshPZR+HgNE2yrwPcAD8cJGQ4GCnTkQdGCBI1inGuktISoQY7u2De9+CD8tGPfUw+/qlPDu70GJOGCwChZ1vXdJVqMlueEyCoCC71CfkA902AxAv6mewMzGyHhoZ6W74CEt1HoTDSGm0410nYHY6U6ch1eOBEj2KM0LNmzZI71NH/1Kc/LR/56EflgYcesmxw9hybv2C+ZTCQymNpQjra87zuPviZmja0Oc1cVJIFjWReaej92j0HCA+v2XPpP9qaXXQCwRa4VHB2YJ/m5qZLc0zJ6qNAOKIl+zoAosWrSBI6DLhRLNlwhE7GKMY5IRx5h4/+xkfkT/7sz+Qvv/ZX8ju/+7uWj0fCK5OubBNE1BKTkygiOXdE3yCfuy9bFXzaNxlO21xtMEIFkIF7z8ryBT56tZ0RrkCQU0j9QgcikgR5nNCDZPaRF07LJPs6gGeKh2gJvzOEaSRMRx54JEYwrsHk9oqVK5VkH5Lf/59/KF//xjfke//+7/KzJx6XXz71lDz5zNPyiyeflO9+//u21B2SAgSACfBTJ0+Fzzq5QuDZAstte0HNRNo5EMVFqsnGXtJk1OegZkegxh6pPkLmuM7VSrSk3BU3MhIazRE6mY3rhAQNxTwQpiJ+HBvKYTqixdxBxvmSJdeYz+KA4B07dtTqBl510GcL7Cf+zsryzW2y+yXzYoFgfRZRRgeeEb+MYqKBGIk+Ao5oIyl30SJpTx7rjcQLCD0SIxjPA8J1IvNJmJnefE3qDLLljwsMXE1g/EgzP/KStsEX4xkRWELzlGkLRHZ2lhQVFZnGdoMQGfxsnB4MV1MfJQKYxVwr2uuk0gDRHgDiRHsAJmW5oWDnC3U4JzPaAzCaBjtXpCPY+UIdCBTfCXUt3p8xa6ZN2LJ4EbCSF5JdjYV13Mjv54nBthfyC4/t9RWwZTDg/Zyc3CHbVpGYXa2aLFi7cYCroY/CHTxLsHMGO2gD5Dqa60S11MUhnuxm8ty4KS4WLfh8rEtdXKY2BA3mrIdCPMsoaNxQ1+G1//NXX5P1r71mpaPpdFK72Ink1tW32bNdLaAKr8vEd8/ClMPPf/Zz2bJlqy2AvPvuu2XevLn2nhdHjhyVH/7gh1ZhCkEjR/TBDzwk/+uP/9j/ictxtfRRKMS6SgCZxtemj7leKKRGq/KGA25mpK7DaMRDJxM2Ouk1gplAvEYm+lh/iBvTgo44f/6cFf68msBkdFpAgVLfc/n6itxOiBgMbEyByejagMGUEt2RcDX0USIBienjcPJtdzASBIDpIzGKu05MduPyPKE6kRp/BEEc6ITTp05LTU2N/5WrA9y/b+dJ/wsKnocN2nmvG3NR2zMYkBkq87rnt0WgqrnZMMIbyg+Gq6GPEgmnLUPxKNWpuZEgANcaKULTsDRwMhGqE6dMmSJjx40bcv1TJ08Gjb5dSXB/VvveA57FpZUR+AhNMt9KYgfagmx5TMJoTLQr3UeJBtcBwXhkV+YDNEyyCcAINxLXAW60vBKdSGifyWmvX3nq1CkjWTQCOFLgvukLbxthKmb5l29Qc4MwfiB4Bto3MChCClanEi3cZjBeXMk+SgZC8Wjwqq7zk63RIFokGzZR4KEDhSgZCOxEloqMU01Gtr9DJZvaVV6w0f5qgbtnr6CTAeLVZL6Nzn3ROp+marfJ5wsXKqVSD57dgVxIl/cYLa5UHyULwXg05IrcCB9KNtG4xkhcB7jRMtmN6zrRDR7jx08w38yB+0CTnTl92v/KVQLuOcPngwHyLymIw99E6Robm6xs9/Fjx2XTO5vkZz/7mfzd178h//SP/yy7du4y8tn3tH2ZP2OiPta2vlJ9lCwE8uiyp3IESPaNONNxJIjmGtcJUrLAdQDCMm7CeJk27RLJAKM/S1+uJtAi9IFl5Cvod6ZpaCs2NHxx3Yvyz//0z/K9731fnnjiF/LWm2/ZzipEE9F0LshBlarZs+cMasFYcSX6KJnw8ijolXhzJEw6rsNDjxTRaNiR6ESuwVKQSeXltrLYdeiF85WqEY7Z71cN9F7TVZO5BZz0RX5evk1KYx5S7YsdWg4ePGhVwIiQBhYkKtFnXXXddVaGYDjCO9J9NBLyTTuFbJGRIhrXcIxPNlwnJhtch8gbSbREGt2zkXrkkoW9QnqlkUE5PH+7kBpmofkgCzq9gIxk48+ZO8f2I7v73nvlmmuv9b8bP0ayj8BIEC3s04wU0bgODz1SGm2kCE2i8OJrlgzWyIBc+GVs+eo6+UqDEZ37c6SiD0iE9moTN+qz1xfvkTbGMp/rrrtePvO5z1kJB7JZvCH94WAk+wgk+1oRhwxHtJEgANcaKaKNxHUKVSDZbMG3sZ4P+DK7d+02f+ZqAARKp3COR5MVFhYNETzailUHVEVmXd1f/83fyD9/61vyV//nr+Ue1WDsFZZo7TNSfcR1kO9kas+U3t7eqOwWboQokGN/tIhndCNiFet1Yi03hnC50HQsQPicZooEzn9WfZr/oYLJ4k2uxZ5Zt952m/zpV/5syJKYKwH6lHbuaGuT5qZGS6PSl6ShoUH+7E//TM6fP2/PgPai9skf/tEfydix46w+CiZmLKF6cDX2kQNt4S3YGg14Fp4pElIZLaI5uGlu3pEt2iPYuSIdroGCnS/UwQMHO1eog2chEhbrdUCw8wU7GGDQANQKQTABScOHDx20bYpiHUgSBfqQ+a/21lZppj5HS7O4vaOxEtPT0yzD3glQqrZVQX6B7TFGOW7MRcL8IFgbhTquxj5yBzLH/dEnwc4Z7HCWV6QjJh3phIKHTzZGynSksZJ5HYRk+YoVKpi+wjOMlpWVlXLgwH6L1I2U2ei0FtqKDQDblOxoLzZSpKIy7e2AsGECOiuEQqi+cL39OYj3Sh858Dw8u9cfTQRiNkQd0biZZIIH5lojQWg6MVnXyVSSrVi1asjaq86OTnn26adl8zvvWLpVQ329JdcSGEGYvQI/XEAu6t6jqSjJ3dTYIHU11dKo14RcvO8+RzswCBC6ZwV4ur/+IuYa9zcQUB7uvdJHXiTjeaLe1QUwP+LsVsd4R7pQiGdXFxrUrT3iOhy8Fg6xrgVyIBDhwPcjXQfNFMuaOpoXIf3yH39J1r/6qm0mT7txHjQFfhkFeChLR3GeGWqSlU+ZYqQcbmezIT1EIjPeV/9fCaz3Y10e0O30LZFPSH/s2HHZtXOn1cWHcNzHhIkT5KePP25lFpyv9F7pIweex52b6yDb4ejBZ6JZ9xg3yQANC8KNvMMlGaBTuVY4QieiA0GkToynA2nif/3Od+TpJ5+SY0eP+l/1gRXUOUo26mbwDPnqu7G7ZFFRse0UWTaqTEqVcPhBrN9iN8r8wgJbCMp9cD+0DdegfWwHTfW3LLlXtSLFcLo6u1RLtpumbG/3bw+rmqmpuVkaGxqlXv0yNpCgRIKZkvp+S0vroFY1kk2YID/62U8ts8MR6r3UR8BLMsB1GCB5tmDg/aSTDEQiWiJIBnhQOjtU4yaqAwHXCSUs8Xbghrc3yI//8z/l1Vde8b8SGjwr14F4mG1s/cTzUVMjN0fJpQTjfQITHKwJY89lMwu1fexQ4bBDf0dQeox8Pbbuq9NIB+F8hDJy6d+h2pbsFbaK/cpf/G/7nfvjs++1PgokGQh3nREjGXAjabBTJYpkgE4MNVomsgMB5womLPF2IOHwH//oR/KzH/8koUV1TLCVZJb97oHrD55hOD4e2pM91ij2euPNNw0GQ96LfRSMZIDnCdaG0ZIsIdELboDG5UgmnOAwuiQbNHYir4Owsr0Qu1DahuOqlRAG38rk+NvNiNTbZ76T92AwjDeIwv1wbz6CLbUN/lavuT2qOc93cx+FAm3oLLZ4kBBN5kDnBJ4ukZrMgesEjpaJHiUdAkfL4YySmGdspcQq6f379pl/RlZ+dVW1EeJqAO0KmZZce63cedddsvK6VVJeXn7ZM79X+8h7nkAEarRoNVlCSQYc493NJINkILATk9WBwNuJw+1A7hf/p6W52cxGXmeuqr6+Qepqa307/zc1WmCCIAU/+TxtH2vmgxeM+Phv3Ds+Xa7+zNaDdkOzslqgtKTUMlIIcjBPxsJTNtzgmQPxXu6jcOCZALS5YiQD3AgHREsWyRwQHjoxmR0I3HWS0YFoMd73Eo+IIIEMa/Oubunq7rLPcQ52yKRtKTzaH7Drim9wIxcvze7ZgiIQLCPT2icrO0sy9He0Fb9n6/MQvcR8tQrJSjb6jO84gQqGX7c+8oKBA9pwvStGMuA6CLs+VsTSgYCOo1F56FgRbQcCrsMRjW8SiGg7ENCJPIurqQ/oJgTIIoTaB/zuC9EPPSfaDqKRCsW9ki7EEUy43++joRhuH4VC0kjmEM/oFWsHAjowmFkTCbF0IHAmV7hRPhhi6UDA+Qnfx3qd9/vo6uujEakgzE3EwGXr8GjUsBeuw2NpJBCrOYsQo0VivU6sgsz5iRLGep33++jq66PUWNkeL1CvyQYPG+uIHA+4jlspkEy453m/j2LH1dRHVqY72Z3ICMkxUp0Yj90fK/B9RkpY3u+j+HC19JHt6sIHkt24zhQZiVEZU2GkGjfSKJYIvN9H8eNq6CN7hQ9wE8m+ETd3NhKd6Bo32XCNOxKd+H4fxYcr3UeDtGNkGanRMtiNJAOucZMNJyzJbrv3+yh+XMk+GnJFboQ3k30jIzlajpRZgv1PuyX7md7vo/hxZfpI5P8PFO8cYM/HQ7kAAAAASUVORK5CYII=;" vertex="1" parent="1">
          <mxGeometry x="580" y="230" width="91.81" height="110" as="geometry" />
        </mxCell>
        <mxCell id="w4IspjLPt86XrDp9S-HF-5" value="" style="shape=image;verticalLabelPosition=bottom;labelBackgroundColor=default;verticalAlign=top;aspect=fixed;imageAspect=0;image=data:image/png,iVBORw0KGgoAAAANSUhEUgAAAV8AAAFkCAYAAACHCDjvAAAAAXNSR0IArs4c6QAAAARnQU1BAACxjwv8YQUAAAAJcEhZcwAAEnQAABJ0Ad5mH3gAAP+lSURBVHhe7L0HnF/Hdd97tvdegEXvlQUAe2+SqN5ly5blHluxk49f4pfkJS/PcZIXxy9OnMi9xLaKVUlKFEWxiJ0ESZBEb0TvC2zvvb7f98y9u/9d7KLvYkn8DzB77//euVPP/ObMmTMzKU0Dw8OWpCQlKUlJmlZKja5JSlKSkpSkaaQk+CYpSUlK0lWgJPgmKUlJStJVoCT4JilJSUrSVaAk+CYpSUlK0lWgJPgmKUlJStJVoCT4JilJSUrSVaAk+CYpSUlK0lWgJPgmKUlJStJVoCT4JilJSUrSVaAk+CYpSUlK0lWgJPgmKUlJStJVoCT4JilJSUrSVaAk+CYpSUlK0lWgJPgmKUlJStJVoCT4JilJSUrSVaAk+CYpSUlK0lWgJPgmKUlJStJVoCT4Jum9SZx+dbEuSUmaQZQ8wy1JM4smYceU6DpC8nfRjJuScnY4ognDcY8T+U5Skq4MJcE3SdNHAGYCuzm0paaCiaPO3wSa7B60HPP7Imh4gg8TG0B8TzK59yvpHgpgz+cpEYgPk+AkJekSKQm+SZoaitjKgUvXVAArNcVS9QtdF25IblAwNjg4ZENDg3Lh2t3dY+1tbdbW0modHR3W29tj3Z1d1tHZYQMDg9bf12etLS3W398/AojnpxQrKCywfDnAMz01zQqLiiw3N9dy5AoKCy03L9fyCwosMzPT0tLSLC09XX2DroogTTERD2ke0vdDAmMc+XMwBohxSUrSBVISfJN05SgCWq6AkbDWwTaAVor1DQ7agICzv7fXerq7rL2jU4DaaS3Nrdbe3m4dcq1trXrXY5161yng7Za/PoFsr551dXcLqBXGQL/7BYgvlEhDbl6eAyy/0iRx5+XnWXZ2jmVlZ1uenocrfvKsoCDfSkpK5CffCgXIxUWF/i4tI90ysrItSwCdDugqNCTgId2o7wj5FzkYJylJ56Ak+CbpilBKBDspsJMcEu1Af68N9vRYr1x7V7e1tLVbS2urNTc2WUNDgzU1Nlh7a5vft0rKxTU1NTrAjnJldEOwI9B2ZSgGSAdQ/4sWJFWAnGVFxUVWVl5uhYVFDsJlFRVWWlrq0nOJruXlZVYi8M4VYKfJf0ZOjkvTcZgAchxmkpI0ESXBN0kXT+NZRkDjUDMsyBVwSiS1lu5eqz59xk6dOmWnTpy0al0b6uqtvqHeavS8UYCL2iAjIwzxUxnmM8RPSzDAAcjC/7OIV8MTKXAnoeB/clZHpxsT/lCBDCgfQ4O6DumqZ9lZWQLdcquoqLQ58+Za1dw5NruqyqrmzLEFC+fb7LJSB+OU9DQbSktXiZAXhZsYLQlJUpJESfBN0oWR2MQBStiRlpYiCTEackeurbXdTp48aYcOHLQjBw5ZTW1NANu6OkmzTa5KYKif4hNsQf87EUV4G0g/XGfscYdHfh8B2mBIznmJ9AGDMe55HKQh3ITfUUgeNtdwCR9H30E+8abEDKJj0IfojCskFVdUlAuYK2zegvm2fOUKW7lmtc2ePcvSBcTx5xTfoBIddwJx/Em6NikJvkmanAC6iD0A2wzhBL96Bwatu6vLmhob7cTxE3b40CFJt6esTkDb2NhgTQ0C255uG5S/AUnCTKIRTph0i8A3cmAwUmWYdMOFiSx3eo6fDCa+dE1LTx0BfX6nZygsT925iTQjwQ46cIZnAwPhNyqOOF5UDvrvcXCfxlWSuKLy7/gU8MW/dwJyqSnyF0nt6RnpPmFXVl5mlZWVVj6rwhYtWmRLly+zefPnW1FxsWXKD7pi+hIlwcOiI0pROEm6tigJvkk6mwAWXQAdBs+ATH//gFseoC44cfKUnYxUCWeqz9jp09XW0tQswO1xMBscHPBgHMxQKUSACw0LbJAaATsHQzlUDRlMZGWkCWhTBVACMl0BtezsTCsszLd0+cnPz7LMzKCayExPseLCbCXSgz0nEXdXV5919QyoMwiftHX0WHd3v9Lcq2uvrn3eAfRjTdHPVU557pOjPAjDwdjzFACZkGIwdhCXRByDcbo6jOzcHJs1a5bNnTdXEvECm4+bP9dmCZgBYqwsMuWXaUMmJJ2ickrS+5+S4JukMUTTD5NmQzYg19fZ6ZNiNXX1dvjYcTty8JAdOnBAEu9xSbmNLt0GMEKK1dUBCnVBCC+WEP23Ak8DnASsgCtDclQRuXnZVlKcZ8VFuZaXm2GlxTmWn5dlOTmZ/q5I4JshvwUFWBmkOwhmSAwvKcoOWBWFPSHpHWnqFPh2dgt8haWkta29y7oEvgBvV1ePXK91dvboea9cn1yPtbR1WWtLh/X09gVJ2cEZXXCQ5CHCIg1cnfSYdy5Nq/zcn/4DtHPmzrHFSxbboiVLbNHixbZg/jybXV5quUVFlpGZpXJLczvk5ETdtUFJ8E0SaOHNPSwa0FB6SLJYX6/VNrXYrr3v2p5du23fnr2uz62trXHAzMzKcunubIqA1kFo5In/RvFaUlxosyqKbG5VkS2YV2SVFQWSAvMD+BYKfPMC+AK6GdkZkiKVJhCTIDDlUqCEy3VAUid0PqjyqJU3V3vIM789XP4rL3rhYXYJcDsA344Avq2tXQLgDqurb5PrsNM17XayuslOnWqwAUnEACWgS1pQhnjxRc/GE5I+E4y9Pd2WlZUtaXie64ZXrV1tt9x2qy0REOcX5CthKlMm66K8hcydHV6S3vuUBN9rlVTtLpWJGManp0haE2i0CWyOHDpsb73xpr0rwD0uCZdJM1QKgG0isHDrvxUOkiEOPS1D83SBW1ZWpobdJbZ4YbktWVhicwS4lQLe4iLsaLNdbZCbh7WDJGYCVHIcXLn19PFQRDzxzRi6cBnxbJ8hHidu9NrBmVv98Tv9p0x6e/olFfdZu4C5FWm4tVMg3GxHTzRrNNBgR4/WWJekZtcho4ZQwtP0XVCdECJqBfI0mgN00FB2To6AeI4tW77c1m3YYDeuX2cLFi2yTH0LxWFC3lEk6X1DSfC9Bgm9K6CZDhKo+rv6+nzybO/u3bZzx047uP+AnTl9xleR9end0KCG2fLq+k45wAnJjOF3Xz8Wvcz6Z0lqzXIJdt7cMls0v1TD6hKBbaGe5VqRgBZVQnYW0mxQTwTpM4YjkSKJO4T4OpYS/IoSPz0fnR3cROETZgBg/nDn1mxRukYmAgWc7Z0AcY+1IB23dFpNbYudqG614ycaJSE3C6i7rLOr33p6+xGsXZ+NmoVQsZYgHJdu9Y4yZQGHW0vMn2/LViy39Tets8VLl1ppSbFPOOK1X388fReT8STNWEqC7zVHw4aygEmvjrZ2nyw7ePCw7Xt3n+tyT544Yc1NzXofVo8BDMzkAxIBgIKEy6RSXg6TYZJgJcnOm1tqCwW4c+eU2KxKSbjl+VZelud6W3S0rgsWaMBtyJwhrHDPf8JPhJSrBTCJoB/fkpQY9ABSrrxDwsU/uuC21m6rb+qy2rpWO1PTYmcA41OtVn260ZpbBMQC667uXg/LrSNcIsaFToxwAHtW2bGIY+myJbZqzRpbuXKFLVq00CpmzbI8vRtKSXUp2gNK0nuakuB7jZDgwps64NnT0W51dQ22/+Ah27Ftu+3cts0OHzpsA/2S0gAGbFOjxg13xIDEo8zMDJdeS0vyBbZltnJ5hVXNLrX58yTpzi22stI8l2wBJD4DoACYxHBGCUCLbt8DFJIf5yGk3Z3fB2sI3iLtNjahmmi1o8fq7NiJBjt6oslOnGzwyb2eXib+IsDVd6NlrXKSdEvHODgwYBWVFbZ0+XK77obr7YYbbrBlixZYYVmZZeXkuAribFVKkt5LlATf9zsxS0UDl7w01D9gbZJ2t27dbq+/9ppt37rNTknSZSKI/QxGKbBEPMHl8CJgYT+D1Svn2E3r5tuqFbNt0cJyWyBpF73tkKTh/j5MuQLoOihFoHItEHmOOxesPdD3Zmam+yihqblbEnCzHT1eZ7v2nrEt249bdXWTW1EAoA6j+iaxvLinXlD7ZEviXbpsmd10yy12zwP32YplS62wIN+GmZwj3ugbL/QkvWcoCb7vR1KVBqlKkipSqKQplvpu37rVXnv5Fdv37rvWUN8oYJCkKwkqptD4I11uHyZkaVaQn22LF1XajdfNs/XXz7XFCyutvCzf8nIzJSFHu3sRl/8jEP4kyaVYXSmO2MqCemhu6XbVxIHDdbZ1x0nbvO2YNTW2OxDjGzvn9Iw0L9eYCIsRS1ZWlltJrNuw3u6+9x679fbbHOD1WmF7tTuIJ+m9QUnwfZ8RDRVJitl2VpbVNTTati1bbfPb79je3XvcVKy7s9sbcyxt4fiuT5Ir97k5mT5RtnTJbFsnwF22pNKqZhVZaUmuv3PApo3rm4AR/AkAk6RRokzjcnGnf3RUg5KGmbBraMR8rcV27z0td8pOnGyyxuYOtzl2e2a3eFDdeAcXbIaxOGErTBZs3HDjDXb7nXf4BF1RUaGHj/mdd6LJypjxlATf9xmxIo2halNzkx07fMS2btvh6oWjR4649QINmAm0GHjRzeLSkXILsm1OVbHAdpatXVVlixZW2MIFpVZSlOPLYiG+jyeaIG/oSTonhaIaLa+wRDp0eKyoO13TZkeP1duhI3V24FCdHTxSY3V17b4ARN5chx6Xc9jxbdgyMjJ8Ym7N2rW2/qYNtva6taqvBVZcXGTqQuPY/G+SZiYlwfd9QQz7Q/PuaW/zpb/bd+6yTW+8abt37PStGvFAg3WSxzARJrBWw0aanT2rxFaumG3Xr51r162Za0sWlFl2ToYDM1Iy3gPgAtr+aZIugUKxh3KEGEQgzVLGzc1ddvREo0vB72w57jpiTNlQATEJR7nHIIx/gBhCCl6/YYPdfvttduMNa62wvNwyM7PwnAThGUxJ8H0vU1R1NDEm1Lq6uu2tt9+xl55/wRdJnD5VbXl5+b4BeISe3oB9Zy19x34KVbOK7dabltj9dy+3ZUtnWXl5vhpuqvX2DLiOMtZXJmnqKNbvxntb9PUN2RFJwlt2HLc33z5iu/ZUayTT4fWXmhZGLDFxzyZHmRmZvjjjjrvvso98/CO2aP48X8CBaZqzSYJuP0kzg5Lg+x4lJB/0urSp7u5uO3LkqD3945/YW5s2+QIJNxuLGlzcVtE19vYO+CTNsqVVdsetS+yOWxbpfravNqNhK1g11qA3TGjjSZoGGlHl6B+qie6efqtvaLc97562515617btPCZJuMf9ZaTLT1qasWCGivJP9YdJOZYtf+DDH7Lb77jDFkgqxgSujxk5r9Nkpc4USoLve5BofMzFALAnTpz0ybRXX3nFjh46Yi0tLcYm4ABvANAUt15A2kW9gGnY+hsW2i0bBLpLKtxygZ3DaJOEGwAgCbxXiyj/uN4g1D4dHT1WfabV9h04Y29vOWZ79p32FXXsusbEHPp7qi1WD2VlZ/mWluvWB6uIm265yYry86Pd00SShpN09SkJvu8pCrrdlGEaZIft3bXbNm16S+C72ffUjUE3lniHBLj9g4OWn5ft6oXVK2bbzTctsjUrq2xuVbGDMQH6UlfngtDwk3T1ifqgKhyIo99t7d126HCdbd99yrbvOmkHDp6xxqYO1drwSGcLBT39oJWWldmq1avttjtus5tvvsnmzZtnOXl54Ygj3xXIvSfpKlESfN8jFE+d9Pf1WnN9ve3Ytddeev55275lmzU01BvH8cQ2nkGCNQ03Uy0nN9OuWz3Xbt2w2G5av9An1bKz0iQ1D/kkDnQxgIvfYAfMnr0plscCi0hnmaSzifKirLBqYFtM9LoXS3ELZXKUKq5v7LS9+8/YpncO2dtbj1tdXat1dfd5PThYR9UZd8ZIwXfff7/dd9/dtmLlCissKVHNYZAouoi6T9KVpST4vhdIIIkOkE3KOTnip0//1H7y4x9bXU2tSz1YMQR1ARR2wWL/gIryAvvQA2vsA/evsRXLKl3S7RUQIBm5udMlNDxM0hqb2zXsbXMwWCtgRzcJJdvxWMKihI3hGxs7XELNzcmyWbOKvOxH6+vCyS1U9J8wqbvWtm7buvOkPfnMLtu287g1KQ46aeyDw8JG7IqHrK+3Vx1zmt16+6320Y9/zO68+y7fsIdjmEKlySUrb9opCb4zmLyBqvFkqTF19fTYpk1vh0m1N960rq6uMNSk4YjQNPT2odVL8QUS6HQ//vANtnrlbN9NLOgFQ1VfCujGxM5cu/ac9IkgwH3DuoVKC6uzLi/c9yNR3ABtb2+/nTjVZHverbaH7l1t+QVhE/hLbXnUIyVN2AMDw1YjyfeNt4/Y8y+/qxHRCeuWFIwuOIC8PHpcQSqeM3eu3XnPXfapz3zWli1eYMMpqa4LJsRk/U0vpf2b3/v934/ukzSTSI2Fja/SBL7V1Wfs6SeflvuJb/kI8NJQYufSjYA3Ly/bbrtpiX3iIzfaww8i7c5yfW/i/MqlNjA+wzH588amQw7C7POA5QRah2TDPZsoEkAPSZXN2bfuOG6FAt6iwtyRZcGXRnFZsy1nqm/nOVsS9aIFZVZWmm9tHb1eT/39gw7AJMT5RCOozs5Oq6utteqTJy0tI9MXZXDKhnfiJChZj9NGSfCdkYR9rVl3V6cd3H/QnnnqWXvh+eft4L4D1tXZNbrrmNoKk2pIOQvmlds9dy23Dz90nd12yxL9LlUDT5OXoP/F++UAJPa+xLd7b7WbPrESbs3qua7/TQx3DKBcenTvC4qzj6qmp6ff9/qtPtNi8+eWOgjHOtqLpbguAXYcAMxeypUaicyZU+IngvAeCZjjk1BXAMI8A4CZrK2tqbH6unr/nr2ECwoKfI7A6+8S0pSki6ck+M4kEuc730uSbW9rtX1737WnBLzP/OQpXzBBw/FVavIXz3Gx8c2KZbPtgw9eZ5/48A12/Zo5VliYY4PyEw81L7ct0SAJAgB58tkdLlERJ1tKMpGUCCDcupO0PXJ/jTovDy+TMPzv7umzl17dbwvVMVaUF/rOZ162kd+LpVC3aHlhGZaIp1qFJN8liyusXFdUCR2dPdbZ3e8b4uMxtobp6+2z48ePOQBDRUVFAYAVhpOn6RITlqQLoiT4zhACKAFdJJQuDQ3f3vS2Pfb9x+y5p58JR/hkoMNTw8Cf/LB1IxM4t92y1H7mM7fYxz98vZ+HBigD0nHDvFyKAZytEU+fbrHvPvaOr4S7bu08Ky7KGSO9cUV64gghPyhT99eqCxvHqzK8bKItJjViefKZnb5se87sIrex5iQQVw1cBnkMUXyYFmZrJLRoQblviFRYkOs2wpy2wSiI5KBiYD/gzMxMX5Bz/Ngx62jv8BOWSwvz3Q/AfSX4J0mTU3LCbQYQjQbDH4QOTtV98vEn7KdPP20H9u93rPXWFV05wgbgXTC/wj79sXV2753LffMbJJa4Jq9km8FyAvVFc3OnPf/iXvvat1+33/71B+y+u1f6IZcAfUxMLLEjF6vofOMeHl6D3EWWWS1YUhyOvPdRgJ61tHbbf/rDJ7yuPqZRygP3rh7Vy14h8uKOmAY+YDL04OF6+8ETm+31tw5bs0DYTdaUvnBIJ6A95MvQV69dYz//i1/2/SHy8gusX6+TADx1lATfq0wALxNrA729Vn36tD377HP2yosv2cnjx62/rz+AmBoA/tCvoma4Ye18e/iDN9iGG+ZL2lUDl0QV29peybYSS24EeeBQjX3tW2/Y0aN19i9++4N2y02LfXlrkHyD/3f3n7HXNx20fQdqJJVnREDgr64pQsJkovPXvnyP75XhIxZRT3ef/eN33rBXNx2yu25fZl/83K0u/WL+BwheqbqLW3QcHp3hqVNN9uLGA/baGwft4KEzkrgH3O4YTwGEOcwz21asXmUf/8TH7bbbb7VZs2fbAK+SCzKmhJLgexUJcOMQy56uTj/G54XnX7KXX3rJzpw548fI+NHs8oP0CQQyo73hxoX2gftX2bobFvgWkFAiAF5JIlwWBbS1ddvLG/fbX//DK7Z6aaX96i/eY6tWVgli6BRCI6eD2PjGAfveD94RAB9yvTMvrzXuirNbUpJrX/3DL9qCeWXqpAL4Mmp5/fV99tW/eckWLCi3X/3SXW6qx7FDoNuVrsPEukG4Pn6y2d7afMReVT3t2H3SLSJQkcRmiIxi0tLS7YZ1ksoffMDtgecvXGBDAt8kSFx5Sup8rxaJ2VE19Ap49+/bb88994I99eRPrPZMjQ9DWSRBg3CA1j0HU95/9yr75MdulNS5yLKzMPEK4HalG21MhI10dFJS06uvH7A3NGz98AMr7fq18wT8AtdIHIob+NHjDbZt5wk7eKRe6ecYnKHgBsKhm+9XR/7GurCaDTvr4qJgeQBRJoP9/bZx02Frau5yO+mVy2ZHoxv3ckUpDpN6BDw5Xw9rCM7fY/K0qalT6Y8P7wyTcUjBZ6pPW0NDk9KVanPmVvnuaJ4HApmKhF6jFLrkJE0vAZpIGcODtnvPXnvkkR/Yj37wuDU3t1hmdpb4O6oWGs2Q2ZyqEvvZz95qv/Czt9n6G+aHRu/Lk6a2LfhuWBoSnzjVKECtVbKHbPHcUivIybQU0uZJCOmAvAErQYBMuhouEh+6Rf/9Pnbkj3zGeY0n3aK+ya+oIiiwwrwsW7yg1K0QNm8/bk0tnV5meA3leeUp8EiKqzc4wv+eO5bZb//6/fbg/av95GmPN2Ik6oyOf9/evfaD7z8qgeBpa21tFR+GpRgAdZKuDCUl3+kmMS/QmjrUb2+9s8W+9fV/9F3Jent73X7XpRA1BCZisiTdrr9xgX3l1+6zu25b6kNZlgbzHokFSSVqM1NCSG/tGpq+9No+VyVgR/qR+1f5EtmMLHS6IXLSg8OOdefeUxreNrrtMXiDyVuPpKkOAXe3HnTr9/vJ9Timqk7BpNiJcrIzRiVfxvwRpQwN+EiCSbD2zj5bs6rK1Ump6nD5dKrqE35JnJRFZbVq+WzVU6Y6gC6rr29X3IH3qFZAuKen2w4eOGBtAl/0v8UlJVEYCmQqGe8aoaTOdzpJRS3ByDrb22znzl323W991/bu2WPtbWJ8H3rqpfwAvOXlhXbrTYvtkx+5wfdPyM3NdAmpu7ffLQ+YsS4uznOd7FRJI4Avpyow0fbaGwdsww3z7Hd+9R5bsLDSMnKzfWkqaBOD7ysb99u3v7/JXn3zoBUX5vh5YpLjrTw13Wary0kJq5/fF0SJk3vOH661QavTKCaxFkpL8uwv//hLtnBBuQOZW4VQ/4MDbm72zUffseq6dvu5z91sv/rley1bYD2VUiXbT9YJYNnfo7Q0X0/Q8SrtSgPqpJ++uNe27jjmaWDEA7j6RJxuCwsL7YMf/rB96CMP29rr1ig/nLzBu/dJZV4lSoLvdJBKWKxu6WLWtpYW27ljhz3xxI/trTfecokXHga8YHw2PEcvd+dty+yh+1bbegFe2AkrqADYUwHJcuWyWVYkqQpLh6lqtAD8D3+81b796Nt+9PknP7jGfvkLt1hxWZGlZWeixHRAmQh8SwS+PZLSKzMybH1Gjt05mGFpfez2Qsjv/UaLGiFd+WgR8L5pvfb2UJ/161mcs0TwRVpkBznALCdlyF5784B97Xvv2Ns7T9ot6xfav/9XH7eq2Wy4E6mbpoBIF/sBo7KaPavQZlUWucki8wsA8Dtbj9vTz+2ynbtPuD6YD5wnleb+/j6bM2+e3f/A/QLhh23NdWtdH+xsB/Mm6ZIoqXaYDhKXpmpI193ZYdu37/BVa5iTDaI6iIALANWd24Z+6IG19jENWW+8fl5ouGokTLo1NAp4jzf4LmLLl0r6BHijKKaCAPun1CC3bD/hhvv33b7Ublwz1xd8qNW6RAfF4IvaYdeeU3Zcw+rcrEzrV8MtFfjemJVj9wxlWdVAqlWmpL0vXIXcXLkcSf/VAuBDwwO+QU0MRTmSMGO1AwDnHaT+s1dHe3u3HVFZHT3Z5HtyoHpgM6SsrAxJlFODZ/BKZ1ev1dS2WqviZ39nUkuyCguzfdEHEjGjqta2Huvrxfwt1G266rClqdkaGxsF3gNWNafKCooKnXcjT+GapIuiqetqkxRI3M1EVbquO3ftscd/8CN76bnnvTE6eIlvkS4A3oKCXPvowzfaFz5zs123Zo5/zgkUNF4A+MixBjspCfR6AWB2JodhXnmmpzHG4Z5RQ62ubvFGm5ub4UtWXZcrujBpW41bf9nzrF2Sf5tcuA6/512cjw5dUT2cvzRCmWIJUZSfbVWVBbrmuL515+5q34NhBKSngJBy584p9VNLTqlOj59sUMdOp4lKgk2Zsuz+u5bZb/7qfT7PgBpkQM/RLKEy4XSMM9ihP/W0PfLd71t9bb1L8467U5Tm9zslwXcqCYDVJU1S0Ztvv2Pf/ua3bMvbm72BuVmPrjA2vMvGOBjl/8qXbrc5VYUOtnFDzFGD2b77pJ2sbrLS4jyXkvT2gpr8xRNqhAAV23eesOqaFlc/zCrPV9xhObHrAi+CCAvFCc7L433g2MwzvvLvfORlKke9ssVnWUmed2it7T22/+AZaxUIY9kyVeQAmplmCxeUWVFRjr288YCvfiNNaDt4jz05p5x8+Wdvtw8+sMbVWj09A5JwxRV6hwTc3t7ue4186+vfsNMnTwbwxSXpoikJvlNEACeTaz2d7bZlyzb7zj9+x97ds9e6e7pGZr/DJEyKrVoxxz71sXX2oQdXW6EaRiwBMeTLEPChbth/4Iz/Zr1+0PN6EFNDChuzJFa1oWNmyFpZVmDlJbnG9pUXC/px20xsp/F94rNLpfFhTeYulSYKCwfF1wsljntn8rREwJavKwsvqk+32NETDa6OcFXSFFQuvIP0W6LOe87sYo8Lm2wAGNOyEZK/lctnOz9++uPrvaPHVjvmR4gDW1967gV7/qfP2fGjx5zPnSGnlCnff5QE3ymgEeDt7rID+w/Yj3/8pG3fus06JDUk6ngB3pXLqwS6a+zBe1f6UmGkn8DDrEpC3TBs23ac8P1gKysLbc7cEjUitItXnog3NNJBq6trsxMnm6yjs9dN3soEvACGS77yeLGgcy4iLJo/Co2LdRfKwPib6PsLcVcyr4Atm+wU5Gd5eaZnpFldQ4cdO9FoLQJETqGgT54KQupGbTRLgDq7skh8ddxqVc+kKfAkAsGwm8mtXlFlH35orX30Q9c73yEwICxgEpeamuZHV70oAH7phRft+LHjLj07JfH3gikJvleaHJiGbbC/z44cPmovvPSKvSKHzaRLDhHwsuvX/Hll9uEPXG8P3b/aTxVmh6uYwlBw2JpbO+3Nd454Y2ULRzbORm84FeTpUsRMAh05Vm+na1p90i0nO92N89mD1lUOuCtIYM2AygzdKRYDF+rwf6ElwfQRi3gnCud87ophIcXmCMfeD1lWXppnOerYOBjzVHWztbR2RUhPB8f1yhJhMmopKsyx69bM9cm3w0fr/TgiVEsQLIqEnJGZZsuWVtrnPrne7rtrpa/GA3gJgSRmZmXZQQkWP33mp+Lvl621uVmvKCmPJEkXQEnwvZLkLYblwClWU1dvzz//gh/74xIvaCqujSfXikvz7QufudU+9vB1AuFi6+0fcMbHAYIwOmv+Dx6udaP8eZJ4Z1UU2ICA8UJ0jJdCJD9Fae/p6/dGWSOpiEmVPA2PiwpyRmxRmUAMeb184iTdprRhO5YyaAeGlV/B3YW6ffJflzpkvUrzyMz7eFIy+/X+TOqgHdI3FxsHrk3pG5Lkd9mlrgB88lQ8kJeTaZVl+ZarMmXC60xti6TJdutXZ4efqSDCxdQsQ9LvypVVVlKS78fQsyw8xBnqlHs6fnh20fxy+/Uv32X33LHC/bOyMubRjMwMO3zwoP1EI7vXN75pA73denHxaqlrlZKmZleQYEoYt7Ory374yA/sxZ8+b3U1NS4lQC41ys/CBRW+XPgTH74unGggRkYqdslYxBUwOalh/49+st2B7+47l1uFhothZVvwNxVE3KgcXn19v+3aW+2mbquWzPIFFoslnfcL/Ik/NSPDUtKDrjBOe6KpWU6WQEX5LZSfxemZtmwwzVLZIouk4x/w5n9Wmm3MGrDHh7rsqf5O2zzcZ28M99qb53CbIvfcoIbpeZk2Oz3DSoYELENjN3YnApZBN+Wn2xPWbT8e7LRX9M1bFxAH7g3TVa4qN8dmpaZbZr9gJQpewbqqpEt3hyRXHx4ecAk5jv0sUzMeqjyG+vrcD6Ocmvp22773tO86xrFC8+eVqozL1dll+RDfy4nvrjARalB/mW3ZfswXVSxZVOGgHBPl6FWkP+ykhx0ym8GjHsH6BdtzvicsjiY6evSIVc2dZ7PKSjVSyvbDOcfWRZLGU1LyvWIU+ns2pf7JE0+6HS+mOalMoKjRwYdIOAvnV9hHPni9PfzQGsvPFyiP48946M9Q9NCROkkl9XbzhkVutE9rmCp+9ngFtOzJWyMpjAMfSRwTQHm5GWFyKOo8xtKlJ4gvKbN+bKB11yWpqVv3AJo77mOn32wHjovfdWLmpatw96xUEK5ehXu97JWLwx0fzkRx+Hulh2cDgOf4CC6WVL6MGAiGcqQ8K0rzHHQBstraNjt1qtmXc6dnRM1S31xpclDVP0oIk0XMBxlZ7d5XbZnZo5s1Bb/hSqcyXyOvB+9b7SdhY5aGBO39g8pmQKO20ydP2eOP/sC279jpFhHpygI8laTJKQm+V4LEZBRkR2urbX57sz3zk6d9EmJgoD9ssEIDFrPOm1dm9961wh64e4XNqiyYkDl5hP0vNrZsZpMjKWjNqjm+LDSA+OWiwMREStD7Ab5MwqCDVLuyLAEDkneRJHQmbEZjD2m//OQoT/rrk1sKLA2n+9EJuJQEF54xmYk/7indALJnl2VMhB+HORpufD827LEuvBvZt+EyKCQxBAL4sisduldAmAk4JjZZ/tvY3JEQ12UX7qREFCXq0Jcvm2VdPf22Y9dJ68b0bHyc+kl6kYpXL5/tk3D337PKpXP413lYfli+vG3LVnvh+Rdt3759GiEFM7Y4z0k6m5Lge7kk5gKkuru67ICY7skfPeEmZSzJTEsPa+Bhv8LCXHtATPuhB9bYksXlPpE1npyPxbFsdH3oaJ3b9V63em447yst7UrPc40lhc3wmKWl9Y3tVtfQ7o+RzEqKctzGFzOpuG2ONLwrQISCdJV49Xv9QRJzpyfxc38XOe4vhPg68fvYjYSvH4lx+7vIcX9lKehT2XC+pDhsOYlk3dTaZWdqWt20i2cOXlNI5Jt9mdHpHzxcZydONLgKgngT65bfqEHyC7J81eUXPn3zqEAgb55WfdfR0W6vv/a6vfbq65KmT6ldRGEkhJWkUUqC7+WSGCtVw8kjhw/bM8/81F5+8UVn1jAzHBoviHXPHcvts59YZ6tXznZA9qcJrcvBTP+QiM6cbra97572VU933rrEh6F8keB9Sog20i4JrKGp07q6sSWQdChpmJn5Aj8yaOoa0fisUTbYM2MahWNofqV13eSNcDGlIw5+J9bJFSWKLqH4ALMMSbyVZXkCLqVDeW1p6XJ1D6MPB7Qprm/MGJcsKLeq2cW+Yf6OnSedDycqA57hPzsrw9ZfN98+98lbbMmSWV5+bI8Kse9vfV2dbXz1VXvlxZetr7t7tF6TAHwWJcH3UglmEujSgE5Wn3Z7x40vvyIJlQGrmFVAgXTLMmBMdX7hZ27z49Z9kcIkDE7jBAD2HTxjp880+85gDAuncoItJuLAhI0Z9/r6Nl/cQRaZlS8Q+HKOG+A7km7P/8U1KHzHXyTex0Nd/pJV9hWYW1VkH/ngWvun/+R+++3feECNfYODRLxAJUrFJZC+VB7Y9PzG6+bZFz93i4f/FcVDR+fmdKRskgjiNF88KdRx9tmZGYwqwoQcEiemZhxSyqSqF/NlK5rPTXQAmQJTJtvKywv8jLeGxg7nTybkEqVfiDQhLfPvwXuX22c+tt6WL52tkVpYZhzCy7RqSb3PP/ucPSthZLCvx+s0SWdTEnwvkWA2HJYN9PJvvblJkkuLwJNZYPbjHfBzvDbcuMB+5jM3+7JOlxJo13w4jngG8GJzuefdMzyx1QztXLemdjiuIVxporHR6Gl87HLF3sIQ9sUMj6ExySY5cZr8PtyOoci/N2b9IA6VjjNd/Jt/6LI9KMpU//qUjrLSfLtp3UL78AdvsA/I3XHbUj3TEN0D5M9lkIbDqFAWLyy3e+5aYR/+0I324IPXawg+x60USAvxhOTrhx5wT7oplZD+KA+6Bn8XQOM80qFhbpYudGIj9m6NNuoa2x2E1Uc7xUU8FUS9MCfBZFpVZaHt3XfGjp1oiCxayNnExAAIPfUdty62hx9ca6tWVPkyZAg+BoQB4CefeNJ27NjpG0qhp5/SzLwHafISTtLkFDHR4EC/vf3WOxpmvWYnjp3wZzQwmI/z11arMX/ggTW27vp5knLUbEM7PotoBDAtYMTWjfsP1biulc2umQSbyuF+TEiUWGPUSeqtqWv1xgWVFGW7TnAM+Hs++BP9noCQjmhwXQK5Q5J+Xhzoshes214YTnD6zfND/T3WPTTok2iu21XYdFRFhblu28yKLJbFIileMNBNRgog4MCwL/PFioQj92dJ8kO9ghSamFXy+K7S/0p/lz2vNMeO9D8n99pQjx0fZolICHdSwsNIuMFnlvKDxQN1TKfDpCwrGWtq21zCPHeAV4YoB8pg3txS50FMBVvawmKPiYSEmFiIweb6d96+1D5w/2qbPUujOjpROQC9p6fX9r27355+6lk7dvSYz4EQ3Bg+usYpCb4XS2IemIjZ3JPHT9qTP/qxn8HW09vrgEsDGxoc9oMTsWy4+45lvjgBw3rYbmJ+Dg8BP04AbpT0WVyUY/PmlIw0wKnmWZp/d3evT7ZxvHjQf5rPyAO+Z5HSc64k0V8g5XYIfHf29tgjA+32vaFO+95wp31f1+/ryu9H9XyX3uMP/3E+acj9AwOuuhns7ffFB964w+srQAI7AQjhDyj84f5+l/zPAgf93NzbZT/sb7fvxmmXe0TuO0Md9sRwl+0f7vdO47xEoUTeuNDBlBaP2gGTu+7ufl9ZyJLf4Cv6YIqIpeRI+9gYL1pYZm9vPeaTfm7ZMgn4xo/pIBbOL7X771lp99y53MNxfpXDT19Pj738wksuoNTW1ibVD+MoCb4XSTTOFI0JG8VMz6hXf+vNN62rq9Mnh5h44D0rfzgf64F7V9rsygLfpIYGNgkv+zuorUOS1JsH3ah96eJKBz5mvmmAk317xUjhc6hjW3uvQG70GSZFTEiNxaQIFHiohEW/xlD8Gy+9+tOqMmvV07OcnvN+bPih8TIScH2oRGgvoytcBh6Hh5/m5n2hjuJ6Go2sR2lsIw8TpJ+tJXt1HZ//MeRB4Sf4CuEDvqlex0G1G965qV+9wA+gvtIZHkfklUk0OoGqqmJfTsx+DydPNfrCD8p/fL3ExLfeFnRl2fvnP7XB1Q9Z4n3fBlXPKdOG+lr76dPP2rYt29TR9fvzSQO9xigJvhdBPqEgIGAd+9ubN9uTTzyh3p2TKMRQ+j+g90gDH/vQ9fah+1fZnFlFAt5wdtZkFPMhkkazwI9NdEo1FGUSJDcv2yfBPPxpoOaWLj/YEQpZShE4ZLtJUaAoHSR6kgZEWv0fV2Ubx2RSBjP6fh3vOGxy1G+IeHrym0jjYwzpIV1MhqW6Xnai9HNQaEh/7Pg4hHFWoK7ITSw3LDpSrUzSb9jNzNze98jR+rDZTeRrOoiJ1aXiuXx1/Cw3Zt8Hz8uY9I4l6pjRCJPOfPsLP3O7pOfy8Dzij9y8PF/99vKLL9uWdzarzMg17yYP91ohL94kXQCJmWhkfQP9tmv3HnvlxVesrrbOGxwSE8f/5GRl2vobFtpHP3SdWza4tHYBBNa0t/fYzj0n3c52VmWhH/Otdu3xThfV1rV6BxATqc/PyfLNX8anAqnH93gYIX4P+zCWpbMM4VGjhOPj9fscboy/6DukJxf+pomIis6V00VIE3kI6QpufJoTXaK/kXwIPM+qOlc7RA+5qIABLqxa6KB5xSiJSU/iR1Ke6o6X4ClrRjdsVzpbvIeN+anqpiClnofwQlboRG5ev9An4JYsqvQy4B3pZ3KT05BfZge0Eyf1QdSxREVxrVISfC+CANPDh47Ym6+/abt37RoZFtP7swhi4fxy34Jv9coq1/PGvf+5KQzR0LNu3nbMcnIybMG8Uh+Oxlv9TQeRj6bmTmvvYKHvKOUpPdjAeksZn5TIY2hkQUXBMfcrllW6JLRs8cW7pXIrNPytqiryCbGpJrJEpwGxefgCDaEBoWWL5ZZMnMZzOdLP94sXlPsE4QiN4wUHVl0dfItyXG0FUeftHb2+mx0TcOOL/EpTLL1i3VI1p8TrjxWOLPBBELhQ/oPXMdO7987lduetS8M+wBr1Qah1mhqbbNvWbS4Bd3Wpg6c4pjpzM5ySG+tcIDFU6urssGeeesZefekV37cBm0baFCoDbFCx5/30x2/0oRvEu/PxLsxN42eo+YMnt/qM+8MPrbVFarxxc50OAAZ8X35tv+3Zd8Y6NfT1obYa5EN3L7fFC8t8Rt7zE/knYynoSiOAIYk0YlQU8+eW2trVc2zV8ipbtWL2RTj5Xz7bN/Nmy0PKoLgwrACrrW+zt7ccdUsACoZnPZJUV2bn2DLLsBK1c05LTiyr+K4rO832DPVazcCA9SsTWGEgoWIGSJxlJfk+SYrki90tKh86UE+T0nJ2Os/vWExD2HTCFI7PB/T1jwEdLtgb7zlQayeqW6yru98lSL7hKJ/ysgIHcIBtKnkA/kPyZgnxocO1dvhwnYA0x+cdsDKBv8nD+VKAnrq0JNctdVpbe3xbUj4i7ZQtq0Cbm5ps+cpVVlxSKH+RFc0U5m0mU/L04vORiseHB4N99s7W7fbXf/5Xtnf37gAASL1iTGwiP/yB6+znf/Y2W7d2nnVEx7Ocr8HETN/R0WMvvbrP/sef/dSuXz3XfueffUjS4yxfbHChqovLJRrYf/mjJ+2FV/a55MVkELrIf/WV++32DQv1O2wQ5ATLKN2pWVmWlh06GigANjrQsCJvpPe4GKLcdGErS4beBIJedceeU/anf/2CbWcVFiCrcmkRmH6yqMQethxb3DtsPQMcSBoGc0SdSjr1v74ow77X32bbe7qtS/lE79jZ1W+/9ot32ac/tt5BBt06elc6HK+3S0n7GBr2bULdQkPpGFZah7o0qnAgi7yI2jv77JuPbbanX97vm6pz1A8qp3/+mw/ZXbcv9xEQqpypBl+361WeX964z/7311/z3dh+9nO32IfE1/AnsZ8vDa7/FV+wV8Smzcfsz//mJTt6vNa/g49RP6SlptmHP/5R+4Uvf8kWL11ig8Poya/NAfi1mesLJTEl/DZoQ1bf1GI//uETduLYMQcqGj9tG8nlpvWL7P57V9myRZXOeD7xcgGNBaZn2Il5FzuYIX0t0ZCVzVY88GmklpZOPxWZNJF0YmfXNaQYz8r45PA7ApaYAEx0ll09fb5ggC0IL9rpO74nnGBuNV0UTM/YQ3nCdF2sUziAUSg8UVxWCWwBj1D/SIvsAU2hUpq+v0ZDuw0IsL0uRot46sgjGXa1CbuWwZMnTjb6XEaQeRMSPgkBsJQhi3KuX1Nln/nEOisqygtfKnw6RgB442sbbcuWrdbc2GhZyjdS8bVISfA9B7lEoGubhkobX93ouzaxd2mYHFFDUYOaU1VqD9232rfn8z0Yxravc5Lzu1pXfX2HHT3R6PfoCzkw06W7Cw3oEsmBVlcclg7s5wBghHhTfBEAUuxZOYoTRgYmAIb48SU7/kT300Oj+fO047i/HMefmHSf2EklEivbOLZndIQjiblv0Fc6ovMdX/RTQXQCceqY7GXRBSZv1WdarKmpw6ubZEyShbEkz6hJkNjvum2p27mjwkBgIY+Yn6F6ePP1N2zvnr0aHbDzn0K/oMDfX5QE38lIzACz9GqoeuTQEd+7obGhwXtpJshoTEiFMNeGGxb4kTCjwHVhBIj3SsphggNJB10fk21srgMvXoj0fNmkOPhHY0fyHdEvKv7C/GwfBgdcmKBxkEhPaPQ7Ij6/XHe1aKK0XKobpaiccBHFt/AY6g4vc/3nOdI3k599SP48T/huKolY6PjnzC5SulLttMAXXXt8xHzwcW7CH+0A3p47p9itH5YtnWVZWewHHVR0tJ89u3bbO+9skXR9ysvgWqQk+J6D0lKG7cyZGntn81bbsXWbP4N5YC4mQpiY+fCDa6yqqtAbz2TSzUSEX/SLLQI99u7t6Oi18rJwLHyGwr6YsC6VRmIQ7wO+DHd9qBweSWLJcvANDW8cKX2eRnfXZuO5YKJIz6pPf+j8FEu+YXgfTrlobu2SVIi52TSXrSqbCVMEgeqaVl/tBm8H/o78nIe8IxHB37esX2i337LUTS994YgCycjIsAYJMls1ktymtjWy9+81RknwnYjEIAwH+/v6bffOXbbx5ZetrbXVGwijcPRa5WWF9vEPr7fr185zRkXfGTPd+QjQgpEz0zUEk4RzuqbFpR1WCrG6jXgukM8vj6JI0DRi38sx4iEf4dkoTZ6v4G9aUvveJa9vldG4YoJfMgVQTLCFRRaRGkh/WOrdq/oYHhj0OYTpJICSRRfsbscpF9gyU88XA5DkBVUD1jv3373crTeyJVXzjHeZGZl27MhR3xfl9OlafYBumTK6dngpCb4TEDyGAdW+/Qds06a37MiRI5aTl+svWHZZWJjtm0rff/cyY2eqS+IXItHQjCW9NZIuWFwA+CIJTTf7EV9HZ7fr+ZgYcglMmcJygfRMSLQTl2Si30makEbwypnk7MICgF3nGXkE4Nhno6trwDo7e0ZWODp4TwNR2xwrzxaTTCYfP9loTS1dkUrtwtOBX4SInr4B5+s7bl3qBwMwkUoYCDd9vT126MBBe+rHrBRN2Pv3GqEk+E5AjKI5wfdtAe/+d/fZYD+zzpExelqarV4xx09zZXICHSn8yPsLpzDEZBVQY1OHn9eG9MwWh8x+Tysp2UNKe2t7T1A7jDSuFLd5zcrKiBpd9HiEeCA3ZpVbksYTEqMD1tkFOEL+WsUYgE2cIdBiwx908Ey6oSOdTiooyHILDMkGvtgC/iRpl5IObzPi6TUrq/xAgbLSAj3j/DfAPNVaW1rsjddet507dll3R4fPL0xXR3O1KQm+iaRK96HPwIDt3b3XNwOprakJh2DyWGDJkT4bblxo666fH9QDfHORPIl/mKy7q9cPq2QbQXaEmj2ryBczQNPJf+SBht7vQ8KQPj31BRPeGXiDcK9nUTjFYBoT+14jiiYga/g9AcFHjDLiDpwraqgu8QfLnd2s0d9MPVGbTCRj8cDk24mTTdbaOir5XizxDSaDFWX5rnq49aYlLsBQHFg+9PX3+XmHr7260err689ZTu83SoJvTHGdDw5aZ2uLvfT8C3bk0CFJgz3R0FvMp0bA0Gn9DQsElIUjQ8KLIQdrXWlw7Odw6nSLtWt4yWkRnOfF85CY6WFCeH2gb9CXgo43b/P7c2VPHydVD+chCjh24yg8Hna9LzrWsNl+qAN2AOvp6RtdYDENZUwU1CcTZaXFeT7/wN7OWF4wSjsnL0xCJJ3RFGGifvjAg2t85V4QXAgSi6Ie2/T6m3bw0BHr7OzyFYjx0UTvZ0qCb0QwPZWOHmrf4SP2xuuvi+maRxlfrry82B64d1U4h40JAkenSyB9x7cs4z11ujmSqAv8nDQP0hvaJYZ9gUR+vQGIyTs7ely/SGtwM7rIzzkpzjuNhFaUpAnJWcfLBze2TlFJaKwhCTPdioow60tX36864J2kRSTG6dbqxEDJPhdFRTkugdfUt/nCkZCPiyd4nYnc/PxMu3XDQrt5/WLfIxqpHumXfSUOHthvm95806qPH7NMSuYa4Kkk+Io4ZNWxRK6+odE2vvKanTrJMtYhN/saVAuAKe+/a7mtWj7LN5AJw7Dw/cVS+CzFh/otLd0+DCsvzfehZ+C5Swz4Ukjx0QiCyuESGF7fvP+bySUSDEKZile8aMdVKz/hPXgrAG0YXaUIkNq7eq2ltdslYCbkpgOMSA/xYNeblxfO7pPg7efKISiQhEsWOCJCmv7UR2+0pUuqfN9r9L+ESRvYjunZjp3W3NGhdidoOo+65r1OSfAVAR+oWtvbO2zfPvXAr7/hjQHJENMYzICWLplt9wp8OXKG7QMunSeCZMkZbxzZw6oyJtsKC3PCsFPvphvOyMulAm9S8j0PUTShgMPv81AMbWz8g72v28ZeHt5dFMEH7NBXmJ9jBQU5PirDDr1TncHldABxMQC0K5fNspvXLbDZakvx1pOZWVl+7ttOge+hQ4ejyT25ywT7mUxJ8E2gUydO2NbNW+348eMC3jABgoRbXJTnpjJr/IBFeuvLkHr9u2E1rAE7Wd3sexlgZM9yTIZ7MfBOB88RBVIXVg5s4hM3jigJF0S+p+9lNMr3OwFYDlqXUEZ8Md0lSzIxA8tF8uUkZz2orW3z4424v1TJl688PwqDrSfZ+3fVyiq3psHMEsmXxRYH9x+wHdu2u53zdLSBq0lJ8BUh4TKxtu/dfbZtyxb19myOI2AaZDVOui1cUG733LnMzW9cJ3oJDWk89fUN2ukaga+AD8kXY3R0X1cg6AumuHNhwo8FFgDxRUtZ+sQnR6Yz4e8lUrnALxddOqob6me6AchTqkg5DogNdtI1Gquvb3fJ93KEDih8yib5ww68665n4rrIzepQP2RkZFpdTY3t2LrdTp2qltcgFb9fKQm+YgRUDmdO19juXXvs6JEjlpmZ5YyCQXhZSZ6fPrz++vlBNyd3qb0/xKcKwlfJsaoMCZiJlrwcMTpWFdOMYegZkXoZ4sZRXyxUMDl0JTqk9x2pTOKO6eI4Bv8J30x30YonMDFE54uUylH2Lc2dvgiHNF1Ocmg78HxJcbatXsWeyXP0MGxUhb67u7vHjhw+Ym++9poNckTX+7hjv6bB1yUSuVTV7Tub3vKjTuIJAHS92DsuWzbLe2g/SkdMeaWIoRYbgzPkz83NspLS3EjnG9I0XURnANNfeqsSTFAu79MGcllEmVyoWibyQn0wEmtt77VGAV63OkY3w5kmwvSL5DLCY64DMzh4o62jx1UP/uMy6xqVHjrtRQvK/NSLcOw80wcBgJubm+2NjW9adV2DDQxh56yP3of8dc2Cr4OurmlqHMeOHbddO3eEBRX0wno+MDjsq3Gw6125fJbb9NIyLkfqDRTUFgy1OK2YK7PLmQJ3GtnVYbGLlcwSSSlWA7lKCZ/R5EUSS27n4BvejHSA/pt9RQZ95MUIiW+nE3sAQQSBwqIcKy7O8VV22PqieiCZl0sUBXEU5Ge52eZdty2L5jsCMPf19dqRI4d9hWm7gDhNL6ZTIJkuuqYlX2hgoN82b9lqhw4esg6WN6KDEMEcHAezdtUc1/XSCC4bd0UEwQbVbewipmEcUg5qh3hl23RRzMtcL5evGVq/HxvHZZPKJIwKot9nEdzA/reB30IRBiZDvTVWaA4jokmDuoLkgon4MTsrwyfEGA1i9uaS75VoBBHB81WzCu3u25e5nTu/g+Q97MuO38Lu91S1pOS+APqjhfG+oGsTfGEuXYYksTWqkulha2tqI/My3gxbXl623bRuoe/sf/nSbiDnHQWFeY3v1yrphsk2DM79sEU1wCvH2qNE8mHq8C/6rT/BBT8J7X6Exv2cnMiYkCIJwAlE4VEeDr7nKBdVAB17T2+Qcr0+5J/riNMj1ABIx7GAHGpy6oh4EQzYl5eOoL2jx4UFnl+paqZosJm/bvUcW4slkYCexRi0waHBQdu9Y6ftO3DQWtvaps3WeTrpmgRfKhE1Wl93p+3ft9/eZUf9nl4f+vimHwISDlC8fs0c32PXdVFw3WVTAFcaGczM0BIzs/i4HuKJm9alEvyJC5JUYFbSjvkQjcnzwblZeuUx+TM+dK+iS4hb8fjZZMR3RcrpfUCUCSqHc8iqFBWOnfLY2Ag1A/UUf4GcC8cMy5M/8z+hHgEjThmhPhPr+3IBivQQBra+AKOvRBsc9s11WO58ZdpBIJ9fEQKVaWR51+1LLb8gOzI7S7X0jAy3+90lAD4j6TeIRJeXt5lG1yT4wkBD4qHG5hbbHm2eMygpmKEW1ZuVmWUP3LPS5s0tdfvDAIpXjmAwhnH08oQdNxzYOjDYxcXHt0wQ4viW4RtSBI62gl6Z42De3Xfannhqu/3RV5+23/3337M/+ZsXbMeukw78NOhRorGHJaEXnBTK6AqX03uaVBQjHdI5iFKn/inrxAldih4A7O3qtbffOmT/z39+3P71v/++/bnq7LmX9tqR4/Wug6UjZ2IsV5045mHUIwsz4IWYry6OUIOwyk08lJPpmys5+LaFCbdELrkipORhzrZ29VxbsXS2n/wNv8K3LLw4uO+AHTh42Nq7u8MmTxedn5lL1x74wlhiUOx6jx0/YZvfeUfMJeDVM1bzZIjhmWBj1zLMbALzXlyF883kTB8sKTo6g93kpRBBE37cuGgoqC9yJKWQj45ONuxpsl17q+2nL+y2r33rdfvqXz5vf/LXL9i3H33bXnh1n729+ag9+/xue+yJrX7v54V52CFNMH9DU6caXJ9HeE6BR++Tet8JSHzlZTJJ2YXulrJOUCJ43Qp4MlKtsbHDXlZdfVd19uobB/xE4Kef22Nf//Yb9r9Un1/9yxfs0R9uto2bDmh4XuMrJlFlZWWlO3Cy1zT8AJ+4DvmC6ifyowSh6nAVgEaCrMTEHHGyGTeCJvwLiiKiEaldfxbOL/Gj/KtmFYfJbaUjS+B78sRxe3fvXjtz+kxQvYRP3xd0jUq+Zs2NTd6rHj54yBmMvUWRGFh7vu66+bZgfqnP+MIYFzPUwi9g6EPC6FkiERQ63+aWTmdm4mBiw2d7iSv48r+TEUyIVJTBET+KB4BkQ/b9aoBvbzlqP31xjz3y+Bb7xnfftEfUOJ98Zoe98Mq79pbeHThc4+fF0Zg4IuYdPXtRDbxJ6UHyivMKm3dJ0qEheLrOnSS1FaS880t6F01xcFc63AQSZITrFYzCgQgrkHNSAMVQxvqpMuaKQx115Fi9vfz6Aa+3dnXWSLpnaltsz74z9vqmw/asOtbHf7LNvv3I2/atRzbZD5/caq++vl+jmRN2VJJxkzpPeA0QRjqGL89XjZMR4YxYX0xAgDzHwiPYXEwcZBu+y5XgcN2auX6Mf7YkeN/HWLzdJYn38KFDvq82i54uOQMzkK498FXloWs6eeKk79nb0c7prAy1wvANm8N1Nyywwvys0BjEGFDcKBKJ70acfvMelQLDM+x3Ga5NRPhpa+uyfjEzs8msJGLCDfAPcYz9LvAbcYQ7vke6bZBkdOx4g23dcUISrgD3B5vtW997y771/bfse4+9bY8/uc2lpROnmh1Ixcu+kAO1REZmuut7OUOOxkxDRUIKgg1wRFri9IR4z0kAr6spJs7zpZB3BJHzS/T8ylIoV8ImjitF8I3zzqTlocj0CpBp7wjqA57F5Q5fsOPdUdUvW48CxnTU1B2mifhBD4vE++Ir+3wE4yCsuv/WdzfZjwTKr0la3rvvtFWfbvEJXjpp6jgu1/HZJal0/3GSueDwj1qECTcOfAVoEwn/7FXC/sMsxPD9KET4Gmkf4yLzuII3TwunZmD3i4URW05iB0we09PT7XT1ad/zoU1t1dMTvnrP0zUHvjBOT2+fHdgvxty9S8OzHH+Onim/IMsrn9OInTnUHmCaAELBQYThACbpkyuesQt2CbSu1d7df9oOH63zxoEEHH/npPBgxnhDaUA3SL7hYE6exeoE/IXGFk4QZh8F4qg+06yh5kH7hoaf//PPfmp//KfP2l/+/cv2je+9ac9J6j14qNalFNbm5+aEkyh86Blho7uogbiNsSSjsRTYmzBGO4RzsLzCD+lGbxkV2iWSl43KzJ3SxikIKT5ZqHIeH+6lR+PECMLjcBfFKRdGQpceuNc324GFgpuYFDxv2a+XDhDzw8QoCYMOEjNE5yHqIaqL0M8hNQdzLexlUTtxCOrmbcftsR9vtb/75uuuZvrvf/Ks+OOn9tjjm23X7lN+ZqDHpTDIs/OX5zfECY/pb0hc+OPlhHTOtqPwH98Fv6G+EAZqa1tt685jLq2z+Tr+4Z0wShttKwG4+TY4D0SEuoTJbayL5s4tjR6jIkyzlqZmO6T2yso3JV5FN/rde5nS/s3v/f7vR/fve6LSMsQMBw8eso2vvmp7d+0Jz53xzJYsnOXHA928foEzA0wIY7K/Q7Yaga9Akz96ZSYgTlY32BZJnW+8c9Jeef2QpMwjVl3d4pvkzK0qtuKRzdFHWxWMi8T6+qZDAuh6B0gsK1Ysm+XmbTAoR8cTLzpotvKra2hz6fa5F/e6NIvb+OYhnyzjjK1WpQVW5KTheIIQSQLmpVEWK46lC8tt8bwSl/DbFCZpIt9kiG/dyN+f8lUgJlvWr5ljsyryA/idgzwMBZiSlm6pSsOlEI2Rhsw+E0hZjB76daVjPFXdbO9sPWZ19e3ul7h6BPQrs3NsmWVYibBuQPlOBM34ris7zfYM9VrNwID1Kw5hrcp2yNaunuMbfHNiA2qY3j5JdoqPNECU5SWR4hjq70esjR5MTAG4huzAkXrb/u4ZX0VG/cNj8XvIQUpEvbKx08olFbZmeWXgR1UzYbhUKp5FfYWFAqM4Ok/0xidONdnBw3UOzJveOWI795x0/TD59LAVDfGiJ86QpEm0xIWfLfrm6PFGn/+4ce1cW7NqjvMU7+P0cSUt8Dp+33j7qKTuw7Z7X60dOtJgXQJt4vFOTS4zA/thtSc6VvJFeUl4YYEThCXQ7ndP+TP4kk6dROXkZGtUep06ZMXv/Bvif6/SNQW+IES6Wt6rr7xqmza+aTVnzvhmNjBSunrYm9cvsgfvXSXgLHLLBxofQAu41YoRj56ot20CwZc2HrLnX97njFx9uknBpvjJFqtXzPIVO/PnlTrwAtqJBJ8DvkjHzFgzrCwuyrEbJWmvXTPXl3I2NLZLsm2xfQeD/vYFxfPsC3tcx7dzzyk7eqxBYNzuE3aug1PDA2hpeLQi1CWzKgpsyYJSu1HgctfNC+1D966we29dbLPKC+xUTYvy0uHMjH6OBgPTUwa0BPg5autWkJdpd9y0yObMKnJG93Y6Cb+n8FINC+BNuQTQInzA9tCRWnvsR1vsrS1HbMv24+4Aja3bT3hn1SmQjD6w3ksBX33jEzdy5Lla5bFr7ynFcdTjemfLMderMhqZM7vYAYqQEoI9Pw1KeuxTOgGNcxBhDg4M2/Y91bZnf411aNgegy+gw8RsKFbFzwBLwQFat66fbx9/aLXdvn6hLV9cbnNnF4mPcn2Uw4nY8ARqJgQIgI1A4GNAjUnU0zWtdlgSKp337r3Vfh+2NxVP9YQOg9EQAgZlcuhog8A3y0/qRlBAJQKYxmXNlbYCeBcW5EiCzXewZtOok9WNtl3xvClA3rLjpJ+G3NLS4frrnp6g684SmGcp7fAjFhts3L5jd7XzuEchTwBwmjr2G9evt9z8vNAx6tuLq5iZRdcO+MIs4t7W1jZ79ulnbNfOXdbd1eUVCrPOqiyy++5ZZbcIbJC8aiVhHTvRYO/uOxOk27cOBx2aGgkTVUhjbDW5fFmlHw64ZtVsW760Qg22yHW4MMdEfJEuQCbsF17e61cmGmZXFjpQo98DdN58+7AD++Ztx2yXAHf/wVoHbM56wxifRomOEEkCKae8JNfmqcNYtqjC1klSveXG+Xb7hgV2q6436vfaFbP9PWne+W6NVde2uw6Pb6sU98I5JVYjQKehBkk9EPd8C/gi7cQS2IREZuVoiKmSni6mURAscXWr3N89cMa+8+g7utbYEYHtoSN1avx1rrfuEHi4xMVHCv/SwFd5jMCUxo0KB1BHTXRYEuiBQzVevvM1Sli+bLbbYhNQYrjnJLAOKwck33OUFx0AYNrQ3GmvvnXUDktipDN1FYM+gyc5wLRMnThLzwFT0sBQnk71gTuX2aqlleKdfJuv+qOzXTy/1GZrlMJ3qCLio4n4plejKK4+slAHxqnZp9Xx0NGztenxE41e3sdONliDeAFVyGm92/1utQSMZh8FAbyrxQ/s8+uddQLBiwA2oMt5beXlAuDCbMvTb0Zwra09PtF7qrrJAf/dA7WKq0nPwgGynV2MOpgDCaM+RjhHjtUF3lC+WXTRrzJdvGypVc2q1Ggl2wb18oLrZQbSNQG+6CHBlJThQdu7d7+98PwLdvLECe84afQ0tiVLqny2NVsNdbt66E3vHLONAts33jrkkhegC7MWF+ULaKvs3juX2kP3r7Y7b11iy5dU+vlrSLU+RBpH8AeOCbheMf8x9f5vvHlIDaDDGQ2wP6rG/7aG1ZsEvKgYDghwAWfAFp1nMKpP0ZAtzQG7MD/bZkuSXbaozDZcN9fukWSLu23dArvphnkCzVkC3BLLl/RKHmnMNQpvm6SsM3XtbmlRqkaKWuFBNeRj7C3MJGHUqPSJH/tNA8YCpEgNibjPSbQUZTRFw0JOY7hwCqDfI6mLDuj5l9/1jobG2K1nOHbC8uDlO5Qn4DtsqwS+Sy39gsC3VuCLn7QQgJcJeSTfSHxI3p2qi7KyAq/jlQIaZvmhC2rk8uN6WcXj4HsOghfqGjtty85T9trbR6zRj2eP0qw/6HrvXL/Ali4s846WDpN5ASZzl+nZjaurHGBRL1SU5ttijbbghcUC4eWLyl3NNFejsSKBH9I0oxvAEX7zKJRW+BX9L7piOqEDh9QBCYCPaHSFNAwYIyXT6aHOmCuQX7igzA/XTJR8Y6J+vHPUcyYIEUSWL5sl6bzSFivNZaW5XtYHjzTYQcV18HC9q0MOHjxjx443adTX6eoTwsBtldSNGai3K+ZUurqtpET5W7rECouKbFAFdUH1MkPpmgBfADEVpwbxwkuv2JsbX/e14xxj4gisP6XF+ZJoW+xFSaQ0/lffOOg9ND0w4HPX7cvt1798l332kxvs/rtX2moxP9tNwrzM9AbLhol7YpgSgGdrPhjtLTU2Jj/6epFGBIp1bXZATIgUgqRFg2IiDmkCJoTRaTQw9OzKAgHmXHv4vpX2MQ09P3jPcrtL0vq6tXNsiRpckaQSgAxwRdIFDEgS4dRryLlt72mBb5tLI0VqvDcJuL/06fUuBSP9AgIDGgqHjmRYHUWz1Td2uD55wdwSfx4KbQKmp0EqnSlKP9cLJ1QfAlM1PHS7b6gDolxQ/ZAXnJswyQ//Uofl9FWf4kPyDeArMNU3ieUf3wG+e4c0mhlQ56JvXPfIKr8o7JE4UAbrK0CGjnjF8osDX/wg9Y7oe8/xzUnV9QsbD9q3f7RNZdzidUwZ0PlR/3ffvNB++XM3WaUkyEMCpiMnm11HSoexZvks23D9XAdf1AkD4j86J0YuPEMNsUy8sFKS8fXqRG5Vh7xGnXGFwI8koaLiO8qCuuYhYI8+mXTUN3V4J3hckmmPwJ5RHLzA6js6YKRb0ggvUGaEGYNxXE6qCld79KsDLcjNsnniHTo0Tv6+U0LCXP0mbNRMqH127q52ywxUIYx6WtT5coIG7QsifPbZZuHFirVrrbyy0tMVx/tepPc1+AK6uEw1rPSUYfWsjfajHz9pRw4fFmNwNpYqT/+YUUcfxuTVCQ2LegWKswRyt9+6wsH25z5/i33ogTW2ZHG5T16BK8706ANhOBpvAuPFRINmeIftJXrMRx5/x/W3LH7AvIjvABUYGeYHFABNzlPjWXFRtksvN7h0utQ+/fB19ukPrrW7b1lsq9UAaWRINgwtsbYAbGmc4kePO24MOAdfSRbb9gh8awW+8k9DXS6J5I4NC6yiJNePdcFfnYaCnWoYwfbY1AF1aFjc4ENRGjUqCIh347LsxLOLUz0E4AF8T5xqtI2bDnuHxtfEgetTuphg69UPQJeJs5ahAVsh8F2ekmGlLvlODL4dOWm2dUD1299nnSrbfsVHOAMErP+J3QSd6JyqIt/N7mLBFxqRekGfcd8QHQC2bfdpe+zpXfbMy/utScNxQDXod4e9vj/1gTX2xY/faEvml9ppdZS7NOo6ebrFJVgHXwEpox3qj/oiGu/0dAO/04H3MZmmOJm8LVaHjHpp+aIKu+WG+XbnTQvtupWz9azA37uemfKV9E+9U3KsekTvnZYe8bXSxmZQBw7W2cY3D7rtMfpbeA/TMNRmTObyLbn2NOkPfBhsmcMKTBaPlBTl2ULx0XqlZYM6hqrZpT4XE6yF2hRuo9VKECK8MB1M/hSW0tnW1mbLli+1RXPnWHF+nvhAflzwCfG9l+j9B75wuIh6yALY5Lq7u+34iZO2adNb9ook37bW1hHmwDdD+76+IbdSWLWiyu64bZl9/MM32kP3rXIGQf+H/ophH5wVYghEGOOrnEYEcKHjglG//9g7tht7yzOtzsDEhx8aOsNerjBxaXGuLZhT7JLNrevm2323LbGH7lqmxrJIEsxsH1pWSBJik2skEBqyxx4nyPNOYwk/R69ngy8NAYmeCZvbNbzlPbrCitI81+8heTDRSJg0ng4Nx/l+sYadDB/RzRFdHIdTwo8UNcaLkX5HwbfJJxd9lVMUHhYqlQLzOZmZNgunsCszMq1Uz67LzLFFw+lWIAmOdI5vgPzql9TekBZUG3wzW9/OysiwMiwz5AEgdr/6lnKoml188ZIv7/XtEOoRpN5xxGsAhA7sief22Jubj7u+l+fEQWd7nUD1IxrRfOCupa5SooxPadi/+0CthAKBb6LkG4EvvBPzYHD8hYhQ/90Fcy+Alm9QkQG8S1SXN0gaJbxF4i2k7JKiHFdrQagAAOO4H6FsUM20tnZbg6Rj5kQ4EADBYZ5GC3E6YgpxRz9iEOWfygFwLyjIUpwFbl62ViPJOVUlbv1DIKh/EIigEcFGrquzS/yZazl5eZaTn29Zqsc85zVA3r0HGo14xtJ7H3yjhkNhU940JmbeB9UI2LMB28Dt27fb66+/aW+8ttFPJR5Q44ChaKwMXWZXFtkqNbQ7b1tqDwpw77pjuZ9c4aCLpItkIL/BEVWIyxliAgrPh23Pu6d9CS9g0suwUIBHvISDGgE9KmZcC8X4q5dV2oa1c+0OSSWAIcNKJruWLSp3VQNWDOjsCJvv4eU4Tc7QUXomShLPx4MvekQaImZLd6yf7x0CjZMJHgAY6ZZJnm50cIqDRg8AzxMwLZqvRqIO4JwkMImlsQuhicA3/jZfdXRHbr7dlJ5tq9OybFlapi3XdaXcUhOICuvSBUIUS/zNyF/+Kx25cvNSM2x5uoat+n6l3CL9Rpo+IwnafUflhJXDpYDv8GCQelE9JJLXUQqWIKk+qnj82T0+kmDUQ745Qgr1zwfvRoW00Ec0lDmAeepMm+2RtHk8Al/KZc2yUbVDUHeNJdJKctk8KeYRnJ74c9QFqLBKioNEjMPChwk7AHleVbFVluW7JY539OI7+A2eQQ1AULF9MnuUkC4m49gginchv6Pl5WnxNAXeDWlRnSv/dDAlJXnKc7FVKd75c0u88+PoeoQL8teHikTxQtghd3V1CfRbrKmp2dpbWq2vt0edfYYEkkwvMyxDyKsnmqgS0jKT6L0NvlElUrSUL0Ou7s4Oa6qvs2NHj9pGAe7LL71sr778im156207euSo++YfQ6rSknxbtLDS7r9npT384Bq/3njDAgddhkE0RBzRhPoLDHQugrFgboAEu1R0x0jAbHLD8JKGxgTJPDWwG9dU+QQZaoS7b16sIeE8WycABnDxk5UVhv0wHo1xDCkZgIrrL8XEDnTxfZxGrp72RPCtFvi2+xCdtKB2IA00avwggbF/MTbBmC4heTWrgRE/cc2ZVeCz7DTMc5LiTJVkSXouhM4G39DY+LxEDevDuYW2fiDDlg6m2vzhNFsoh8RbOgHwjhA/9SxDQVUOp9qC6DuufFs1lGrVg/22fyhMjsXldEngKxruE/BOonLgex5Vq+N7/rWDVtfY4aaF5BuLlC985Dp1ggt89EOc1DZ1caq21fYcCOALX6EeuG4lku88B0ZGMAo9OOIYzw9EGl/dX6CYt+lUASzmCrBqAYBxTN6tWFLpVhSlRWGxDqMtVHRumqgCZ3RHBw1fsxcK57E53undZOUVymH0HfUWAF0jL+Ud8F26qMKWyGEFhHUQ6SSfgD/CUouAFyGKZcdHjxyzaglZ6Lwl3Ti/pOkbN3lU+HFMlOdkabpa9J4F37BdnzKg0s5IDUPO5pYW275tpz35xJP2ve98114T6O7ZvcuaGhq9kjHOZkIjL4915PNdtfClL9xi99+7SpLvLJdyBwVCLKGk2qir2F0IUcEQTBkMxavlTltHR6/HWy6J8v7bl9gXP7HePvnBtXbfbYvtpuvn2cqlFb6pNJNeMJpPiERgCIU0RIngSu+u4XOqQAmXoqF4SnaWpXL2nHr/kQkvZTo0hMDkdY3trm88XdfuYdOgFs0tdokbQhLBP7HmKy3LF5bb9r2nXd8IGNL4l0oyYhKH4em5iNFHapyOCyjAiSTf+Hm+wlknqbewU5Jlj8pG4DQoN9AXDl4MdO44aOBMMjI5xfdDcj2K410B70G7fMkXfhzq7QtS71l+Ay8BHvsO1dk720+qQ+vyzgxrkk8/vNaBtzCPHb2Y3ZdnVQJ8dKqmzXYfDGoH0oD/9WvnuLkZdrUh/wofsMkUL2RnW1pW4AXnDRz69wiA43zwV7/8NzUOuDFnQD3HKrD5mC+qc2YEdrPAdYN4lUlXgI55AL7DIqUgP8dulwDBRKXzj/Pc+DKYnOJ00RGQDiZ3Ad4Vy2bbOgkkSxZVaiSWZW3tvdbRzoIidMmp1tPTLRA+Zfv37bOd27bb/v375afDiktKLTc317LUKdAReZpUr86LM4hmVmouhLwgxSBi0Ey5nu5u23fwiD3x+BP2R3/wh/anf/zHbsdLpcCYLB9O1RCTrKJfuv/u1fYvf/tD9rv/7IP2qY/eYIsWlLuEge4VO0toMhvd85JjZZhEYyaX/RLYwyE9HcYatEWSJu+6ZYndfvMiMVe+2wMTDwzsu0ap4cEk9N6ADgzmPbgDrBqTGCotP8/S8/MtLU/DMgA3K1MNLerpBY4AXipbC+aoEeKHBhnGYR4eDZp0Ei9Ag+kSxv2J+eWWhsAz1A9s+edZ0x/M1UgrdK4G5mCk8vRO8hz+LoRU5U7E5xOJ5DMuG29Q5w+fRsg3+E9NDd/578tL2ggh9Qo5ol8TkYBdGelWXWPJEdcBo5uKkhzPAfzq2RlHnkT9gTfQr7LIgbQTBkCUAtjCG+L1NAGtA7F30OIFpEDxQJp4BX6Af3D45zvXzct/sCyRU1TUGTzJghbaBBIvYLxKkjAjNEwaC/LVyesfdQMYN7uVTJDYL5W8blUowl9vj6g2WLRx040L7Fe+dIf953/3Sfu1X7rXbl5P/BxvpA5KwkaueL1TI969u/fYIxK6fu/f/t/2v/7of9jLr7xmdbX1lqZE5gmIlbHAjzFDXWWaoKpnKHmBBWACeNH3bNm8zR77/qP213/+F/adb37Ltrz9jm89x+IJelA2+khLTZcEU2Wf+Og6+/Vfusd+/ct32n13rbBF6tHZOxS9EuHG9RF64XB/aYQ+V1KcmAdb1c7OPmdqdiGDgZEYaUAwLv/8CyLH6adLrUi0NCgxVWquGhSOe4A0blwABw3QEzs+wYGJvVFlZdObuNSKng/rCOaQQytBdgkgPBnhnwk496g0ItEjlcbldS4aHtAwnBZC+JdXqIGirI5k+WKD9G8pm4QwrgDF5mVejxNQnHX0lywoQAKOHzLkz89VXYtnwudjExUkyeiHaCTtETmvMPIBRMe/jMjzHPGL8w6jJn2TliNAdv6iIxd/CaBTBOz48WR43FHk+o1EzoiIyUDUdjExWmRXPCx1IE/HJVKchYRofZEJtsXLNEL8xEeut1/98l32pZ+53e69a6XNnlWitoa5J1Ye/W4NcfL4MXvtpZftG3/3D/b1v/8H++lPn7NDx45LoujXKBnBRoESQWLBXgWa+eCrAmJg5AWmXosebs+u3ZJun7XHHnlUEu+PbNPrr9vhQwetva3dQZfKz87OtGXqqe+5c4V9+mPr7POf2mAffGCNXa8hdllpvoMhoIOjDkKlE8nl0CjHsE8AK6gwKqdhYWKDWiNLUgSrdcAjJg/cOyAZNSKXUKKG4AAcNyxAGWnmYtIov+FbAJs9KlgCGts2izwNUQObJFgmBVGHQHzW0trjJkln6aAnIJd+mWicYPb/YonY4hjj+yvhLpdCHqNJtnOWSdCvNvo2j6HeISariiQEAMJQXL2ExD2Axkgj7iA93XE04itXLcAbF8UWdMxIxuIL+M47e/Ge+C3mvTRGVIRNBy+CR2hb/CyVABHAN0RKvpB8Y/C9EpRYDt5G9S9DbYg9U25ev9A++vB19jOfuck++ZEb7TaNJudWlWpEkOllQzqbmhqFE7vsBQHvY48+Zj947If26suv2rFjxzQq7UJzd9VBeGaDrwol5in0O2dOV9vmd7bao488Zt/79nfs+Wd/aocPHvTVL1mZGmYLxDBhiU8d/uwnb7Jf/LnbXb2w7vp5ViSmQaeF5EFlUsHOiHEkV4ioS1at0Wh84ki/GbozQRIm0UJnEhqBgFcAi+TBsDEALg0iAGYIMAr0EnjE43DgpoGqsSZklvbMTDJSunxFT0cJ/wADpyTE1CrJl71lXRd6vnJTmoeRkiewALgooqzC5Yq7+O8lkedvwIZ7w4bz5yJeMyyvbejwYTpEXTARy74JgO+IlAnpnqrCtAubcO8k9Q8VGRNcdOggIfbUnoOL5Q3iip0CAGSDikK8CA86CDPaUucPjyoxpCGM4PKUbuy4Q1C0J3ZLwzYbPwksdkUoDo+kog4h75i23XPXcrfB/9VfuMs+IMFq+dLZVljIZlapPr+TLtfY2GSb33rbfqgR8te/9k176qlnbbeEt+aGRoE62/NEBUfg00wzE3wpB5dIB9VDqcfVcOHAgUP2yPcetf/+B39oP/7h4xpanPBKyMvLE+OYJMygh1y8cJZ95hM327/73Y/YL2howu746FYdCAUYfHOlmSOmGMiRBFiyyQRSbDXBhidsVIPKwaVG/CJxjFEpMNxL4LQrwRAKIyVVjUcOdQjpoRGTVhpNR3e/tahxh4Y0tmBISmF+psB3dIMg0s4qOMzOQoOMXkxEBICeTeA7hE4Uz3H+xtEkj0XqqPQ3XR4yh1PldFU6r5SbaMH0SFImTVOgIYEp+TpfxxLnDYmM1WPwIc8QFCrLC/1KfYwnOkS+wT9Fx8IYFt6gukIKpOjH8MxlkoO/nFtLKFyXhtEN48SrxAMPYQfsZo/6xvlI/M78BhN2gSFGIO2KE+2XdBIXk65MYt992zL7yq/ca1/5tfvtA/evteKSfGPXOsqNjXpyJdRwcs22LVvs63/39/aXf/YX9pOnnrGm5hbxlqR5bPJEnv9ppBkr+SL0YUl6/MQp+0f1WH/6P/6nPfGDx62psVFSZIZlZY8agvcPDLte9xe+eKf9i996yL74uZts/txSvcVygBnxYP7l0sKUU5hYoYdmhp0YATvMiljUANMicaIOcEk3YmqnKap8zqtLQ/IuyBaz5qtBE0+Ii7XzroMUnd2GU6yiJM+Xh7qUIA+AAQb2vkLP/Z8/zT40F/MP9vS6GsJJHzvg+FWVPXJ/ViJ8M5waAfjx4X47agN2TNdjdvnuuFyrGt/ERDoil5g2ORrpoKTdIeVnmPxMkObxBA8ysYmdbzw8hxcqyvIc0BIJNkB6w/Y6nqCLQccnxeToUFNS1SlOBcvE7EFClDQ33ZKAAADzmOxijuhzF7rHfh0Vm5uM8T00cnPliXrwtqxrn+IEA7IkIGy4cZ5PzP3b/+Mj9tGHb/Dj6ClrbOzZGzk3T52I0rV/7z779te/Yf/1P/5ne/GlV91KSkUqECbLU5jwcTQjwTdF0m5rW6ttfGOTff1//4M99eMn7cC+/RrKd3rhUPg+7BVnzJtTap/4SJhM++RHb7Tr1swJ+xswjJOPaSzLiIIkgOTLAoVg6iIGFviGLf+QtcQ8DOf8fupJsKF0YOnATHlYTgrz0qjZtKajMz6V9uzC8knC4hwHCt4D3DX1Hb73LPaeF1y8KoShvj4bjkFY4DVIx6iGgU7YnToCP3QyfOANm7Jrk4T5cle7/XCo0x61LvvBUJc9dpnuEbnH5fYLgEcp5MYH+BwBRNoS3KCk3MFepb27x4Z1ZVFF/M25iLKFFzAXwy7WG7jyxqKWebMKXTAYS4BsGGIzZwA/eVkIwHOzJMlhgQLvnPXd1JGrHqK5A7LMJCzpJm/wEeBLOi+gOK4YOcuKPErdM4JgO9Vb1i/UqPdW+/LP3eF7shQV5voWlnjkGwSOpqYmScJb7Zv/8DX7wSOP+ak2A+JPVsROVyZmHPimqGuqq6m111973b7//UftlZdeshPHT2iY0es6XYhKZinwjdcvcFvdL3xqg91753JbtLDUJ5SQPOMJiriCpouIDymR3jje+4HGxsQKR3GzYQ5HgfveB3DMdJHHmeY6xtzcDG84lCPmREixznNKD7gwStgCZzoAs4saZYq9MrutNbEL11jP5ycxvYOsgMtBrLfH70ekYu59cm40XO56BciH+/tsx3CvbbM+2zZ8+W6r3A5J0LXDE6gMVH+uKkG69XSSxlHHXr3nn2ALFAsLdHJsG4k0GxMgip01elwoMTik2y4BL8tsmTdAxUPZ04Ez7Gexw7Ck3+liIfLgwgISt9oo8xfonvXYR06sduv3uptWrvb4cTAK/Imww7Jltnl9+KG19plPbLAP3Lfali6q9A4LWIjNDhHmdu/cbc88+ZQLeFs3b1En0uE26oHzppZmFPiq6bu5CHvtPvHDx+2l5593CwYkNmw6YWQkNlam3XrzUvucQBcrBvZfyNGwg2EPw+KRCrlKRDpdJ0VaYEXVY4bAjsbmG6wrcTDAtHEpSRCzAb7onVmqjNkQjRpJDCnW0zQuPTAznQbgW16SFyQwPW9s7gonG/cEve8FE35h7AjcHMTkXCLm6hNzYUMdb+y6cYewJQdMDqgwB9T4r5RDJTMST+RII/rcwShd7gT+7gQwLrleBJEXyjnes5dOC1UDAMY+y7GlAxQHDZ93Mtnm4MvcR1D50Bkyh5EuKS8kdprICwd1R5B22WAK6xnuGQ1hghgk36kHrckoLg42pmLT/FmVhRLKltkXP3+LT76vXDHHVX+QC0Rp6ZKWM+z40aP2zFNP24+f+LGdOHHSUtUhA8AXW88XSzMDfMmkCguRv6G+Xr3RLl+1ksFabYEVw0AqVl6sqDjfPv3xm+w3f/leXxKMwj02xQkNdhoZMoFCPQXAIK1sONLJcF554pUPZTEt02+GcO5xiis3prhEXPWhhotdKZIvjRkAZbMfhrSe0ASiTDGNq1QZsx0h+jPffUrfIP0CwDRAmPRis+L1NFJX4ep/9SzoNaOr0hk70jwVLg4f3TN7bhD3SNISSQ8vhb8AW4blbM/p+xQIrKgDNrIJZnyh/OKgxcmeBiRfJjYBX37H3xXmowY6z+b2U0AuMERllZ8XtpWMSSUT3V19QiDAIQCpOm3F0kr7pS/ebv/ytz9gt9+61EegqHQYoVKG2Tk5vgp225Ztrg9O7dd3lO0Ul++MAF+ySCEwwdZYV2s1Z05bZ3vnCIMxfGcfgls2LLJ/9k8etC/97M02f36JT5WwRwEN6GqB7kTEBFNfL6cXh7XmNByOeXFm1W+3sYQrpplY/VRcnOf7+MaNBTO9JoEvqgdAgnKMeY6yB1w5mQBd2rA+IQ+YmgEkLH1Fzxa8Xz6jEj+6/Nb2Hg1jw65q0+qieAE8l/LhqVBMl0SUH7zJ5jNHTzb50JzOi06vpDBnZP8M/I2WX7hniMxyWr5FVQHwZctvTk56kHpd5XAZibtY8jSKa+DblDRvk4lqJ4CM/aqvpK3v5RLtDmKEx97Fa1dV2T/5xbt9gQZSMJ0cQgflz8h6YKDfTp06ZW3Kw6CrV/R9Qh6vNM0MyTcistnU2GSNDeyp26vCC8lDIuHgvk99bL3ddw8K9BwfqlG0U1c0l0hRgvwU2KjiyIefKKAhvLiXB/58OgnBFsmXkQPlFzMmDQjAAVAD+PpjJ5LPT8B6joZwxfqOBzQwlhmfqG52c7oA5AkfXiQ5j+uKDSm7ad19yyK77/Yl7u69bfH0uNsX+xae99+xxDe6KZO0z/LWQJeWN0ZqqJkA3SNsv9jS5eBLORcXZtv8qmJXRUVsMkr6jeTGUB67avb6oIxL9A0qICx9hlABXHqRXxopQrcHVtvzXfbETyENAcBaW4Ot78yi0UJiNSsHpj5032p7+KHrfD0A6cbRSbJZ++lT1aqvNtWdOrwpLt8ZsbEOeSSjMOWWLVttx7btVl9XZ9nZ2S49ZmRm2h23LPMVanPnFms4wWSHGEHfTHH5XBTRU5Kmvt4+e2vzETt2otEnWgBdNsZmE53SMlW4QIaedroolmYBXNyO3SddEmMmHesHhmHrVlc5IMTG/t7r8230fXtnnx08JgCRJCbBzf0hva1eNsuXLUPEEX120RQA3PyUaLbQZLN4Ng1nU5fpcNf5NcTH9p5s6wgwAqCXkifKAkJXu/9Ivb2x+agdPFrvYExnfP3K2XbnhoW+r2684i3EE/G1/GzdXW07953x3ejYX6GsOMfu1LB56dLZlpM7/WeYxVExKcoRWGxPiuoJ4tTj25SfBfPLJaGz0mx603YhFM9hsK0AFXTgUK2drmXDotA2+JcprLnp1lvUyRXJb9izeiTjV5iuvuTrlUT+UqxToMVpE2yWw+oUwJghWn5ejpWU5PtkAztZeVHMrHodQ5hMkW6kzZioeDJKPvk33eSNQQyWKwm8oqLQrS58Bn2QY2M6ffP0WG8+mmwWYgw7uHLCwqK5JT5MY5abWXhUD+x4FlWg/CdkOIFg4PM5bxgCdPSgbB5/761IvdPn7sFFcd6gjiieYDxf+iei+DnSVFtnj48Q2JeXsmXUgPTKpvno0REunFR8/p0XZYrriLEoQeUAMFA+TNAVK11ZagduUTtJ/FNKShsdA8fth2OXYhLvXJUEXTjB/7RL0s2WqHNmh5NbcHSI7PNdW1drbW2t3sGkTHERX33wFVGFmK90dnZaQ129b5Y8YlYm5uQUCWz1MJSmMNy/v51Z5GlSAukgmGyjoam+/aFfIsb1iYvpZtSQAC/XuXNK/dQKbHc5boYTFZpcogWg3bcTeEoHiLRQLqBgj1ekGn4zyQnwIs35UDNiVEA+ZujYhWdMmJ7bYS8K4BGe6xTVUFwnNw0OSxnqi6W/xO2d57j0jXeT5ZV/lBv68LqGTjsgyZfjgNgCkomeORX5ttT3yc0NoziVs1ePvqPM4Q9UQbVYlETgiy6ceYPy8kKvA+LC73QTUaIGhFeirUkCqfIpE/0JjBDlaCZRnCI6RUxSRzZ/1z8H38EBa6hvsJamFt96dKqzMCPAF0pVZXYJfFnBxrE/AXxhaE5yTbPsLHYGC8PnCMpmKA0LfPuNRRbY+gK2pFlcKaZVuvXba9WfTR+NlJjirZTkW1jEbDWnwg75/gHVNa1B76t6wI+DiK58x7CYIfjN1821qvICf4/0DgBv2nbch55kjck4GBtVBhsbsR0lDrtUhnqJjuPHAROO348dHUJJCS7PzakIFH3nlDkBGlsX0gFliMeIl30LOGMMN5q2XAkAOWflITc3yxtxnF+2emSiDAmesgCMDhytsyMnmtyemvpHgFg4t9RPj2AyExAL5R0cBNgiMbMPRDhLD6uMFJszp8SKygosTWEQtvPTNBM26vCwCxDjo1deHIBjxpmB5J2W6idTHRjqNh95ROXuY1Klu6m5WXzR54+nMhspTX6K4NUjGjkwmzY8aPsOH7H/7//9A9u9Y6cYk6WMHNrXY3fdttR+7gu3+UkTYQimhM+wyqUQvSdT4upO1dv/80dP25Zdp7yBkOZ7b1lov/GLd9vylfNsyGdS8Tx1FGp1tGq9PShO0nPmTIt99a+etzffPuKTOnR0D9211L78qfW2YnGZ+4n9x9zBPeD8J19/w15755hLZoA3+wz85i/cbuvWzBUgZbn0iNTvKxD1DcyObSuHIxIWwREWEi4WFhjo89vJX/I+bMkJuAOSU0nOf6ofOgjUWp6UKB1+q3t/r3fZ2ZEOUESa0U/7fsd0YsongAsY50QjNKwnvvHYZntj83FXIdAxcUTTP/niLeKHxSq7bJ+JR/2D/zgt0EZ98xff2uQnF1PObGTzSz9/h33yYxt82SwS9Nhhfyi3qaS4WNjPYueOI/Yn//s1232gxt9RPr/7G/fZ3XeusNKKIoH0jJHrxhCjKzpJdpd74qkd9md/86KrCekI/dBWleEv/sov2yc/+ymbO2/+GNXhlaYZA74pQ/22bedu+29/8Ie+lJhN0LEY4LC+BwS6P/8zt9ndd6xw/6R4ivnskogmxOKButNN9nv//ZmzwfeX7rEVK+cGM5bom8uh0ZoLN6PlEnpwd8SUcMUPqpz/9efP+UnKHI3P8Jiz3P7Jz9zsE0F0eiwK8OXHauQAKbphwPD5Nw7bG1uOW2NLmGhJUyS3bljgJ+NiDgj4so8x4Ok6ZcLAXlWATLj8J134w7wLG1Z+e+Ii4o7v3ERI4DzVRB0BcL5kdxzBb0iy5C2YhYXnpBldOKDtUq7SSTmy3y3qBb7DyuHVt474Uf00Yobp6Ho/+/AaP72EvRGwK86W1A2A85swyf8zrxywb/xwq53UiITTKzg49Xf+6UN2x63LfINxN4UTX3l69Mfbhd9yTwpDGgMFfrhcIlggdXBgwHZuF/j+7avjwPdeCUrLrKyy2IbTWME584iRBiNpTPiee2m//elfv2CdHV1uCQGvUUyf+PSn7Wd/4eds8dKlI2U5FXTVwZfc0dkP9ffZa6+/aX/2v77qR7tzDAjr/Jld/9ADq+1LAt87b18mpgvJvRLMdMVJgMGa//raFvsPf/ysbd45HnzvtRWrBL4pgO/FF7t/Me4zL4ZJysJrVn9okBCz4xwrjr3u1/5xoz3z/B47dbrZF1Iw5P/EQ6tdFwkgUu4AJBNxgCdWG7Ed7OnaVh9GkxaihnGRHAAS4gI0fVjsuQxLkuPJq5jQiXKsj0sW49NPuHpGuQHgU00xYCG9UjZjKEoLAIzkmkhInjxzyVUBcMWcj2f8pjGj0yWvng2FVVSYYwvnFvuEHja7THyy6hBpmQk19k9G+t20/aS98tZRnwwF2BbMLxH4fsCWL6l0lQdx0PGNNARdPQoehSejpHj1fwzFn10MUUbkEUlxx7bDknxfsd37x4HvLUuD5Jue7iq3mUbUMXMdjKhf2njYvvqXz1tba7sXmqtMdHPPfffar/yTX7OVa1arnKIObgro6oOvSKwqUOi155570f7ur/7aThw7Zqw6gYEbGzvss59cb7/ws7fbTesX+T654xvBTCDSKpFS4NtjTUrzH/zZC7Zp2wmXGpFq7tEw8zd+JZJ8VcEXw/sEDYjF9/yBKWJA8FVZ6QqRRi8G4gy6LkmalFVHp8BTQIljBr21vdtHE29vPWZ795+xpuZO16Wzjwzg7PnwiPx/uImIVwBiuhzxx+RA49+Ghk8D5TVf8pv7MMk4SuE5L8Y+HyF9HOd5OshTMWlaQt7Gp8efAdi650v/LQfYQpQVAB2/g3jHKMLLeSS6UX4gCYAv+z+zAIYRAIDOIpcP3rfayjhVuBhdea7l5bLogi0/w5JjdJhZ7jI1kpQgQCcYheGTiN7TxdkMdZRYj+cj0kyeyPO2LYfsTxPBV2n43a/c55YqJWWFZhlsxi7pN874DKEYfBl1Pf/KQfvTv2ILgw4vC1JKHletXWP/7Hd+x27csE71Fw6xnQqaEeBLxtld/vHHfmjf+8dvW/WpaoFvllccW/D9/BdutS998Q674fr51iXwiC0hZgrBwGFvVw2t5QC8P/2HjfbqpiNuRUBlA76/+Sv32vIVcyYE31ALcVWEhhFTkADDpIszv0AWCbZVwNkOmGp4yzEumH+1tnb5cuHWti6XXgHXdiRWPUe/G89SI5X5jL4ijqMaSYIenKtN+qvE9yPiYvg4CmKUzhHWpVFcThdLY9N5RUhBnR2anujBsMoFK54xFPkfpbO/HnmU4NGBXCAcd2yoKNgiFEkah+kUoMw9ZpksgvBnTBYW5PjpLZioBfAElBmCB2uSuLOARjrfKE2JfDACvvp2x3ZJjX/zssD3jL8bAd8NC62ExQsZGX4axrjMXnVy8FXHxnzDRo0svvoXz1tjQ4uSGTpR8rhi1Ur75//iX9i6m9ZfG+Db0d5u3/raN+zJHz1hdbV1Yb9eJS2A7232pZ8T+F43zzoFLBPp5q42seVg2ICl34fkf/71jfbym4etsTmA7723Ar732bLlVYbmxNsWV2UehuY6wuhRjcAIrjNVeIAnQNrc0m3tAvfGRu47HFjRsXKSAHrVru5eVxcArOh22VTa75F8dIWIxk3eiDD8P4tCEhJZQ41O6XFu8T9jSTwtOvt5TPEnE3x6wTRSPueI59wUBaDLSDouMz2jaRpHPFfYgOXZFOraX/mf0UR4nUyQJtLLsDgRHIMVRNBVc+8jIV1RZTD5iSqJVYlYlnAGWn4E1mwRWlIcW3Lk+ASUp4dEh/8hPv0hPgArpgDew/b2WwfsL/7hNXv3YILk+5tB8qUTUMIsVaNXz88MIvKCfp85jW07T9v//POf2olT9WobzD0EHi+vqLB/8+//nd125+0+8a9inxKaMeDL7mVf+9v/bc/85GlraKgXQ4wD3y/e7pLvjARfGJTtBwW+1BQS6J9+7TV7BclXYIk+9I6bFtpv/doDtnIlkm8YWsaVzTCUCRsAEuDuYFmp8gngoiLg0EWAt6Gxw69hLwIM8PtHduznzDifGBNzeUPSH66oJLxB8TukdkTaoeKpfb9L4AL3S/qi3xC/CI/GNxHFHchkxLvJvp2M8B0nizrHkoDJrUC8ubjwRkifYV7nG97TIcXBJJTBOSlKGA15FAwnpsn8xM8T3/hvd9ED0Ui96U+QekM9QPiLwxgJT84BRjyHdAwQc88hlJy7xjmCbIReKkm4DNM6SckAMxIyO37xHuD2yUCBebyhERmOQQg+e+ml3fb3337TDh+t97Sh8/2/futBu40j8LGf1UiNU1rC1qkzhygf2gSLV3a/W2v/88+etcPHapSnAX+uonPA/Q//5T/ZPfffK8EJm+ro4ytMMwp8v/F3f29PP/kTq68T+CZIvl8S+P78TAVfJZ5tBuN9XtVCHHz/7GsbHXzZfhHmZb+Af/nPH7a1q+e6REqpA4AdGv6gKnCgFaBifYA7fabFqk+3WG1dq4Msk1hMWgHQmGcBoEivgDigxqRXPCSNySs2oXb9lkacWOPuX3+i7/jegU7lHxqdSOkEjGmQmFZFXgPpAyQugJHrRARgECYN9GIBmFSTXI6DQaICQDyPFGBiZi+SwoiBPWiDxOOUWC7nInkH4NjXAgCnQY8nQqQhYyECWI33w0Scd56qS49daWACkjAZuYwUsn8WysBpWPwW/Yq9JN74XrT6TXx0xKQz1vvyFYsJkJLdukP1xXJnTjeZU1XsWzDOqixwO/AygXIJumW5QknH7OPgfKbv2bLxySe32rcffceOnWz08mN3tv/8uw87n2MVMqR0cgyRn4AREjcjaDz4/vGf/dSOOPj263m8Q9+w/cc//C92/4P3SwjMUtlFH19huurgG/N9e3uH/eM/fM1+8qMfW3193RjJd2aDr9mghvpsuE0XCSNiHfC/v/OWPf/6QTtd2+aguHhhmf3+733WVi+vskYBal1Dm9XUtdvxEw2q/Hp3gK1v7yj/fONODB9LO9RU3Ii9MekWyS3W3SFB0+DQDdMAkGSQqBl25qhxpKeH2XlO+mB/YQKlAebmZfvMO62TuABShqWALUTPz7fxwogYP0mJUqa6ogHLv67jiTSSB0C7vLRA8avuou+jy6QUchr8AThR1q8Ihbj1NyERF5weeWRFHKOT9o4uB7iJiPpo1EilqytavOIUwNM3zcGipC9s4AKooV6iA2ZilHqgrhke8z31TN25akmdOyvxeE8HAlizEKZbfgmXb6kvB0vdeweNGiDipbj+fAGQKtfnAZQ8whscCp3RLAHwssWVtmxJhS1eVOG2xbPK8212VYnlS1J+8okt9o3vvOn7l5ABLDb+9D99xpaKzwF2H4EpznTOWITXZgiRx7Hg+2wEvthNs+iIkWOKg+99D9x3DYCvktDc3GJ//r++ahtfedVaWlo0XGKzlpkPvpxoMNjVHdaC6zcSIg3tu09styef32sHjzb40K+sNNdPWAWETp5ssuqaFjtdI6m2p88bMt+wPeYwKghvCAFcHVR1TxjMZjOrjcF9qcAO4MwT0/McUANsWXqKjhl70QIN/2Am9HwOvvKP1MMJrzQQgJNJnByFmZEdnYIr8garH/Hv+I5Gy7vwO5FtFJK3r9EvxhOfwdQzgcan/lIp7ggnb0FRh+HvY0+hDBj1jE50cQ2grOqKnsufrj0C2u4IfNn1DX0/YAz4wjN01kjRrNIDfFFZ8Xlbe5erVnjXKeGA0Rjvu3XlSJ1OATy2rvDraAcf6tHrX7wCSPk7OaTgObOLfFewKknJhw/X2dYdJ1wNxnecRffHv/dJWzivxMGejocspGZlW5pGUTPF7CwGX0Ysu/fV2f8AfI8IfAck+V6L4AvQNNQ12n/7L//FNzTu7OwQOCBFReD7M+h877DrZ9CEG5Xo0kyfpBROX9BvSpIeH+njOz/abj999YAdr252KRMmZnYaYgECQ8x4gQHMHmavcxxcAc08SaMY7PMbA3+Wr2LQD6jiF0AlTEyNeAbjOPByL+YStjrY0q7d9lTPiAsXZs1JSXiAyoIGNkJwhBwz9dy6P4gMhgdjKDya4EVEMYfF10umhCReDhHM5aaFcky8TkYq2ehuHPlj/fFrnJjIb/yJHgfLhFAPPA4jHf2G9/QUVZTzohydNxsh8btL4IpUDY8BurGOmysdPhviuxStK34BZH6jBuMetQwSOBIhfA6vue5YQkB6RjiCCpWKdwriJ3Zn+1dfecCuWznb+ZbUwddDFFBmlh9BxJ4QnrU4f1eBKKcMdWKMHrbuChNuJ5lwUzmRR/J6bYGvmAY973/5/f9ku3fuVMF0jQHfn/881g6x5Nvj0ttVIRqD/lE5ngIN0fo07ERPh8UBpzucON3s+yRs3nHKt23kNAJMW5yUV/SebBLELLPvESDJlZnieP8DpFgkWCY9OC0A4GUSBMaHyYOOV+Cq35SdSycCWe5dSgFwIVVrbOUEQ8W1TMN0F346uaRFYx7TKMb8GCHiuVSi3N5vRFleKk3+6egLyiyx3ADz8Cz6TZ1zjf641R/VKcSIQZl7n9RVHfu9A3q4IhEDsu4kNGCChVSMAMGzHgEsgI19OICMqgVVCh0ABPgSD4B7640LbMXSct+neDb64/IC8baEhbwcl345c84FFlFClqaViD82NXv97WP21b94zurrW0I9Kk0+l6LEXVPg21jfYP/tD/6rH2LX2dHhx8MjTbLC5/Of3ODWDhvWLfJhk0tq0fdXg5ypJVV0a2hXWyOwrW2zkwJdVAx7DtQqzaQ/qAGQUAFPJiTYtGVklllX3rG9IHrUHIGug6cyRuVzj+TgDY3nqiXipbaAzjA0TXg28j48p4BGyyjhboKCS2zcSZp5NFKnEY37KQoPEp/DP1Q2NRuDNb9G7qMrYYOHgA48FfMQYbn1TWePrwarb+xwfXRLi3heQkaYIA425kFKxpa82+caWEK9fEmFLVtQbnNnFfiGQCXsxiYQ5hxBUhKnebrJwTda4fbCa4fsT/6KFW4dehOV4bUEvoGGrbW5xf7iq39qr778sp+j7zpfJY318R+4b5Wbm911x/IRXRLVN10Ul5BLnxpytQpcDx84bVu2HZeEe8L2HKzz3bHKy/JtwbxSmz2ryGeOuc6eJQmgotDfFQpkMZUKel25mOHV+XgU+sM1sbHFDQGisYynJHAm6XwU+GeUp6D4UWCfwEPcn/07CAEuCCAQuIAQtrhsbGy3mrpWq61rczPI6jMtVlPbqmdtdkbX+oZ2P//vlhvn283rFmjkusCWLJ+jMFJdJRILENNJieD7ooPvC9ba2q4cq53p/TUHvsqrm5p9/X//nT39k6f8EE3s6+AawPehe1dG4LsiVNgI00wPOcNpPHfqdKNt3X7cDh6qUQfRqUSk+moigDW4At8AhQ2vM9leUEzmE1fOuIQ0jYmeQeQMdhaXTcx2V5sbJ+ers19MJw/OKFIdhWpCcAjCAeJDv+47sEFv7bQmCSiAL0AMODNpyB4ibOR/682LbeWKKp/j8OY8jZUeg29rK8uLD7jk29HRpboM+bhGwbfDvvn3f+/n56P/zYxMzdjMheOff+7zt9m9d6/0JkCKp5rxiYORm28y09xpR481WKMYisUMgDETXcXF+X7WF+ezMSGGZIwLOlh9TMkqIJde/TYu6pD491LjnayBTPx4fD7DEDcmbifKu/vj7QTvJqKRcPlkXDpi3Sfpu+DGjV/+ufex36hN+vM43aPhJvo7O+ET5RNy/ngP0WgRxjeh7IPjD4/YI0SjObUZVBaYwKE3RipGWEGn3Nc74ODHXsiMDudUlfgcSGghU0/oqLOyM1xv/eOf7LA//esXBcicyh22BY155T/94R/YfQ9eQ5Lv1yT5PvvkU+oxg+RLQaBzumndEvvi52+1D9y/Ss858jx8M5VEodCg6bGxycUGF3MZVgOxQig260KNgFQ7pApi+WesSkjkpZDWsQA0U2hs7Y/+iJ+T5kSg4G4McPj76N5/hIsTCwJQqcDU+hk/9jKKniUS9e0TODGzj4Q7MVHe+A/pHu85SDDsiUFneCFEZ5vKdp8TeHcdPB4i4s518TyLH5MMz1SUM10Sy5f8JfwMv6MHiUU6Ji8Jwc9EGslT9GekzKPyoiyxwAB0fXOnDsC4zSf6mIxjw6CKyiL5lcdpyKiDb06GL2R69Afv2J//7cuR0BTMzMgPgPt7/y8r3O5xHLomwPebf/8Pknx/4ossYvDt6e61Fcvn289+9lb72MNrLC8vw81cxgDAVJCCZ0tLJviQdlEjYH2AxYFYSmw27KuTwnr76JMoSVOetikgUpzICH6vhy5RysWwQZ3EHrl1nbX+hTIRc+t3ONhR7wWw/T0D1tcT9gYOBaQ67R207h6ko+AvpjDBE8yboigmJOLif08PM/M93qDQScZpjAnzu5zsrLBJ0wUQs+C5ucGyJCbymKafuTnstRs2U6cMsDphFabbR+ve/SlNrh8lcSL+Oi+E/04O1uEuPMTp2/gpFD16TxLlEK7chB8Aa6LNsK/SVBvulCTMyrKC/Bxf/gwXTTW52kFxna5pse8+8pb93Tc2er1T52G1YYqVV5Tbv76W9nbo7u60H3zvMXvkO9+109WnxdicrzTkZlwL5s+yL3zmFvv0R2+w4qJsr7wxrXYCinN1Hm/nJe/JvXFF0tpIaXGjqpp6fjmLPAljai3xxwQJ0qP4Kel3qUQJD3kDMEI+R6Q4MhVJIoMCShoJtqE8QA3U2RX24aUemPVmPwo3XFcn1d7WKUAMZ/AhSTALznBztM70rGvA2jro1ABNUsWrFNX1oIan7FkRTr1w7+Mo8TmbYHOKLmF7HZGoiLhjVFJUmGcFRXnh2XnCBFyLinJHVvZBvMtIT7HigkyBRKbnm4cAezAJzFbc7Akw7EPp/II8y85CcBjya1FRjqcDsM7LTXPLF74HuDnMNFNxumhFwERG8M5njKACWPAYRweWmP7I+zhKfDjqeaJ8TzcFQCYtgfdIk/562cXvLpbizy40f8RD3R073mDf/O4b9uiPtrrpKkJVGEWZLVu+3H7n//yXtv6mDRo1vc93NWM/376+Hnv2meftH/7mb+3k8eNizmwvKBpWcXGhff5TN9nPfuYmm1WZ74sUvNomKXAqliW2DF/dptFbzCiF78LHF1ppV5JGSzzcjPuZQOEB+SG9XIKL0h6941+UHf9kjAQY3XIJn6UIMDvdsJ5l0J3dAsLOAe/kMBkKRvisfuqw/oGwGATpv0fAyrcMF3sktZIHmJWjhfgGAEJi7ezsVkfao9+jts1Ros4iT2dCulFTkMYL4kgXyUOneC6Kg0+8m4w8RLwlKpB1G76MvucSvWYZePyevGRLYACAWYhAsgBx7LTZaYy+LDsrzfI05IXYSYxVh0hc7FtRWlqk+3QBdaqvJkvXfYFGeTjMt1gZWVyYGzpI4o+Sk0gT8QHlg/e4nLiE2/Au0LjAop+jT8Nd4J/ppZEkenqj24jocOPFQ2GJ9DgP44jXgb+Gbf/BWvuHb22051/c62opADgGXzZR/+f/x+/Yug3r3+fgq+jhp8H+Pnv1tTfsL776J3b08GENFXMEmqEwUlLS7LOf3GC//HN3uClXt4AiPPfLWQRgY8qSKabmaBeA2EkV5NKE4nSm1L1XGA4GmyQ8aLK4/NNJibCjW0iBEE4MnhB59+dc9MP/Rc946Ol0XVRItw/fBVKuX9ZzfqNXhXGY3GDlUrukyg4BKhMevnmMrgzPO7u6BaYCSEmqqAJ4zxlpXZI4B3QFjPHbp6Fgd1eQVomfzou4SVC8usqzNeZdSCvpID34DdkM+Yju/DvPWnh5FiGRXxB5GOFmsi+iVHnZjamHSWiM/3EU8wtxjbzWjZcED/TCVQ5qyJ43PfMRhtukhxT6b4HwyDsqX34B3fz8XB8tsLF9rgCbCaAcgTWAnSWHHxbooI5DNYJDUmepOMfi5ObgAkj76keFGzZeUnoUD9JenEakcJJI2vwmyptnxe9HyyCuW2jkecKzkDX/czYRfHQ7EYVg+DPOV/ycPLjz21C+EdhCqC7i1aJM4rFy81xE+sl7X/+Q7dhdbX/z9ddsy5ZDXmeUfXyM/+133mm//pXfsNVr13rZJWb3StJVB18vEF05w+2drTvsv//X/88OHjhgnOHGKhwYpEvS2Sc/cqP9+pfvtpUrZjtIQHElxMRvwIChK1vddXb1+wGPZWUaemp4yPCPyqOXCxuTB8YMjSUuhoTi0K3/OlcJkQa5cUkRxQ9H39BQA5ASML9goPCbR1Q+V59Iih2g2tHrZcFRPpQFO5xRBkic3d0CXEmanF7hUqkk1A6Bb6eG9oArewGw8Tr7/HZF4KugAkASlyLEAaj6H6VF94Co0kfqvXyibDhgRMTj0Mh1g2d/pnLlRUTkkjxNRBM+nsTvZORleQ4KSRlNzzlpEm+TfU3Yyn30K5RlYnq8HP1Z9EA0MgqLntNNUXwBVDzAAJg81wveefkyiaULAkVOjsA3J0ujQ4FvQY6Db042W26GbSNZnp4lkEYSZ1IYQGa+Ap4H0AFthtnsC4JUDvCEOEOHEEuTAbSj+uS/rin6nZhnr7DEDEbkT/hz9qtR8jCj+xEKcQX9r8pI7SVMrDLHos5dozEEBASNpuYu37K1tCjLFi0s9+X7XoaTEPVBp8ZmRZs4oPTvXrUjRzjqizJgyTSbHKXahz/6EfvSL33Zli5ffs7kXy7NGPBNGx6wPQcO2X/9j/+v7d29x3W+FDqMwFLHD9y/2n7lS3fZLRsW+4KGycqY8Grr2u2tzcds557TqsJBX8pbXs42eQW+V0JRoaQHMSW7d2Vr6MeqG/GUn4kVVx6FgpDCzG3EB2Mpip/SGxqZnh+l8DxMPvmn8j9ETx1JnTxDwd/WFrYVpBd3oETylGTfBaD29vlzzHTYfKdD4IqutK8vDPf9mKCObjk2UQlHkzvpEt0FGnk8+hSv3owSPAZJLNy738hPIqBAY3+Nkvub7OW1QpRZYqEm0PinePPi8mKLCk6XRDVZKNIA1DH57egfp5E73dCxZgug8/PZKwQpOdNVFqg08nPTHXSRFGN9tEvRAnM27kFVwjeAM7ruvDz2BGaSWcAvEM9Wm2GfBuIh/bQZHPHH+YvvkTL9biRxo+R5V6aEp7qOTqDHbYYiYL8FNhbqEVgCmG0d/WoLHdbc1O5toq29TwGl2q0b5tv6G+b7qtEomAmJsMkLNr4vbzxoX/2rl6y1pdWTSPzxhupf+Lkv2ud/9gs2f+HCMeV+pWlmqB10SRVIHj56wv74v/2Rbdu81QGNgqAw0TnevH6x/eznbrUPf3CtS4MTEZXJN/Ri7Ob0xlsH7Xs/3GJvbDossOqzBfPKfXf/stJsnzxhyS+9JQxYWJjvQz/UFJQIjn0XeI/kwO+4XhMLDF0pkjablsQUKhKJtcva2zsFoOhEw9HUrClnQxICcRvilh5JqOHQyZa2LpdSMclhq0IkWsKK97KAmUeHjGESx38jqTijn4sSUy3i57hHF0KX8Ml5KTHll5isSSkxrDie85XUVNNFxY/nCT+YPBTeuDpIIByrhQAyeBi1ke/LoB90+hx1BEiz4IH9VJCKsT7IEDgDVEUFYSMneA7bdvYc4TmjMlQg2Lrnqd0MxZYrcrRD2pFvMypJ3etAf/w9t7pHou7oCjurAa50/PAwIzkmbeF9dm5jHqKTDX/kmlr67Exdq52qrvc9iO+7a4V97lMb7I5blnh4Qe87Gs94oiwYGXAu5FPP7bY/+pOfqm3F36DzZWfCFPuN3/5t+9jHP2yzqmb7KHHSAC+TZgz4pqQM2Zmael9i/MbGjQKuDhVM2FyH4fXqVfPsMx+/yb7w6XVeFheSahjk5Klm27W72t7actQ2bz9uTY1t/txBWqAV68IwScKcjA2VCZzgs8WIVBb6tvAkkagQMbAkVYb7XP1ZCgMmMYI6D6RR3zKSHtXf+Yd8Fiie2PFL/DImPeS5HsfeIXzholdjX0aUGBKvx3sZ/yy+R9EQ348+CxQ6SJyGof7k8ikOB8My53G5IGNNTud+GygOC0ccbJZJfsgftZSY9ytJ8JSX4DkiIE2kj3SQnjidEJ+FNIcn8XMo0V9M459NGK08JD4fudcN3/pv3YyGw4/Yl7hWtyPfRJ5oewBsLDVjuYHaKuZx3iE5M9mI/SwPx7cfygqBBXVYv0ZytGmeIZD09mBuGEaHCDE+j6AfCBqA/S03LbY7bl1iN66dZ1Wzi1yVEKftXBR3Clg6/PDJrfYXf/uy68d5jgSN2gEVy7/9D79n9993lxWXllq/Kot0TQXNCPANBT9sLS1t9vd//bf2wk+ft7q6sKE6ldbfN2BzqsrtIx+8wb7yq3d5L3chqaY3ZVKKzT9YJHHgcK3t3X/a9h+o8bXnPGfojoTAMAyQ9aG3iAqh0F2nOUnhexLkD33UaHrCd6Q7SB/chZeeT//HD//vfuPQ/T2//V14zpdhGkCkH/ym0UY/Pd7RX6Fhh7tAsD6AxjV+Hp6FOGIKTSQQV1cFyWWQGBHnztEc0LYDlolxXCzFaYkBKEcxlqak2RzFWCXH+0SKy4Gk4DdbPhLzE195BnCRbp6RTtJMPA3qDKv15Ix+teo+/uZiaSJeGAahVPDeiEWT8QuED+wdspROOoUAMeF5nM8YnGOitPkdfAYKfkKnFRPfj5ZdqN3AS4Eom/hZ+A1FvKq0e/jR1f/yP4p05Mq/4MElVdrHqI4/4ln94VGsOx5PUVChbRBfHLiItsQI0c0HNbrDOgTzv6rZxbZi2SxbvWK2rVpRZXPnlLjZHoBMOB7xBRBAvfvd0/bojzbbdx55y0e28cfgQE5Orv3+H/xnu/Wm9ZabX2AalJ6zPi+Hrj74iqh+8t/f12ff/sa37MnHn7CjRw5bbl6eT/zQ89HD3nf3Svu3//Jh33ZxhAnOQVQKlcNkBvdYApyqbrFDR+vsqHq/4yebXDJubm6LJrCYpKL3E2PSm8ZxnCse+YXlJqwfPQzPA1PGARFmHGwctN9HGQrP9Vf/+S4+uIe/pCqWDvkbQDQ4/gSg5VcIi0YOWIUxRHAsOeBwF74NlGK5+os/ntGgAYU+uUxlAOBt09MWNfcWpbFdzwG2i6U4VYTPPWkolcSxSKlblJJu83WtVApiAMGv50vEPfVCfnDxc/yGezVC+eqVwyK5S9dWpbdJT5sFtmeGB+20Ul2v3+0XCr4EHCci+sDrJSbdhl/wWZjMhWjEiYAyntakZNhi1WqeAqZcY59EA6D2yJGPmABenpGvmCj/8Gw0RQ7ICfEGgB5JuofNM37jQicaeJR6jyXu+AIl3Cb8iG9oHzg9IcAEzx4HL7iZgGLvADjxx8nGTI+l+qg/8gtybcHcElu0oMyWLAonasydUyRA5jgqTssIapVYYLoQAkg3vXPMvv/Dd+y5F3f53A/P6HwIc9bs2fbv/+N/sLVrVikdOe9/8HVSMjLTU+zxH/zIvv+d79rO7TussLDIBgbFInCMquvm9Yvs9/6vT1jVrCJKxAvsfMUSNwIKkEpisxueNbV02bGTzQLiejtxok6ScaudknTM0scuVk15r+yf6uPoOimdXYQhzYES3xJUcPwbTX/4Hd8HBwGaRQ6pauDKA8BDo6XZAMpIgmIf/dM3+pOrJoQfGhJ+ANRc3cfgCwF6fJcIyIAsMgD3Hcp4g5pqg5oqmuxOXZvlGgVgTXrXqvtYYrtQwjdpjDuPQrmFAtzVKZlyGS71knYAYjT34ynEGcfMNQBMAKZ2/aobHrA6Xeuj9NcrzbVyHfKD/1GwvgDCYxyZ7r2OKGQPIA5FdSi+wjqHZakDbqbX7ZOl4xstQZUpn59LzbVbUrIsX2G0KI3wWeyTvHTLAaz45zkg2a0rz2IKz0ZBmr/cdyQwHr/xQ13BD9QrYQDIfN+huEP5hd9cx6b4Akgf8I3ngRs57hWcl8u5KaQdUZk2CehWVhY72C5aUGpz5pTZ8sXlfl9Wwv4PSivCmLfN8O3FACNesSZ75oV37duSevfsPR702cIEVA7Z2dm25rrr7F/86//TFi1aoJFwpk8IXkwcF0MzAny9IIcGrVC93tPPv2Df/MY/2ttvbLKi4mIHX0odLxw++c9+40G76cb5bvJCr3euggk5C9njPvbKN36AYJYKXnH2dfVZfW27VZ9ptv0Ha+z1tw7Zjl0njaWucSVfLMWp4muYmkbFkB0gLFJTAEDzxJz8Bgy55us5Q9ECXWPJFIDkN+ExvENqBTgJF/DFXwDfAMCEk6lr+BXACdkK/x7GyPNR4O/U/fHhfjupVFbLAVYNcgBYo3zSYPFLPKQvlrbPR/ghXhzpoIEj2V4vwF0nt1TgC+jyjrLhOj5cvoVi0OQa7lMcWE4IbI/p61NKa41c3dCA1SqkALbq0OWPcoq/j8OD4Af/HT0cyy+jPunkmRsAYAsK8h1kgS06c/SeGWrADFdZitrc1GpnztT6cvn0tGiuQP/JG3X5UQHvB1JyrFwpgi9GRx+BQh5DehMpzndM4/2RWqTgDg81PA3gK7DSFf+dygedVAy0PZ6qFDulMtwx3Gf7VI6U14UQwOplNFpMl0Eq33SNfhbOtrWr5kvIWmC33TzPZs0tlcAhab0vbNQT149Hqz/89KtuvG1HDXyyHFCH6Jm/+d1N9rVvv+FCFnXIKLevt9fx5v4PPGS/+Vv/1ErKSh0nPJIo3CtNMwh8hyw/I83e2bbdvvOt79iLz73gwwBKEmU+vd2iBRX2xc/fYZ/5+PVuAcDwLhF8CSZUhpdYkHRVsOiI8Yf+l5NXAe2+vn5fGnvSTwjukuPabLW1LXb6DHuStrrZ16WUDimCrXHo99Bj3ixJZ3YK0l0AAwASfSoNEkALz0JjikEu5CzkBRrN6SglJo/3sGT8jN+EQyPlGY0OhyRbKwnppBrdKT2Jh+IMgVEp0Igvh4gXh8SlGvIOo0KpuFFlwJB7vkC3RL9JWyIRa+woh8ShMOkmvCbBxil1DMf05LSuTXJI5YDtZOl2Homicv6IJCd/pHe8dylNn3MFXPPz8ywnN0fPgq15RlaGZet5RianNEdjBiUSHg1OUmxzu9VU11ljY7PH4cHLAXR0mKtT0+1nUgpstnIWjzqiZF0xmqgEiIPn8bu4bAHnnQLdt4Z7bY86X8oxTldMlE3cpuJyjMtvPMXl6P4SKC6LcxEAiJWFH5+Vl2lFBVnq6HKtYlaxVVUW2bwqzo9jn2wm2NLcf7DXDxwSJGJUlKNppU4Sie9o5wDv93+4eSSj2Dl3d3dZeUWlfe5nPm9f/sUvWVZunl6T37FhXEmaGWoHkiCXpcI8cuy4Pfr9R/0U4/b2tsjiQY1vYMhKSwvsA/ettf/jtx5QA0k/C3zjAvcJORUcq9x6ezi3ClOVHmts6rTa+k5r4KpKqJNrae2xjq5+XwFGT8hwEYAe6D+33m4iilMCUACmlQLbFbq7QYCzSA4JNuQmNACIb4DZcA0UPwskZoruYkr8zX3soLhhQagMkG7Qf6L3RDKsiSTaNj1r0T2Ay3u+p7NASoKIn7DiVMQUxzMR4TcOhxDzFEKVymCpcr3SQTfDSvUMaZ2wY78Q93xP2gFlyhCJm6ExeubT6ihOK3V1cuhx0T8zjAaQAbc4HMKgzcXlRzqQXHVxNgMcvPGKV7hn61JANlPASl+PJMszJnsBWsAXf8G0Tx74LgqbQHkHdXV02amTtS759rMC09Mw2gEj5X9YUu8N6orCAuNzE+VxIRT7i1OUSDyLnzPSiecD6KRqVZ7bBby7GDXonk43rnun+MPokS/syM/19sjy896esKGRF6o801YwD2X47uXs5TRKI6CcEIVzXfR7BCzxo4d8zQKQvLwcK/QTYbKtpEiupMBt9jneflYFe2jnuQ0zy7WxTmLTHA48GFL7Rcjyuo+Iut2285R9+5FN9txLe5wHSCSdZ68k3/kLFtgv//qv2qc++rANZ2QFlQN1PkU0g3S+LKhIEeC2249+8CPfYOfEiRM+1IMYdmAIvu76BfYf/+3HVQkauHtFBeJ2cEDDrJ5+tx/kEMDmpnDkCZs51ze2+QbPTc3d1tzarWu7dbRr4OpMI+YUkHuPqbB8ueElFHpckAUKBX3mGg2t1wpwFghOkGZjdozhNLHg4/uJno3mcpR4Fz8npfE90gyghSoB3SyNDDUC0i06UNQJPA8AiQux0CgJI3bh3cVRnCbAtSIC3eXK/2KVBdI/HRJE3LjE+HA8I+1dukMXSkeBdYKnX/xBpwEY06mcL93xe94Ctg6gqlOANU9g64eIqp7Z8QweA2hp+yOHjToQeBCjpCATAQOCZ5idR+KtrWn0RpzIl3hdoLzfmZJtD6XmeNlMJSUkbQyxfwrlRrmeUHnukLSL1Bvr9cMoI/peSQQVSCmSZZ5GAcUlhVZQmO/HezFE7+2TkKJOxqVg+QzlwDH3XV4eHkCUGJdKBwcdnMe02XFlQRh84lf/PIAw3+CTJum2xUX5EsTyrKwkRziQKwAutIqyAqus5DADpbU4zyflWG6NyVscNvb6j/9klz36+GbbsfO46lqhEnCUztVr19iv/9Ov2N233GSDqWniNsV7bYAvBT5smZJan336GfvG175pO7Ztt/wCVq2EbehghMULyu3//lcfc7OTIP0q+XoPcHe099je/TW2c0+1VZ9u9OWHZ2o75FoEuGq2kp5ZO0+jcwk5sWC9HkZr4mJKBa98icTGJAqSLhMqywW+hWJpJAqAZTLi20sl4ib8oMMbtjMCW/S2PrMvZmeWH2kx1tvG6ow4zsS4x2eZcvfmcIFlEU+kYbmATnet3Cw9JU4k1DiY8XGSfnS+SOFIYcf0pEbpr1baAWAAl5oKklv4/lzpjiUoJBsWDqBCSM9EKmKFFiu/8gLI0snKAbTwXhyQ318gYQbZ0txmJ45V+6gp/pb0AWpFurtHwPtgSo7NVblQDolpny6ijBk97FEKtgl03x3u97TQIZKeMTmm+PTPzyEsyLPK2RW+CClD7S1e8Qlv9PcF8OUB7ZCNmDo7OwXOfb6oAzUfb7Hb7erkiHsmIcMOcBAr22IVBuERbqCQppgSeZBPEZSCikFChH5jCVVZXmRVswpsdmW+zZpVYqtXVNn1a+e6ZAw/OLaIB/78b162Hz+zQ/jQ7OalENJ6Xl6e3XL77fYbv/UVW7Z4oQ2RTtJBuqaIZg74ili3XagKf+ONN+0fv/M9e+n5F4PeTRQzNUbWv/krD9gH719pJcU5kWkYQ5R0q61ttm8/+o6GFe/YmZpmtxFkMoRCRz/kYKJwxud4Ih3WhRR67INhHBINQ8v71Mg2CHyxUCBEGuDlVh/h4ACe2MUMipSI/eo+NaajDlgDDrit+oIGh+VDrEuGPJeAE/fkmf9R3hPLgPwjEfYP9LvUEj4cS4TCY1QEAOMS5fs2AS4dDxNpvEucSMPF6Y+bFxNEx5Tm/QrlkPKAPveM7vku1o3TREY6Lw8odAre8ON0RVcsQooEFDkFGormsssYh5cKbDUUdWlXHa7zQEKdc72YRhb7B3Ba1akfP3rKOts11kgBWPUvSgujEID3Q5J4Vysn8ElcD1NJcXlTbqSnV092q2xfGe523S7SL/yKn7j4YvK86V+uhvtl5SVWMavU8lSWcXmFIgtfUQaJxcbJ2bRF/Ma6V/wD0j09PdbTHTZrYv6GlZydHZ3u2G8kLv84PWPCJZ6IZ6Hx7xCq+hSubxTVCx6k2QceWGu//kt32Q1r5hg7xxFnu0a6f/Qnz9grG/dbR2e/gy/fk66Kykr70Ecetq/8s9+2LHXQTm6wHG6ngmYU+LImPUuS6cEDB+2JJ550kzNvYCIKn54O1vjsJ9bbr3z5bps/t8Q3lEF6gegRv/vYO/a1b71u9Q0dUeHCUP56hNniMGEOfyBPsQQUM4GrISJ/4ymuDwCCmOeKzW8S6Nwk0JknAE6cMR69uzjydIZbSY5BYgVMadBMmCHdHhrqtxMCKlQK6HSZdAIIE8njJ0/ceGOQU+vUX88rYBTybRpWFkoqzPUOa0iAy1lcHe0d3jgSyYOSIz18W6U83zacadcLLpHu0PVCcR4AgVji7lNaMQmjgzio1B4WGGAO1iyf5AsJHn8x+X3U8EYBIAAEOkESnped7RJadj7mXmwkk+lbMrqelk53TIiXT5QVrNPS1G41Z+p9gi3kVO90Afxwq5TrT6fmub6bTjAGxamiuLzhP+qXcj6iMmZCbb/KGR6hA8AP6fCrMhOXKcRkY2lZkZWUFfvexCwzvhLlR6xIvLRx+A+pGIkTKblbknF4niLJucvaOzocsKMPvS3inJQU0jPSVkl3lAckXOaGAPhPfWy9/dIX77TFi8r9GzqFzTtO2d/+w8u2Y5dajfz4jnOScAHfZSuW22c++2n7xV/4eetC2Uu7IPwppLR/83u///vR/VUnz6oyjJ6lpbXNtm3Z4kMWL/CogOnlWF++euUcKyvNd9CMGQcDbdQMR443CXzbIlCOClBe3J/+p6Wl+2o29Hw4hlT08kVFhT40ZWGHg28UbiIRGmzAG4bY6wS496Zm23qB7xwBz3id3thf56c4xhiwuCLdops7Iglxu5rPG2pMWzENUoPCPAxzMCbNAC6+J07PecQ8MH3MvMzskmd2x0KlQyMrKS228vJiK6socYmHMm5jU/SOrgmBd1B/YP4ySRg3KP/3SbpbryYP8GKrC5EOJpbIAyGgZ8YsbIfSDxi8o+u76r7QPyKJoRaJwSmkPTjCcdBV+lETUW+Aa4E6iTKlvVT1RrqLS4ssvzDP049lAhNDrl5imDwF1NrSbnW1Db5Ah7SR8Bh4qTMkf8zKAF7KJM7bVFBc53TSxI2a5oDKdpPKGV7BhKxJiBfXJH75BoLH4RN0qYVFBVY5u9zbgnfCKmuA7vIpAGWa6oLOnnr0jXsy1CmpLrMZnbABENYOkrIB/YL8PLXLAitQmtihje+DhYPqVd/DE4GnQ/r46xNoyhij4PvvWWk33rDAsSKoJs1e33TYNr1zxDfliVfJxvlfsWqV3X7H7bZ06RIbcP8RuE8hzSjwDZTildLZ0W67duyyluamkYKgKCgPJllXLJ1lc6qKVWmZPsTheXpqmm9cw2KJ/YfOuB7YKeI0gIfJg6LiQjFavoNuUXG+GjC9fNAt9/SyW1iPS34TSb5UN1LMHAEP0u5dAh4m1gAiZATeQ57WcHvBhH8aD7Ei4TKjzwz/fkBXYAvw7lZDOiDQrVFMSDbYbeIfiIkd5FIG3KU8IQVmZojJNZwqLC7wzenJf4kAC0c5MJlC/pE8mLFvaW51Hd14QtrNVTkvSs20DalZdockXiYVE03H4nzHncZRpX+nckSHwSQPKgYkd9IfyTf+TSJMIinxlAaVKX4IgBvqDqBl8/HiEqVd9ccsfKbex2qFRIob15Ui0tXR1mW1NQ2u68Vk0UcPSm4MBei571KndIc6ZWy3oSuXgrMJniFuyhPTwR3ij3dUznR0x9W5BX1/UD2RDko2Kl5va3RY8EFFRalfc3KzIsFl1N/lEqw4nqgWyg4gBlThU0YuuVhW5GJ2JiBW3WYrPW5t4SCtDjYnx78BfN3iIgorYHHY/+Hhh663pUvKfW8WpGG2oHzm+T327r5q39iK710CHxpUnNl20y032x333K38l9jgcAS8VyDf56KZBb5kWLWEbW5vb7edPFVtx44cHWlAOIYWbW29tmBemS1eWOanB/vZS7yTQxFfV99qW7Ydc78Q31PJ9LBVcytdj1WihlskIKK3p2Gz122Tho8AD8OQycodyZbZ+zvUuJhEwYQsDPNG+fRi6yz2D7ABd9hbogfdKWh6S41oq6SXbTQkNSwmpeKGxIA6XMeSl0UkJbA1J3kEtEo0nCyvDA2MTgcpg9l/pAAOOGxoaLa6mkZrFagwYYJ0m0gKVvlPtVVpWXZPao7dpW5o8VDodMg7vE8eenQFdBnqku63lf4tysde5Ye8IaGTZr4bn3aI9NNRunSuRshMewmSeXmphsTFVqTfeZJy3UIhsYONXQIR1pUi+IhJtdMna13VAPAixTl/6j35x5RuvXgDPS96f/9O7sqlYpQIk7CZOGNSlUm0jZG0i0oH8zFSQDmPJ9oDo7yiEg6wLHO+oCOj3MfQFUr4Oashse5wItJBZ8qkH1ZOBapvl4jl8iUoIDHT1hmdxbiAEIZ+F1XDhz94nVWU5fsObOxwePRYo/346R1WW9fqQlVsxTAgIau0rNTuue9eu1WSb4pGxZ7UK8g3k9FEvH/VifIvKS21W269xRsYzI3jBcDDXreHjtZa9ZkW34oxNMAgK7F5+pzZhf5d7N//y0+OwJchVR5b5mVr+JIelhWePlVnRw+fFPA0uA4qNk8h1LgKYHCe3qmG9QUNJz8k4K0QCCO5ASZQ7Pd8RDppqBR+rFpAm80CgteHe+y7Qx32jaF2e2yo017Sb/R2fIOhPlK3x6P8MB/gYalsYjUJjk20KyrKbdGS+bZ0xUJbvHS+LVg0x6rmVAiI85S/UO0+dFP59UgSOHnitFWfOGNtrTRZMSeSj5dfFIeYMVfDv4fSc+0LwwLewXQrUcZ75YFOgHyQB2yJXxvutq8Pt9s3hzvsx0PdPruOXXG8mk9YH4BdbnzaiS83K8uqNPwl3YtXLLKFysec+bOtqLzIMnOYglOj6R9w9ZA+mTYCeGvPNFh9faPH75NLUZoZ0pM3rDwe0GioXCVCHZM83l8JSgyP8qbcmUzbLrB9fKjLvhPxCx0fNez2xHj29qFvo7Km7PMEYvMXzbVFi+dZ5ewyl3ZDeU5jgZ6DYn5wHlW6XBhQeaPDZ09hB2ONhEZIWSRvWDNVzS6w+fOKxed6qP9YYRw8UmcHDtX5rmmAemI+5y1YYHPnzrE8tRviG54G4IVmJPhCbKqzeOlSK6+o8KERxGwyRYYN38HD9bZ3/xlrbe1ySdnfq0ABzlJJRgsXVLpfvvBGokLt6ui29raOoNOVa2tuF+ieEvjWWk+X5DXqClCjZ/RvQ6Mi9OVi959PzXdD+SViaxg/Nhu6kKoiLBoPxCw+DZXvayThopv7znCn/aUA9wk1ou2SYNifAP/YDDvgkgfSpsjI0yCr70inniEhsux13vwqW75qiS1bucjmL5wtaabEwRZrD/jJh2liPsqJ8NigHd3liWOnrbGuyTsiB0UlNkVhk+9++c2UlLAmPct+zvLsQ8PZrs+k8Xua5KdOpfSmGv0/qtP4G+XhJwLcfUP91k596D2dBmHB1J4HfUQ6cEjo6PRKJJkvWDDHlirty9Ystqr5s1xSz8lTSalBeZ2RdqULIm4FOy1EXJhKAbw4L3fi550cKSKfNwt47xDwJpqUXW4SCTvkOKi74B0mzY4qhqeGu+zPhtrs++IZOjjUDnRwvpCH9FGXIjpYypxhPTr+hYvm2ZKl88QfxS79Qol5mokUpy0GZUYd4VDXiCgk+UHAmqPOhM23AGosIGpq23y7gInUaPDV8hXLbc7cuSPtc7po5oGvCpANntPTM61iVqVdf8MNkuQ4sTiYowSATbXGpnY7dLjOTpxqErtFTKZ3FDgHEC5dWOYMFQMN79DnssE5rrGu2c5U17qqAWkXfyNcLqIicOUpqXarpN1PCHQxoUKfFy8W8Pr2u8kJPziGfqgnCJNNa/aosTwvkPqBQPcnakRMQqEbjfdSiBmB8ON8u10joKghGUzGcHx2VaWk2rm2YPEcmzWnwmeqGZ4xLAsrudRNjEsk4bH/MCqWmtP11tzY4sMvioDE4p3bPjXeitQ0u10pf1ige9NQuueffDBJtk8w8Kqk3EclcZGHzcrTceWBFWiJkztx9IA/zO4qINQhGj7Onl1h8xbOsbkLqqyyqszVCmzOjTrEdan62JOlxE2PIzJPrhNl1dHeafW1jdZQ3+wLCRKJeiJ/GyL9PzbO4wbul0RxEgiLjg5ikclulfnzKvPHVeYv6LpP5Y3KgX0u+MbLO+IXl3L1D16gXOfOm+WOThmVE8uk8fteojhvnDHY0dEZPYzavjrykuI8W7Swwud74H0OJmAHw207T0iwwKs8R4WLnr6wsNCWLFvqWJNQ7dNCMw98Rc5EKuQiDSvWbdggkCnx5xScs4reYRN87ESDL6pA9xMvmEAFwbFBSxaVeeP1xuTE8GXQOiT51qkh1dQ0OPh4b5jIf/JPg0J6WJiSFnS7qTmux0OfRyyJwHgu4j2NB8fkE5MhOwWyr0pKfEYN50Vd0YcygdaYMBuN/7hifFiud0iIABYTY+g+Z8+psKq5s/xaMSuAVq6kRKTgRF136ID85wj1SmJoEuDW1zWGiTUARZ/E+SF/2MsuSE23u1Kz7QHJ6TcOp1u+XtDQ0d2iV3xe6ceRh4MR6MamYuSBK1HH0TOZwiQKOmc6jTmSbmfPrXTQLS4r9NluJLEAuqprnP4xcuHZ9DjFiFOcwBkSL6DbqPJiLiCRyBfS6NKUDLfnXeaWDaGDjcvyUiguPwgrFhbM7Io6up+qw0a1wOQlC1LoqBkN8Q2OuOEX2gN7UTDByiKJ2XMrrHJWuXfY8BF5hT/ei4SZGlZQvVF9UFcIJYyAOa9x2eKKUIaqx/r6Dtv77mk7Wd3kdRsXFHkHN1asWqmRwEJ1+PlntZOpphlo7SBSKVBO6fqTmp5h+9/dZw119dGwWLAUDZF6Jb0xqbRq+WzLUe9Oo0HtkKLvOX7krS3HE0ylQoNiqItBPMeUIBnAhOMJrSL2uiyYQJpBzUCdxY0KNxFRd/E7rgARVguYWQGwm/UrnkDDzIrJMwan8cTT+HA9Pxoq+iotgS7DcHTWZZJcADD2O3WwpUuHJmKehEBhOJZ+NgpM0G9zXItLR4oHKYDPcVkqJ/LPhCKTauzPgGTFAoit5EHuHeUBUzekMVQwMdiOzwNE+JgyBbO2kAfygt4xHd08QKc6DZIx12GXxP3oetQTuuf3lDvF5WlQOZEGhrZ01PV1TQLe3ig3o3lkBLBA5fSQeGSDOmeA+HKBF4IrgBU6syMqY8r8jQhwD4pv4KdQ5nRNMQXu845KIx5GP25CWFFqFZUslAjHBI14fY8SbRi+QF3W1tbu9QR/MSpkb97r1sy1Tzx8vUvBnPv2ztbj9tKr+6xa4OvY4GFgqqYOSn4+9qlP2k03b7DCoiKF5S89numgGbXIYoScj4AlDY8HB+ybf/c1e/JHP7LjR49JOspzAIUoeA7Nu+uOFfb5T6yzJUsq/FgQVrns2Vtjf/DHT9ux47UOOHFPj6MCqQWKmdzHxc2AEl3sasm9n0rL870JaGA8x0/sbzyRXE+yXJBaxQx6AjAxNN8soDoyFOxx0QXSBGio8Xd86PfKT5w+OhmfIKwok7QYdtnCKgMJmOSjr8Vv+FwPJkhceB3lV8SEUYOApLq61lUtfMc7wiHdSFHkF9MxFgdcr19sSUjHsU1utxo/q+kA4qBGCdHGE44TkjygNiotLbFSSezMRpMmOkV0dp7GhLSTJsx/2OODoSWjFU9j9H5KSYnJkWSOFMSQvKOzQx1Vo3f6cQLipFKPK1My7YPqoO4V+DIlGqcxITsTEv5iv3SbcecL6NJZM/FKee8S35yM7KDZqwOeieBz5HvnafENxEQSK0K9cyvVSCIvmGRBDlLnS9gMJ3gFtWJnR4/P09TVqIWJP2gTWDQsmF9un/zoOvvtX7/XbXnfePuYPfHUDtu0+bANyx8U8zvfsHH6v/6//52tu2Gtyi1vSjdOn4hmJvhCJEsMk52eYq+/scm+/73v28ZXXvPCiQsQohCReisrC239DQv8bKc1K6o0pBi2v/r7V+zl197144J8HwhWriRQXMx0eFQN0t6talB3is0rdQ+jx19MViV8C3vjl3sM3KsVGvasLJdlY5i2SKWQGLuHF+UDaYsnWGhg2O7G5YW53ngAYHro8RJ6nP+YxjMNP72s6HT0u721w83IWBjgk25xaqILw9s5qWl2myAVHXe5csUCCKT0wxreMoMOEMexJsY2NiVnE2ln1RwSmX+nD2LpMpHiMMkahxlSLuPzOdXEQaduL6yyo2HjxqcB4GVP4gcEvFg3XKiqAT8QNck0F500YbGyD7UTpoTxqr8W/eZ5PG6LiTgSUwO4wjeoozAnzMvPDuaDKvMRntEH47uGcezyniBywHwP1klnquvUQXd6PqkfzE1XLp9jd92+3JYtLreXXtvnFg4NDe3Wwy5zUR0GoO5zSff+Bx+wr/zz37LSklKVR2gn01kwMxd8ISUNa5HGpiZ7/IeP2w+//6idOXPGh7DeIKKU05BhtNLiXJs7p9TPeFq+tFJDjiP2+qZDAXxZMpvQ2GMmBnTZbxZ9HXvu3qDGNEvNgobBe9xk1cFzJkMkn/kQkX0VmIVG/4nJFaDLYDUOw10UGGkh3QwFw2bc2WpAweYY3SenvsaLBkaBNTQh/6Vn8fN4yE6RxB0Tz9BpcXKyn7Dc2Op6Xrdh5js+lf84vFnRohF2Y+N77IwPKQ91AmA6lBgEaM4h1vDthZKnK47wgiik7GLiuHRKiEW3o+U9lvBF/tmpDZUMI4RiPZkMeONQeYeLJVw6MSwTWO5Lp8YkJSMK7rGDZm/leDTBdxGEjqaSh/pBPcE3rOzDlhtVQ45GGb6kOuYDOVdF6BnEb/3x+zjV/uw9RFjnsMgFXnazMfE6eSguyrOysgIBstnpmlbf2RD1QlyfqCdC/tXeV66wX/yVX7T7H7hPYWSq1Efb03TRzAZfSMlDcf7Wm2/aI997xF56/gX1fmGJIUNU9xI4UUCD/jLVK2Hh/FLr0LC1urrZwQfpMc4pX8UNBqmFY2yQ9jjShkm1WEKZjGBjgkJqYUjIxAdSLva4rEjjsEZkRFKIX+LBv8efEhoDS5zZaSs/WsUD4LJSCzCm8ThF6XU9pBjMc6s/upUUD7AOjEhnLs3que8aBfDqN+9hULY5ZNUeagcPI4HQZgMgK1LDto9dCoSNygFfbHPxH+cB3oySNIbGhzkRxWV/UUTAl/LdBVAc7FntbZL4eMywn43gUTUg+bK8fDyveDlFjm/iK+oEVAd0ZJjmsWPbaQff0MGhx4Wf4Om4vKH4+zE08pBFBexHnOWrF1lQk5UZVqch4THxxs5hSIcsVqDdwHcjIymFQdsBdOKJxokq6pLqbooIddtxgW9DXaP19vUqLwF8Y4L30d8zIqCdQYmgirUKm+jc/+D99iu/9stuyjpMm6Hkz2KGqaUZD770VBliivq6OnvppZfs7//676y5OWxkMqawlIuYeRiCsJE6vSLHBbm/KJfxF1w5zgfgZcJksa40LiS8hFAnJPR7bGLDXrlsRr1vqM9OqBGFiZAwEQONL1g6BhifSTKWSRYWs3493/eUZUjuW+zpo7gnB3QBVvSjTAaFlLF5yKBPBnV1dhl7q8JsrrogQuU1SMJyes4Qi3c0Ntx4KYcN3hcLdEsk+SK5s1cEE4FI9K5fVJTxJz6vR/rCz7MpfhHZY0e3/D37ozGFPFGIYzxccXLQuYA48EHq6KSYXHtQvIItb6ySmiwEwseqFJtcQJfz79h1DtVCrVy96rpVBct7+CVDAcVxxTSmVCYqIhH1CY/AP3Tc7LcL8AI8Xgt6D//Dd4AzO9UB1Ki3Ai+EiScmdh2wxCPwaWLTopymG5jGEMn06NmBrNeOH6225ibMI1noMo6n5W8079EV4qf8cdDpLXfcZp/9/GfswQcfsB4ENvJ2FfI38yVfSEkUP9jp6mr7yRM/sR//8EdWV1trbHcYlqFq2CDAdaLw6cVVmACQV0yUQ4qXW8ATKY9G9MHUbCtTU+IZIYAvMeEXx3exjg6TMZ+BHmYirc9Nr2hA6H1j+9+JJGek2dzcXCsuLXZzn1xJK6gbiACJFIftLbExcwuTdXR2Wld7pw0ORXpHT4zypXvyS6MDYPlmtHHgCW88U5pVPlBiOUAelBwdDtJ/vLkNoEI+3GtUjnFnAHENLoTBPekJ76L3AvvwxJPrDXr8slWX/hU+QBFCGkvEi7lbbDZ35Uj5idKLHbR31Orc4meJRMw8DZNrGZJ4c31yjd/kkPehkwodFTzEO8qRdYKMiN4Vd7AhUnyIJ0AM4R/Q5Z8zHQUV/ns5QuEy+iO6C2mNf4i8jvgX1VNiXgifd9SRb2wjgEUooWzhU94SJ8+ZGGW+gSub06SkEtag77MQpGZAeRSYEXa49+SM45FRCn4uhwjPBStR3ZkGO3H8jFsrxfreiQj/8B1thB3SGAWyYxsbpn/mC5+zD3z4Yc8XMsvVovcG+Dqph9eQoa2lxY4cPWZvvv6Gbd+y1Y4eOWKtra0+3BoBIF24i3MW1z0wRaNhk29MyG7UtRjmGPExSjEQ00i4Z5MbhuJsWnJQLhi2k6pzFx8MgMTh69GzwoQavS/E6ptuASyMlDijTrpd6pUL4DoJnZ3ssXQBNRsHERpiIIqRsqQT8P2SlQeGrVxpA2x0A3A6QOrK8Szc8x0Ngt3l8EvDoKHnKv+F+YL4qAGRLkYk+bnZlu2mZjzTw/i1bgkjJ1ujkWh145WguKGSNvazOHmm0XbuP2lHTqk2ldco+hGiTGJ+uT+FfZozfaQAX1CDWMHQGTNZ6eoEARWjB0ZB7EnMgZVYhqByGDOi0o2XF/dKUh8AodEMQMFvBzn3F6kDIr+kO1z1W/dOZCkKKMqeKPE+gSZ6lkCEC+j6cD2KE/4mXoArNy/XpWave0XvdS2eRvhxQFdnRhmH9MkpDPjYyz2KO64D3l0sUUfVJ2rszJk6H/mdBb6e7BCvq9x6eiw7K9sqKits0eLFknhvt3Ub1tmCRQutsKDQ8+gfXSV6D4FvXExDbmBde7pawHvM3n13n+3asdN27tjhzOuVOrY+vBHxCCnvekkwSLxIMug6Id4lVgH3TI6w9yzmYWyFuF9S7mE1KvaejXfjwl/sJipEGMMlc1+tJV8wBs/9ndIlZmJCLOhrw/BwUhr3arI4x9B5PQTCG+HF0bNByYCk7Tw1tKryIqtg1VxeTmicYvj8nCxJQmFoy1A1VyBJA4Uy+a3vMHgnj3zDvW9PGEdAXuU/Q2UDCE5EHhfvKbfLpagcYkDoVcM9eLzG3tl9xA4cq/FTTiYqK5ZFo9u9W/yyQvzCb+qeCTGkWNRMjc4T4Ygj1DWcK4eVAoDsQSYkHxUMP3mDNY5LoyqHooJcK5HDTpX0MTvvenvVAXuXIJ0DPN0c26NvAJ7eSFoPQKn/uobbkEfi8fLmJqY4j4nPYkp8N0FZUL+oJqiTOE48hm0hs+SyvVPmGeXMqI5JY+y4ETb4hKpEwnbAjOLw+wskRoZMtrE4CN0taRr5XmEjfaOK4FlRUZGbki1bvtyl3ZUrl9vcuXOtuLxcnQVT7CNJuGr0ngJfJyWXemdOqls92/4Dh+ypJ35sP5GjQpzhRutDzSBcAdpVakCJK5HwFmcePziIoePIRJpkFibTOOm3Rc/xA8zEfs9XeKSHoTUr8mhsobTjxhEcf8ITKEFq0aP4Plz1h2/8iUg/Y68jDSJ+cIHk8YsIn/QBemzDV1qUbwurym3l4iqrYp9fAS6eaUBIq/jjWxpWfCIABJhgWZK4jy5gQ8MYT8TJuwkpehfn/9KJOiOt2IwPWkt7lx0+WWtv7TzkwNvWwTl+CWUq4h6gZY+G21OybL53xeH8M6xaAFtAF7BFjdCmAJB8B+UJf+Tcv9Dz8E8U5YMLUj37kxTm5/h5ZHMqim1uZYkVF4Qjb9o7u70DZOVhj0CWERKScVtHWBjU1d3rzofUcvEkk0vPuufUbeYF4kUqMcVFOVLn4aKUjnKf3/BC19GncT1E1+i9r7xUPaOSAGRR4/CSsgaosyV0ZHM+nne8Khfljb2WmfNg4g9/8XPvGInCKdwlAjP3XV29duzwSd/8iY7J9b38U575h7qkqKTYKisrbfGSpbZixTIH3wULF1p5eZnHxXaRYMJMoPck+JJiirC9o912bt9hj3zn+7Z18+ZJJV/2msWEjG3+5rsiIYAyNFrhQS3BMJLNbnYIgt8d6vMJKKQd/KGjI+iLL7AgDYyNDQohjdTAJAHHj136EJDjGOal6zdgB/PCnDRaGmoi056LRooq8o4UCyAsmltu61cvsmULZltlaaEP/ylXD1f/QycCu4ui3zHx3H/HzzzL4/M9SvGb0RACTf7FhRBfj8bPYL23b8DONLTY7oOnbJOA9/jpevcShvghb3wFX8AhpYLPZanp3mkDtGxGjlQbzMSC7pYYAFnMIYNyJMTL8zj7/KDuKVs/YVfAU1ZcYPNnl9pilfP8qjKXfCn3HIEVYfgkqb5zU0HxNJIvANvTi1SnURfAyiSsnrepzhE6MKvqECD3SCpu6wwHyLZ3djlgufrKAVrhuSorCldSNe9GEzuOlB1ewSfRz5EfIafhj/OCHGA88pGulC2Ssev79ZgmACizn4KrLyRBudpKnTWgHKRqPqWTH+28veNUnpsaW+3wgWPezhMJlUhBUaGfPrz2+utctbB4yTIrLyv2DoDI+yIb/xF1zQyg9xb4elIZyqf6uu7nnn3Ovvft79r2rVt8VVIMvNQfhL6NHbiQdu9Lzba5alZMhsTEHVWBOgJbXdbQ75SU+9pQjx/Pg56OhsiECnTRPaY+i3t3foQr2RCjihniRoE0A+Mi7cCQmUgSaqx+jDkMilma8szQv0SSEqZ0pWqwBXnq6aNG29bZY0+9vNWq69hmc3RF32QUA7Yfu6I05OdmCmxn2U1rF9uNKxdK2i329AdpajTnifIJNPZXIK+Hq0gOBrq6pKWyYyi67d0T9so7e23n/hMCqAFJn0Fa9zJKKCZuSX1c76gPwgRb/FygEl09m+70R/+pPwdGOeqUxT85WekC1zyrqiy1pfMrbPWSOVbJ0mqNJJCAqWOAxVULUTkzigl8E0rby1P/6Wjj315/ukcdQWfnE7DkmzqNngFSWP0A0Jzo3Sqpn3t4pbmtyxqb2yXAdAnU+wIwOyCT/mAtxPeEB08ChsTpnX1auOpVYtGJiH/k1r/1ydcETyE8lZ7C8mzpD4JEkR9hxR7NKpOMME8S9pomXrV3dUgsEmLrVwLnGekj3zesu8E+84Uv2Pqbb7KKijJvD7RrAJfOhlKcSaAb03sHfJVMGC81Zdha29rtse8/ai/+9HmfcGM5qnNnRGSIX7PVTLBm4KgfVmzxLM4sVQErY6nAqa7brdcPGWQ5JwBNgxsN8QJInuPGEpM3CgFbaCA0rtA46OFz1TCz0ZepcWapESIV8Yzd+ksK8yUJZfuEVEFulg/5C3OjhRdiRvSkML8P8xRhdW2TPff6Ltv67jFv+E6T1CoCBamMJ9JKCvNsqUD3uhXzbem8Sisvzne1A2kkrVBiUBdVJleBSDMNjVEBut2TarDodncdOGW1kpzQl2rkGZnAnZ/wlpjnxOFxqFuBlRo4dQzYFqmDpEMsVOc4r6rc5qoToyNDjUO5Utd0rIThSRi5GS3nhEdj4h6hxIexx5hANB7qfxxODNBc4w6fq6ddzzoExq0CYXYA6+zpCwDdLqdnnV091qfOvLun30cPdFxdAmtfnh51AiOgHF3jiD1piteviTT+gfyjvoIfY1CG//ILCnyFZ7rAmLR3Kk0NtQ2qvwC+dBR0Cj//5Z+3z3zy4zZnwXwbQnpmQpt4vSyiCGYgvTfAlwal8mPmv6mpyc3NnnvmWTtx7JgqAMV7KGwI6EGSXZyS5meLccRPiYAXsMVHAN0gFXPMOhuVvKsrki5DS2amqarYna9wRgCKyo6uMDqMid0lM/15kirRgzLkZBiUJ4ZimMnmzbyj0XKPJIs0xMQFEhEWATRUQJbfrteNiFl4JqxO1jTZ69sO2EubdmvYefYiCic99LwoXUhHoE95cZ4tnFdhKxfNseULZ1llKdIYkgZy3Wh+JgxvBhNl1aNheE19ix08VmN7Dp20wyfrXNoDbBw6vTCC/0QaLV6kSv2Tn5FHUXmEDlUSqjznCEwLBLbUG9fykgJX01ToWqpOjJEKHSr+4IUx0Ubh4UbiEPl7IoaiBMXvR75NoMRvYwqfTfQm0Mgb3RBVkHaRvoME7tJ7v6RmlWMXx74LeDsEyF0C5k7dt6ssAeWOrm6Xmpn86+7B9Vq3flM+QRDRP8CZqOLC5TI+I9EzL5HoHf6xWUbqjr/1U4olAfM7lF6KlZaV2W//zj+3e+663YqKi61PHUtKjAdxnDOUZj74KnmU4ZCGjjVnamzjqxvtse894ja/DCddQqPA5ZVBGxMlHPNzt6Rd9t9lo5xQu+EvEi1LONk7d+8w54mpoUraxSA+BmY8eqHoTwyuI8wznvQYaTQ7U1IrplECWTZlYeYaawFMrIqLch3Y8h1ss/05ki5D33joyT1mVZ5XJGQF7QDIPengX0JVMYlHI3hz+0F76a29dry63sMaQwqLVCsIzwuSCfbFcytKbMWi2bZicZUtnFMu6TfXPSNd4HWSnM5ootwY9lMmR6vrbM/hU7b/yGk7XdfsEpsPX8+qw/DbS9v/+53fQ7yN652yY+TBaAQdOJ0qo4ZygS2jhTI5dLeAMCoF/EAudUZ16AErvPGpgKIoozjDfaj3QBN9c6EURx1o5GaEyGOs6iCi+DeEhIzky2ZVgDIjJsAWtURLW6c6/B4HaPTMHR3drtrgN3MP+AOw+3r7XUdNx3VBNJL/wPN8FpIW0gigY0qGiRsHX/7u//VvbOnSxZaZFQ7LnIkqholoZoOvJw1zGrP6unoH3m9+7Rt26sQJ1xMx9EgEXoAWkyCO+mGWmsUCgxGz8Re73NPD/X42Gjt0saaeiRMkZaorxCaKKj/6dCzpHXEiYRUWBKknRw2xTNLOLDVEgAyALS8u8AbKLl5u36seHEnVJVil+/9v7z/g7Eqy807wwKb3Dpnw3nugvHdd1dVdVe0NrURpKLJplqJG89udGY1mV9KOdkccaSWSokRJJMVme9/VpjzKWwAF721mIj3SWwC53//EjcyHRCZsAsgqvANE3vvujRv2xBcnTpyIcD2vwomqCZjMJSqPIyQgJoO75FGSpEEfpn2w+4i98NZu23XwpBvNn5dc98+fACgAOwCxYHa53bFmkU+q0THApzQU6EJwmpjk+VR5RWCk7FAxNJ3utF2Ha2zbnqN2TJ0Ry8vRn9NYvePiQ/8kgmHMLzyUhCVHuNRblsCWDo3RB50pE2WzZpTYjJJ8v6f+AVpGNPglCFRLSJCxLiNgXBbhzdMlSv0kPruO5OXD1f9y9ZIYklrhWVcxKF1+r2cAcX8iMbtFhlxPn4A4AWEsS+qa2621rcuBuqWt0yeFk6jGppS8e73E3/qOdFKfLJzIzc21O+6+0/6n//n/YfmFBcPhXm5532SauOCrZFHQnMl0RkON5597MUyubdvqS3MBwFja/EVdwMTaI3Ls0cAzIAVAVp/rG92wQOKVcz2+6xh2ugywcR6KV1gAwgiM9Ky+uEDvXGem3hZ/9OQA2WP3rrG71y91XZ5bITiDRiYNDBDBlSv5idfwOjb5QJdqpOG70JgbxNTf+eXbtnP/SR/qIdkRDxTD8UkUNY4CdQgrF820O9cttrXL5lqmAEVBBf2fbiY66HquKLfkF2mHsClGymlR494jSff19/dJ4q11Cc0tQsQ7+HVeEZFf3jFJQ1migqGsAFj06g62Grkg3TIpNkejAtQzdKp0rjxHp8loK9gfh7oFcDF9gmKNxjq4GMV8IUhMV5iYjbk+VVKlAvBRFGmi00Y3i7TH8xtdW5RVUuRO/kv/4RvyGfkd3ud34HnakMpb6aYuautP2xtbD9gv39jh6h8vKX3ncxj6jt/kmzwGEzbyGfyMLEsH34EBKysrs8ef/KR97bd/y6Zk5fgEOSvwPio0gSVfgYL+nu3vs2d/+nP72U9/Zrt37RzW2yUMgXwBgN4uSZd193GPBr5lWgOzsZ2SctmQ+vCgmFtfRWk4EpVLw+QxjY89UZnRLVBvyhJEGAG7yrraOjuDHqyn32aUFtoXHr/d7lq/xNPC9xHEkKM8sBTiV2Sh1PvLJWqJ4Elrj4Zyz27ZZq9/sN9aJFHAwBFgYEzKCP+5ksqXzp9p65fNcUsGdJKpqgkaVaR4N5wumD65vcEUkpWkSGmIDdtXViX38EBbV7ftOVStEcBR23ukVtJVt4OrfxbTPpxFH5GgGsACAUDg7Dg/GVfPC/NzrTAv04oKcnTNttxkoYiDQwIQpMOD88B1l4TN5WqKimAIt0ND9xO1zb7irr6lzYfwhFeQm2kV6gRmVpRI4i6ygpxs57PUersZFGMfLc9JyQwRaaUTqa5vtdfErz9/bZtvjkM+2NektKzId/PDSq1L9dnV2Wkc98VvOjZ0vHER0kiav3CBfflXf8WefOJRmzwtQ+36QqCeyDRBwTckiaW3r7zwok+w7du317q7u8WsQZmOD4A3VwXO8s9HBbwc487iCZofBvCsqQd4WQ6M5MskG1UzsnqcQXz5ZJbl0fAKchO7TCRfgZUi6+7qtyOHjllvNxMPfS4ZPf3wBntg8wpvlD7MTKn4WKjjxQrUEuCDZLT/6Cn7zi/esVNNp12nOGxsjnR31ifz5lSW2rKFM920qVIdRW728NExOAcxOa6ebE+o/iRlS3zR740i0hEaD9AafiNFMbztUoeHGgEdIivAmNypb2m3fYdr3KKhgwUI8usdIB+PTLaeoWahAyotUqMvQnWQa2WFYXIsX3WP3p0FAYBuqNNQFkNEeSS310qEj0lgXVO7fbDniO0/VuemX4xiMP+DMLnKEl+i4sBMbfWSOW4fzKQteYXI6kQm0smE45HqRnvh7d32otxUSUYAcElZsc3iVGrlj9/M4SDRolJAf0/umptarPV0u+99QkcFPyJcMOfBEWN/8Mf/2JYuXSihI4zmAjN/NGjiga+SozK29vZ22751u339r/7G9u/bF/bu1PDLgUPeAFi29Fsm4EXixaoBCZiVRrWScLFi2CnQZT8GFklAvI+V480oyTnAy+7/BWqYnIMWzrga1qHSCPu6BeIHjqpnxi6yzxvEw3eutE/cvcYnYq4nkQ4lxxvlsVox8Zu77N2dR3x4Rm6oQQRfpFqGyYvnznDTMa6YOJFlBxL54R6A41skeEyMmKRi1pqIAB+G12HyKKzj5zv9v+4NnTjoTBhldKU49IToEbFNxWoBEGb2vUs8cVqSP6oV75SVwLE6C/JM+aCjLczPtrLiApdwi/NzXNoFfN0uN7FOoE7Rz483kToHXnUo1fUt9taHh1x33yTgRWoPHWIYOrOgAs5F7VCsNC6ZX2V3rVskIK7wOgLYrnedXCsh4VLmuw/V2M9e225vbj3oIw/yWF5ZZjOVlxzxGeDLqA1iFAe/IgDVnKyzU7UNfugtv6lk1A0lZaW2cdNG+42//5uWxRHy2A9CMPhHhCYW+CoplH9PT7ft2rHTvvG3f2dvvf6mv4pSG0ULQ6JaYNXagwJeNshB3xPOSuu3D+SYUMOqAdVDAN3wJ8ouyFbcE2Z5ecIEaozUHZUfGzGNlt/sMnbowDEfGjG5U6BGe9e6xfbUgxu8IVxPIi0MfU81trp1w7NbtjvgkCeyRV7Y4GRWZYltWjnfVi2aZVUcCz51qk+IUK5QkCrDwonmtk6flDp0ot7N1djfgHwyW89y4gWStBbPq7DyogKfMAxfjj9FMEKabe3osqbWDqtvarO6RrnmNmtu7XSzJiZz+iQpknbukX5ojEyM8f1YoJtKADv6WfzH75CmkCSxy2WIP6M036+48pJ8t9uNoDAeFPOLiuHN7QckCe7xTgSgd8nOfQznxztKAZhLw0rGbasX2n2blvmIJlWFNFEJEKVD27rnmP3kla0+GcoiiKzsbJtRVW4VM0pcwsdfKpFvdOGAb22NwFe8QX0D2hsEupxqvnbdGtu8eaOkKkm94Ss+9LuPAk2cAzS99MIE244Pd9j3v/t9e4mN08VgVASHYlKseGNhBGZkbGrNAgqeH5OU+/xgj70w2Oen62I6BmS4DEGdIE6L2AOXio6TA/B4fqEamSREGiQA5PElLhIzuixvDEOic249UKpvli6sSma6AXOPalyJRkhaAZtte4/blvf3uZTEEJmhGXkpVEewcdV8e+ahjbZh+VyXkuBlJtxo6JEIB//7jtTas69ut5c0BNx9sNon75AskYAB5eOnmtyCorrutEuESM9Ig75aKCW8cSHqVUGy38IvXt9h3/752/bhvhN2UJ1CrTqbNjU67Ey9s1EJMyKBR1j5R0p8Ykf5JF8AK9coOcX78DykPS7JprJ8QkighiqDzofFKoeO1wkgjtvuwzW+kc2cqhJfGMG38MrVZh/e4C9miJT1m+pEt7y31y0CMl0SJGB4LkzaJt4TfjQBD2mepDSedtUTZm6zKoo8bxOVSBmCARL6MQHoviM11qRypvyZVylUu+P0DYj8pzoIabilpdUPvGVPaxfAVGfs7c3IrUQSMBvlFCkMn/dQPB5n8v1Ep4kBvs4/LBoQ8O7YZT/58U/tjVdft7Ne4BRkYDAkXtiSXcmeEPDOmzTVN6Z+VYD7SwHvbgEwul78BFaW0/c0GhT36JTWrl9v7Ks7MID9YZ8PV9mOkqNYkB5HqzhnCAXa0tTqx67TqOmFOYUCKZOZcmcMxTOe9e65VnhIRexJgNR7+ESDl0nfAKe1ZtiqxbPt4TtW2v2blrs+E8aOw9GYF67oMVExEMaPX97qUi+rlVAr+Io5ZvDlxyeZ9IxPMQ+qbWTjenMdKRNTNPbxyGKo0UG3jz5W26ROZb+9v+uIdxiUNXn0/XxjgdKwFDdlzEYuftBl4lgFxcrA0Rwb1eeoA8nJYUtPdpdTR6YGzMRpEnAoHz0n/8q55509EupU3+SZcmWxxLWQ50LgSfwscX7nw0N2Qp0cE7wQHQi79TGv0dPT47/Ra7rUrTxTXtxC6LeZdK0qL7KCvCx/h0teTxxSZZFfFmscrm7wjYzaOnqcvzguK1+dOnUzVsLpiDh7kJVtWEEQFhml02xqbLJ9e/bYbo2Qu7q6xA+5lperNqy2MtQfRd6ZoHTzwTcBismDZ62mutZ+9L0f2luvv6Eer9kBwYdf+o/ckyefHNH9uIA3TxXDbmOvC3jftT7X8zKhRrnDpDQovmVSA+l51uxZdt9DD9rnP/uMv29U5bEPMJII/mCEcKJEqOBIvKMBEF57W5f1qoF4w9AzwJp9EFw36vGNX32TBMICTJF0X3lvn6TUGtd3YjM8e0ap3a4h6B1rF2kIOtP1mDD1SCL9gEqjwmDot+XdvS49IUm6b/0BcGBsfpPP0OGF4S57ArBIgRlrGnt4N35EeHsO19rWvUdd8hwaSlPuSgvmfsyGc9RSjlx+YZ4fQV9cUmRF6hCot+DyxnDhYElcnjrYHFYWqsFnZoWl3JzsQBxBQh5eAUe5YfoEAGATzejiWnNOXukAX/tgn+0/dsrVV9QNHUF2do7vwMWQevnK5b7XAUDMEVCUg/OzwuAaFzrAq3MqS7wzGt9aGT8if+jt2cLz0Ik67zTIQ4bANy/v4uDLBHIb4Ksyi+Abl4Xzm/LhdOmTJ09aXZ3CVqflO5sVFnocSSty/xORbir4wuBIqWfPDFhTU6P98hfP2YvPv2C1tTWhoClAlV8EXvbgZRN0gBcrhrcFvOzHwF6qFDO4EJkU4KBBlVWU2+q1a+y+Bx+w+x9+0KoqKuzAgYN27OhR6+jodOZg8oPG6WZl+u0BJER4Xo/6w9r37i62+wumXLzbuGKeT9wQjgO1e752iqEggb2z47BLStizAgJMuNyxbrHrd+fNLHNLBlQQo8VPulAnMJRnGTJLbfGChcSQV+XF90FVeVFuOIjOj3t2yELXioUH+856GXv+3dtVEZ8CdBjnb9t7zJcCs8cAIwrqno2744m8JQJaQNeBVICLiggwxkyM3bHoNMd0aozuLzP8BnAdgN1xfl6OW7n4ydHqYIjbJWw5pO4elT8rAcsULwtrUljjioiyYkRyROWPyqGhud3DZxRFGjdt3mwPP/qw3ffAfbZm7WqbO2eOj8zCEfo9QxJwYAwsJc6qXnpt5owS5z9GRz7iuZZKGUfyclJSKDO2wsRCh7yTbviUtoaVA2cXjkr6FvXe6ZYOn2fhNGvqhoDJIu2UzuyM6qdR2HGqplYCVaOAusvf5wrYp01NHcnG68Shmwq+FIfYz1pbWuytt96xb/z3r1vdqVNewLERQMhCCwW86yX1csDlq9Zrr5/rs6MCXZYL+3EsXrYArxhQd2xlV1FZafc+cL8bYm/YtMnVGC+/ssXefONNX6rsCCKikgsLQy+Mkp/4U8krUM/OaKjfKcD2pZIJSG1cMd9Nlhiujyv4KhwknGM1TfbTV7ZZk5gQCwvMjR64bbkDLyZStEnSj//R4gZk9xyptde3HrC9h9SpJf7CGCFQ/BZ1DDtJAYoOQPoHAHMAKRYIDM3nzypz6XSUqC6bvNNVANTx6Y4ue1udS3V9s+cDAiwrZ1ao/kqtuLjA9YKuQlAng8Tkkt5lxj/sL9QNnZFv9A0Yy3H6L/UOEOQJ1Mk7+UVNxcd9kkpZFYhdN0Nl0n41RNxIunSkew7XSBpM9ihQeAsXLbKv/upX/VDHufPm2gwJDEuXLVWnkOMjtOrqauc1/FNtXuf63aFOkWXrsyqKLUdlM578N17EpC963r1HauxoNdt4Bl08ZV2kzhyVESPJmG6Kl1s6G1R8Lc2nJeGyKo5yT/IWL/KIP9o6Uu+pmlN2+NAh33qgtKxcnXS+WzJ5gPGjCUQInjeFaNxTVXD07nv27LVv/u037FRtrRdyKvDSHJdMmmorBL6crPtfz3Xa8+d6/JhtrBiwZsAPE2p829/LiaZTbf3Gjfa//PP/1X77a79jlQLhl55/0f7F//a/25/+239n+3bvsQEaF5Qw80CyumZ0giPUCQh0XDLWPakjPtQA9Ob+YJwolMEkN6Ni34YjJ+t939cn719nn39ss61dOsfBHtUBxXRBg0vS4sNcSQ2YMh0+Ue8runhG+IAM/mB8AHblypX2+CefsKeeftruuucuKy0tFRiGZbJsbgJYvKdwTtQ1uyoH8CScqyYajpLAMtRTDadd6kXFQk4AnaKiPJdMp0yjltUNKC54gvTGkceVUSgjwsFof9hwH8BCjzxFw+AcP1/PQZYvVNV0CNV1LT4RCZ9cbZ75jgm8nQdOCkz6h8ovMzPLbrv9dlu+aKHlSgLGqqa/X0KFOvp169fbxo0bJPmXeGfgYENiIV3gVyZMT9a3uGoojr4mBoV0sFiJneSoX2yz+U1Z0/FxVYLd33mU5LO3uzsRdgZUXki9iAN0YtgDM1IDtAMPA8CMXtrb2uw1CVh/9u/+g2374EOVdW8oswlTLsN0c8BXBQEIoGPbtm27/fTHz9qxI0ccBCioyECwWZmSmCO3f3DAXhrs8bPTsGJwzSAeaBH6z9CMK3t6/vbv/a79/h//kYaZ2fb9b3/X/s//4/9jX//rv/Zd0Bji+cKJEeQVRAWPQp4cOQAvlfkHB9HhsZk1ihGeJe+ugcg7kzCNLe22fd9xq9fw9MkHNtgXPnG7S7uYtfnQTX5Jy2gxOovqBRYaTGIx0YHejSEgUkck/JWWlWpk8IT9j//jH9k/+Hu/bn//179qv/+1f2Rf+8PfswULF3qdkCZca1u3W0owjISGyuIKKXwX9mNgU3MWrZAWMsOJCBwyOkV1FE5zHk5vpKuNN5KX24gwiIeOBj1+hiRvVzGoV6e8Tpxqdr27PiKVV0Qkn7josBqa29yqgmXEELWHBF5RUWGTdY0rtHAA6/RpqEqyBVLThoQRyMPUP8C2pqHFTtQ2uS20Cy2Jn5tPlG9Qq/jiGPEfk6k88+Puk3yFyeHhuqBa+AWg+sEA4bFTnjrjJx7YaM88cpstWzTLt4xklOIfyCN1yF7BGVlZdvDgAfvxD39gO7Zt02vFAU5MMLo54CsSn9ie3XvtlRdf9oMw49r4kdyDLMppEscGz/oRLrwm0bEwkYL4aN78efbpzzxjn/vSF23x0qW2c/uH9s2vf8N+9pOf2u4dO/y4eZieHhQmHdn4Qg2OQbzy10ni4H7/D2MJfNGX6vFFQrhsIm1IRnVNbS513bNhiT2webkPfVkeS7KTVIxJlA1Mz6IEwBKrhTBsHX6PDo0hGZM8T0jiXbhkiRWXlVl+UbHNnDXL7ti0wW0oOQvLAVDfUke7DlW7LS7D3guK8DKJzwiS1VwHj9f7Yg9vgHoG2LPzWpDQ8Tt6JF4F/BlHAuCQoHKy0SdnefjEzrLlRnSPAhE3U7tCopyQ1k6pTrEwIfGhHtUBabhcXX3S+nUNpzUH6T9DEj/27p0dHT5Ko85Ij3dShJkSLiv8GtRZUydI1BOBPH1y8DD1iwrNU6Y8MHocGkVShyOSTB7hXzcvJLt4Ub5QrWxcPs8+df96++In7rDH7llrc2eWu1/HgSQoShCpeO+u3X6+I5tySeAOAU0guuHgi72uujVXMbzy0sv23jvv2umWFvWCkkZHlA0/2XWMU2ExIYNgULjO9UT6V1Rc7CqGpz//Gbv/wQd9yAqYf/8737WXX2Cz9aO+Io1GhTRDZcMQMGoq8ZtKvBh51Mk9RGNA7+Zqh3Eil5LESOyUNX9mme9ANrOiyPWsSAmj8Op5RJpogKSJzUzQs/nMOKDBxyLigFmZ5a+aOdNWrFxhk1Q2A8p/v8oGY72CgkJbuWqlhuFF7j/UzSS3/WWvXGxjL+zALpP0HZ0BEjRSJRJw1AGjA5yeoYY5FOfoxCDF8+Q/PMhwk0Kk7zzw5vZ8LxcQYaJXRgImjQAEnUTj6Xaf8Jym38MQeDkUJLs+SXGMYgCUAOohIZiX7dy5yw4dPKyRRavqOPAm5xPu3rXL9u/f75Nu7G3rlETMherEwoVtM+msGYHRaU0kgg87JKAAvpRt4N/Q+YyZ0pjH5MoD/LM4o6q0wBbPqbB71i+xpx/cKCDeYOuWzTP25giqHHyHTbFaT7faQSbXhQFeLEPhTQy6seCrkmEo2dPV6dtDbnn5Fas5WRPUAGMUDBNqEJo/GtM5FSKFi4RUXlFud9x5h/3Kr/+aPfnUp62nu8ue/dGP7Rt/+7du/4dhNpXgQ2fAVcBCaCzXBMwYtkXbFfRK+B81HTyTCzPxcE1gGx4DIAF8R/vwyomGyS5p82aV2YqFM33bQt+iUM9DrJcgT9skB0fsZ12CBkRccgpeIO4ZBdAhsRk9Ul8EQMqZEUdWdo7KL5kxTj7uVbi++KGzO2H2K883wbHyrknSGtsNxok2ljYzScKVPFyK6EDQ/aGvB3i49vYOSGLs8+Gov4vv5dDzXqqaSBs67qnTsWyAz8JEGZIv5nregTtdQb4VJuloPN0ZVhw6ASh6IXf40GF7actr9s57H9jx48fddOqDD7bbz3/2c9u2daskblZ3jWgj3MvBk40tnW49wRLxS3VaN4Ji9OQPQcKXr6v8PW0x4YxinXd4NpISEB0M75CJCItlyTmZlMOgL1levXCWfe7RzfZrT91rq5fO8ZGhh+jx8N05t5w6eviQTeFFCNTfTQS6YeBLQSP6D/T22N59B+y73/q21VbXwHsq6rEb8VDVyCONgRVmSAuLly7xHY1+9/d+1+69baO9/8779pd/8Z/tRUm7zI5iqoTUQgVASLWud9J1xZI5tmLxXMvPz1MDDo2AvSN8hvsihEJ/8lDjC3litRK9+nhVqZeTABBHmMEe9zz57aIEgwO2pzu6faXaJHUuI78lDsqGc7FamputpbFBIEu+wvCNkp6u0QlG7AzZ0D/GFYJ0AjR0Oh0fCvvTy6dYz9h7Hqlt9I269dCfkSasD+gokvZzAVFX+O7pYpe5RquprpdrsNqaRncnj9XZ8SO1dvJ4nZ7rvZ7V1NRraF+nvJy2bgFBbJwjibTxCpO0HM4TmxaOckdf29za4TrbMGLi+zESOArRX1OGzS2oksQrKZ96PUjK/emPfmT/9t/8if27P/m39l/+01/aP/tf/pn99CfPuvnUdKVjMOmgRhKdJaDLhCATtFeSrutGXp2BZ9HzxhWKXnd6By9FQSbyw/mEkBYmRkNY/GFBzjQrLszzbwkXYMfE7qHbltuTkoAXza9y/kSQIC6ErdaW09bU0BC2GCBcv04MujHgqwKhoCmsQ4ePCHi/48CLDjFaKYxFFCKN3O1Q5a9iRrl99Td+3X73a79jjz/2sOVmZ9u23fvtm3/7dTulMDmuBUmXISNERSB1sD/B5tWL7B998WH77S885FtBokOKqgYWT3Au1cXSAkNhjpWJ+Qr+5E63dQi0g8RMwx0PIg0xHWMBxWjEF3gn71gRYKYmWdabwXkTNrpHkupVR7h79y777ne/p0be7EPqfEkPzDK/+vZ79tqrr1lba6s3cG9JcqxwY/KJ872uhZiEOXSs3nWWgBFxUHdZ2QI80GoUoixoxG2SQo8cPmknjtfYKQFrXW296r5O11PqTJqsTcPN5kZJ/TV1bn5UV9vg7sSxWn1Ta60C0tGaoTdYlTvSLeZn2BLDH6SN9NYIvBv1LR0cKbwwhNGJMkPtwEqvKM35t/oTgQKe5Yis7du2+6iQrRVJByswL86TocNAsKDOnUYvvhtK3kUqHYw4WEKNpUesVka6qFHoeC7Im/zwhJEo6hYXBjRCowMqKsR0bNh212tB37PcurKswFUSLAWnDsP70OlhZdHte2MEffpEoesPvioHGJ1BXPWJ4/b6a2/YB++954UbCmJE4SdEAcP0SK745TC9dRs32Fd//dfs6ac/bSvXrLbCklJr7+q2rVu32REN3VgNxDceroKld2RJ6bIFM+1TD2ywr3zqLnvsrtW2ZG44Ej0vm0kVdMfUYVDwxx56NOKxm8hE/ZuIikXyCBLRTSblGYZEEqchtrR2Bg4chQLjmjU3t9iWV161v/qvf23/9b/+lf23//Y39ld//Tf2ne98x06cOOnl4eDr1aSv9FncaYyhfRjmjl6HI4kyphMGcBnGI0nyjM9RD+Xk5bqdMb9HBum/iVv13dAggG1tS+rrjG9u7w1Mjkmxbo1iACPUD6hJMHVCivJFC+2SEBVv3LbxAlI8CASoW0JawkgE8GiQxM9GP0OS+chEjiC+hZdQS5E2V0/pt5f9SNJzn+HXaKS3jyNcSUjy7hJEKqiTVo3CUqXqm0ch7eQTXuxQulyvr3LEMapwMzPRyLLw3yo3Rrg94jEOx6UMqY+igrzAb+5PDq+60kFmC5RRS4T3QXihE6dM4YMOCRR8FF5fvN5uFN0AyVeShDKM8vuD9z5Qr/6qWx54gw6vL6AIfi4Z63727Nl2z3332tOfecZtURcvWWTZubmG9qyppdl2bN8WVAbhsyGmZz+CzasX+pAExTyTV/SQbEqD8p51+/gNNRIkRiprTJI3VA9IKfFBGFYls7lJODeb2CEMhkfScholWbGM0HNXn6y2nz37M/v2t75rf/eNb9mPfvhj2/r+Bw4CzrD6FyVFmJuRBMuOyTcTPpfLyvij7JAi2TeBU3J96Kly58QQtvP0RjkqT+ixGhkrDNs12vBOQZIM0nJm5jTfOJ79ejla34/Xz8seOuaJ7SFdXaQw6MjbBcB9PWGUM7LK/JmupIPJP9LL3AB5xkysQQB8UR4ZQYRPxwx/oNseEd0wKc/kh/jCcmH5vNyCFXG6cEdXX/LrZhO5VL2qLOl06BiZtwAMkXY5icbrg/yNUiC0QzpMOlaf65AfdkYrUXseWV/xJ1cf46W+1w8X3uig+1mmfQUFegPoOoMvmVXhqTB379rtw6n9e/eFVSfx9SgUGzoWCrMEvADur/zar9pjT3zCSktL3B4SH/SKrQLyA/sPuLQCmEQwBVxvF9h+6fE77JP3rrVFs8sdKPr6g4E+PSWrgzymoQobUbMjiPBD7x388RfmcFMaSXP8JuybSUTP7HyHAO6ySQlva2v11YU11dXW2NTkQMG+F5CXqQjGJut0OOhsWfrsumA9u5xsEw5SJPpiJu3iOn/CBeywb76YyoEhLKuekGKpAxo0u66x3HrD8nl2+6qFbpZ3v9zdG5bYbasX2IYVc31jefamIAxS2qOy6ZIkFPW3MX/DFDZOYk5g+vQM/w6/dBrVdc1evnwSwrs0Eb67S5SS+1EHA/hcmKaxiVRQF2xNeVkVcZ0pFgtlxgjM9foJUW+MKLzTHSOxtCk6Oy/fpJxpz+XFbDIwWpmHZ2OWrz8e7bubS9cVfMku5Vff3GrP/fJ527ljR3iuh6k6yFSi8TE85OPVa9fa7//RH9iv/eqXbeWyJXpEg+M7QDCsnGltbbeWpmaXnoiPIQggy962bLGIxQAND8mDd8SN9MasaV4W5kTEGtLiAM6m3GNVItU7yCQA0lGoTBoJjTFYPPBsrG9vHCH5ekO8XFKSGfazzR8TlSxEoR68js7LTvgRpImz7kIphL+XIsoeUG+R5FrPDnECU8JkNMFqNvSsoQTPL0N+e32rDunkSBadIHlcvnCW/dpT99n//R8+bf/TP/i0/bOvfc7+N7n/+bc/48/+6d9/yp5+5DYrLylUSOQJPWTYowPpGfJGnpDzpsLnmpWd4aMkkgPPoLc9VttsbV1BLRD9TgTqUn5aJZlPJIpzD8MSfygsVWW8HZVoW1jgJB/5ZbqGz/nMB6TU1aUpREIbDR2a/5wwdP3AN8kplgc/+sEPbPvWbW4wzpCKgjiPVJ7e2PUN6gPOZvrSV79iv/eHv2+bN26w6Tl51j+o9xqWqfSTj5jx7vLlhJGoGMJmJVqFeklUDDxziwaA1b/lfpJvx8jG4VH64TlDcNzYFSy2gHP0P9YjgD6kdlDyJkL9UvQji/hSFCWu6MbqHCEaB2XERMiVENIkqoYGDd1ZuMBvGiYTmGy0gi6duAl/JJEalpp2d3ZJ8hVoy0tWZpab5M2dWeK7uqGC6O5G79vn4WKyxpFKa5fMsTkzin0yBqkdIO3vw/RsbAmTevYTjNmxTvwE2DN8ZUEDx/2gMw5scukaD+oEhXGF5XUlRH0EfefEISYaWztSVoAmRXUOAWYUK5xIDpaqp+ifbCH5lhWy94bIn6d+HYShkXxD1aLGwYImLzdXTyZOZwldF26g8MCo7s4O27F9u73+yhZr1lAW8gKKBaBbBzP9BvQys7Lsjrvvss998Qv25FOfskVLFltmjgqNGd9RGIuZUDbLSSUvXHlFR4QtIAxJelK/JihsaX0llX7wG4mI4Sx6pvM8jyA6D5+lJdHyB4N19vT5QoaRlX/zKKTtiomyi24k6RllSyNnuE+H43al1N+oH5xPlBfWFJjmsdiAZdl+TI/KnSWhvqOY3tOZjSTKFaBE5YC0GhtnZVmhzZpRavmS1kkCaWPIOgyopE2joAr8lViuOlvnBflj4o0l6S6VwQAjiCekx+2ONSqAT+gYuvQNS3pRmbi/Ub6NFNJjns/szAwHc+cbd+NLJONiabnRRDkPga/4JRJpdPWSrqOXQqhbRrWUFX7o5GmvbCDvFaOnqVnlljjY7D/WPTzDPZ0mJ5XkCg+8MvzlxCin8QdfMqzCOTPQb9UnTvqGNkePHFGjGbDzzGaUfwoIhkb5zoKJu5lUe+YZ31qPnZ6QhFzLMBZRiCPKMakuBwWkjVDOIwLRTxpEjnpEJC5+k64w09ynDiHY2F5Igz4xhC46TroBFnHP24nE/NclJSoUBxTl2dUOYwDXmKTvmbRisYJP1k1RPamOsKsF4MYMSs9pjFhXMFKhbgDNWZJmZ5YXSiqaNiSJhs40ODwCxmyEXlVR4rPlPsLSv96ebtf9jtXZEgdh+HaTqB4ITg+J9zh7KejbyMoXJXnCZAzJDRAgqsv57EopTtTBx4Qf/t5com2zax2SL/kGRFExTVf78VHAKEmkTBlhdGqEw3vyA1hzcEGWOjAqIvUz7qmnHrU/HPUNrgwXdDDjm6Y2nTyYMDTu4Ev2AD5sFrdu225bXtriiyLOIwpGRMGyuUZlVaU98PBD9ut//zfsgQfu9Y1G6KRwYUIn+eAyyAseBtTHVGSsgFQiXnRKAC9bFuKP3hZbX7amI4zRYsQfE0aYr3HseBiqC3xZwSNgCMn0CG8qwYzXYwhKiF52Ak0aBKcG8Htk+Y5GlCgTL/VsLiOpk1ELhMTL3qsA8KhE0HKYC/X09Pp3Dq6qB47RKS/KdZ2+N7oReeYnz9jNDb8VJfm+LSZJpt4wUTvDkHi0KuOZnJ9mLBfDPjc4yY7VNLsuE545P8YxSJ4AcKwxAILRuevaCGDKy80KZUO+r0McV0qMUk63dvoVoqPFTj51odIFpDJHJ9/R3uG8RV2hNigsyPW2l0q885wqw929At8+5nX81VCdEhdlnvycUDS+4KvSCMxutmv3HnvlxZesoe6U75ELM1CYgTkkPYlxaUiLlyyxL331q/aPfu93bdnSxTZleqaGDwor8XcxikuGIw0VsG7YEYlhMRU0MpgAvmIEMWx+TiYLHb2BQITny4xHIcAW0GYnKlxgDja15kTjMAwdSsNNJJZOM0wbV6J8xC2A3FSVAefWOegNF/9FKIxEkHZrGlt9uSn63nNiFBoGpmK+ok/lO7LOnW/0HPveXnWMSKr4zZMkNKuy3BvmxYjQqNP5lcVWWZrnDyIf9iZWKu5pDGIPYTYXYhLSmWnwnNU2NPuuc2y0TjiXqnPiY3XWbKUBvbN/MI6MQlDFhTk2R+FjPpmNcOCjs9C8SfaNJKqQSdkuCTNsPIXJKIRknpeX521vNHJcEEN5h5gQEjwj1KJ8jVoIeJTM8BiVAy6Mi8J3jHKwKc4rlIDlTy9S0TeBxg98vVA0RFCIRw8dsnfefMvNyjhrK4BUKAwKBVtLJIrHnnzCfvO3ftMeefQh4zRTQNcLidK8GOk9/nJy2ZC52MONxGiGCqChd3b1ORN4AxmqtKCHowEzXM13tQOp0kUv0PtGqWw0Iiw6E+9N9R2MxJDX7RkFwFOUgKGobhKh785Vvi4PGK+cKAMmNV2KDCUXXoxClEWsTjam4dReFmjwLeGEDdw1DKUORwmGMkbf2987oB9B5UF9zyjJsxXzKwVqU1VfgGnywShEgwasqypKrbw0HDpJ3J1dnb6KasBHLaMHAE9w5BCSPoQ/ypUdypB+Sfcwb41C+Nd71A4LZpa5uutiab1SYq4CnmOPjHd3HLa/+fFr9uzrO+yDvUd9pzPqhwNHRy3c60ChKCZ5m2BydXhCO5Qdajvqb9Ty1qOzyhCTokN4oWu2OueCvLDs/Pxc8EttUGHRoXt7Fy+kjvp8MjcrOS1jlChvJo0f+JJh/Wd10VtvvGU7tu8wzljyXk5l5EyrQkWSmVFZac98/vP29DNP2boN66ywuIgAghutUsag6SpYzKOGK1IVltwxKYQFwsiGgVeeYY6GrW9BToaDsacRD2rgF1smFLLpf5LfAl/ly+1eNexxELlJFIEwR1I5JxgDwsmLcSGWxlKcDKFZ1ODLs5X3pERGpVg1NEZfWOHncQWDezoxzllDD+h1OCIQ5xlFyAbjLKzArhvCqmFGWZHNnlHkYBY72LGINHP6b1VZoc2tDJvE458rtsOkbewMmC9pRc/PN0SD3pfz5lrauwJ/X4QIFn5jNMKJE4vnzdCIIexjC6+kCg6XohB/4pJvCQM1EB0BJ06/9M5ue/6NHfaTl7f6CSjv7Tziq9+iZco4scJFiTKiTbD/M2XrQMpDYqe30DXw6gjikbe9lDLRt7TTQvHbaEXFJ0j4jIyYDHUpm7goX+U5NzfPz3TD3yif31QaN/ClTxo8e8Z27dpt77z9ttVWVw8zpnJNA2HotmDRIl808cxnn7E1a9f4kA7w86rwCrp8QofEssOMDA0Jk2+pZJW79Wro0i2JJugC/dUQERdMy3LEfIEv/v2p+xvZu45G+Ai+CBtGQ+fLEDb0upcOYbyJGJHmY8NEJYCZ1XgmhZKhHgm3pCDXrUnQp44o3lGJCTr2mohWAhD8wao2JmLHIqRW9L2YLCJFUW9sKD93ZoUPsceauBlJlAtLygFsr28lGlBgPw90/RerNjoH1Bt09nwLT6F2YLMdOvhL6tf1DekuVId425qFrn6g02CGHkke8npzN/Y96cVRB3QALmCoXOnMWGTBxC8gzLLto9UNtm3PMXtj6wHbtve4AzBpv0RKx4HgByTfs27REvW9EHEnfcBFiXRC+Edw9hFqbrA9H43w3iHwhUd8ZORlFcqO+QS2R2U3RA+RlxOExgd8YQoxQnvLaXv+F7+wQ/sPiKHR6wX9FgzjG3cvXWyf/PSTvj/D4sULxdSZarwURmCwK6FQQdhiBp0cX4cCZz8I1rr3W6uYMVTG+YBKemgMboKSLDHmPY7G7g3iYslJeUfDoxGw9r93IKxfp4JT47sRRJJolAzpTzWedosC9IueDr280vK9gBQQ5Yu6Yc6MEj9M03WKoSIuSpQvlgoc3skyWHUR/o+JLNRPXj+jhEOtADKYmDH8xwG2RQKxZfOrvK6dLpE3wiaOovxsN0/jjDg+ITxf7dbZNWr8EH5IY3ZetnGOHJIVvMNqtwbslQV2lMNY36cSEvu6ZXNt46oFfiwU55vBL57/oX+qR/0Nbvie56QZv6gZsKAAwJn0ZO6C4+05TJVFRcsXVNnS+ZWqo3wf+r8j6bexpc15G369nLReLXnISicdJaoA9LD8xgGeTLCSB/6NJPLno5E4Yk2+YwTHSka+G0k8oQPsUD3QierDIX9cUWtx+vX1y/HV0zWDr6/LV157Ozvs/a3bfAlxe2ubSzMUIBXOdo2r1631JcJf+OLnrKi4wM6oNEJF6eNRCvVyiMJlqWKehq6BPUNlUAGsRkIaRUoZSaQLMyeWFyPFDet4sU2UJKHfoyWJ74iTISzOf+uf270iQaF2uLqsXBU5g4oAA9zhk432s1c/tG/97C174c2dAodWV684M/Kf+8twhOX3Hnog6pGd5WaUFtiGVfNsliRIhpSR0cci3iP9NLW226kGzhoL+02wdLmwID9IvoD4GHTGzY66VTNAUSBGK0vmlCqN1NjlEXwKSGEXvGDODNcNUn6YNSFZczjqeRmOpAgoC1QtU6Zhh3xOoDfZpUw2McdmGZUCMkTkwTFJnWOugP/B21bYZx/dbPffttzmVAmEJVnDq1jNdI1w/gxTRgFMdm62FQtk58wstVVLZtmd65bYkw+ssy9/8k776qfusa88eZfc3bq/235Fv3/jmfvsS0/caRtXzlNeFT1/Ll5d40aMdJpbu3RF7UC0tJupLoSNxjMhbSx+YfVhl6uzeMZ5eliJsCiK4tX/oVImHDqTtvZuN/0bUN1MUrumHviWessXjzEvlPrdRKFrOr2YDNJQOfqd49i//c3v2CFdKcTw/Kx6uun2yac+bZ/7/OdczZCpnghzHfy4u0oKn05yoD+wb5+dPH7CCxdJgnQBiysXzrJ5Ym63A01VxOs9Q3QYuqap3XYeqPbGGZYo01uG48UTr+clk422mY3tEiC0tXVKekPnO2ilhUHyqCov9AYNnQ9f40sxr+SJY322vLfXfrblQ/tw/3GBQqsarKQOpAjlCbXIZTs1FqRNOq0Id5SBb/A+s9yevH+9LZ8/01UOl6LAH5PVMPr84MjdB2uGDO6ZZCspLfZlxaOxAQ2LiTYWQ9TVNdo53ZMm9nNdt2y+3btxmUvhFMSlSpmwyANWGkhJtfUtduDYKa9YgB8JnCPkMzLCpFoqOSeJl/meemdZMulFxQQgoEeeP6tMZUe+LlXjQYdNulkwgP550dwKW7V4tu9NcdvqhXb72sV2+xpd1yzS/SLfDOr2tQvtDt3ftnqRbVwxz9ZLel6zdI6tXDRTI4CZir/c01FckOvDc0Zz6OOx5OEZ7wAwLEx8b5nRCnwcyNudHCMF1B/v7jjken6eAboFhQJCCV6+GRPpGEHwCrr9Fn0DCOMpNydHeZ1rqxbNcnttOj9KmTAj+Da0ddlbiouz7LApdssZvSc8Ti2/7Y7bXUiL23lOFLo2yVcFyLE+tTW19s7b79qH27b7Y4a/MFlFZYU98ekn7ZnPPWMrVq+03Px8WNn9wIjXQlQePJSZlWmlZWV6MlwhxN3ZxZaKYdtBnp1H7oeLgFYNKFthUFH0tgAnm4wH3uC7VC4JccDEnPGVmZGpJ2GXL8DOT2el4hPf15M8ZUoLp1UAvFve3++z2zBjgToOdnRDNYCe83JdhVxZcZ5VSLqlQa9YONvWLJtjd21YbJ+4Z62krPUOFOwUdrm1R9FTLkeqG10vSeFQ7khB7J1AJz0yMOqWZ0HlEE4Y4RuGsuia51aV+aTVlRA8wcQUu53NVScJGFBXxOFbDnZ0Ok9AHn9Czjt64HsNi1f4LqbPVQ8qc67wwYhsjEoxaNJfUphrC9ShrV48S9LpfN+Bb/OqBee71VwX2oYV8yVMVNnSeZU2f3a5zawo9jpj5EbHiGSORA7wREf+eMawHemc9KVkbVwptj1UIWzneaqx1RfUhPILKhfmZoKVUPJRCnn9qq0CntQJpYkwQKdRkMfG9hpdUEEpAErQOFQ/rJxE2gaPCB6Q5gisIrmhOptgdPXgq9wgeHR3d9nOHTvtrTffkiTY5oVIAc+cPdvPVPusgJezwHJyUQ0kBUeJjQMRCuBZXl4RHqiACZqCZkVUiyRCJniiEv48kieYk+9hTtJN3VJp7CXK1aWeER/CAKhUqFB6Uwi/DBs9rqFaHp88jkU0LiY0OFb++KlmP0Jl3fK5du+mZfbwnavssbtX26N3rfb9iy/XRf9cH71rlT1y50p75A6uq+wBDZHXSzoD2CmTy+Fl/CERIgUxRPcJJpUPkiYLXACzCytmmFhxCDCGhh2eoducW1ms/NMRhmdXQtT1bEmcbE+I1IsFxZmBAZdog+XGhUkiHvyyuAaTs8ADk4dApkXDXniJ70jrxSgGDc9A6GxJE9YjdGpMIrLniDuVEQ5JNlcCAuZqTKRyDBb5JzSAylcbyvmIReGmOp4hgFwqXddKkSdYTrzrYLV9sPuIH+BKuahUfPTg9v6e7gvJv1e5OsD6g6A3zk0k+GDVQosMFK+Eh9oBHkMI8s5chCqRI/eLiovGBPybTdcg+QbwPXbshL37znu2d88en8CikiurquzhRx+xz37+s7Z61SplnmWP+gTuHMnZV0sKEBkzOzPTymdUJJUaSpg7KpPNW1D6e0+aMAfkPvUDKTFPTE0Fh0oL3QN6Roa8Qx8kFJNOWDRGrC0IyL9RZWPrC+hfngx0dUSScEy4+DHkaliLZlfYZx7eZM88vNGelntG9599ZLOfb3Wl7vOP3WafeWSTPXrnartbEi/S17L5VVYGWKkhYSN7OQQfBIAKJzFzgrLXgZ7TaeXm57oVgVfEaOWs58wVMBmGfpaGlzk9w2aUFlpleaGHdSWEbzphGvHM8mI/lJQy9I5Z8QeTs+GZ+VQizUQ3bXpYYEP9ojqgvhlWN7V0JD4vP00x/QAM8QIcqERYBTjSMRrDwWMBYJlLCcVGOPAxjvux3PUmbK1bxI8f7D5qz7+5097ZccgXWXjUcujnp0xVWsYAX+8cknQmn3hefevXTA6/ZSL9fEbxvOna2t5pHYkJYwD70LkVC3jzNdr2VbITkK46VWSoTwD1xquv2c4PP7T+3rBOvqCwyL701S/bF77wOVu0YL71ys/I3cjGg2I1APhlZSWufoiFTFTUcZuGg52SRplxDdg6XHncAbi5WdNVuUHyjW9DlY5OgUdCLw4A8w0MFcG3T1IU8Y8dwrWRh6tIiQ89893rl9hTD22wTSvnuW6PzgRiAhDmvxoXF4wgzaMqABSIL4LQ5RANBf04EyGsamPW3aU1pZ1y54DK0HklH4ygs2cwAxP4oKrQZ4BThfLHhBlSIY0rtT4vRdQZ31BnM8sKbE65wFd1SAgY9re3a5TU3aMg6agJ+sKwmb9gKDsNfhGv0fG1dXRZdX2TW3PEb0b7dixyALlix3cJL9wkIo+4qHfH7vnHL31g33/hPdt58KTKholJdq07Kz8pI50xKpz8qOgVZuJDvzlvMc8l36whyRd/yWv3z/lwdY3Nvr2og7MHBPieteLSMrfxdba7TKHhRtIVgy8FzvHvgwP99sG779kH779vp2pqfYXa2vXr7Q//yR/Z/Q/cZ4XFxb4N5PXqdbzwuZH0kpWTaxUVM1RB03zoSONG6qptbPMZV8CD36nF7/lQRbF6JlfOK4jK85BJM9fRicEPjRQH+UILMRvmZkzixYg8uOtA8BcSU46GY6hNYDrAFh0Z90QbpKGwjeHVuQslqotRbIzET9pIg26tXcPQBkm+nCpMwbDCCZvZsEnKaBR0s4AupkM0In5TrnQu7FDG8lny6gVxBUSa+IKJtUULZllpcYEDMKBMfJ2SzpGAoZ4T+MgAAHufSURBVNT8xntM5DIzMQ8LEjw8NTBwzo7WNCVmhmFEFP17WYhHcNxHF8sK91GkmHdGDg2S+re8v8++/uwb9v6uo66K4TlFQLmyiU7lzAqbUVXm+zWPBoJeL/qADp5Olu/4TTxMHOIA+VheXHlPWbK3csNpjY70Tejc5UcXnx8oLXaLGlr+RCzrK0NGZYD8nTs7YPV19fb8z39phw8cclu6zbffbp//8hftzjtvU6ZL1WASG9PrSF5pioehBZvzoEsMKgaBh5gDY3M27gZ8U4c7sWIBFvRs2ZJ+oVg/MEHU/41GfK//STjhChiwsxm8hdI/0PUtAc+SHGkgPzG24ZxePyIuj1OORkAZADxsPs4EEHsZ0BB9WH5aw3LSqcJhpRiTlehPQ+GF8CIRrkrXDeZxPpTUbyboqiStMsnEJJLbYl8heVT+2SSbP7PUSgpyHCjgGfLhu6a5CRp+zidPqgocKw3Mn8gv/MNRTSdqm121wkIGpGHKAyDGztp3M5PEzIQXZYME5yorvSeM0QA51U0kSopOdREshfYeqbEX397lq+qOnGzw/Hu7UbqRdtmOs2pWhZVXFAt4s71NDjHpCKJsWRvAxlZsP0A8lBu7mbHC0D9M+TaUnUYsbFGqDoB6I3z3oj/wWGFRsWPTBDs9aIiuUCwN4NvR3m7vv/+Bvfn6GxpaTrXb77rDPvXUp+yee+9xMZ/TIIAuCui6kRe+MqC4CvJyrWrmTG+gDHM8Xv1nuSGnCwMC/on/DQRfU+FhsiNLDSKssoLhMXNBx+bMPyIL/kjh49+laT2gIeGfFU819WFiyZOgP9ez3klLTCKANSKp148UEcADiABecUiI5N+GpNvc7ns4sNz1wPE6a9XQ3P04+HLm2nS/jgag5IKw4mnSruPU74LcbEm+RT7hd7UU64N4Z5cXWnlRnm9AQxmSHyb3kIDHBD3lm3RjtO/LjfWPTpfN1VnGi74Tk7p9AqVDJ+rtxKkmN/tjNRz7WlA22OyiznH7VwUJkFE2SOCUZwDm6G5YjV4WkRzqo0mjye37jtvL7+21t7YflOTf6PwfeR69eKFGFZVV5VYxo9Ttk8nXWOVKLvmO+uYQXKweICTl/MTSgTrDTyTKhmdtnd1W19jqnZ5PwuoZoIwAyGTbdKXlXEhY8uXEocsHXxUcyWcG+ujR4/bcz5+zrq4u23zH7fa5L3zeHnz4Qd/ohsUTGvifV1DXi7zR6MqMcFVVlSop2gEGosdjpRezrvSMIwl/VBgVTO8Kw/M9PTC9L1/QwM7nGZWDvpkiKQZJm1dIuiweOC4J6PUPDtgxNTpWckHXuxSufylDIZbAw/qjTNMI2TkO3TBmdki4B47V2Xsaer70zh772ZZt9ovXdtjug9UuEdH4ICTH6ah5ko5rNDrTz0nDweKEmJnkY3EHe/eiZgHwrpa9YoyYec2cUaK6z9Yvng76SRlIXjT+0fgXXkBPXVhU4AsjYuFT96++t8f3UmBPhWe3bJfbpjLYrjLYbi+/K5D68JC9v+eY7TpU7R3ScfEI22tynh2TkmFz+rBEHWmf0VeQwpMUe+GHS/JnFHd9CTOwekn4TKaRz3eUJ9oXmyShqqJ82Bq0VJ3kTEm8ZeXFyQSlSneMuo5Evl3N5HUbQBQrD0zpWAk4WkeNkNPS2m6Nzae9vLz9ouIR38yUMFZcXGLTpoe9W65/6Vw5XfYiCxYgZIjxOOn2+edetOd//gv74le/Yl/8ypds2YrlLu2q3HQFeJOPrjepQhloSHaxmoYG27H9Qz8I0kFR73AcHzKvqsxmq6EhqUaCF+jJoaOnWu2ggIOluehxAd6ionyfJKCxEU5qY4zMwaooGmxkDEzN2GgbqY/hJgbuMBD6J6Q3CmYiMoGXFdfw0/OHG5bEBDrewBhqT/ZJuToBx0GByPZ9J+y19/e5BPS+pL+tAhikov0qT9QNrvJRpikvRiblM8qtsDDfJb6R5QrRsbGyq/5Uo2+oQ7lRvuuWzvWVYdguA76k5WqIr3DwQquAr7quxU41cJq2pFiBXo6GqVlM8ExPtn4chc6poZ9uaXWw8LLyb8MQuPF0u0u7dMQHj9erHGrlTvmiDiTivYdrbfehGtujTomRwY79LD454WfDMTHJijmsdDgdpUeCDoWHTTAmacQ1pI+nTqaojnSNzgGQ9HjRDJfPcP0O1/Nw1qL/CynUT1iNyP2Bo6fsuTd3ujVD8+nOEL88YI0CsUnSrDmVqmNJu+h39c2YxCuFTdnhrbG+xRrqm1zw4TlNqkQjkzvWLra5aruobOCFyC9cT7d3+f4V7+8+4s8YjTLypb2t27Debr/7LnUAFcN5HSujN4kuC3yZYJumgm6XpPvaq6/bnl277d4HHrBnPvNp17Wi36XEKMgbSkoXjKjqczu/fbv32unmFpfKqBwqFbXIAvXCi+dU+NAuMgR/fW8A+TvV1OENA3MoQAKgKRBwsmMaVg2p5JWvj7lS2Sx99aGqfxcaBY2wRg2aIRHG74Aww/MQtxgI7rpJlJr/0BQDEAGySBieTj07c+6s6/W6uoItKwCybe8Je/WD/fb61v0C2sM+q420e0KdTbOG1VhJIDXSKJkgARAgLxuVdW5+jktFLK6g/EYrB/yeFoCdbtZQUuVKXbAs+O6Ny23Nktm+PBeJ0OvhGijU4zk7VtPgKoJIDFMBDt/cPRTPBeR2oxI0sO7pk+RPmnEECT96ecphmkaZeqevsABo5gUYCcAj7IrW0NLm21OirmLjocMn6my/QG6PJORdB044uHyg0cQ2dWiHqxt9fwzOkeNQWlY2ssCANPgGO+J76s07ehF5JD3UBRNfDN+5945UdeN1kBQjnyA1cuMgp2eebnngsFMm1ba8t887ETpU2hIISRuiswJwK9XO8tCjp7SzsYhlwLTTTnU09eKf2NlCCtbjmD+zzO7dsMTVTYFCekk3wZ9qarfXth1UudU7LyEoAb6DChd82rRmlRXk57nVxPWa+L8WmtRy5hKlJKIiJmsMv+PDHbbzw50qnXN2/3332IzZs2zy1KAzc4o1eYOICkbyBXxPVtfaf/qzP7e3XnvD92jFhhQgYGLns4/eZl9+/A7fZhEGHfrWwddsq6SPv/rBK5JGMJHBMmKSevAqq6gstUw1xrEYieFNixpBa0uHL4tkJReFwT/CZgOYBbPLk6Wgs3xJKWFHFciNKK7z0g7j6h+Nj3QQP0N6H+6K2Rk+o5Ok0wAYUNe0tHZ6x8ZeBoBGR3ePDxGdyRW0D/NUpsRC2IRJ+JS/S6f6D6DTkbG0tFDSTFycMhrRIGsEMHWn6l2yRFouK863r/3KJ2zT8nm+H0fsXK+FABby8t3n3pN7x9qVR4IEeH2SSGCCn7HqHqBgebnXezIx6CA8VBKUjX7JwYduqgeqJOT++K92FeskgmEsRwIJ90w4hg10uCIFMoGHrhgXJvPC5F5eXpYvww0TfUx8ho31+dbBV/69Y5TjygiEfLJwyAGVlCnNjDY61EEcVef0wR6NZNQhoLtmgpG0USwAel5+rut3CwrzvK0A6pci8kOH0apOlqXEQYBhOTH8GOoWqffphzbZJ+5abRUa7ZCeEO+gpx0d7wfqmP7smy/YcaXRi0txU8ZMsn3tj/7QHsHqqqTY+tTkKd+JRpcHvsoZDLT1vfdUaL02d86cYMMLiPASdzMoJl0M3KcG8Jf/8T/ZL3/+C6urPWWZauyAAuDyiXvW2Fc+eZctmTvDKw2iEiM4HDrZaP/5Oy9KsjsmIOp3HZaDb1WpZYiRYYqxCADu1jC5RRIM0horpZx55bgyZMSgf9OqBQ7A6C5pFERMA7yeJedhk8WkfkgPnQ+6WjoZpDCWxmIcz2QQgIv0z5676CJZQcc95j+pFEIj4BA2K64mq+Fy77/VyHNyJAEJJNjAyLdkVH2wjJvGPha/KHk+6XJUo5C21javC45rWjJvhh8DX6myc2lsHIh0UncvvrPHviPw3S0pk1EKHQWmUTNnzbBpGRpupwDmSAJw6SBYDEL7oEyDCsohU89YYaYRRB8TeUwehg6LP7FO8I+qyy1slJ7Ia+7POSSh+DxczitC/BIe1hWYHwZrk6n+24FZ91lYXOg5E8wAMX7Y8wSgZtUcPIn5n9eXOjw62mM1jfb+rsOSdhusq5cz60KbAWA5/ovOtLikUNJursfD+0sReexRR94qqb2l+bR1iPd4FtUPpJVFMLetWeTtdlZ50ZDON+aZNHA23Jb399qf/t0LPkLie8Khs54zd479wT/5Y1u7ZqX4TgIX335UwZcqP6OG2tzUYDlqRJhwDHhhjN6IbiR5havQc9Vw/vq//61977vft4MHDnrvR2UANptWLXLp96HNy1zCSyVygJ7uP3zjeZ9I4OhxGuAw+CarsNznhUQRMPSiEZ4WADc2tFiXpCgaGuUGCCOpFeRl2/oV8x2EUYHA9GOHenG67O/k0YehqiskCiRcLA+wfW463SkX9qRFdwbYwtDorSlTNqGhIQJ2DBA8Uo84SGkxAfAAm9KgH3ewFQhjTJ8N+EpCmYxkpauDXQSfUYj3lFmH0nJg/1FvUABSvsJm964//o0nHCC8oVLo40Cka7eG9z986QP74fPvuj0pjbSsvETS7wzLzcsc0meORiQD/1HaY+Md0kfhqJQ8PziAFwdY05EFQA9gw/wCz7u76OTYhU/5G4oyhOs8Dh952IH8zRCe6JfeEy77K3vHr3u+c3DXP67kF0sTwBfABZA5wmkIfB2cM9z6B3UGKhD2BaZzBdyIE+siVDLFpYVWVlYscAv77FJOl6oW6hNBpaGuyaVeznYkbbQfRBH2S6ajvW/DUnvg9hVuVhhXN8agyRPt6YikXXTP3/r5W95e4cn+gX518Fm2ftNG+8f/9J+oE61SnukU9OE48cx40mWCL72NmDWpxDMqiokAvFAE3zw1/J8997x9+1vftQ8kodMDQkh5c6rKfDeuv/f0PdarTgRKTT26uD/562e9J2UlFj1taVmppJ9yy8lnLwNF4cw1ep5JQxzyMBytq222psZml3j4Bh0ok3M0nYWzy+3uDUvszvWLrTAnWw0qgCN0sTL1fHJ1BzMqXMJWvOEahsgwagRbTOzcBlWdAjpFLBJYkdXVE7Yv5D0jATd1Ami9kYW4XP1HupSkmC7+TlMDLSxiT1xJsSrzjMypYvhs3XMOm1JFetTIAZEAACT40vnjHbPpLc1tdvjgUeWBcjGvuy88fqd98u7VPiweL/CljDIl2aJv/dlr2+1Pv/685WYHaxmkdhYFzJxd4YARYGd0ClkbPX/+m/+UC/fyhoTMN4QZQDHsv+AgLGAGnDlAkh24pkyZ5uBNxw5QtZ4+red8JQpROiXFK6K8A5/GtPhf7yvDb/9e/p1HdBPrydOhq9siY35H3elfkGhZAs2Cieku7c6YWW55EibonAkrxjmShtKi/GO90tLSbnUCTTYxIv3wLvw6cGbA8iQsPXLXGl/WvnJRlccLbxJqzA9pRDhgIpJJXcD3rW0HvVOB55isw+b/kU88Zv/0H/+BTc3ONa89hIUJSJdv7YCj0sjMKAV9syimhIrkCKPjx47bCbmz2B2q0GEy/JQV5vrGMC7JhU+cyBOrlt7ZcdgnPJhkAkQATh9u6z3WE8x+49cLYkT2Y3lwBSDYjpKNd/CMBEfjculPTxjO1TaetlqBYZakDjZS8R269NJ7+CQsj0q/4z++Ju0AJf6RKgFYnxRTmKgO2OFs3+Fae2/3UXv1/f32ynt7bOveYz7Dfqy60WfSmehBt0vY5BM1AFFGaYv4kRbIB+oDgBZJsFSupKzIZlSW+onPefk5nk+235yqsokqHMhBO4aH07uYr9HIy1U+2TS9WWXDdp3+TN/MnlFsT9y7xqUgwuD5RYK6IiLNJJXNYJjMwi4cfqEjw0SK2fuLpRvi9UXzp/BDJyRHZCL36t8FvoU3/EQWSaVh1KByxVG+bLaTn20F4l/K31dtue68wIpKiqxY0ifpzHVzScyqwtDbRy0Klw518uTh05fhGfgRUtReBvAB0m1Uu/gzfevlI7/qTn10wxxIRVWZ13uU9qGx8u6WQsozUm79qSZramj2hTP+Tp8A9qg/lsyf6XsRP3zHSt9mkzQAtFhS0IYpO5bto6NnuTrfYWmDmpCJXvIaqay83O686w5bt2a1TVLnRU4vVYc3i658P9+JlhEqiKsz8VQH3gP791tPd7eDlXtRC2B9+EIN94vFxNBQr6x7AO1EXYvbXjIUn5Zsmg1wInUwLGTpMkx9qYrkPUNv1BVM9pEm1wcKJPkS5scGmImsxpYOV4uw3NWXUAoIAWBSDOMDsN4oFK9PjCk97ZJYm/VtbUOLz9LvPXzKPtx/0s1t3MD/6ClfbYQJVYPAFvM57EgB6TAMHgYCGuZ0DT1JJ50LDb6gUI26uFCNO9+KS4Z1euy7C9Ay5ASUY8MOQ8ZrI6qJXHcprcx6I/lR/uiIly+cZQ/fvsonkMaTqCc6NXiEpc/MmFP/PPdyV7kwmYR0fyOIeHEAvwMf5Zvc4yhzOgQcdUBdAMzRsSAhR9JovuoqX+km7SwGYQ9dNhTnPVsAMNlJntCtMlrBvh0eQNoNw/dghUD5w4Po61mswAQknS4jntiuxiQxBPXJ3hzMg9TXNVtbK2qGUK/kEw8A67xZFfblJ+6yO9cuUgdb4JI3/CTBX34H3YoDG2gEKxbxwLdM/rJzGiZ7vXoXRn0IOFNszty59uAjD+s6G/RXOBfpGG8yXRn4TtBMeLpUmYBITXW1Hdx/wE5riMaZ/RQ8lUivXqbKZZ/aIVDmO/7rCuYxuYT+l4koyPV1qnBmZl3tAMDTIOS4vxghOaLDCgDMHgAMNxUJ/8UoxMFesOjWeEcHwJ4FbrwvwqIAywPAFnvZ6voWl8yxHd19GBvRattzuMZNf3h2pLrBDeCZMOM7hmyAC//JY5xICVthqsEpLqSZAklNgGueJKdCSZdx5prfmIY52LokFUDgAkYm/CshL+/oKHdPpQD3jLVLem9qaqGAvFNiB7NNKxe4nhwg8PIbRyI8OjdUC5gG7jtyaihd1DGSp5vFORyIuCRpj4/GlS6RPdIVJWXf2Amnex+loLcVMCOV+uSmwJkOM1eAjA43Oyfb3zEhx3MftQDY+EFnL8cZi86vEgKwZOAbOuGyihJd8/zd5VDQYfdYqzr/xvpm62jvCKNIkfOP/gOiWVnTbeXiOfaZhza6JRJSNiv/XA2DukVtD+Dt0SgU4QHgRh3BJj7b95+woxIy4JXQYZzViDDDlixbZo9/6pO+d7gaqccZKmzi0ZVLvhOVVAnTxTQtTU127MQJO3n8pBgz9OQAkerN93FYvmCmSzY0qDh0ok0Xa2iXo14dCbMx2YwnNjCYqUvDdWbi6WV9mA2wh9ejEmEivSBZwORIFjxECobJiBsAx3wHO1osCwBeTohAWkVHe1CS7Z7DtbZ1z1HXcYXTIEKPj9TLt+huYTzvFGiUChNH3EgyoYEi6ShsAWpRUaEPU1lEwjAWyRawdcAFbDX0pfGRT89HGKGOTRcrhFHeAbVgDBI+5YpFAxumU77trR0+LKWt0FgXz51h92xYagtnlXkHOt5EHcELSFltXX0++YbtLhODpC+okLIDJuoP/oZSoZsLOiIo9dEory9KV+KfhIxwdCZRsqTO6XDhM7e7lvDhIyzxIvWMmgLQzZd0HKRkXE54Jwc/FIk34I+ceHgl8VyCmHRsb1cnKtBtkONUYShVWOGeDq9IfLiM8+bmzfDyRiDhIAN0ur6znoC3b6DfR4uRmBjcpXbwocAXNRp1BNEG8iThr1m/1h57/HElFf5VnBMUeKGPD/iKqFT0mQ31rHbb7gwII1J5XLEwmDsT+02AT+AEYMEUCbMiaS2ZW+lH1XAIJfatfEsFAxn05gyNkYKRHl0ScJ5Er3x+Jcc6p0EAirkCd05SJd5eenIxFmlCIqeHB4APHT/lS0/f3HrQ3v7woB8JFIC2zjcJ8gMJxWSoJ+Km2hEAYF7vTPSbOLA+KC0vtRI1npKyQg0bS6y8otSlW/SHNDakWoA2ppyGC9gqqCGK+bgYBf/D+moI8Pff/j88Z0KJIX4PE37t3dag4eip6jprbmzx4Smnj3h5KR8D6qDWLptr921a6qdrIBFBl5OeK6MkjZKS9h2r9T2SkbyIhsM1Vdw2oOEzHcWAL3sOCyuiH74jAPJKuXunmiSSMqATi+WgIrqAzpfmw3fXksfUOkglr1d1YNSx22Xr3tNM0hIXRmtBWMAhScO7Y3XAJD18S94FqCofVAxMqmH540KBeJQ8xnzilzJCICorylUHW+6HidJuo0Pwof75QiEP/eMBwtEHEkb2H6l1IYX2A5EvVA533H67rVm7KnTWJG4C08cOfBmeNje32HtvveOV5dXnlRB0fKyaweyLl4CeM4Z+OVPqHp0Ttrhzq0rU4M65RIp0SeXDiEhFzKoiqQGEzqD0vvDGKPU91Bj0DuYGsBneITlH20+8sCgDS4zTbV2uiqDXJ34I6YwTaz0sZ+Sgp2Y23IebktiZgCkX2JaWFeta4uvqGTLmYHRPQ8oIBvoxPUMNgswnxDteJ15GJ/9kGGjdP+WuNFIG/l5uQGXLRuiAbKfy09raadUnT/mkC0DberrN39PYsPggLeHzQd/gZobycee6pb6sGJvV2IGOJxEeaWXUQHl+uO+YLzUGGBg1ALDY8HKOHDrLVgEKy4pxLK5pbjqtfLULpJVXAQEqKj8NOTnGHNUREjydNfEQn3eQntPwm87PhQQ997JMzWNyG4GLB/4oxcvlUgw71Y1GzhcCriFH1KN4jfnB0TG1i2+rJSS0NLX4PInXp75DZ0ubct7z7/Rc5Y0aAdBdv2yezZ5Rav1qB7TBVIrRev71g3qqaWhxCwfUcLTXkA/ScMZWrFxp99x/r82aPUth8TiGMDHp4wO+zghU0BQ3ZTlw4IC1CoRVdS590BPS0Jk95/hwdEecEgCA0tOycocZVfSvfIOUDEhjkUAjpJeNq+OQHIb2mxVfwBQwF8O7i5JeR+kCXSJLnwkLY3z0wGJ1jwugIb0wF+SgzWSLADTo9bI1HAzgWiBXJGm2qKTA8guwt810h382/wmqiAC618qLsbEFAAmNAmBhEg/AYT9cjvDmmgpOHWqY1Al+AGWO7eEkZFfBKJ8sTgh1gW6es80K7P7Ny+yutYtsZnmRSoWiu8bEj0mBPxhNNKqDYE8GdP+UvUuK1Id4BKnd0+0ubPLuTpI8AI2dbmeH8imgZtWbXx20O9zuu7en311PN6fzdqss2D6x10dAYfc24gtlShlz9XyrrAHnIEHHOuA6XB83g+ABeLZbnQ1Sbn1do6uNaEfOF6Rfjn1VWOUJH2LGqUfKk/KpsqUtLvEj7gtcwKADdFWZ8hrUZ2HkQFxuAaGPd+w/4fuHsP8F772F6A8TpGzydc9992pUl5cG3xtOqhwksAExM6qHfXv3euW4FKPaAFhZ4ssZXpyGwEvAzoeUclz96BY1KqioINdKNUTn/CwqHpMuwnHm0tUbn8CExgnBYADlpXDCwVQScAYzx/qGdNDICRNmcwsEB1v2js3wyS9mrdlvAn0tqgPsLX1STB0Ee6VmZqGrDfpdwrgmShp3uIbMkOfYMZBvJD2kfyS9zo4eB1oaYQDgTl+5hBrBt2lUfWA5Eoev3mBEpJO9lClnZrpnqTEumltpG1YusAc2L3ebaNQrNNTrBzLDHQqr6ZjgQfdIfdMR0DnEOofIAnfuknoDcBjFRHtcABVH3ikfbL9xDroCdkCaDZk6GBn4vUYADuLhO8qLb3t7elzF4UccIUEr8gBqipuOQS6mK0jOqcB8oRuv/ouw4HkmSJubQidLh4NtNqkhHQgvc9TO7t+0zJcHN8vvqYZWB0w8Ud454m2EIKx4wpFfGmUycqCjUrtCWHK9r/LPznnsAvfWtgNuUukmoWo74gwvm6qZVXa3gHfdhg1qX+KZkFL/O1HpshdZfBQIRpym8m5pbrIXX9pi/9e//v+6hEVlOLjpPQ3885+4zVYumj20Ymo0olRgMpgFyZi9WX/x+g7f8ATdK+oNPDhgigmYvGACC5tYNlSh4i9W9cg1ACUNq0ONj8UFDMdhSnpuVBMcS480wOw1E2aAK++RsOOQMDY+ruMJUGraSfhBVwvgMpmC9N8NgAg4AAm43IfnfeqY1CBJgYNAAgZJYE6UJR2PS/+SyjEfm6EyWzR3hs1RvXB6clFhniTfPCtQ50heg1pm/PI1FpFPpK0jNY1uJ73n6Cnr7hmwppYW72jouH1RQgLG5Jm6h6fiKMW7PCXVbaY9yeFHkGiD31gWkXgEH9HJMBKiQ4IvQr2qTpUmQAZTx9y8PDf98pWE8jc4GMrGTf+845WUqG+J2suMG8LRvf8eEffVEOki/x0aJdTVNlqbQBehRcn0CUniwWxy4ewKu2/jMlu3bK5PGP/8tQ99QtN3+VPZka9o4ZOXmyl+mOYT4jgmnXOd58OJyzjAlg1+2DOZo4OG+F0O9dWjjz/mhzlwTDxfjENWrzt9LMG3t6fbdu3ZZ//6X/4rq62u8eEtlQ330Yt+5ZN32j1iDKRaJF6vxFGI8LxRidGZlnpv9xE/p+qEet74DeEGIBx0ibWktMiN0YMhOg0kvBstjtTnNGR0hPwCnLwRKWxe44ctPeXdie9gsFGCvCiF74fj9LCVRn7TOfE+pCNIXoMaCiOBsM9CZ0eHvyeIswKi2GkBkHyPi6AEQHOlcQEqwU3zhRJVyeGVlXRURXlWXJhjM0qK1ACzfOhJyuL3xJck9YYRk7C9aug08KCSwsa0z06p4XNaBeWCTp4l2UhqLFrhd2/fGeU/lEsoh2DNwQRRWOIdJuhYnkvH7S4pO67DFMA8uaULDIWur1nsE8va5/nCi7AAR/yS6ac3FHrnDC9OAvgVAnEyisIPLoaB0BB4KfCEtxH9jlJ1KkU+R83AZjj1dU1qZ2H7R/KCygjzsNkVxXbH2kV257pFLvlitcDev29sPeCSK5KuS+wKk7hTOzOsMxiluurBLW6Gy4W4KU/8K6Ueb0wz4Ps7f/D79tRTT9rsWTN9zxn4eqLTxwp8YRzVh1dQU1OT/fn/7z/Ya6+8Ypy8kSFJEikKKZYTeR+9c5WtWjLHK34sgqmoYFcnqDJPq5H95XdecisEJsN458SFUtQVKZv9L0qTCS/WviP9EE3ie2yKHlJrJIZ9FRTBfSiZYlT+RWCDoZFo2UAcxiZP4cTgbh8+E7c3DgcRpNrhsHjuIKnnXLEFRophs/OcbK7THWyxIGHYyeIW1DcAMQ0Qx9AUlQPHxfhIYgJQLG7ggfwCANhPs2k8vOIToeIjyhBgjfmn7NAVo5oKG8xzEGm/D6M7UdGoPPv7g3rLddzqwFzPrSvPmGwlLCis7AKgBat+TZzuPYEQ9TfEF9zwXlKz6gEv5wE6n+l7wJvjdRhVMR+AtHlOI0PyCtghQfMsSOBhlBV4XMCqdKK/B3hRMaBGIlzKhHRQlysXzrTb1iz0kQzqPaxx2Pby6z99w3buP+lqhKE2A8Vb8pLc+CMXof3BhcRzeaZc6NCYAMe293/42u/Y5ts2e/6olyFGncD08QJfEYCDYdjZ3l77/g9/ZN/8+jesurpajMXWl6H3LJXE9dDtK+1BOTfuHgnAqjj8+iScJBp0UjQ6Ghe9OHvYnicxJwwRCaZFVeBLQAXAmJnB0CmtZVQiOPdxLTWiMAANv9UFkMTFvLNsGv1jkCQEJg62ne6fYgir8cIpEhBJpnHyPfcuwSlgloWyNBqQZSUaJw4U5WVbkUCWMi3My/HtHxlCslkL/t2sT8T37J+BXTVgDdhAZJt4PAfh0Q2lEHeoP4CMmXoWsmBTjZXM8vmVPmkUJbXQcYf0Bn7hiPcIxgJWla8f/e4Ae8aHzuHEinByRU+i24S/wmKC/hAG/lUHmNeFyWDCAqCxDAkA5eWjP/4vKSvKNfwbQfG98oVwwObo3AfVRahn/1aSJ5O6ONoLQodLkPLDSjImEVE3kTeI/FOPdLBrls629cvmWpUkX69ThU9aOaTgGz970xdEUK4U8XntZjSSn1AT4W8kz1nKN4zWyM/nvvwF+/znPmOz5s4NezmEYcGEp48t+E6RFLFz7z77T3/2F7btg60+lPZhFsyryl+1eJbdtX6JLZhV7owdFXWoGfgNw3cKmDAzC9srdvsOYGyzx/aLANpoFEIJxCqyvDyBUUm+FfjSyUsvT74SimEBjtyRJMDRgVI/kPTdVlWNGLCgDNBf9vn2gIF5ySeAjGQVc+QNkbD1gAvqAHTO6GiRXNmWsEgdSlAbALa5vnw7R2Dsp80CuGrABODSiSKjvEgjdYCUTFhMuGBlAGDxHjBAVUH6HRJ0Hc/yGosoC0jY4Bmm/tnhjZWDz7+1y3W9j2mkdN/Gpc4PA+ItTMjwd4byVtq9syKt/p/yC2GSfpcg9Q+wcosa+EuSLiDrYKvfOICY1Vx09Dh+I0mj9gB4WVaL2gzJO7hQrwHw5QhHYUKepZgxSOlwvuBZ6vOYVh6rDQBmAC9D/6iS4iVzE3QIcQQEob+dU1ViazSCXL98rs0oK/TnsYMgXS++vds3wGFBkC9oIR7+JWmI9ethhtvRKfnOA9A3lHdmRqbNX7jQfvv3f8fWrV5l2TnhGLOPgsoB+tiBr1OSpbNnBnyP3188+3OrralxC4I48QZAzNBwmAk4Byz/IjBMnHF1yVeNA30e0goNgaGUM2YKo/Atx7ygq6VBIOX4c5hQHtksZcbMGZKEmUjTEPsKmYPwR+NLnscGhQRDA2G2HImLhsiiEPS1wc4UMKYBhZl872uUjDC0pFMivFAKSDwcLJmhoSlDUaRaFjrMKCl0G2g2uuYZQ02WiKJuIE8AKIDvoEAcCsvBR84n2whXIJ4p/3RE8Xl7V9Chgl+YHWUJ4D1v/OVG/i7WLq+WPLf642Hrj6Lx4T/HADFJBPDuOXTSHr9vg33mkY22ZtEsBze+YwMbl3CVX8o0AmAYhofOhnKOIAPFsghlHu6H1ArwhPxG/gnhYaFDnSkOwtZveBChgNn/zq6wEgzdsz/XM6wGXICgDhIHf/tvXQFG7yiS9CSlMFQGJBe+DaaPokQFENMavE1y4OWQgNvWLLBl86u8PSHle3l6uCzX77H/9oMttvfIKXUmfT7CIUznV/cR/hIi4V+KQlmKr1RWdBAsqnj8ySfsM1/8nNpVdgjuMsKZKPTxBV+5LElVr2x5zb71zW/bW2+84b06jBW8wGBJffmTQLAFvbtLaqpk9G6xwTCUit9FgiFpHKycWzCz3IeOb394SG8GXYqDEWkAbGLCUs2ysiLLl7ToJ22oQY0GK8QRGRhiOOi/Acgk/ijVokejgWKq1H661ZncG5f7AQhQE8CTsfEEyY53gAX+fFOdjLBiDzVCWWGeza0qtcryIj+uHf0dagM6ndjJePgK20FG8dGcQ7qJIejJaWxIuUjNWJZQHoAtfsgD/gEdpLlXP9hnOw6ctKVqyJgnFeeHM8DQjQIYlH1qmVwrkW7Cd8sLOdIPcL2987Afhb5N4IspGEP03/vVT9jDt69QmsIErZLu6aEzcQsD+ER1hE43mkjhj+QyREdqRYURyifkIeaEsIYpvPd/fk3qzR0dZVATUB4OogmwDtdDAF0kZdQj5AcA7BJYcw84M4LjSgcNoLv0Ludgj1N4XKmf2CkwWoGIi5EKaobH7lpjG1bM84NISRvxRgAlvYRRXX/a/uzvnvNDNvk25oWVnuz3THmwiZJ3YGo3FyV9x2QhOt3c3FxbsnyZ3XP/fXbfA/e6jS+dBGkeKtiPAH08wReCecQzrQKkH//gh/a9b3/Hak5Wuz4LgHWuV0VdUF9eGvKhh5OSXh+KjAPBNB6ErjAnUjESNDO865bPc1vE7XuPW72GWlEvxieAH8t+AWGW+yKJh4A82CT8APpQaFwB3NxWtJdTldUwhBS+qAH9m4CXr5B20Nd62ggwSWuq5ENYAEYBS52zMiW9ZFhBntIjsC0tyrdySbeoEPL0bvr0sJta3MGM4JLUJdfQCTig6DcND38AtAOuvgPYAFs6Lt7H8otESkkbC1ne2HbQvvfC+8Yhjexwdee6xbZ0XqVP2mUoLQ7CkuDDV1AApMsh/8LLJRDpoCMgXZ0a4bC0mw2K3tpxyA7q2tza7jpY0rZxxUL7zWfutRULZylPIT8AEODF6KhdQOZWDx1dvjrRz7GjU1WnzeigWKME5hgYHQDCSLWxTik7/oUS9YTFuwvIn3uGlQ//n9yPQoQNOHud48Qwof4DDwC0Xcof0jP5RGp2SVoO4YFd8NDx0mGgFqFDgY/R4c+bWWabVy30HQJRHVGGqUSe4ANUc+/tOmLff+49B//Al2accP7lr37J1qxda1OmTrO29g7r6cH2uVN+6AIvLAHKCP5ho6oZlZVWWJDvZ7PlFxZYTl5+UgoXfjfR6eMLvpCyBr/u3rnTfvqjn9izP/6J26YCmA4EY9UXJcI7GofuvYmIMeANmIjvo8kORM8NkLFf8Gce2exAyEqcD/3QwwZvnJwMQbB8y8IJLCFYlZaXm+0b9RAP4EnE6NaYCCOtLs0IeFiuigUCjQkKQ92wxR7kf0mvX8IVhg02k0EXSxrRzZYobibF0NvymwkS1AHocn2vYKUxhOBBhiu/CZeLfg+DrcpCeQN0ASXUMkhKDrryMxJwRxKAgFRNOf10y3b7zi/esRyB8fzZFb7pCnttzKkscdO0PKV/WG9IcvjrN0lqh8ljTeLmwp1L/vKIKqmptcv37+CMMnS7h47X+W/AE6mNjqOitMh+46l77Z71i321I2Dbgk22QLappU0SXaevimtq6ZBj1BGkOCIBRpH4K8oKfVi+evFsn7QjIdQdnWJQAwQXQJLyTckJ5ZfcQvFN6rNIIasXvhn5mPogDsCYjpz0Rsk3qDb4HXbdQ6joFS92drKnyDm3x+UwS1YdYrrm7SGl5Ek6vxnlYJb3A3Wmb27b7/mD6JDKK8rtn/+L/6ctXbbUpmg0yHzDOfFxsBlXAKNljij0nO1Zs/PygkWG+ItnZxGQPqL0sQdf6ojZfA7+/N63v2sfbtvmK41o9CNpiPFVnxE0UDswrEFiZciTl5/v9pTdXV124vhxX9VEmwYk52io/oVP3K7h2HwN87ps79EaB+C9R9iwpUtMGMLHP9YP7CjFnrlsok16WC0HgwK0pJHVTaSDCTOf7FDDIB7nRhpmdHpCcukQwmRXOB6GCS0O8SyRNFtSFKwQ8nOyHWxRLwC2SKjQkJStMhguh/MbP2AagRXgBWiRIAEqyomheJB0Ae/h8kxCG528jiZJ4hrwzbH/6kev2Z6DJxT1ZE87ao+5M8ttuaRgRhcswKAzyVb+AG0qy/NPUBQC9+SB3/zQHzop7HYx98JipaG53Y6favGNjFg8EzaZ71ZeQt4IjdHAHeuW2FMPrPdJRjZZQkKuxrFXclPYeAnJmUm4TtVZiJE64U73+o9FxyyNcuiYH9i8Qp1JhUA52Lo68KrcsQOm4wXgeEa5uZRKELEuroLCp6N8n9Rr4J9wpW79uS7UJelAZUKa+pB8FZjr6+UIE14mjPNIUfmG7OJtRhL/7ftbfFOoKB0z6ly2fLn97//vf2ml5WVJWSs+fXhBWKMQOcFaGh71HyT2I0wfb/CFlD3hhLG5+v4Dh+z73/q2HTl8xDjhOEiawwSjU5/0sL6SSEyEfTDbMFZVzbSKygpbuHiR5an3PbBvv/3d33zdampqXOJDWiiUdMSy2E/cs9byNZxHqqDBbt11zN768KA1nG53KQOWiRIrS4wBLxqbqxCUAPzgvPXQwXujoMEMT1hwD/D5AoaMsIiBYS5SSaUkNiausEZwaVbvaTQALaBJ2EFvSAOHnRUHfz2OYfLngKmeA6zEh9SBKgJJd1idEPxHTuInQ9ZguwqYhOdjEWEzuYdN6HNv7bafvrJVwJZsuqPGjwRZSN5mlEoiniEJUpJwSbAhJi2uHpGLe2swwTg0aaVrS1uH6qHdTtS3uKR7orpeYDlgbZ1M8oXFIIQD0cFhd7xoXpWfrICkfehkgx0WUNdxykYPJypoVKLOEEwBsNELU64jifekAZUJi0jWLptvn9PIaNmCSl/J5fWpwnGwxcEDgLG+iekPdYQfeEZlmYQ9HhSBPYYZOwwo8Fu4RinTO2elIb5PJX4zYirMz/E9qF/fut/++oev+qiPzhh74pLSUnvkscfsH37tty0nN2941Jak43LI4x0R90eVPv7g6wRYBccKnVOn6uzkiZPW3NycvA+EaoEhNOBa5BvXFFlBQYGG7DlB4qOhqd6nqvL37d1nf/qnf2GvvbLFGy5G6TREdGK/9fkHXc8H08ImNKLdh2vspbd3SwqucR0YIMY7mDkwHyAml4Atj0JDDOZgABTSKqoDDkDExhbLA5bnVlWEoSBD42mkU8DoEqjAiKEhAEvDiQ0d5o2NJ7KxSxMil275Vlfy41YPAj8HN6XB04hHXfmE8AAIpFCeoz+sa26z47VNdqLutHVIMqSNxXhGEg2+IHu6FeQEiZ2tBH/5xk7br1EDw3jAj/Bd161AXNpOgD9fDb2kqMBKiwu80WN9QTzoLLGeaFZn18TqPHTjSVkytMYwnzBcdaTy9nwkQED+2HA8W50uAOjHmgPi+oa80ul4vSZYmxTb0PcjyctLiYqTYnMqy+zLT9zh5/iVFeW7ydmwP3lUgITkdaUrQOzxc2X0o7JwQHaHH3ydX59JMONCIZwkFtLIT+7lIi/R8UTTQXhwx8GT9p1fvuudaE6W+ELlhcpswQLMwn7X7r3vbps6LSOEnaT7qilJw0eRbhHwhcLQhsyeGei3AfYiEDNfQKpIlvYi9U52SRGDdEBUX+tjNg/JUMOvPXnSvvHt79l3JUkjXflQW0XJsP/Xnr7XVi2ebbm6dwYVAcCc3YYa4oPdx+xIdaOnx8+f8nAHfaYZyQuCmZGW0MkiJRUmdrVlxfk+w8zEGNKs22UiucmRhpBDkTcUNZrkZ6T4M6YLvgVMXGerRoQUR1hI4/ymwfmQlBLgMoJ4RufDKjD2IsZiYacaX2NTqy/THQaIsQmrCDoXhrtQpwAcqZc0Ej5JTQ2BZPCMzsXB0F0AIN4RJwDlw3hAU/d8FcIIf1OBZGQZUY7EG6RRXkYPw2UQv3VK+T41qKHwz/NsrsO+e8MyV0Msm1eZSLYjEpEQj738SEuSHtfT4tSZYJkTAFnvyK/uCSlEmfwdEf94EOml7H2uADWXW8PQUZq9/O4e+94v37Ht+45KcAlWK+w9sXHzJvujf/rHNmf2LCWKXcoU0NUkjkKB9GnsdOKjjxLdQuCbkOqKJo5ecEySn/g2yMt+40RDniqg6Ghvs3ff/cD+/Z/8ie+gNiQ5quHevX6Jn5ZcVV7ow2YHMH3DPee2AVIsUWb1z+n2bh+eosfE8oCJsTwxLBIEJl7oPbkCwEh2MDuTHRkCPML1aPUnpHEEzOlH+D381NMiFwArTJhF0OXqErMSFNQN4ZuRRcVvf6dwAEmG5e/uPOyge/JUk0udcWe4YRoRiFMSgcjfJl4cSFPeOcWfiZ/gfzi/AbziL3n2/0koSudQaEM3ouh9FBoCQy+vcBuJVzG24Gv4L910Shfo0eH4TdkDlpQxI5Z1y+a7mmrV4plet3gCkOTtPBqZZAdrwFZXH9WIr0LHnTg94xo7oagqGKYkRF1GRHVR8jzIwR+osFDPhFFRGInAk5iXff+F9+3ZLVtdj47KiOXrs2bPdpvc3/itv29ZGlUMtavLpRH1wdfkC6EGYSkIHleSm5tPtx74RoKBk9tUuqD6RrYEERXPgoX62lP2f/yLf2U7d+w0tv+DCWi0laWF9qtP3WvLF1a5ROfArP8OavqHeQ8TPdsFwHWNbd4oSwSymFWx1wFgCwhHiQK9LVIGYQ8NOZMwSXAKtAzlKTXVQZWAC+BKWKgR0FUDuG7L7GDrgY1ZNhBpwC+SF4eA7jlSa69vO2A7/ViXVh+qY1pHfCQRSk3LqCQP58WnH0PgdynyJI8eg+fiMoMZjVJDBb5iUDynqQO0nGqWo3LL1a8s/ebEN/y16ouawbMm+d3943iOxQWgiCtQPbM6DN3yqkWzfGKUDpH6hScuRqnvKasAyIEvgpkZlgtI/+HqQK3nqNY8fs/MhYXjaQy3Tqm/qXf4BeCFN1FJwU94IA1MJL794WH71i/edisHeBc+YMvMTbffZl/+6pft0ccetQEiv0T+IhEuPhVM+K3vGLW2NDf7kWHKmi1ZtjTY+l5mmBOFbl3wvRZSkcEMA92d9ud/8V/suZ//whobGlyaRCKBOT//+J1uolRSmGPdWC3oXwQUBzoFgH4UyRFi6I7kECaP2JIyNBaXZGhU7is0emisxhkbSwDcEE9QSwyHPSTdehAhHNJG8i7Fv54H+TmlTuPtHYfsp6984HsfMJJwqweFS9saqQMdGWx8G5+f73tiEGmL6YpXaiZLtZCrt3m6lqjjqpo01WbpzQwNpXneI98HB8/YlsEeOykA7tPv1LC87nyzJbqHSbZk7gz71AMb7LbVC31bTV6HuoilMzrhh4CjL/xzz+NYn1wB87B4AjAesSza/ZGO5BoTmUJuyaLRCPMUUSDwCUYPP8RPUgnz2794x559dZsdra53q5oA+IP22BNP2K/86ldt9Ypl1q10XPJU4ZgQdRaQuMrOqK20dnZZ3ak627Ftu1sbzZw1y770lS/Y9Mzs8Mklymwi0cdrM/UbSF7HANu0DNu1Y4c1NTQ6qMFQ3X1n3MSIAyDZEJxJlcDgw4QEAkj75jIZGS4t8i3MirTCxBONhu947mAqF+9DGCHMwHNh4oMJNzYFZzMbVBmYlrHnQrB2CPpRhJXRKAl2VIptgYZ3pLrJfrJlm/3wpffteE2jdxpI/ZCS7AkiCoLjM6aUkAC5RhebFOTpl+Ob6GJSuMb7600xDRBpAjS75chZgd5UClwXTp5qGyZl2AOTsuzhSZl2z+RMWzFpus2aNM2K5DNb/gp0nSNAXiDXpu+blFvCCVOSw/mNqh2OLjqqcmRitaykwCpK89XpBtCiXsciXo18S9iReE9nSJ3T6bJwBj4AFOG7sMw7WMFMw2JD6YGHQqctKVeO73yCV3wEP2E5w2guNSLnSz1jJPQD8cTB43VBIhZ1Cyxnz51jDzz8kG264zabpPjhpYvlK2yfGlY1Zik9ZzWaamhssZ279viCqW/+7dfttS1b3HTtc1/6gpWVlyu8pOYuEu5EozT4Xg051weGy8rMst27dll9XZ1vs0eDAjSRVpkcm1tV5nshTFHDhUmByzgpQsvx4aCc//bGFhgz1YVXw9zOHY2DhuEb3Qhs3XY3M9Nys1g0IelETB4kUQbH10ZETSPG7TxYbd/0YeUBa2vr8meekSR5Ma5+PQBkMagqESCVCJAKdY0uT88x7iJ16naMaUYACmtZvuM3LgSrcvDrMCWxXjWN9j3xkW6M73LkZivNAOumyRl2h4D2boHu7bouE9BWqD5zkAjlj3BIZ6qD8vW2Ug61RJeetnjIF+YFwOvt77dajSYwTZw+dZrNEABTv5T9pUD4yijknPA4F9AXxqjjh4/YdwRBAFBmYyQ6cCaQfTLNeWn0NNAOGKGxCT3qhubTHUN+mYzmdIn77r7TFs2fZ/0SLnyxS2opDPE26dIISu8z9Lqzp8d27dlrr7y8xX764x/bT3/0Y9u7c7fPsZQLcO+971576KEHbPLU6cHGe9zK6MZQWu1wDURdY7/4ra9/Qz3yj+zQwYNi4MxEYjW7b/NyX3SxacV8Y0cqhny+i5gkYSYKYEyAd1RKGCmyEw3UJZPoJM3wbHiSLKgSolTsH45DzboEAjj0hYm1H7z4vm3dfcRa2jo9CqIjCzE6JFpkEIbggFeFXIEaObrQSNyxiyxg26+P+A4pk+F6vxpfvwLkHueArN+dCjkRqt3Fv0BZqqQMhTfDlPoOOj+c8J6lA0i3xUp3ma6Aa7mu5eoaSD9gTEcS88G3QXq/kGK4pAs/9YL1XYP99u5gnx0eFA/IB6Hg8Ot85HwwyfJzs31/C/TAbNGIORoSIEP6obodZ/JQ9cdTMBgEBK/TJLpYxxcjTnf5j995yV7/YK/baMOTtAN0sb/6m79pn3zycZsnCbjvjDqgZJTknYquhA8eU5eseGtqbLQjakuHjxyzvQLf48eOWaNGlh0d7TYokJ+qMB946EH7vKTezbdtVFtSeq9T2VxPSoPvNZGGklMm2fvvfmDf+Prf2ZYXX/bFGfABtqaL51bapx/cYJ99ZJOe6aFKGqk32Gyyv+uA37tOV9UQGd6HcTgAVbEAtMEiIQFcNrpOTKui30ipEvK1EmEB6Kw+Q6/789d32Cvv7rGe3t7QYN0PjWYYdJl4mingWiuJcYkgrVTAhfVtaG7DRCpdwk2Se1ZPzgh4edalQAHbDjk1N2sfPOcTWABxcOesU88AZ+KNDiItpGMk8T6WTABrwDSkt1BpLNIVKbVKaafjKNZvJtDQ7yKdA0hIxjEeaLjURyf8km/8kf69gwP25mCvAzB54z1pIV1UIVf0sKhwls6vtAc3r7RNqxb4EUscKYVKKqT8+pCXj/6ksNNFKfAHGyMN2IHj9fZv/upZt3aJm8LzfvacOfZ7f/gHdtudt/sKUdcBw7N6H+opjPz6ent89Hji+Ek7cOCg7dj+oZ0Q6DY1NjkgEw+WE9yzjeTnvvgF++Snn/SjlWLH9VGjtNrhaskrXEMkMRK9Ows3jh095suOWXABK7DFHmdvMaFSIIkGpgYoGeahZ3MznQRQkRTCTHJY1MDQD10bhutBPxeex13FRqoTvOGMNykCGBvTOBY+/Pz1D30JNFIK5EWQEI8ArNUakj8+Kcs2a4heOWmqg1uGHKoFdJ7RIUECbAzdc+Xy5AoFVcVypQI/9KtzFNYihbFc19UC88X6cq6el8vlD052STRTYdCIATKafADWYYrNkivviBegLVc8CxUencSdSus9kzNsja7zFF+p3uXIUYuEGdUgEGFFdymK8eJU+z4xR9q7lFo6FaT980gfUK8UbE1di9U0CLJ1H80NhzwN/R1fIszLBV6I1MOzmBa++sF+e3fHQTcxdLWCXrKEHtveBx+83yoqKiS9M1HNu1Aqg+fOGEd+NUiq3b//oD33y+d8/xVOnzl6+LBvh+r7P4vvsWenLPr7++3+Bx+w+x+4z+ZIkvYl+1eS6AlEafC9WlKFU+VIbtk52c5ENdU1dnD/Ad/7AUDlKBlMryrLi23+zFI1rPOZhOEkR7tgL+lAy+SbrgBvxrTpbgGBtEt7TG1usO5IGk/2i6CKidvuw7X2w5c+sJfe3uXLnx0cRNEPBIjMFrw+KND9xOQsWyhAgwAsXJQ6Ux3PcADbSJcKdAAgYA3QMvyvdECeZusFlhvlFgrQkFSRXrP4QIF36I+rMPQTB/CjdwZYV0+ebndPyrSHlM57J2faSqWV75koi9J5TDfpJMhUd6UUvyEsqEKpmaV0oO9uVizNKgXSl0pgCWDD8mc2769v7vB5g5ll6p700gVgVUDqiOdGE/VP7IDf0epGX82G+SQ9MwBLGnNycuxXf/PXbfGyJTY9I9OlepKcM5UTxvvsZE2tvfX2u/aD73zX/ua//ZV9+MFWa25SicgfW7D6mXVJ2bAqkYm3srIy+/QzT9madaslSWd6/DezHK6F0uB7LeRMNugr3ti4vbm5RT34AWeY2HBhpB5JA9hzIsVG8JqoRKOik8C06ISkr+89944kmsO+eUyYKMHTeReXSB8XmAGGzPjH5/i+WjeSCDO6SABznoATMFssQF4mIJ2n6yw9Q3pFd7t88jSXbN0pfet0xRIhX+9QhxDXyLAvlo6rodTw6HAAeiRgVDIYGjbqKc+jH+/Y5DDxwvKFPS/Y6hKQYcMfVk46j7lHSF/xYbi7IeR8nzHVmls77b1dR31VGyo01/XqHcDIJjpPfeYZKykt8clDhA026dn+4Q77paTcH//wR/bS8y/YoYOHjNNVaE/w2HlgqiyG9hQAGauJByX5srWkT19O8PZ0MUqD73iQGIShEUOiAwLf0y2nvRUg/TILzObWc6rKrLwk36VaAHkidtYOvEoXO1hx7MtPtmx3q4am0+1D6eUEDG4DiExya4AHJUGu0hXgpSlEILneRBxIkIAoaQl2t0FvO1Nv5guIUVngZgpwS/QMO1wk6Wu3Abk6UvF5GaFyKVQ6UYHwDGsIRhDxPRTLnPkBhvYNze3WN3BWo6PpvokTO4gBTBGs+AsgU4/u+J248yjF/9UQYRME8R48Ue+b6Ow+eNJVaIDhwEC/FZeU2CeeeNzu2LzR1Q+1tafsw60f2quvvGovvvCivfv2O3bk0CFrbW11/65GU3j8O4/00/XgAu/Kqkr74le/YouXLrHMzKwAvklePoqUBt9rJCqfnj4zA2lk0Jns2JGj3gjoxVn+yf6xMODCWeW+h66zywTlGc7xwlTo9W0H7VkNJRta2oaGi7RiLoArs/9LBGrYuq6VNIluF6Kh38isER/pwUHogAHhYkmNSJdl6hDy5ABcKKoTbnQ6IyXF6FdUKWUOwFM8XT0q+ziJSGm6P3kMw/hBr4um052+0Q5mYQW57JuQeFRY7lcgxqiFKyMYeDBMyhIWseICOVAn98M0/N69jyCPT1+h62V3t3d3HrE3BL6tbZ0+l4ERJddFixfb409+0gF539799vrrb9orL71sb7z6mh3cv9/VC0jKvocK0uuFCXEizezPwcTaps232VNPfco3UfdJu9ES+BGiWw58hxUC40jiSHRxQWoMm7f39PY4Qzk4C7xOt3f6YZ1sg8heu0H6nTjMQ0OkEdCgtu49bt/+xdt2vLbB3zH8DY0uEKkGeNHx3i7gRf6Kr290jogv1Y3U1wJk6JHj71R3syjGTZooOyYm6Sh43qrOGp31eenTjwCqk93Er7q+xfcEYQl6T184lQKLg3jOm4Nu8ulQtQ3dDMfPdWQ88Um4TfloBCF1H6pusJfe3W0f7j3mv0ljf1+flZaV2co1q23uvPn27nvv2w9/8APb8tJLdkijQszFkI45g43JNDr21LRdQEoIuZkzZ6499cwztnz5YsUzLXzyEQffW8bUjGqiruhkw+qh8Hz8KhAmGrSWlhb7f/2v/9x2bN/uG4pgJsZzhosP37HKPvfobbZxxTw/Ugb92EQi0vPOrsP2vefftS3v7vEJt5CtYTDo1YNlkiMfE/DeNjnTOAgJsIMmUlMYqt7kOpGJtCKZt6kkPxzst1+c67YDug+LUEaQMkR9CMEsOzvTZlaU+naaRbmZvi1nbpYkYv1mwQ0rG9G9ZmawkjLLDybN0n3W9LBfSE52UIH5oh+FyT7ISNgQz+P9ECU/XWjQ/68/+6b9dMtWO3qy3q1xeNjb02tVM6vcxKxXQLzzwx0E5ruauemkviUYz8OI4EcSUjvScaEkXex6f/+P/7Fl52bz5pLffhTo4w++yp4P/8+d9aN52ACnQEMY172KEeh4XQrF77UAseJB8u3v67Vf/vw5n73FOHz69Oneu6O3q6ootqcf2mSfun+9Fedn+/ARRr6GWMeF4ADOSdtxsMZ+8spW2/LeXt/HNlpn8BcJEkaZKTh4YnK2rUt0vB9v5rmxRFlihnZ8cMC2WJ/tOjcgQBZw6Tl1MFTWCcPAOWFHL3Wc4iM344Kf5HxZcHaW702cKSkzl+OifDVkAsC+xDhDo7Dg2GmMM9oAbILPEj9wqCqTZKkIQRT8rGtut7/64au2XVKvn7iS8AqgGhYAcQJ1OCAzvEn+hosHEkcodDDxcSohGQPmt991p33pK1+y+x+8X6UBeI/m+6NHtwb4qq5giq7uLnv7zbetp7PTqqqqbMHiRVZUXCzGDUygEZv7iwx8peRfDJ616uoa+/N//6f2zptvWVdXlzOjhysfd65bYp99ZLPdsWZhAF++uUlEmhz8lYjmti777nOSeAW8NfXNQ42O9JFyGgiTQ4+6xJvhy4VvZto/bhS4IxAr4E4ImlgRt1OS8KnBM646AYTx55RUDHXo/4bu1VEm9eqrHwFCSclcp4rRqVccKgLfjxezRsAXu3KBL6aOBJ05bYqDtHfASeKcH5Kfza1dvjd1c2uHfqUQ711qFkzKM4cTOPExF7kwUhp0m2scHTsjquBDpDD4FtNGDjR4+rPP2Ge/+DmXqM+cSRLxMaBbQ+3gzCim7u+1F375om/KwaTA8lWrbNmypTZ79kzLyy9wKRWmpEB8JpVvr7Ci6ZdZcsx5cWwCsn/vPj+KCGbr6wvS7yN3rravfvIuP5UigPKNpxgruUMF8vK7e+37z79rR6rrkwk2wFdXvccvwLtR0u6TknpZCAEY02iurHTSdDGKdRIkwUl20gZsq8B367k+Oyb4BYAp79Qyp56GHgzd8jeoDYSBXo9+P+QCQHMPv7s+GccWo7pCSNEj91VO5VTUAbgLVBOi1DQ5L3FNHPeoU9jfA/tq1C1H1bmwAjBS/L6nu8fuvOdu+8KXvmD33n+vTZYEH6JLAv+I0y0z4eaVLkmgsLDQdu/cZW++/oa99/Y7dvLECRtgiztVaoaGajhxXajeISa6zMp2zhi0TAE7J7Oy6OLo4aMByPQPxmaPB870mjuz1GaUFATJ4mZQ0vBoQMdqm+ybP3vLDgt4OVnXJ0L0npQhpbDMFhvaJyZl+yot/1zuJqX8Y0uUJy5wESsGw1LnbEmup4WiqCB4DqX6g+3OdwFgPTzxF87BVfXqJ5SIP1lhiWNjHVQWHt65sAm776onvvATjFMcv6Nj0YN/FP5cSIp/KLEJwTnYV8/RHfMFqK4yFDfLrvuCF+944skf2PV+4pOP25133malGqH2n0UoCJ3Dx4FuDfB18AtUmpfjwFhXV++r0epOnbI3X33N9u/bZ/UNDTagDriwqNCKswU5Ylrvj+PHgPHFKHl/Tt/l5+X5KcS1tbVWc7LapWomHJjcYAkmp+muXTrHN6S+VLDjSTRKMsSFBlnf0mHPvrrd92wAiHlG443EngvYyT48KcuX+LJiDLqBSb7liLLFwXt0fCy1njd5qrUJgOv1lKXJcSUgV/yFrjJKzSn1Q1Ve4ILU6/XMb5F/I0acJIBGIMD5svcxXBAahmIZovg0viF9bCfK0nNswbEJf3hyli96YXXfq4lUHxe8MHFCus6JF9esX2tPf/YztmDxErWpFIHoY0K3juRLpckxyZZXUOCTb/UCXnbEZyeyjvYOO3rkqO3ds8cOHzosIG60SZIQOIOKrfXihAKMO0SjMQJxSHrIZHZXP9s7OuzA/oPnMTkgh0kXJwxXlBZYVsa067JMMiQ1kYIUdhhKhmEm+wc3t3X4qco/fOF9dQa9yiPpC2ngL41mgYD3nsSWN9HeJT7SdCOIKmRBCLbLbFjEyGOu3Gw5dl5jH4xciYrYN1MvwU4YoYFrAObRHOEC2AlbDl25cQuzxHE/loMiL/ATR7x0CiGOsKx7k3jnAYHuXeKjpQJgVh82D5619wf7bYe6czp0l2fFn4gF8GB+Qb49/czTtmnDOsvPzwvtQ3z7caJbzs4XIGJ2l81w2J2LbSAhdmLihNX29jaBcp2dlLSK2qCxsdF65Y+16YA0e43CAs5sCsyZbxTQBOyYyGBbvWPHjttpgTyMBfChJ2OZJVLw3MpS3zglSpzXAsDeHvSHeLgHbBlmArgQw0lOBOZ04X3H6uyN7QfsjQ/22ZGT9YkkI/JAwoWFE3er0axPGgwN6upTl6ZrIbpyNh/CHpjl1CyRBoTZsJ2VfOxxwZ4XbES0UFeG9gB1BGi+BcCZ4CKs6MLuCbHLDRTBmStbfyK9jubghoRdvE1gbMYmSkWKi7StmTxdwIvL8OXfpCPEb7ZHXTvge0IhxYlEeJ/2QrthkQZbRs6onGGTsZzQu/EWTm423XpbSiq7dKCYnG19f6v95V/8Z9u3e49XLLpOVtOwKTrcmJWVbRUzKpwRVq5ebctXrbAq/UZvzCQagBlMX0QjGSOJp6a62n78w5/Y977xLevu7vZw+YBvMPX5lU/fYw/fvtIqy4qCvjWC4BWQx081kgdFgATLT8CdEzF6+/qttb3LN2ipa2y1U00tdvyUXE2jNTSfliSuXBAvQSgoGh2NCdB9clK2N3AaaRp8bx5Rx9RJGH0MS7Y8RzXEld88j3sjsw+yX+XYirMv+Y05GzrWPl2RUvGP43ssLXjHPeFihcD+E3D5yLpnjwomzEgT6zZZuk2HzepCVCVstlSq31Eqj2ns0d+fnuvx7TUbdM82TDynDdL+ANwnn/60/fpv/KofD+ST3x8z4IVuPfAVIWFOVV02NtTbc798wf7qP/8X6+zq9HcuBaiiYWc/ilvMwH22gHithkDsyr969SpbMH+uFWtoNDgtExHTvzwPgBUH4Mt+D8eOHLN//S//lR06cMj6JV0D8lC37m9box7+sdvsng1LnTuvlse8+TFT4d+rAfWf8U1Papva7FRDix9Tw56rh46dsi51PHh0kyNFGFca8SnMQOrYVPxXJufYSjUNGhaN9CqTlqZxopENlfqIdTJ8n/r3QuI5QIdKiT2Faf6AMeAcNrjnRJEAyoAu+yoDzFAMk1/cYwGDJIu+lok0VAxF4huWniNVh6+CGiJ+w3W/JN5vD3bb4UFSkTz3P2HznPUbN9rX/vD3bfHihRIKGHHFmD9edEuCL5UMyDHEaayvt//r//w39t5b7wqAu3yDHHbLh7y3TeodwO6XBMk2dwsXLbKNmzfb+k0bbNPmTVaYlyvEmmwSIN2fk6OoAFh/+3q67Dvf/p596+++YadqT7n6gjjwiXnPo3etFgDfbsvmV7k5GjQShIcqKQmftOGCaiFMgqBSONHQ6tYLR08IaE/U2eHqRqtrOO2rjbBnZqabwDmuxYOKyU0cDY5h44OTMu1TknppXGn66NAQn1yEYo0GESBQkE15NyzhuiDi1wspsk6QuQOgcxev4en533IPsH/jbKe9JxmbiUMsIPDLYpEejQwXLV5kT332Gfvqr/0KDyO7fyzpltP5Ogl8qFQEVpZFZufk+kmoLA3G3Oa8IU4KJ2GozruO9nZfvbZvz17fJKS1rcOmCrTzcnPdfAdAhCmRJvl2ip4VFhX7qavszA+TsdEO0XC4JmY87NK/bF6Vm8NBkekA85DWIKm64TyG6/rNyrwmxb3veJ29ueOo/fL17b61HxudbNtz1I6drLeOTg3yBs8FKTfOGEMKk/voIIacDBGxbmBfXkydIJIy9F2aJjSl1ulYLhL1Gh2gmQqgcdKM60hdL47nqS5+Gyk1Lp7D1agwOMXjhcFeN5uL5O1NTE6buO3OO+zRTzxqVTNm+CSbN5KPKd2a4CsKfboKQBJrcXGhNTU1WV1dnbW1tvo69PM4KSG3mdQ/VBG9vT3W3tZmdZJkMSerPlHtx8ejZ50uyZZDEAFKeAceys/P9WWY9XX1/g2b1XgS5Dimh01RSgvzrLK00L8hetLmBxxOCxIAS5Q5K+tUU6vtPlpr7+w47Fs+ct2655jtPnTCquuafdVRV3evT7BBxBXTTpRR4gmNi+FmeI6Ui3XDbZPCqQ4Q6eBdmj6+lMrq3Mff8T4Ca6qD4jWVxuIVeK5ZQsDrAl4m2wBw/MYRHJPa8xfMtwcfecg23bbZJ8RdAEmD78eQQs37TW52lg97mhqbraam2sH1POk3UsJtviJI/pFukWI5Nv7E8RO+YKOpqdk6Ojp9TTuTZxwjxDJOjm3nxIs2AXbtyRr56XBdKxItpmc9vWHxxaI5FX5EN8ALILP6rL2z23eyOni83nYcOGnv7z5s7+w8Ym9/eNB2HThhx2oarKmlzRdweNr1z+0xFQb3bkWhtJN8XNBiM9Md9pUNJ0RM8Z3KNkya7vaYHH8eoDsUVZo+vhRawfi4kQS/AbyMqg4LdF9yqTc0JBcCknaGCvDu++71E4nnzp0jwQHVoN6N1g4/JnTrgm8kVS49O2f/o9NlXwYO8kM3GuTB0cnhS99OnRL2Iz1z5ow1Nze7KoItJRvq613SZQIhJyNsgVdUVKhwp1lrW6sdPngoWBiIiIctAeub26yipNDKi/McMGsbW23fsVO2TVLtm9sO2svv7bVX5N7beUgSbpN1dvUIbMN0BEDLZiqkxUkRuuQwgsLbsPk4R9pgnsTiCZYO3z05w5YnwMvkC+F+fFk/TTeCYEEm5NifAtOybYLhyFe0H/gc4OUoeA7EXLt2jU9u+xYOkZc/pnRrTriNIPS8nEJcU1NjP//ZL+0v//w/Otc4cziKJR5HEAx03is98G/ODQp4ey2vIN8WLlxo69avt9vvvtvWrlxmnMv25lvv2L/7t//eT2cFLN32V98Q1oLZM2zt0rliyrN2vLbJqhtafaMbE8iixkANEZnSdcopFIEyPuUaVQtcWS3FCQ9LJ0/zY92r5Fi+ig0v2l0m2+IQM4aVpjRdLUU+hFvfGeyzn53rdpUDfOiktoJ9PXT/Aw/YP/zt37JFS5fa2UGJIx9z4IXS4JvQJBXD2TP9Lrn+7d983ba89LIjEMA4EuSgAGyDAi1sa8NvXARsH+rrHsk4MyvT5sybZ4sXLbJ1G9ZZcVmZ7fhwh/3dX/+NdXd1uz+I7zOnT/NJO/S1nIDBw8igLomnoGLqKqMAsgFoUTYApjhUCnMFuBjmz9AbdiPj9AQM7jGKj+mHkuDSlKZrpshLzCNUS+p9brDHtgz2+qRbbC8QvF9cXGy//8f/N7vjztutoLAQOYMXwcPHmNLgmxBgiSlWR3ubvf/e+/YXf/offYEE6oRwksP5xQQDYWAOMwF6/A62ASL4BhDWNwypfNXO9AzLzc+zWbNn28zZsxyUX37hRdcZR6COFDe35hnqBHTHw9HreXIfwZafgCiMjlSBqVi5UlSRAK0f1qj7PL1jCEi6Y2x8C69H+vizfJpuFMFLcOerAt2XzvXaQTvj8wxOeslcR0FBod159532j37vd6ysQhw7lX2Abw0uTINvJErBZ6XOWUdrq/33v/5be+4Xv3TdLaZdqeDLHSDHkB1ixymM0ZnB5V2UJOEhAJR/TISxoTvvOfyPzXtaT5/2PUtTydku+Q4i2pFxx19IrgBplvwiyVYkgMuS0hlcAVzdw/Cp0i1g68JF4tKUpvEkeCzyVoNaxXfOdfsJHRwSSotx/tVLRpSsHv313/p79uBD99mUaWyxyrtbgyuHcOKWJ5hBFc8gvLAg3x574jFbtGSxL4gAOCPBFvAHUjIgd/+kTN+hiaE9ZwCcV6DyCIMh+WLZwOQbE3kD/X1ubnZmAC3r+UTYpMOPcZFLBV7iJnymApFy0d9uUNyPTMqyT8t9ZnK2fW5yjj02KdtW6zmr1KIROzmI9pkQ4dwaLJ6mG03wFQ5+OzR4xnct6xQXRuBFsGD1aE5Oji1cvMg23rZJbYNFxv4yXG8BSoNvCsEUDHk4PWvF0iX2yMMP2YKFCzQ8GnDwhGAe7roEinvPDfiSSjYY/43JufbU5CxbOXmankwyFk5GSdjZCSCV4wF7knKAYPLGiTvCjaDIdwAl4WCmwxVwZ4OSxxXP31N8vzElx74qsH1mUo46gSybZ9PF4EEVwpJQviecSIQ7HOOtQ5QB5UrjT1lmkqbrSIysWLb81rlePxQ0tJ5AtCX2VuGct9vvusNKi4skZIS2dytR2tRsJDlChdlWtp7s7Oi06pPV1t7W7kuLo7aUBg0gwlizJGHOESgyqTVP1/n6zSbRvGcjE64YhNH4Pfjke66RKWFW/IVNTNDLsqvYJKvUV5iC3S1J9r7Jmb4AYoXHMU3AH6TtCNQjdbchpWlCNXNi8KwdUXfIfgblqifKK10+40/wInwO3+8aHLA3Bvtc6oUQajGvZB4lLy/f7rz3bj+XrbS02Hw1W/R0i1AafMcghvwcOoi1A3vyHj18xCVjB9/w31nqtBoz+l8mtKoEuuhewyTXVNe5Fug32+Gh7QVYUxt9lGwJZ2hzEn07X9+y0GHD5AxXK6zUPeZhAHyJpGZ2jsJ/BG6+T1jXw47hpymUC2W1TWOB9wQE7KJFPVGG8X26vMaXKM96dXZMtB1Shzc0v+Doa75169Lly+zBBx+wdevW2CS2jOTFLQS8UBp8xyBUrVga5OZmOwAfOXrElx47jzgrBamV4T07QbGTE1YFXNHHljsYT/VJOQCY7fdYUwEjAsSE4BNlWCbIDxIzeyoAumvl2AsV0GU7RwAZsAhyd5B0CScCR6pL0/lEmaC2eVPAu22w38GX0UI8PyxdZuNH8CRzDOyQtk9iBeCL1Ou8mRQ0cxis+Hzg4Yfs7nvvssrKSj895law6x1JafAdg3xSQNJvVlaWS8Dsq7Bvzz47qyGT9+D4kUO/C4Od0w9AdmYypIURadzohFlFxubXZQJkhmRIu2xgs3TyVAfajZJu2XB6syRdTozALxI0+knCiQ6wHQm4aRqdKCeaM/VTLemLk4BPutph0BpVQ3Roher46Chjmabp2ohyRF12cpDy7rdd4vRh0zKVs4CXyeeZs2f7icTLV620qdOn+94nsU3dSnTrdTdXQA7AupZUVNjjT37SVqwWs0yb5jordFexgUPs1vS2evoGNWwYDlbiW1QNHJNSrqd3CVi/MDnHfmtKnv3Dybn2lUm59vSkbLeYWCqAzlFoTJYhOcTVZlAE2ujSdGmibigtOjvqpkb1wgQodVOnkv3xuW47NDjgHWHs5NJ09UR5R10v1g2xbKFUnmWiecOGDbZ4/jzLZRkxezjcglIvlAbfi5H31qgfptiMijL7wpe+aIuXLHYGiqveaLQUIqDJhM5rgz0uXfE2FTBRNSARI9HOl3yANMyhgkhmgDNgO/IbXJqunGI5sgLxtEr9iICgc/DcEMBSX6f0/BV1lnv0jroBONJ0dRRaQjCBpKPboTKlfONksDssHjTSKCkptfsfecSKJNCcE+jeihJvpDT4XooAYDHRtOmZtnHjervr7rusambVkPSbSiy2eE/Drd1ySAAUbgQCrhGokb5gVIB3iDnlIPzeuuw4fgSYAqo1AgMAAd18an0gBe8XSLDnwAF1fekyvzqiPClXyrtZJb5VogTlHax2AvkIErve3BzbsHGjLVm6yLKys13dQPu6VSkNvpdFAYALi4rsznvusjXr1jojnT0Ttp4cFP9QkDTo6sGz9pYkKho9Ez2pDR7HPRJw1AvH57g0jR9RnqyoOqxaQQqjvGNd4AALRii7VEtvCYBRS/Acitc0XZwop8jTmPB9oHLcKcGD0Qbl6+9deBk0DnKtmjnT7nngPisqKjA29ncPtzClwfdyKEFGtrlbumK53X3fPbZM1/5+SUySfqMFQgTQrWJATJuY2BmtgPEXXZrGn2JHSPmzixZS78h2zm9GIGzwvVWg8Zo6zHZXVIR6Gek/TaMTZcXSepYP//Jcj28dGYUK/tA+EFI4yWXVmtVho3RfzaYSvsUbQBp8L5fUg7N37rQpU2ytJN9HPvGolVeUOWOF18OcRGN/51yfMySMGaWAdIO+/hTBs1flzuhj77l+L3+ejVb+vENd9IKA46XBHrfbTjeKsYkyBFy5YikCf9N5ff9cl48ehkYYAK/aBA4V3eKlS+z+B+630sJ8X1DBXMqtTmk+uwJiwoDZ2cKCAtu4fp09/ukn/Qh59gNO5SZMzBrFlNsFvjsH0X6Fxp+mG0Po0rHnZQIU3ftYFN8EsB60V9VhMnRu1rfo5NP4MEyURZRoWbRCp4VJ2csaMXAmG/weeRy/0YK6u6vLF1Tc+8C9tnzVChvQS5bXI8zc6pQG3ysh8Qur1SZPmWaVM2faw488bGsFwlnZWb4NZJR++QujHh88a++rMR/1QXB4nm7Q15coY0yc2EOWiZ/w5HzC3jR1w6JITZLb3hCQUGdNqrM4YrlVibxHB1AgVHDfJL5mwQp79L6pDuukfg+pGriqHVC+jApLS8vsgYcetA2bNlpefn6YZEuTUxp8r5BgLPr4jKwcW7psiT32ycdt9ty5vlsZpwQ748kfDZchGTPqb7O5iO55fiEUpGk8CT1ui0D0uIC3TqAwGoNzvh2rFkcjAPtNATB6e+ov+vo4YwZ5G5k/+JS8R8fkMZ3TAfEzHRTAy8QyC1c4cgo/zt8J8BJAfkG+3Xv/fXL32uzZsx14PZ5ESLnVKfJWmq6ExDsw0bSMTHvw4Yds8+23WWl5ma/eca5NeIsLoMvS1j1qzOzyxDNnwDSNK1GmOBZMHBOAHhckoEqIDE57Z9qNY5xKi/OtuDDXl7nyDYAB4Ze7g/qegx53C3KGbSA+3hRKIFC8R5rFBp1FP3RmgO4PB7vtR3KoZ9r1nDKLwBs/BHzz8vJs46ZN9oWvfMkWLVrotvGsGI1lnSbxanp58VUSvbtcVsY09fCFdvp0qx0/ctSHWizKiARTondskRTGhi5hj92woirNhuNLlCeKhjcEu7ttwCVXhspQkMYm2bzZFfb5T9xhs2eU2Mm6Zmvv6nZJOKBHCINbzNROqc4qVZdFghfCYTLpo1xnSRb9Cv9BAGfclD/quckngkKtSpMRwHPnuv0IIFQN1XpLGaP3jWXFDVYNnOjd29Nr+fn5dtc9d9vf+x/+gS1eNN/VdH6mdhp4z6M0+F4tJYxEo87Py3G1Q0dnlx09csSZ0DlTxAXHcdkMz9j/gY10IBg3zY7XTrEcARKWtTLSADh56uWrukInn5OVYasXzbanHtxgi+dUCHh7rfF0u+qt209+Bp/duxy3AHC9YINViYWqM47Z/6h1muQjulhGACeWCkxMMjpAgsUsD+kW07z3rM+26A3bQe5TeZ7UuzblHNDl+5h/D1Nli2PUB/DOnjPbHnniMfvUU5+yJZJ4J02eaoO3+Eq2sSgNvtdCzlCDNnX6NMvVMGvKlKl+7hvHA8GZkeH4C+NiiA7Dc6glS4uh2CjSdG1EGTLR9q5AY4fuWEAxNP7QyzMCh5kVJXbH2sVyixyIc7IyjXPEmls7raOrZ2jD/EjAN2ojRi4sleVsPK4TEYDhIyg1XdyTI1QxcQQA2JIntnxkIpjdx1gYEWzT+22/frMwhcVCTfIX9xmJfOoOvpbjyuGurF6bPn26rVi10j7xycd9go1l+NMzM4dXsSVtIU3DlAbfcSD4Kzsn23Jzc/1MtmNHjlpff18y1A1+AAK2nuyaFPRkbDdJQ+Z1ZOw0XTlRdpQngIi5E6ZPNQIOAIPnvEekZYXV2uXz7f7bltvsGcWufywryre8nCwbEACfamz1neuokYgTXND5tihcbLfZt5m9muNpGDer3jxPCcX4ySv3qY60A7bsukceGA1EwMUGfbuue3XlN/vuolLAzhnApTxjmKyiB2hx2O+SAPTnTDBnZGRYWUW5L6B44slP2v0PPmDz5s2TQJIhYNZ3TGymgXdUSoPvtRIMKWaEQXOys61ixgw7eeKkNTU2Wm9fb5hVT1oLzMwQj5VUfkqFABg9W5o1r40o126VKXreV871OlCmlulZVVBxYb7dv3GZ3SXJl04R3Tz1Vpif7QBcJ/Ctrm9xnKDOeAcBtEjUSIEMvdmKMm6IBN3oukuS5RTj5hrvGWGRf59nUHpRJVAu7+op22qit0XS5dkJ+UYdRkeFlQiqiLDnSBKe/oTRG6CrmLnVhfKbpFEC+zMsXLTQHnz4Yfv8l79od95xu5/+Qukj8YZv0zQWpU8vHi+CIcV2584O2I4du+0///lf2I7tH6qRn7EpkroYmiW868xNA+awy/WTMhyIoz4tTZdPlCVlihHfYUHI9we7bde5lEUtSdvv6x+wDSsX2hP3rLWVC6us6XSH64A7u/uto3fA6prbbffB47Zn/wmFxIy8V6eDDBTiCBNTswRPn5ySZWsEVfl6g2qCuhueYh0/ig2Ta8wr8QCUUfoGaHGYgqHWYh+LEwJcLD4aJOki9SL9Is0Gy42wQIIwCCGGDcWrL5lXIUTwpKPq6+sTD5919UJ+YaFVzay0Bx5+xO64605bsGCeZWVMVycHSIdvvBDTdFFKg+94krfYczbQ22PPP/+S/fiHP7IPt27zybjwOkhkFDjXOWoCn5qshjxpuuWpSSBhpVn28iiWIZLaMZUcs/EvSeqNe8imEoCal50lKTfHMjOmuZqBumKZK7rggYFzAuh+6+rpsTOMlRUEwIMVRNw6NBK604pJk+2OSZm2TvU2W/WWoW4TAIx0LXWYGhvhAJQALR0zHQASPpYIHOCKJF4P4ApomTBDZcAkIWDbo/eUBd9AI8M9L40ApVzES8CWJcGo0JhIyy/Is5KyUqusrLJ5Cxb4viaLFs638ooKB+LpGRlDEfglDbyXRWnwHW9ScU5VSzlVV2fP//J5+9lPnrXDBw744ZvO8npPiVPosCgnWXA4JodkMqtOY4nv0nQhRWaNo4Q6gQ7G/lg4oOsdkkCTAvSj+/lK/8952QcXyetCDu8ZmdN9Em6yJL/+gQHr7u61aeo4z/Mvh1+OIWID/FWCY/ZmLlLMSMa8j4AXafjr82lkHfMbJRR5435AISGxdih+JFgkW3YMa1Y+0W+jVuA9exUDuki/wcZjmEKYcv4wvgk86He6wZ1VGIOMzuQxNy9XgFtg+fkFVliElDvT5s2ba3NmVdmMGTOsWK5A771zUpiENVRGaeC9bEqD73iTihP2Q9V75PARB+AffOe71tra6ozNPxgVP5iecZwQZ7fdKQDmCCFUEB6MXJqNh2lkeVB2AC+HYr4/2O/7DJxHiWf248jQkDgMoyVFCjCmT5UsqR+c0TdVv6ept2TBRV5ejpUW5bupYH3jadu5/1iYhGMYrrBoKX6VI7ZchTFHoLvCpjsQc4hqPvHJVwTQVIq/RzY4fuOQVJGgkVz7FBmSLavKGgSMQ5Kt7uO8AcBLl47+mfiG4hz+M0SCWOc7B0kic16kPKb48ni2SM3OxmVbReUMq5o1y2ZWCWwryq2sPLgC+WGRCoqdszHRFGqarorS4Hs9SEWK/hcJCgD+27/5ur30y+fcAiKCL0RjoRHDvvMmTbXHJmX5eW7MqvPMeVsuTeeXBRIeCwBelMTLjlqtKk8k3qEyEyAwEz992jQrKy6wubNmOOjyHBOzksIcn1TLmj7VCnIyrSgvywrysy0nO9Oy2ShJ4R04dsq+99w7tmP/CQ+Lb6Gohoh1hx6V+popGASAcbMTm+C4eAG1AenjG75GMsbxLYBLOD160qJ46FDYHazhnCRcXQHaoGoIki1qFhxhx/BCinRVEp1zYkFBehmAV1eFD02dOs0yJeFnZmRaXn6ezZ03z5YsW2rzFy60SgEvi4by8nNdVZPNsnl9Q2dwRnkn/96RIV2k6ZooDb7XiWjAWEAw4VZXe8r+4s/+o731xpvW3t7mSy1jI6adwNywcqH+fmJylqTgTElRQQVBwxwaSt9CROlExqRsMMsDqJAAd0nSffVcOJY8DrNx+EdKpWwp//mzK+yLT9xld69bHMpZzwBhB2L9pnOcKhDhd7TxjfXS3dtvB46fsm/+/G3buueodXX3+EIMB3YX+0KcUARSFi9ky2HHXSkAZnIOaZh6zeMd38pvVBOgRiA/tXLY3bYpfVgpUOcALeoSUho7lpjHSPE+gKFc0kGgpx0YGLD+/n47e/as0j3NV52hTmBf3ZmzZ9ripUtt0ZLFNnfuXCsqLrJMdToZ06bYNJUHk2asSKMoUEVAhO8pSOJI07VTGnyvJ6lokYDPnB2QBHzUvvONb9ubr71uTY0NNm369KGGHonmj+5w4+TptmnSdFsk+Qa1RJxE+rizfWppUBZBSx5WYdUJko642VS/HRwccCmR4W9qmQA+SHlnBY6L51XaY3etsSfuXWt5ORmGpVQMn2+4Px9H+FZEc9BzLmyWf/xUs73w9i57c/tBO1Hb6N+G1XBBmoxh+bcifgOW0xQ46ocg+YZnSMD4A6gjYJMHgLZfgdGRQDGsSISJc4o3KYlnS9M4QXZGEnNWZpYVlxQLVIt1LfGJsVlzZvvmNhVlpVZYkG9ZuTmWlZNtGfI7ReDsAE6GiFxBc4k/oQjsaRo/SoPv9SYVL3xLA8Hy4RfP/txeFwA3NgiAJQG7F1g8YXRcsSSnJWq26zSEXS4QLvFmGyj6gT4KzSGmNZViulPTP/ws3LEZuus8BbL1At4Dcuh1o/kUFGRVfZN8DCdjwQDwPnzHKrt/8zKbXcGCCkFdkpDR0jNWGgEcvj1a02jv7T5q7+44ZHuP1FhXV6+/Q3L2qFPi92uKizQyjuQTp3jvcYbbIQp5C52KS/T8U0Q4AuU3etqCgkKfHCssLPJNniqrKn1yrLysxIqRevUur7DQsrOyhzYU8gUTHrbuh/4kFAs1TdeN0uB7I0hFzKjtnIaC27d9aD//2c/tlZdets7OTudxmjCNiP+wPNIQekTMmNYLfFdIEp6h+xw9izDsbcXvwjc3i8ZintQ0jZa+4e885z7UjvaomFEx0VTtgHvWpV62h+yRHwA3dFn6UgHHsgOMpk6ZajPKi+3J+9bavRuX2pwZJW46drXlQ5gOsKqkptZO23Ww2l7fut/2CYCb2zqtt7c/ADvpkJ9R4xmrgEbQBd5G5C08Uv0LODOyMn01JS47J8dKy8r8UNdZs2ZZVeUMK5G0myewRdWQk5np5XVG4SFZozFJgiMKEu73abrxlAbfG0Q00qlqyOc0PNy/b7994+++aW+8+pr19PQM8X9UQwAwgBE6v2z9Wjx5qt2pQewSScLFgl+Gs1DQxgW6UU2IFBLXpZgGPzFNqWkDAFCj4NiukBO/6GzaXMI96/vDntTQGV1omGxiOB72VqBciNfjVqBxKMyogln4qvIS+/SDm+zBzUutpDDXj32Cor+roQh8LE9mYUZ9c7u9u+uovbX9gB06UWenBcL9/WcMlbHHo//+hf4Q61W1LoJJ0gzfcJ+ZleVgioQL0C5YtNAWLl7kG9nwDBDOzsywLJUD5USZ0rRRwcBXnjQmya6hLNI0vpQG3xtILkmJ95mEa6ivt29/81v2/C+e8/tpktqmTJ3qEyRQbCLABxWE1Is9KZIwNsGAMGZp+KOhAWb443f8Nl6vhiJTpDIH9zgaN2Gjx0w1cwouDGNRG6DLTF2BBZC2C2Q5pgdw5XpaQBvtVR0w5EJesGAIYUeKaQGMmABixVVf/1krKsixDSvmC3g32vrlc9TJBZ1s9HutRFiERlhM0KHaYDOebfuO25sC4b2HT1pbe5fvkoakPWWKJFT5w8zN03oFSRjO2zlJ1r2Wk5PtILv5jjts/caNNmfuHCsoLLDp06f5eYKYyhEB8r13NYBtSK2H5XQlCUjTDaM0+N5wCsWNBFxfU2MvvbTFXn7pJdu3Z49PmrglhHuTtKIb7nE0H2bTsSOtECQtnDTVZpuG2bpiGVEoqAIMaYBxQid+eyVEPMOOf8NgCxEHABnsUQUQuvq90tuXPGfGHjtUbFI7JgW7VFQJ2KkCwtjoArAMgelq+B1k1PPTG+OMV0AEYAGYBuRysqbbikVz7I41iwS+82xuZYmvYBtPjk4Fb0AY6ZdNebD/7WBLytZ2q65vtuM1TVZbf9q3qGzr7LGe3n4bGDjrizX45lJp8nj0H0mXiTNWRS4S6G664za7bfNmW7xogWVL8p2emWWTBbruX4HG1BG8R6E/XP15GnQnNKXB9yYRa4OEIlZbU2sffLDVJ+G269rW2uYtBzvUAH2hNVFJEaDQ4WHOhAkTumA2aa/QNV+/UVMgJefofdgoBbq8RogvVB2AISCKJIp9Z5Rc/bd8AK5Iqj0CV66pjncAsqsW9C3f9KsX4eBEwiEfEHFFB6WmMGBGeOJSpzvKAFOxKb4RTlVZoS1ZUGkbls+3ZfOqrKwoTyOHC5cDX4pS40qlGC9SLuoLB0XVF5It21ACqBDPe/sHrLO7z7elPC0JuKWt01okGZ+oFSifarL2jm4P5zxSlF6/+k+asSUmLGxvZ1RW2orVq2z9hnW2YuUKmzV7luVk57iOGwmXskjTR5/S4HuzSMWOac8UDTHb2tpsz5699sqLL9nW97e6JQRDThq/74qWNFBdwqdygCHExBygWyAUQfoFkEvkigTIubryfrr8AeWRMuQ3SJ3DYBjDBDQBT/YPQJrlinUBwMpzbFMDGFsCrgFgufozXYElJGRijGoJ7nkGxTiHaChpQbIN/0PaAChUNUiC+blZVlFaZAtmldvKhTMl9VZZZVmRZU6bOiSRur1rCGyIlMwLKIQdKIJ7XH4cgFBXOYCWvSDOnDvjwMsz9+8hQKSPibDJDtKAb11Tq9U2nLZDx+rsIHrhdoGv3iXe9T/ETBiu09U/Fj0UF5fYvPnz/FDWTbffZnPnzvZJNb5ggUOQjkfmLk0fVUqD780kb8QCFrWnwcGz1txy2l587gV79eUtdvDAAWtva/cG5wbuDgzedp3iNQ7buQJu2JUiGceVVVm65/SMOEkHFQnQ+xUW4AoA8wZVQtw4PKoBcNzzjvDxGzTSIf5hUB0G2Ogg8pbKXKn355E+cEyRB/ejiNlrAEuDzIzpViDQ5dy1VYvnStKdZ0vnVVhhXo4vCwYYHXQ9jBjzMHkakj/hEsrRf/GfMhAAnj2DZCt3FpANEi5gjJ8Iyv5DiSUWH5koPnT0LMjo6O51PfCxmkY7eLzOTp5qtt6+fuvrPxOk5PDpUBo9HUo3CWefBLZmvOPuu9yxjwLHU4HXbIdJDY2WtzR9tCkNvhOBkobtct+ZATty9IS9/tobtuXll23vrt3W1dXpBvHTpyHDCgyiFJVQarMMIQWHCgECGFN98Tu8Gb5CNHN+4xOIiV+MvF6MUsO7HAKE0J/2yUHM2LPHbmFethUX5PpZa8sXVtmC2RVWJMAFjOMKNe+Y+Eh/AjaNSKESE8BV+UKaleMesPYTGPyKNBvAkbSH9OM/lAV/iA/bWBZXoPbo6e2zVkm4SLSNLe12vLbJQfeEABc9MCBOHfmgxSfdQlqZgCPeHgE14F1aWmJLVyyz+x580DbfvtkqKytsGnWsd0F9kuQnDbwfS0qD70QhVYM3Ut329/VZe2urHT161N5/f5vt37PH9u3da01NTd4o2VPVgWe0RhlBg9vkeqU0MtQQzShxpVCQDAOlpstTc5GETJX0OqO00Mol2WK1gD4XM7HSwjwrEACzFwOTaNMxoXJpczi4EMvF0+U0VCbDgOr3o6QLFQIjDaRuv5fr6hHYdnQ74OKaWjvsVGOb1Te1WUtbl+9+xgRg/xm2YAyBDhWBfnoHIAn5rKRqTMbmL1hgS5ctsxWrVtgquRkVFZadX2BThxbdRLqMvKXpI0tp8J2AhASMdNrb02NN9fV2srrGdu3eY4cOHrLqEyes7lSddXV2uiQXgQQbzmDaRMOn0aY23Mup4hENnZ+AlsAkfB3AyuPkV8I2w0A7LCn7F3o/efIUB8yUF0PfRcJ+dmZFoSTcUl2LrcJBWOBblCcgznRTKiRTPhv6UuF58rg/P7gxaSiZKXReUvSDkQJWCt097O3bJ9cr1x8m0Vo7rVmgi2qBd/jp6et3qR3CtMz1zYoHAD4nCdfD15+MjExf7ssSX98Pd+kSmz9/nlVVVVmBnnPaNaXK2CdNtw6lwXcikqoEkELVO12teUBSU/Pp01Z9stoO7D8gKXi/nTpVay3NTdZ2utW6u7pcsuIb9JPDoAzohAbt0Hixti3/ATSHr0h//qXCQAokQTE8QBWzuAw2ZMnI8CtqEaS7Nknt7e3tvik3w2yfLCR67yDoWkREobQCWEi3Rfk5fqZaWTGgm2X5uZl+zUbynT7VMqYH6ZehPw7QhkjPxbIFhfgoF/NyAjABSFQdmIKxSALdbE9/v7V39lhbe7BaON3e6aoFwBb9bU/vgF8pEyR2VBGUEeHTQbj6QkTZoJ5g2W9Jaanvh8uiiJWrV9nChQutVIDL7mmUxwCdG3lIyjVNtw6lwXcCk0uJatA08Gk0cjXQgTPnBAY9dqq62nbv2mX79+6TNHzSAa9NgNfd3W09cv0CEojTxhx3adupDZxaT/0JMik+/0e8+s8+r5xSALj6rleZ3Atkp0/32fn8vDwrKi2xosIiK9Y1Lz/f+np77ZA6CDqJhoZ6a25sto6OTmJwQAqAHqKP8dC5RGsAQNV1q/IH+KJ+QB1RlJy1lpud6WANKCNtThcwT56SkpEUCk85YfecDfRzOsNZl1bbO1U+Kse2ji53qBQA27aOnmBGprS4SZm+o/NgOjHofXVVnBDpd/IsBLUC4EtZFRYW+mY2c+fNsU233W7LV6+0yspKpTnTJ0WxEvGVZ/rWyyMNvLckpcH3o0BeRThJSGqskyap4QocBiVlnhNYdEryPVlTZ8ePHbPGxkZrbmry4+u79Ly3u8eBuFuA3d/X68EFSqBJDZ+lubm5HH0v4MsQsApos7OyAqDm5fupBkVFhVZQVOQz8yxzzROQsAWh0EOBxCG3OgglkwUk7V09tn/fPtu1c5cd3L/fpfba2lqBcdMQSAHi4YSPQIAx3/u+s1xJY/if4FOUckNZZGRMc0uI6aRjFMIvYSDpItEi3QKUyX/98V9D95GiNE2eIkXJlDcALVs2+rlmygsbkc+ZM8eqZs202XPn2pKlS231mtVWVVGm8sywyepMBlVGgxjqutomCTcJM023JqXB9yNI3maTamMVHGqGgYF+6xfAnhXQnpEDcHsEOj0MqQW6SMTYDgcabvQBfKdJis13IASI2R8gk6G9nrPkebLcFN1Pjr9ZCu0AlQIeKbeAKBDT391lPR0ddrq1zU4JdAHgGrm6U6esvr7e6nVtVEeBPiDoTBMQ518EpqEr/2MkATTdvlagNvR4BPEYf6QnWDwkWtXz/OtH9Mgf/qc0Cc+LypeRAUBLx0BHVTGjInGVVjV7ls2bP99mVVZISs+3rJwcy5AfjiDyDimJIyXYNKUpDb4faYpVp4aNkDZZP1m4EbHEbXN1gx727JkB18FeQHw3WRIvFhRMkAFo+ho3BBryxr3Hxm/djMo1AGVKmpBH+QqzK/SpAHF7W5s1tZy2ekno9afqrK6uzlr1+3RLi7W2tVpne4d1dXYN6YoBPwDP04BqhDCJR//9Pt5cgvjGk6f7EKbu+O/pxel9Ir1Hh+42U5JrriR9VAmFkvzZtrG0tMyP2vEjdlC76FkO2zVmZtm0Kb52UWUfRgFORJymNI2gNPh+XCgBlAAmgdAnDtmZ6ncCnxcQT8+FzV2HwmDizp8ARP5GNOL+opSSFny6zlQxcT8gCRKpvE+SOlYbDfUNdkpAjI64panFmpubrKO93Xq6e3zXN3TYDPF7enp9UyKXRJOw/TqULW5GS5fSktzx3svD88J9ANmp06e5uoUVZZiDZWVlWo7uAV22bCwX0FbMAHArLA/pNjvbgTlDIwS0wKzycxtiRUQKCPeSZZSmW5rS4PsxJqTg1MqNgDUaOVik0ngDh+IOK8bCkmkmyZCMAS5UFEjoYSWZOdieQj/c1OQScWNDoyTmVmtpbnE9dp+vHOtziRp1CvpX8nY5KWZTGk56mJ4x3Sf30DtnCWxzcnL85AckWk5/YE/cispK30GMfYKRitV/2BSyoHA8za6KIEth28c04KbpSigNvmm68ZTCct5BpICW3wJvjmroWnUNCGeTdO0TSnf191tnV4+dEei2tZ52idj96ePzu5tUUsAKg0M18woKJOGyPHmq5WVmWI6A2NPguhsmEbkKaXHolJMgSbYftcM9f+Qt+ZOmNF0xpcE3TTeXHNHOBzD/qef+1LkzYVFduDunF2ES7JydOyOpVxLwcDiJ3wtI7/AiYGUCcZKkXjch05sh2+NISXp45qA8VpBpStM1UBp80zRxKWHNIQbVjeOiXIKPDtBYfFwJ4d1V3LohitTPk2CHI0hTmq4TpcE3TR89GsGyQz+vAC/TIJumm01p8E1TmtKUpptATDanKU1pSlOabjClwTdNaUpTmm4CpcE3TWlKU5puAqXBN01pSlOabgKlwTdNaUpTmm4CpcE3TWlKU5puAqXBN01pSlOabgKlwTdNaUpTmm4CpcE3TWlKU5puAqXBN01pSlOabgKlwTdNaUpTmm4CpcE3TWlKU5puAqXBN01pSlOabgKlwTdNaUpTmm4CpcE3TWlKU5puAqXBN01pSlOabjiZ/f8BVH1N3Ez3dt4AAAAASUVORK5CYII=;" vertex="1" parent="1">
          <mxGeometry x="330.00000000000006" y="5" width="88.74" height="90" as="geometry" />
        </mxCell>
        <mxCell id="w4IspjLPt86XrDp9S-HF-9" value="" style="html=1;shadow=0;dashed=0;align=center;verticalAlign=middle;shape=mxgraph.arrows2.arrow;dy=0.67;dx=20;notch=0;" vertex="1" parent="1">
          <mxGeometry x="180" y="20" width="100" height="60" as="geometry" />
        </mxCell>
        <mxCell id="w4IspjLPt86XrDp9S-HF-12" value="" style="html=1;shadow=0;dashed=0;align=center;verticalAlign=middle;shape=mxgraph.arrows2.arrow;dy=0.67;dx=20;notch=0;" vertex="1" parent="1">
          <mxGeometry x="450" y="25" width="100" height="60" as="geometry" />
        </mxCell>
        <mxCell id="w4IspjLPt86XrDp9S-HF-13" value="" style="html=1;shadow=0;dashed=0;align=center;verticalAlign=middle;shape=mxgraph.arrows2.arrow;dy=0.6;dx=40;direction=south;notch=0;" vertex="1" parent="1">
          <mxGeometry x="590" y="110" width="70" height="100" as="geometry" />
        </mxCell>
        <mxCell id="w4IspjLPt86XrDp9S-HF-16" value="" style="html=1;shadow=0;dashed=0;align=center;verticalAlign=middle;shape=mxgraph.arrows2.arrow;dy=0.6;dx=40;flipH=1;notch=0;" vertex="1" parent="1">
          <mxGeometry x="440" y="258" width="100" height="70" as="geometry" />
        </mxCell>
        <mxCell id="w4IspjLPt86XrDp9S-HF-17" value="&lt;h1&gt;Heading&lt;/h1&gt;&lt;p&gt;Lorem ipsum dolor sit amet, consectetur adipisicing elit, sed do eiusmod tempor incididunt ut labore et dolore magna aliqua.&lt;/p&gt;" style="text;html=1;strokeColor=none;fillColor=none;spacing=5;spacingTop=-20;whiteSpace=wrap;overflow=hidden;rounded=0;" vertex="1" parent="1">
          <mxGeometry x="335.26" y="390" width="190" height="120" as="geometry" />
        </mxCell>
        <mxCell id="w4IspjLPt86XrDp9S-HF-18" value="" style="verticalLabelPosition=bottom;html=1;verticalAlign=top;align=center;strokeColor=none;fillColor=#00BEF2;shape=mxgraph.azure.user;" vertex="1" parent="1">
          <mxGeometry x="10" y="120" width="47.5" height="50" as="geometry" />
        </mxCell>
        <mxCell id="w4IspjLPt86XrDp9S-HF-19" value="" style="verticalLabelPosition=bottom;html=1;verticalAlign=top;align=center;strokeColor=none;fillColor=#00BEF2;shape=mxgraph.azure.user;" vertex="1" parent="1">
          <mxGeometry x="-30" y="10" width="47.5" height="50" as="geometry" />
        </mxCell>
        <mxCell id="w4IspjLPt86XrDp9S-HF-20" value="" style="verticalLabelPosition=bottom;html=1;verticalAlign=top;align=center;strokeColor=none;fillColor=#00BEF2;shape=mxgraph.azure.user;" vertex="1" parent="1">
          <mxGeometry x="50" y="-80" width="47.5" height="50" as="geometry" />
        </mxCell>
        <mxCell id="w4IspjLPt86XrDp9S-HF-23" value="" style="endArrow=classic;html=1;rounded=0;" edge="1" parent="1">
          <mxGeometry width="50" height="50" relative="1" as="geometry">
            <mxPoint x="50" y="130" as="sourcePoint" />
            <mxPoint x="100" y="80" as="targetPoint" />
          </mxGeometry>
        </mxCell>
      </root>
    </mxGraphModel>
  </diagram>
</mxfile>
